%TF.GenerationSoftware,KiCad,Pcbnew,7.0.9-7.0.9~ubuntu22.04.1*%
%TF.CreationDate,2025-04-08T09:34:51+03:00*%
%TF.ProjectId,PICO2-BB48_Rev_A,5049434f-322d-4424-9234-385f5265765f,A*%
%TF.SameCoordinates,PX8321560PY7f50c60*%
%TF.FileFunction,Paste,Top*%
%TF.FilePolarity,Positive*%
%FSLAX46Y46*%
G04 Gerber Fmt 4.6, Leading zero omitted, Abs format (unit mm)*
G04 Created by KiCad (PCBNEW 7.0.9-7.0.9~ubuntu22.04.1) date 2025-04-08 09:34:51*
%MOMM*%
%LPD*%
G01*
G04 APERTURE LIST*
%ADD10C,1.000000*%
%ADD11R,0.800000X0.800000*%
%ADD12R,1.700000X2.000000*%
%ADD13R,0.550000X0.500000*%
%ADD14R,1.000000X1.400000*%
%ADD15R,0.500000X0.550000*%
%ADD16R,1.200000X3.100000*%
%ADD17R,0.600000X1.550000*%
%ADD18R,2.100000X3.200000*%
%ADD19R,2.100000X3.000000*%
%ADD20R,1.100000X2.200000*%
%ADD21R,1.100000X2.000000*%
%ADD22R,0.280000X1.130000*%
%ADD23R,0.230000X1.130000*%
%ADD24R,2.000000X1.100000*%
%ADD25R,1.400000X1.200000*%
%ADD26R,1.016000X1.016000*%
%ADD27R,0.211000X0.791000*%
%ADD28R,0.791000X0.211000*%
%ADD29R,1.700000X0.900000*%
%ADD30R,1.000000X1.000000*%
%ADD31R,0.230000X0.750000*%
%ADD32R,0.600000X2.200000*%
G04 APERTURE END LIST*
D10*
%TO.C,FID1*%
X4105000Y1420000D03*
%TD*%
D11*
%TO.C,LED1*%
X12000000Y48238000D03*
X12000000Y49762000D03*
%TD*%
D12*
%TO.C,D1*%
X14011000Y54292000D03*
X14011000Y59292000D03*
%TD*%
D13*
%TO.C,R18*%
X14392000Y5230000D03*
X14392000Y4214000D03*
%TD*%
%TO.C,R17*%
X13503000Y5230000D03*
X13503000Y4214000D03*
%TD*%
D14*
%TO.C,RST1*%
X6075000Y19075000D03*
X3925000Y19075000D03*
X6075000Y14925000D03*
X3925000Y14925000D03*
%TD*%
D15*
%TO.C,R5*%
X6137000Y58570000D03*
X7153000Y58570000D03*
%TD*%
%TO.C,R12*%
X11979000Y58570000D03*
X10963000Y58570000D03*
%TD*%
D16*
%TO.C,pUEXT1*%
X3350000Y11350000D03*
X14950000Y11350000D03*
D17*
X4650000Y9575000D03*
X5650000Y9575000D03*
X6650000Y9575000D03*
X7650000Y9575000D03*
X8650000Y9575000D03*
X9650000Y9575000D03*
X10650000Y9575000D03*
X11650000Y9575000D03*
X12650000Y9575000D03*
X13650000Y9575000D03*
%TD*%
D14*
%TO.C,BOOT1*%
X14075000Y19075000D03*
X11925000Y19075000D03*
X14075000Y14925000D03*
X11925000Y14925000D03*
%TD*%
D13*
%TO.C,R15*%
X12106000Y50950000D03*
X12106000Y51966000D03*
%TD*%
D18*
%TO.C,USB-C1*%
X4222400Y62470000D03*
X14077600Y62470000D03*
D19*
X4222400Y66650000D03*
X14077600Y66650000D03*
D20*
X4222400Y62470000D03*
X14077600Y62470000D03*
D21*
X4222400Y66650000D03*
X14077600Y66650000D03*
D22*
X12475000Y61568000D03*
X11675000Y61568000D03*
D23*
X10400000Y61568000D03*
X9400000Y61568000D03*
X8900000Y61568000D03*
X7900000Y61568000D03*
D22*
X6625000Y61568000D03*
X5825000Y61568000D03*
X6075000Y61568000D03*
X6875000Y61568000D03*
D23*
X7400000Y61568000D03*
X8400000Y61568000D03*
X9900000Y61568000D03*
X10900000Y61568000D03*
D22*
X11425000Y61568000D03*
X12225000Y61568000D03*
%TD*%
D15*
%TO.C,R13*%
X5248000Y57173000D03*
X4232000Y57173000D03*
%TD*%
D13*
%TO.C,C14*%
X13503000Y43965000D03*
X13503000Y42949000D03*
%TD*%
D24*
%TO.C,L1*%
X11979000Y44665000D03*
X11979000Y43265000D03*
%TD*%
D15*
%TO.C,R2*%
X6899000Y21105000D03*
X5883000Y21105000D03*
%TD*%
D25*
%TO.C,Q1*%
X10412000Y26477000D03*
X8212000Y24877000D03*
X10412000Y24877000D03*
X8212000Y26477000D03*
%TD*%
D15*
%TO.C,C21*%
X9058000Y27963000D03*
X8042000Y27963000D03*
%TD*%
D13*
%TO.C,FB1*%
X15281000Y43965000D03*
X15281000Y42949000D03*
%TD*%
D26*
%TO.C,C22*%
X11598000Y55522000D03*
X11598000Y57300000D03*
%TD*%
D15*
%TO.C,C2*%
X13249000Y28852000D03*
X14265000Y28852000D03*
%TD*%
D27*
%TO.C,U3*%
X5350000Y30103500D03*
X5750000Y30103500D03*
X6150000Y30103500D03*
X6550000Y30103500D03*
X6950000Y30103500D03*
X7350000Y30103500D03*
X7750000Y30103500D03*
X8150000Y30103500D03*
X8550000Y30103500D03*
X8950000Y30103500D03*
X9350000Y30103500D03*
X9750000Y30103500D03*
X10150000Y30103500D03*
X10550000Y30103500D03*
X10950000Y30103500D03*
X11350000Y30103500D03*
X11750000Y30103500D03*
X12150000Y30103500D03*
X12550000Y30103500D03*
X12950000Y30103500D03*
D28*
X4253500Y31200000D03*
X14046500Y31200000D03*
X4253500Y31600000D03*
X14046500Y31600000D03*
X4253500Y32000000D03*
X14046500Y32000000D03*
X4253500Y32400000D03*
X14046500Y32400000D03*
X4253500Y32800000D03*
X14046500Y32800000D03*
X4253500Y33200000D03*
X14046500Y33200000D03*
X4253500Y33600000D03*
X14046500Y33600000D03*
D29*
X9150000Y33750000D03*
D28*
X4253500Y34000000D03*
X14046500Y34000000D03*
X4253500Y34400000D03*
X14046500Y34400000D03*
X4253500Y34800000D03*
X14046500Y34800000D03*
D30*
X7950000Y35000000D03*
X10350000Y35000000D03*
D28*
X4253500Y35200000D03*
X14046500Y35200000D03*
X4253500Y35600000D03*
X14046500Y35600000D03*
X4253500Y36000000D03*
X14046500Y36000000D03*
D29*
X9150000Y36250000D03*
D28*
X4253500Y36400000D03*
X14046500Y36400000D03*
X4253500Y36800000D03*
X14046500Y36800000D03*
X4253500Y37200000D03*
X14046500Y37200000D03*
X4253500Y37600000D03*
X14046500Y37600000D03*
X4253500Y38000000D03*
X14046500Y38000000D03*
X4253500Y38400000D03*
X14046500Y38400000D03*
X4253500Y38800000D03*
X14046500Y38800000D03*
D27*
X5350000Y39896500D03*
X5750000Y39896500D03*
X6150000Y39896500D03*
X6550000Y39896500D03*
X6950000Y39896500D03*
X7350000Y39896500D03*
X7750000Y39896500D03*
X8150000Y39896500D03*
X8550000Y39896500D03*
X8950000Y39896500D03*
X9350000Y39896500D03*
X9750000Y39896500D03*
X10150000Y39896500D03*
X10550000Y39896500D03*
X10950000Y39896500D03*
X11350000Y39896500D03*
X11750000Y39896500D03*
X12150000Y39896500D03*
X12550000Y39896500D03*
X12950000Y39896500D03*
%TD*%
D21*
%TO.C,L2*%
X7977000Y54125000D03*
X9377000Y54125000D03*
%TD*%
D31*
%TO.C,U2*%
X9685000Y57567000D03*
X9185000Y57567000D03*
X8685000Y57567000D03*
X9685000Y56017000D03*
X9185000Y56017000D03*
X8685000Y56017000D03*
%TD*%
D13*
%TO.C,R3*%
X14392000Y43965000D03*
X14392000Y42949000D03*
%TD*%
%TO.C,C20*%
X11979000Y26820000D03*
X11979000Y25804000D03*
%TD*%
D15*
%TO.C,C18*%
X14138000Y41806000D03*
X13122000Y41806000D03*
%TD*%
D26*
%TO.C,C24*%
X6264000Y54125000D03*
X6264000Y55903000D03*
%TD*%
D15*
%TO.C,R11*%
X11090000Y21105000D03*
X12106000Y21105000D03*
%TD*%
D13*
%TO.C,R1*%
X4232000Y48029000D03*
X4232000Y47013000D03*
%TD*%
%TO.C,C1*%
X4232000Y50188000D03*
X4232000Y51204000D03*
%TD*%
D32*
%TO.C,U1*%
X5502000Y44540000D03*
X6772000Y44540000D03*
X8042000Y44540000D03*
X9312000Y44540000D03*
X9312000Y51010000D03*
X8042000Y51010000D03*
X6772000Y51010000D03*
X5502000Y51010000D03*
%TD*%
D15*
%TO.C,R9*%
X11090000Y27963000D03*
X10074000Y27963000D03*
%TD*%
D26*
%TO.C,C25*%
X4613000Y54125000D03*
X4613000Y55903000D03*
%TD*%
D15*
%TO.C,R14*%
X6137000Y57173000D03*
X7153000Y57173000D03*
%TD*%
D16*
%TO.C,QWST1*%
X6350000Y4350000D03*
X11950000Y4350000D03*
D17*
X7650000Y2575000D03*
X8650000Y2575000D03*
X9650000Y2575000D03*
X10650000Y2575000D03*
%TD*%
D13*
%TO.C,C19*%
X15281000Y42060000D03*
X15281000Y41044000D03*
%TD*%
D15*
%TO.C,C6*%
X5756000Y27074000D03*
X6772000Y27074000D03*
%TD*%
%TO.C,C5*%
X5756000Y27963000D03*
X6772000Y27963000D03*
%TD*%
M02*
