%TF.GenerationSoftware,KiCad,Pcbnew,7.0.9-7.0.9~ubuntu22.04.1*%
%TF.CreationDate,2025-04-08T09:34:51+03:00*%
%TF.ProjectId,PICO2-BB48_Rev_A,5049434f-322d-4424-9234-385f5265765f,A*%
%TF.SameCoordinates,PX8321560PY7f50c60*%
%TF.FileFunction,Copper,L3,Inr*%
%TF.FilePolarity,Positive*%
%FSLAX46Y46*%
G04 Gerber Fmt 4.6, Leading zero omitted, Abs format (unit mm)*
G04 Created by KiCad (PCBNEW 7.0.9-7.0.9~ubuntu22.04.1) date 2025-04-08 09:34:51*
%MOMM*%
%LPD*%
G01*
G04 APERTURE LIST*
%ADD10C,0.222250*%
%TA.AperFunction,NonConductor*%
%ADD11C,0.222250*%
%TD*%
%TA.AperFunction,ComponentPad*%
%ADD12O,1.200000X2.200000*%
%TD*%
%TA.AperFunction,ComponentPad*%
%ADD13O,1.300000X2.000000*%
%TD*%
%TA.AperFunction,ComponentPad*%
%ADD14R,1.778000X1.778000*%
%TD*%
%TA.AperFunction,ComponentPad*%
%ADD15C,1.778000*%
%TD*%
%TA.AperFunction,HeatsinkPad*%
%ADD16C,1.000000*%
%TD*%
%TA.AperFunction,HeatsinkPad*%
%ADD17C,1.800000*%
%TD*%
%TA.AperFunction,ViaPad*%
%ADD18C,0.800000*%
%TD*%
%TA.AperFunction,ViaPad*%
%ADD19C,0.700000*%
%TD*%
%TA.AperFunction,ViaPad*%
%ADD20C,1.000000*%
%TD*%
%TA.AperFunction,Conductor*%
%ADD21C,1.016000*%
%TD*%
%TA.AperFunction,Conductor*%
%ADD22C,0.508000*%
%TD*%
%TA.AperFunction,Conductor*%
%ADD23C,0.762000*%
%TD*%
%TA.AperFunction,Conductor*%
%ADD24C,0.127000*%
%TD*%
G04 APERTURE END LIST*
D10*
D11*
X10182287Y67798667D02*
X10182287Y68349001D01*
X10182287Y68349001D02*
X9843621Y68052667D01*
X9843621Y68052667D02*
X9843621Y68179667D01*
X9843621Y68179667D02*
X9801287Y68264334D01*
X9801287Y68264334D02*
X9758954Y68306667D01*
X9758954Y68306667D02*
X9674287Y68349001D01*
X9674287Y68349001D02*
X9462621Y68349001D01*
X9462621Y68349001D02*
X9377954Y68306667D01*
X9377954Y68306667D02*
X9335621Y68264334D01*
X9335621Y68264334D02*
X9293287Y68179667D01*
X9293287Y68179667D02*
X9293287Y67925667D01*
X9293287Y67925667D02*
X9335621Y67841001D01*
X9335621Y67841001D02*
X9377954Y67798667D01*
D12*
%TO.N,GND*%
%TO.C,USB-C1*%
X4830000Y62470000D03*
X13470000Y62470000D03*
D13*
X4830000Y66650000D03*
X13470000Y66650000D03*
%TD*%
D14*
%TO.N,/SWDIO*%
%TO.C,SWD1*%
X14265000Y26940000D03*
D15*
%TO.N,/SWCLK*%
X14265000Y24400000D03*
%TO.N,GND*%
X14265000Y21860000D03*
%TD*%
D16*
%TO.N,GND*%
%TO.C,U3*%
X7950000Y33730000D03*
X10350000Y33800000D03*
D17*
X9150000Y35000000D03*
D16*
X7950000Y36200000D03*
X10350000Y36200000D03*
%TD*%
D14*
%TO.N,VBUS*%
%TO.C,EXT2*%
X16805000Y67587000D03*
D15*
%TO.N,VSYS*%
X16805000Y65047000D03*
%TO.N,GND*%
X16805000Y62507000D03*
%TO.N,/GPIO24\u005CSPI1_RX\u005CSD_DAT0*%
X16805000Y59967000D03*
%TO.N,/GPIO25\u005CUser_Led*%
X16805000Y57427000D03*
%TO.N,/GPIO26*%
X16805000Y54887000D03*
%TO.N,/GPIO27*%
X16805000Y52347000D03*
%TO.N,/GPIO28*%
X16805000Y49807000D03*
%TO.N,/GPIO29*%
X16805000Y47267000D03*
%TO.N,/GPIO30*%
X16805000Y44727000D03*
%TO.N,/GPIO31*%
X16805000Y42187000D03*
%TO.N,/GPIO32*%
X16805000Y39647000D03*
%TO.N,/GPIO33*%
X16805000Y37107000D03*
%TO.N,/GPIO34*%
X16805000Y34567000D03*
%TO.N,/GPIO35*%
X16805000Y32027000D03*
%TO.N,/GPIO36*%
X16805000Y29487000D03*
%TO.N,/GPIO37*%
X16805000Y26947000D03*
%TO.N,/GPIO38*%
X16805000Y24407000D03*
%TO.N,/GPIO39*%
X16805000Y21867000D03*
%TO.N,/GPIO40*%
X16805000Y19327000D03*
%TO.N,/GPIO41*%
X16805000Y16787000D03*
%TO.N,/GPIO42*%
X16805000Y14247000D03*
%TO.N,/GPIO43*%
X16805000Y11707000D03*
%TO.N,/GPIO44*%
X16805000Y9167000D03*
%TO.N,/GPIO45*%
X16805000Y6627000D03*
%TO.N,/GPIO46*%
X16805000Y4087000D03*
%TO.N,/GPIO47*%
X16805000Y1547000D03*
%TD*%
D14*
%TO.N,+3.3V*%
%TO.C,EXT1*%
X1565000Y67587000D03*
D15*
%TO.N,GND*%
X1565000Y65047000D03*
%TO.N,/3V3_EN*%
X1565000Y62507000D03*
%TO.N,/GPIO0\u005CUART0_TX*%
X1565000Y59967000D03*
%TO.N,/GPIO1\u005CUART0_RX*%
X1565000Y57427000D03*
%TO.N,/GPIO2\u005CI2C1_SDA*%
X1565000Y54887000D03*
%TO.N,/GPIO3\u005CI2C1_SCL*%
X1565000Y52347000D03*
%TO.N,/GPIO4\u005CSPI0_RX(MISO)*%
X1565000Y49807000D03*
%TO.N,/GPIO5\u005CSPI0_CSn(CS#)*%
X1565000Y47267000D03*
%TO.N,/GPIO6\u005CSPI0_SCK(SCK)*%
X1565000Y44727000D03*
%TO.N,/GPIO7\u005CSPI0_TX(MOSI)*%
X1565000Y42187000D03*
%TO.N,/GPIO8\u005CQMI_CS1n*%
X1565000Y39647000D03*
%TO.N,/GPIO9\u005CSPI1_CSn*%
X1565000Y37107000D03*
%TO.N,/GPIO10\u005CSPI1_SCK\u005CSD_CLK*%
X1565000Y34567000D03*
%TO.N,/GPIO11\u005CSPI1_TX\u005CSD_CMD*%
X1565000Y32027000D03*
%TO.N,/GPIO12*%
X1565000Y29487000D03*
%TO.N,/GPIO13*%
X1565000Y26947000D03*
%TO.N,/GPIO14*%
X1565000Y24407000D03*
%TO.N,/GPIO15*%
X1565000Y21867000D03*
%TO.N,/GPIO16*%
X1565000Y19327000D03*
%TO.N,/GPIO17*%
X1565000Y16787000D03*
%TO.N,/GPIO18*%
X1565000Y14247000D03*
%TO.N,/GPIO19*%
X1565000Y11707000D03*
%TO.N,/GPIO20*%
X1565000Y9167000D03*
%TO.N,/GPIO21*%
X1565000Y6627000D03*
%TO.N,/GPIO22*%
X1565000Y4087000D03*
%TO.N,/GPIO23*%
X1565000Y1547000D03*
%TD*%
D18*
%TO.N,GND*%
X12995000Y57046000D03*
D19*
X9058000Y66825000D03*
X9058000Y13866000D03*
X9439000Y6246000D03*
D18*
X10582000Y57681000D03*
D19*
X9693000Y58976400D03*
D20*
X7534000Y4087000D03*
D19*
X6867000Y26312838D03*
D20*
X10836000Y11834000D03*
X14646000Y9167000D03*
D19*
X9947000Y28979000D03*
D20*
X11344000Y47140000D03*
D19*
X10836000Y65047000D03*
X5629000Y35075000D03*
X11598000Y25169000D03*
X12106000Y52855000D03*
D18*
X4867000Y49299000D03*
D19*
X5629000Y36599000D03*
D20*
X11979000Y15898000D03*
D18*
X12995000Y56030000D03*
D19*
X7407000Y13866000D03*
X12360000Y785000D03*
X14849200Y28471000D03*
X3901800Y3858400D03*
D18*
X7407000Y56030000D03*
D20*
X11344000Y45997000D03*
D19*
X6137000Y785000D03*
X14773000Y3325000D03*
D18*
X8042000Y56792000D03*
D20*
X5248000Y12342000D03*
D19*
X4613000Y44092000D03*
X7407000Y65047000D03*
D18*
X10582000Y56665000D03*
D19*
X15916000Y41094800D03*
D18*
X6137000Y46886000D03*
X9312000Y46124000D03*
D19*
X9820000Y23899000D03*
D20*
X13369793Y40923207D03*
X5375000Y7262000D03*
D18*
X6645000Y52855000D03*
D19*
%TO.N,/USB_D-*%
X8550000Y60348000D03*
%TO.N,/USB_D+*%
X9446930Y60347588D03*
D20*
%TO.N,+3.3V*%
X12233000Y38377000D03*
X11090000Y38377000D03*
D19*
X12074000Y35837000D03*
X5146400Y37665800D03*
X5121000Y27074000D03*
X14519000Y16152000D03*
X6772000Y41425000D03*
D20*
X7153000Y19581000D03*
X4359000Y8024000D03*
D19*
X5121000Y27963000D03*
D18*
X14011000Y47013000D03*
D19*
X5171800Y34287600D03*
X13249000Y5865000D03*
D20*
X4613000Y51966000D03*
X8931000Y4087000D03*
D19*
X12074000Y35075000D03*
X2657200Y17828400D03*
D20*
X4613000Y53109000D03*
D19*
%TO.N,/+1V1*%
X9693000Y30941000D03*
D20*
X13503000Y44727000D03*
D19*
X11598000Y36599000D03*
X5248000Y35837000D03*
D20*
X13503000Y45870000D03*
D19*
%TO.N,/RUN*%
X10582000Y23264000D03*
X5121000Y24058000D03*
%TO.N,/GPIO25\u005CUser_Led*%
X10074000Y32408000D03*
%TO.N,/GPIO29*%
X12468200Y32103200D03*
%TO.N,/GPIO7\u005CSPI0_TX(MOSI)*%
X9566000Y21486000D03*
%TO.N,/GPIO5\u005CSPI0_CSn(CS#)*%
X8677000Y23010000D03*
%TO.N,/GPIO4\u005CSPI0_RX(MISO)*%
X4137000Y39393000D03*
X7788000Y23010000D03*
%TO.N,/GPIO0\u005CUART0_TX*%
X5502000Y41933000D03*
X5121000Y26058000D03*
%TO.N,/GPIO1\u005CUART0_RX*%
X5502000Y41076000D03*
X5121000Y25042000D03*
%TO.N,/GPIO18*%
X6137000Y31900000D03*
%TO.N,/GPIO24\u005CSPI1_RX\u005CSD_DAT0*%
X9185000Y32567000D03*
%TO.N,/GPIO20*%
X4790800Y30757000D03*
%TO.N,/GPIO19*%
X5248000Y31519000D03*
%TO.N,/GPIO21*%
X4790800Y29911940D03*
%TO.N,/GPIO23*%
X4772000Y28820000D03*
%TO.N,/GPIO22*%
X5984600Y31011000D03*
%TO.N,/GPIO26*%
X10963000Y32133613D03*
%TO.N,/GPIO27*%
X10531200Y31163400D03*
%TO.N,/GPIO28*%
X11344000Y30960200D03*
%TO.N,/USB_CC1*%
X10099400Y62710200D03*
%TO.N,/D-*%
X10836000Y41272600D03*
%TO.N,/D+*%
X9921600Y41272600D03*
D20*
%TO.N,VSYS*%
X14265000Y57427000D03*
X14265000Y56284000D03*
D19*
%TO.N,/GPIO31*%
X13630000Y29995000D03*
%TO.N,/GPIO30*%
X12461600Y31188800D03*
%TO.N,/GPIO9\u005CSPI1_CSn*%
X5121000Y21994000D03*
X5375000Y20343000D03*
%TO.N,/GPIO8\u005CQMI_CS1n*%
X6924400Y38732600D03*
X11217000Y52474000D03*
%TO.N,/GPIO3\u005CI2C1_SCL*%
X4130400Y42034600D03*
X6391000Y25550000D03*
%TO.N,/GPIO2\u005CI2C1_SDA*%
X6111600Y38986600D03*
X6391000Y24534000D03*
%TO.N,/GPIO17*%
X5476600Y32687400D03*
%TO.N,/GPIO16*%
X5603600Y33525600D03*
%TO.N,/GPIO6\u005CSPI0_SCK(SCK)*%
X9439000Y22451200D03*
%TO.N,/GPIO47*%
X15535000Y39012000D03*
%TO.N,/GPIO46*%
X17440000Y38377000D03*
%TO.N,/GPIO45*%
X15611200Y37818200D03*
%TO.N,/QSPI_CSn*%
X7788000Y38885000D03*
X11090000Y22502000D03*
%TO.N,/GPIO44*%
X12360000Y37361000D03*
%TO.N,/QSPI_CLK*%
X9820000Y49172000D03*
%TO.N,/GPIO40*%
X17344500Y35837000D03*
%TO.N,/QSPI_SD0*%
X8804000Y48156000D03*
%TO.N,/QSPI_SD1*%
X6772000Y46124000D03*
%TO.N,/GPIO41*%
X15157227Y35813150D03*
%TO.N,/GPIO42*%
X15964846Y36030553D03*
%TO.N,/QSPI_SD2*%
X7915000Y46124000D03*
%TO.N,/QSPI_SD3*%
X10709000Y50696000D03*
%TO.N,/GPIO43*%
X15433400Y36929200D03*
%TO.N,/GPIO35*%
X15172800Y32009315D03*
%TO.N,/GPIO32*%
X13249000Y30757000D03*
%TO.N,/GPIO36*%
X14874600Y32789000D03*
%TO.N,/GPIO37*%
X15636600Y33195400D03*
%TO.N,/GPIO38*%
X15137434Y33904076D03*
%TO.N,/GPIO39*%
X15433400Y34694000D03*
%TD*%
D21*
%TO.N,+3.3V*%
X15027000Y45997000D02*
X14074500Y46949500D01*
D22*
X6772000Y41425000D02*
X6899000Y41552000D01*
D21*
X3114400Y38351600D02*
X3114400Y42237800D01*
X3597000Y27074000D02*
X3597000Y8786000D01*
X14544400Y41958400D02*
X15027000Y42441000D01*
D22*
X6899000Y41552000D02*
X7280000Y41552000D01*
D21*
X13249000Y6246000D02*
X10709000Y8786000D01*
D23*
X5146400Y39291400D02*
X5146400Y37665800D01*
D21*
X5121000Y8786000D02*
X4359000Y8024000D01*
D23*
X7280000Y41425000D02*
X5146400Y39291400D01*
D22*
X14011000Y47013000D02*
X14074500Y46949500D01*
D21*
X14544400Y40152228D02*
X14544400Y41958400D01*
X14074500Y46949500D02*
X14074500Y49235500D01*
X7280000Y41552000D02*
X7280000Y43203000D01*
X15027000Y42441000D02*
X15027000Y45997000D01*
X3470000Y50823000D02*
X4613000Y51966000D01*
X12614000Y35964000D02*
X13553800Y36903800D01*
X7280000Y43203000D02*
X3470000Y47013000D01*
X3597000Y37869000D02*
X3114400Y38351600D01*
X12487000Y35964000D02*
X12614000Y35964000D01*
X13553800Y39161628D02*
X14544400Y40152228D01*
X13249000Y5865000D02*
X13249000Y6246000D01*
X13553800Y36903800D02*
X13553800Y39161628D01*
X10709000Y8786000D02*
X5121000Y8786000D01*
X3597000Y27074000D02*
X3597000Y37869000D01*
X3470000Y47013000D02*
X3470000Y50823000D01*
X5121000Y27074000D02*
X3597000Y27074000D01*
D23*
X7280000Y41552000D02*
X7280000Y41425000D01*
D21*
X3597000Y8786000D02*
X4359000Y8024000D01*
%TO.N,/+1V1*%
X7280000Y37361000D02*
X6772000Y36853000D01*
D22*
X5248000Y35837000D02*
X6518000Y35837000D01*
D21*
X10328000Y39647000D02*
X9820000Y39139000D01*
X13503000Y44727000D02*
X13503000Y45870000D01*
D23*
X6899000Y33043000D02*
X9001000Y30941000D01*
D21*
X13503000Y44727000D02*
X13503000Y42822000D01*
D23*
X9001000Y30941000D02*
X9693000Y30941000D01*
X6899000Y35964000D02*
X6899000Y33043000D01*
D21*
X12182200Y41501200D02*
X12182200Y40358200D01*
D22*
X10074000Y37996000D02*
X9820000Y37996000D01*
X6518000Y35837000D02*
X6772000Y36091000D01*
D21*
X13503000Y42822000D02*
X12182200Y41501200D01*
X9820000Y37996000D02*
X9185000Y37361000D01*
D23*
X6772000Y36091000D02*
X6899000Y35964000D01*
D22*
X11471000Y36599000D02*
X10074000Y37996000D01*
D21*
X6772000Y36853000D02*
X6772000Y36091000D01*
X12182200Y40358200D02*
X11471000Y39647000D01*
X9185000Y37361000D02*
X7280000Y37361000D01*
D22*
X11598000Y36599000D02*
X11471000Y36599000D01*
D21*
X9820000Y39139000D02*
X9820000Y37996000D01*
X11471000Y39647000D02*
X10328000Y39647000D01*
D24*
%TO.N,/GPIO31*%
X13757000Y31392000D02*
X14011000Y31138000D01*
X14011000Y30376000D02*
X13630000Y29995000D01*
X14290400Y38656400D02*
X14290400Y36539110D01*
X14011000Y33656210D02*
X13757000Y33402210D01*
X14290400Y36539110D02*
X14011000Y36259710D01*
X14011000Y36259710D02*
X14011000Y33656210D01*
X16043000Y42187000D02*
X15281000Y41425000D01*
X16805000Y42187000D02*
X16043000Y42187000D01*
X15281000Y41425000D02*
X15281000Y39647000D01*
X14011000Y31138000D02*
X14011000Y30376000D01*
X13757000Y33402210D02*
X13757000Y31392000D01*
X15281000Y39647000D02*
X14290400Y38656400D01*
%TO.N,/GPIO8\u005CQMI_CS1n*%
X11725000Y42314000D02*
X12614000Y43203000D01*
X9312000Y42314000D02*
X11725000Y42314000D01*
X6924400Y38732600D02*
X6924400Y39037400D01*
X8804000Y41806000D02*
X9312000Y42314000D01*
X12614000Y43203000D02*
X12614000Y51077000D01*
X6924400Y39037400D02*
X8804000Y40917000D01*
X12614000Y51077000D02*
X11217000Y52474000D01*
X8804000Y40917000D02*
X8804000Y41806000D01*
%TO.N,/GPIO47*%
X14011000Y33297000D02*
X14011000Y31646000D01*
X15408000Y2944000D02*
X16805000Y1547000D01*
X14569800Y36448405D02*
X14265000Y36143605D01*
X15408000Y30249000D02*
X15408000Y2944000D01*
X14011000Y31646000D02*
X15408000Y30249000D01*
X14265000Y33551000D02*
X14011000Y33297000D01*
X14569800Y38046800D02*
X14569800Y36448405D01*
X14265000Y36143605D02*
X14265000Y33551000D01*
X15535000Y39012000D02*
X14569800Y38046800D01*
%TO.N,/GPIO46*%
X17884500Y5166500D02*
X16805000Y4087000D01*
X17440000Y38377000D02*
X17884500Y37932500D01*
X17884500Y37932500D02*
X17884500Y5166500D01*
%TO.N,/GPIO45*%
X14849200Y37310200D02*
X14849200Y36357700D01*
X14849200Y36357700D02*
X14519000Y36027500D01*
X15611200Y37818200D02*
X15357200Y37818200D01*
X15662000Y30503000D02*
X15662000Y7770000D01*
X14265000Y33170000D02*
X14265000Y31900000D01*
X14265000Y31900000D02*
X15662000Y30503000D01*
X14519000Y33424000D02*
X14265000Y33170000D01*
X15662000Y7770000D02*
X16805000Y6627000D01*
X14519000Y36027500D02*
X14519000Y33424000D01*
X15357200Y37818200D02*
X14849200Y37310200D01*
%TD*%
%TA.AperFunction,Conductor*%
%TO.N,+3.3V*%
G36*
X6118694Y68676394D02*
G01*
X6137000Y68632200D01*
X6137000Y67460000D01*
X8838292Y67460000D01*
X8882486Y67441694D01*
X8900792Y67397500D01*
X8882486Y67353306D01*
X8862209Y67339758D01*
X8837766Y67329634D01*
X8780376Y67305862D01*
X8665379Y67217621D01*
X8577138Y67102624D01*
X8521670Y66968709D01*
X8521668Y66968703D01*
X8502750Y66825003D01*
X8502750Y66824998D01*
X8521668Y66681298D01*
X8521669Y66681293D01*
X8521670Y66681291D01*
X8547153Y66619769D01*
X8574623Y66553448D01*
X8577139Y66547375D01*
X8665379Y66432379D01*
X8780375Y66344139D01*
X8914291Y66288670D01*
X8914295Y66288670D01*
X8914297Y66288669D01*
X9057997Y66269750D01*
X9058000Y66269750D01*
X9058003Y66269750D01*
X9201702Y66288669D01*
X9201702Y66288670D01*
X9201709Y66288670D01*
X9335625Y66344139D01*
X9450621Y66432379D01*
X9538861Y66547375D01*
X9594330Y66681291D01*
X9613250Y66825000D01*
X9594330Y66968709D01*
X9538861Y67102625D01*
X9450621Y67217621D01*
X9335625Y67305861D01*
X9253790Y67339758D01*
X9219966Y67373582D01*
X9219965Y67421417D01*
X9253790Y67455242D01*
X9277708Y67460000D01*
X11979000Y67460000D01*
X11979000Y68632200D01*
X11997306Y68676394D01*
X12041500Y68694700D01*
X15704062Y68694700D01*
X15748256Y68676394D01*
X15766562Y68632200D01*
X15756029Y68597477D01*
X15727133Y68554233D01*
X15727132Y68554231D01*
X15715500Y68495749D01*
X15715500Y66678252D01*
X15727132Y66619770D01*
X15727133Y66619768D01*
X15771447Y66553448D01*
X15837767Y66509134D01*
X15837769Y66509133D01*
X15896252Y66497500D01*
X17713748Y66497500D01*
X17772231Y66509133D01*
X17838552Y66553448D01*
X17880233Y66615827D01*
X17920007Y66642403D01*
X17966923Y66633071D01*
X17993499Y66593297D01*
X17994700Y66581104D01*
X17994700Y65294864D01*
X17976394Y65250670D01*
X17932200Y65232364D01*
X17888006Y65250670D01*
X17872086Y65277760D01*
X17853613Y65342681D01*
X17825281Y65442259D01*
X17735280Y65623005D01*
X17613600Y65784136D01*
X17531544Y65858940D01*
X17464388Y65920162D01*
X17464385Y65920164D01*
X17464384Y65920165D01*
X17292713Y66026459D01*
X17292711Y66026460D01*
X17237986Y66047660D01*
X17104433Y66099399D01*
X17104430Y66099400D01*
X17104429Y66099400D01*
X16905961Y66136500D01*
X16905957Y66136500D01*
X16704043Y66136500D01*
X16704038Y66136500D01*
X16505570Y66099400D01*
X16317288Y66026460D01*
X16145611Y65920162D01*
X15996403Y65784139D01*
X15996396Y65784131D01*
X15874720Y65623005D01*
X15784719Y65442260D01*
X15729462Y65248057D01*
X15729460Y65248046D01*
X15710832Y65047005D01*
X15710832Y65046996D01*
X15729460Y64845955D01*
X15729462Y64845944D01*
X15783968Y64654380D01*
X15784719Y64651741D01*
X15874720Y64470995D01*
X15996400Y64309864D01*
X16081205Y64232554D01*
X16145611Y64173839D01*
X16145612Y64173838D01*
X16145616Y64173835D01*
X16317287Y64067541D01*
X16505567Y63994601D01*
X16704043Y63957500D01*
X16704046Y63957500D01*
X16905954Y63957500D01*
X16905957Y63957500D01*
X17104433Y63994601D01*
X17292713Y64067541D01*
X17464384Y64173835D01*
X17613600Y64309864D01*
X17735280Y64470995D01*
X17825281Y64651741D01*
X17872086Y64816241D01*
X17901788Y64853739D01*
X17949304Y64859251D01*
X17986802Y64829549D01*
X17994700Y64799137D01*
X17994700Y62754864D01*
X17976394Y62710670D01*
X17932200Y62692364D01*
X17888006Y62710670D01*
X17872086Y62737760D01*
X17850964Y62811992D01*
X17825281Y62902259D01*
X17735280Y63083005D01*
X17613600Y63244136D01*
X17530898Y63319529D01*
X17464388Y63380162D01*
X17464385Y63380164D01*
X17464384Y63380165D01*
X17292713Y63486459D01*
X17292711Y63486460D01*
X17237986Y63507660D01*
X17104433Y63559399D01*
X17104430Y63559400D01*
X17104429Y63559400D01*
X16905961Y63596500D01*
X16905957Y63596500D01*
X16704043Y63596500D01*
X16704038Y63596500D01*
X16505570Y63559400D01*
X16317288Y63486460D01*
X16145611Y63380162D01*
X15996403Y63244139D01*
X15996396Y63244131D01*
X15874720Y63083005D01*
X15784719Y62902260D01*
X15729462Y62708057D01*
X15729460Y62708046D01*
X15710832Y62507005D01*
X15710832Y62506996D01*
X15729460Y62305955D01*
X15729462Y62305944D01*
X15767042Y62173869D01*
X15784719Y62111741D01*
X15874720Y61930995D01*
X15996400Y61769864D01*
X16081205Y61692554D01*
X16145611Y61633839D01*
X16145612Y61633838D01*
X16145616Y61633835D01*
X16317287Y61527541D01*
X16505567Y61454601D01*
X16704043Y61417500D01*
X16704046Y61417500D01*
X16905954Y61417500D01*
X16905957Y61417500D01*
X17104433Y61454601D01*
X17292713Y61527541D01*
X17464384Y61633835D01*
X17613600Y61769864D01*
X17735280Y61930995D01*
X17825281Y62111741D01*
X17872086Y62276241D01*
X17901788Y62313739D01*
X17949304Y62319251D01*
X17986802Y62289549D01*
X17994700Y62259137D01*
X17994700Y60214864D01*
X17976394Y60170670D01*
X17932200Y60152364D01*
X17888006Y60170670D01*
X17872086Y60197760D01*
X17853613Y60262681D01*
X17825281Y60362259D01*
X17735280Y60543005D01*
X17613600Y60704136D01*
X17476783Y60828862D01*
X17464388Y60840162D01*
X17464385Y60840164D01*
X17464384Y60840165D01*
X17292713Y60946459D01*
X17292711Y60946460D01*
X17237986Y60967660D01*
X17104433Y61019399D01*
X17104430Y61019400D01*
X17104429Y61019400D01*
X16905961Y61056500D01*
X16905957Y61056500D01*
X16704043Y61056500D01*
X16704038Y61056500D01*
X16505570Y61019400D01*
X16317288Y60946460D01*
X16145611Y60840162D01*
X15996403Y60704139D01*
X15996396Y60704131D01*
X15874720Y60543005D01*
X15784719Y60362260D01*
X15729462Y60168057D01*
X15729460Y60168046D01*
X15710832Y59967005D01*
X15710832Y59966996D01*
X15729460Y59765955D01*
X15729462Y59765944D01*
X15784719Y59571741D01*
X15874720Y59390995D01*
X15996400Y59229864D01*
X16081205Y59152554D01*
X16145611Y59093839D01*
X16145612Y59093838D01*
X16145616Y59093835D01*
X16317287Y58987541D01*
X16505567Y58914601D01*
X16704043Y58877500D01*
X16704046Y58877500D01*
X16905954Y58877500D01*
X16905957Y58877500D01*
X17104433Y58914601D01*
X17292713Y58987541D01*
X17464384Y59093835D01*
X17613600Y59229864D01*
X17735280Y59390995D01*
X17825281Y59571741D01*
X17872086Y59736241D01*
X17901788Y59773739D01*
X17949304Y59779251D01*
X17986802Y59749549D01*
X17994700Y59719137D01*
X17994700Y57674864D01*
X17976394Y57630670D01*
X17932200Y57612364D01*
X17888006Y57630670D01*
X17872086Y57657760D01*
X17844437Y57754932D01*
X17825281Y57822259D01*
X17735280Y58003005D01*
X17613600Y58164136D01*
X17501811Y58266046D01*
X17464388Y58300162D01*
X17464385Y58300164D01*
X17464384Y58300165D01*
X17292713Y58406459D01*
X17292711Y58406460D01*
X17237986Y58427660D01*
X17104433Y58479399D01*
X17104430Y58479400D01*
X17104429Y58479400D01*
X16905961Y58516500D01*
X16905957Y58516500D01*
X16704043Y58516500D01*
X16704038Y58516500D01*
X16505570Y58479400D01*
X16317288Y58406460D01*
X16145611Y58300162D01*
X15996403Y58164139D01*
X15996396Y58164131D01*
X15874720Y58003005D01*
X15784719Y57822260D01*
X15729462Y57628057D01*
X15729460Y57628046D01*
X15710832Y57427005D01*
X15710832Y57426996D01*
X15729460Y57225955D01*
X15729462Y57225944D01*
X15767209Y57093282D01*
X15784719Y57031741D01*
X15874720Y56850995D01*
X15996400Y56689864D01*
X16075538Y56617720D01*
X16145611Y56553839D01*
X16145612Y56553838D01*
X16145616Y56553835D01*
X16317287Y56447541D01*
X16505567Y56374601D01*
X16704043Y56337500D01*
X16704046Y56337500D01*
X16905954Y56337500D01*
X16905957Y56337500D01*
X17104433Y56374601D01*
X17292713Y56447541D01*
X17464384Y56553835D01*
X17613600Y56689864D01*
X17735280Y56850995D01*
X17825281Y57031741D01*
X17872086Y57196241D01*
X17901788Y57233739D01*
X17949304Y57239251D01*
X17986802Y57209549D01*
X17994700Y57179137D01*
X17994700Y55134864D01*
X17976394Y55090670D01*
X17932200Y55072364D01*
X17888006Y55090670D01*
X17872086Y55117760D01*
X17853613Y55182681D01*
X17825281Y55282259D01*
X17735280Y55463005D01*
X17613600Y55624136D01*
X17500590Y55727159D01*
X17464388Y55760162D01*
X17464385Y55760164D01*
X17464384Y55760165D01*
X17292713Y55866459D01*
X17292711Y55866460D01*
X17187584Y55907186D01*
X17104433Y55939399D01*
X17104430Y55939400D01*
X17104429Y55939400D01*
X16905961Y55976500D01*
X16905957Y55976500D01*
X16704043Y55976500D01*
X16704038Y55976500D01*
X16505570Y55939400D01*
X16317288Y55866460D01*
X16145611Y55760162D01*
X15996403Y55624139D01*
X15996396Y55624131D01*
X15874720Y55463005D01*
X15784719Y55282260D01*
X15729462Y55088057D01*
X15729460Y55088046D01*
X15710832Y54887005D01*
X15710832Y54886996D01*
X15729460Y54685955D01*
X15729462Y54685944D01*
X15784719Y54491741D01*
X15874720Y54310995D01*
X15996400Y54149864D01*
X16081205Y54072554D01*
X16145611Y54013839D01*
X16145612Y54013838D01*
X16145616Y54013835D01*
X16317287Y53907541D01*
X16505567Y53834601D01*
X16704043Y53797500D01*
X16704046Y53797500D01*
X16905954Y53797500D01*
X16905957Y53797500D01*
X17104433Y53834601D01*
X17292713Y53907541D01*
X17464384Y54013835D01*
X17613600Y54149864D01*
X17735280Y54310995D01*
X17825281Y54491741D01*
X17872086Y54656241D01*
X17901788Y54693739D01*
X17949304Y54699251D01*
X17986802Y54669549D01*
X17994700Y54639137D01*
X17994700Y52594864D01*
X17976394Y52550670D01*
X17932200Y52532364D01*
X17888006Y52550670D01*
X17872086Y52577760D01*
X17834092Y52711291D01*
X17825281Y52742259D01*
X17735280Y52923005D01*
X17613600Y53084136D01*
X17532749Y53157842D01*
X17464388Y53220162D01*
X17464385Y53220164D01*
X17464384Y53220165D01*
X17292713Y53326459D01*
X17292711Y53326460D01*
X17237986Y53347660D01*
X17104433Y53399399D01*
X17104430Y53399400D01*
X17104429Y53399400D01*
X16905961Y53436500D01*
X16905957Y53436500D01*
X16704043Y53436500D01*
X16704038Y53436500D01*
X16505570Y53399400D01*
X16505567Y53399400D01*
X16505567Y53399399D01*
X16466153Y53384130D01*
X16317288Y53326460D01*
X16145611Y53220162D01*
X15996403Y53084139D01*
X15996396Y53084131D01*
X15874720Y52923005D01*
X15784719Y52742260D01*
X15729462Y52548057D01*
X15729460Y52548046D01*
X15710832Y52347005D01*
X15710832Y52346996D01*
X15729460Y52145955D01*
X15729462Y52145944D01*
X15780740Y51965725D01*
X15784719Y51951741D01*
X15874720Y51770995D01*
X15996400Y51609864D01*
X16081205Y51532554D01*
X16145611Y51473839D01*
X16145612Y51473838D01*
X16145616Y51473835D01*
X16317287Y51367541D01*
X16505567Y51294601D01*
X16704043Y51257500D01*
X16704046Y51257500D01*
X16905954Y51257500D01*
X16905957Y51257500D01*
X17104433Y51294601D01*
X17292713Y51367541D01*
X17464384Y51473835D01*
X17613600Y51609864D01*
X17735280Y51770995D01*
X17825281Y51951741D01*
X17872086Y52116241D01*
X17901788Y52153739D01*
X17949304Y52159251D01*
X17986802Y52129549D01*
X17994700Y52099137D01*
X17994700Y50054864D01*
X17976394Y50010670D01*
X17932200Y49992364D01*
X17888006Y50010670D01*
X17872086Y50037760D01*
X17837399Y50159669D01*
X17825281Y50202259D01*
X17735280Y50383005D01*
X17613600Y50544136D01*
X17538992Y50612151D01*
X17464388Y50680162D01*
X17464385Y50680164D01*
X17464384Y50680165D01*
X17292713Y50786459D01*
X17292711Y50786460D01*
X17237986Y50807660D01*
X17104433Y50859399D01*
X17104430Y50859400D01*
X17104429Y50859400D01*
X16905961Y50896500D01*
X16905957Y50896500D01*
X16704043Y50896500D01*
X16704038Y50896500D01*
X16505570Y50859400D01*
X16317288Y50786460D01*
X16145611Y50680162D01*
X15996403Y50544139D01*
X15996396Y50544131D01*
X15874720Y50383005D01*
X15784719Y50202260D01*
X15729462Y50008057D01*
X15729460Y50008046D01*
X15710832Y49807005D01*
X15710832Y49806996D01*
X15729460Y49605955D01*
X15729462Y49605944D01*
X15773940Y49449625D01*
X15784719Y49411741D01*
X15874720Y49230995D01*
X15996400Y49069864D01*
X16077247Y48996162D01*
X16145611Y48933839D01*
X16145612Y48933838D01*
X16145616Y48933835D01*
X16317287Y48827541D01*
X16505567Y48754601D01*
X16704043Y48717500D01*
X16704046Y48717500D01*
X16905954Y48717500D01*
X16905957Y48717500D01*
X17104433Y48754601D01*
X17292713Y48827541D01*
X17464384Y48933835D01*
X17613600Y49069864D01*
X17735280Y49230995D01*
X17825281Y49411741D01*
X17872086Y49576241D01*
X17901788Y49613739D01*
X17949304Y49619251D01*
X17986802Y49589549D01*
X17994700Y49559137D01*
X17994700Y47514864D01*
X17976394Y47470670D01*
X17932200Y47452364D01*
X17888006Y47470670D01*
X17872086Y47497760D01*
X17840739Y47607929D01*
X17825281Y47662259D01*
X17735280Y47843005D01*
X17613600Y48004136D01*
X17538992Y48072151D01*
X17464388Y48140162D01*
X17464385Y48140164D01*
X17464384Y48140165D01*
X17292713Y48246459D01*
X17292711Y48246460D01*
X17237986Y48267660D01*
X17104433Y48319399D01*
X17104430Y48319400D01*
X17104429Y48319400D01*
X16905961Y48356500D01*
X16905957Y48356500D01*
X16704043Y48356500D01*
X16704038Y48356500D01*
X16505570Y48319400D01*
X16317288Y48246460D01*
X16145611Y48140162D01*
X15996403Y48004139D01*
X15996396Y48004131D01*
X15874720Y47843005D01*
X15784719Y47662260D01*
X15729462Y47468057D01*
X15729460Y47468046D01*
X15710832Y47267005D01*
X15710832Y47266996D01*
X15729460Y47065955D01*
X15729462Y47065944D01*
X15780661Y46886002D01*
X15784719Y46871741D01*
X15874720Y46690995D01*
X15996400Y46529864D01*
X16005336Y46521718D01*
X16145611Y46393839D01*
X16145612Y46393838D01*
X16145616Y46393835D01*
X16317287Y46287541D01*
X16505567Y46214601D01*
X16704043Y46177500D01*
X16704046Y46177500D01*
X16905954Y46177500D01*
X16905957Y46177500D01*
X17104433Y46214601D01*
X17292713Y46287541D01*
X17464384Y46393835D01*
X17613600Y46529864D01*
X17735280Y46690995D01*
X17825281Y46871741D01*
X17872086Y47036241D01*
X17901788Y47073739D01*
X17949304Y47079251D01*
X17986802Y47049549D01*
X17994700Y47019137D01*
X17994700Y44974864D01*
X17976394Y44930670D01*
X17932200Y44912364D01*
X17888006Y44930670D01*
X17872086Y44957760D01*
X17853613Y45022681D01*
X17825281Y45122259D01*
X17735280Y45303005D01*
X17613600Y45464136D01*
X17531525Y45538958D01*
X17464388Y45600162D01*
X17464385Y45600164D01*
X17464384Y45600165D01*
X17292713Y45706459D01*
X17292711Y45706460D01*
X17228384Y45731380D01*
X17104433Y45779399D01*
X17104430Y45779400D01*
X17104429Y45779400D01*
X16905961Y45816500D01*
X16905957Y45816500D01*
X16704043Y45816500D01*
X16704038Y45816500D01*
X16505570Y45779400D01*
X16317288Y45706460D01*
X16145611Y45600162D01*
X15996403Y45464139D01*
X15996396Y45464131D01*
X15874720Y45303005D01*
X15784719Y45122260D01*
X15729462Y44928057D01*
X15729460Y44928046D01*
X15710832Y44727005D01*
X15710832Y44726996D01*
X15729460Y44525955D01*
X15729462Y44525944D01*
X15773940Y44369625D01*
X15784719Y44331741D01*
X15874720Y44150995D01*
X15996400Y43989864D01*
X16081205Y43912554D01*
X16145611Y43853839D01*
X16145612Y43853838D01*
X16145616Y43853835D01*
X16317287Y43747541D01*
X16505567Y43674601D01*
X16704043Y43637500D01*
X16704046Y43637500D01*
X16905954Y43637500D01*
X16905957Y43637500D01*
X17104433Y43674601D01*
X17292713Y43747541D01*
X17464384Y43853835D01*
X17613600Y43989864D01*
X17735280Y44150995D01*
X17825281Y44331741D01*
X17872086Y44496241D01*
X17901788Y44533739D01*
X17949304Y44539251D01*
X17986802Y44509549D01*
X17994700Y44479137D01*
X17994700Y42434864D01*
X17976394Y42390670D01*
X17932200Y42372364D01*
X17888006Y42390670D01*
X17872086Y42417760D01*
X17844287Y42515461D01*
X17825281Y42582259D01*
X17735280Y42763005D01*
X17613600Y42924136D01*
X17538992Y42992151D01*
X17464388Y43060162D01*
X17464385Y43060164D01*
X17464384Y43060165D01*
X17292713Y43166459D01*
X17292711Y43166460D01*
X17237986Y43187660D01*
X17104433Y43239399D01*
X17104430Y43239400D01*
X17104429Y43239400D01*
X16905961Y43276500D01*
X16905957Y43276500D01*
X16704043Y43276500D01*
X16704038Y43276500D01*
X16505570Y43239400D01*
X16317288Y43166460D01*
X16145611Y43060162D01*
X15996403Y42924139D01*
X15996396Y42924131D01*
X15874722Y42763008D01*
X15874718Y42763002D01*
X15837630Y42688521D01*
X15833067Y42680801D01*
X15106037Y41630858D01*
X15094851Y41619855D01*
X15095020Y41619686D01*
X15090667Y41615333D01*
X15070787Y41585582D01*
X15070786Y41585580D01*
X15032319Y41528012D01*
X15032316Y41528007D01*
X15011828Y41425001D01*
X15011828Y41425000D01*
X15015799Y41405036D01*
X15017000Y41392843D01*
X15017000Y39782241D01*
X14998694Y39738047D01*
X14126462Y38865816D01*
X14116995Y38858046D01*
X14100068Y38846735D01*
X14080187Y38816982D01*
X14080186Y38816980D01*
X14041719Y38759412D01*
X14041716Y38759407D01*
X14021228Y38656400D01*
X14025199Y38636436D01*
X14026400Y38624243D01*
X14026400Y36674351D01*
X14008094Y36630157D01*
X13847062Y36469126D01*
X13837595Y36461356D01*
X13820668Y36450045D01*
X13800787Y36420292D01*
X13800786Y36420290D01*
X13762319Y36362722D01*
X13762316Y36362717D01*
X13741828Y36259711D01*
X13741828Y36259710D01*
X13745799Y36239746D01*
X13747000Y36227553D01*
X13747000Y33791451D01*
X13728694Y33747257D01*
X13593062Y33611626D01*
X13583595Y33603856D01*
X13566668Y33592545D01*
X13546787Y33562792D01*
X13546786Y33562790D01*
X13508319Y33505222D01*
X13508316Y33505217D01*
X13487828Y33402211D01*
X13487828Y33402210D01*
X13491799Y33382246D01*
X13493000Y33370053D01*
X13493000Y31424158D01*
X13491799Y31411966D01*
X13490143Y31403638D01*
X13487828Y31392000D01*
X13493000Y31365998D01*
X13494063Y31360650D01*
X13494946Y31356212D01*
X13485610Y31309296D01*
X13445835Y31282723D01*
X13409729Y31286280D01*
X13404070Y31288624D01*
X13392709Y31293330D01*
X13392707Y31293331D01*
X13392702Y31293332D01*
X13249003Y31312250D01*
X13248997Y31312250D01*
X13105297Y31293332D01*
X13105284Y31293329D01*
X13083622Y31284356D01*
X13035787Y31284357D01*
X13001964Y31318184D01*
X12999173Y31328598D01*
X12998991Y31328549D01*
X12997931Y31332503D01*
X12997930Y31332509D01*
X12942461Y31466425D01*
X12854221Y31581421D01*
X12854219Y31581423D01*
X12854218Y31581424D01*
X12837979Y31593885D01*
X12814062Y31635312D01*
X12826443Y31681517D01*
X12837973Y31693048D01*
X12860821Y31710579D01*
X12949061Y31825575D01*
X13004530Y31959491D01*
X13004531Y31959498D01*
X13023450Y32103198D01*
X13023450Y32103203D01*
X13004531Y32246903D01*
X13004530Y32246905D01*
X13004530Y32246909D01*
X12949061Y32380825D01*
X12860821Y32495821D01*
X12745825Y32584061D01*
X12744526Y32584599D01*
X12692579Y32606116D01*
X12611909Y32639530D01*
X12611907Y32639531D01*
X12611902Y32639532D01*
X12468203Y32658450D01*
X12468197Y32658450D01*
X12324497Y32639532D01*
X12324491Y32639530D01*
X12190576Y32584062D01*
X12075579Y32495821D01*
X11987338Y32380824D01*
X11931870Y32246909D01*
X11931868Y32246903D01*
X11912950Y32103203D01*
X11912950Y32103198D01*
X11931868Y31959498D01*
X11931869Y31959493D01*
X11931870Y31959491D01*
X11968246Y31871671D01*
X11987181Y31825955D01*
X11987339Y31825575D01*
X12075579Y31710579D01*
X12089718Y31699730D01*
X12091819Y31698118D01*
X12115737Y31656691D01*
X12103357Y31610486D01*
X12091822Y31598950D01*
X12068977Y31581420D01*
X11980739Y31466427D01*
X11980739Y31466426D01*
X11925270Y31332509D01*
X11925268Y31332503D01*
X11919619Y31289596D01*
X11895701Y31248170D01*
X11849495Y31235790D01*
X11808069Y31259708D01*
X11789155Y31284357D01*
X11736621Y31352821D01*
X11621625Y31441061D01*
X11597639Y31450996D01*
X11560390Y31466425D01*
X11487709Y31496530D01*
X11487707Y31496531D01*
X11487702Y31496532D01*
X11344003Y31515450D01*
X11343997Y31515450D01*
X11200297Y31496532D01*
X11200291Y31496530D01*
X11085395Y31448939D01*
X11069446Y31442333D01*
X11021611Y31442334D01*
X10995945Y31462028D01*
X10977746Y31485745D01*
X10965365Y31531950D01*
X10989282Y31573377D01*
X11019172Y31585758D01*
X11106702Y31597282D01*
X11106702Y31597283D01*
X11106709Y31597283D01*
X11240625Y31652752D01*
X11355621Y31740992D01*
X11443861Y31855988D01*
X11499330Y31989904D01*
X11501886Y32009315D01*
X11518250Y32133611D01*
X11518250Y32133616D01*
X11499331Y32277316D01*
X11499330Y32277318D01*
X11499330Y32277322D01*
X11443861Y32411238D01*
X11355621Y32526234D01*
X11240625Y32614474D01*
X11106709Y32669943D01*
X11106707Y32669944D01*
X11106702Y32669945D01*
X10963003Y32688863D01*
X10962997Y32688863D01*
X10819297Y32669945D01*
X10819291Y32669943D01*
X10685374Y32614474D01*
X10685369Y32614471D01*
X10673319Y32605225D01*
X10627113Y32592846D01*
X10585688Y32616766D01*
X10577531Y32630893D01*
X10554861Y32685625D01*
X10466621Y32800621D01*
X10351625Y32888861D01*
X10345973Y32891202D01*
X10269673Y32922806D01*
X10217709Y32944330D01*
X10217707Y32944331D01*
X10217702Y32944332D01*
X10074003Y32963250D01*
X10073997Y32963250D01*
X9930297Y32944332D01*
X9930291Y32944330D01*
X9796376Y32888862D01*
X9742446Y32847481D01*
X9696241Y32835102D01*
X9654815Y32859020D01*
X9631916Y32888862D01*
X9577621Y32959621D01*
X9462625Y33047861D01*
X9458011Y33049772D01*
X9408669Y33070210D01*
X9328709Y33103330D01*
X9328707Y33103331D01*
X9328702Y33103332D01*
X9185003Y33122250D01*
X9184997Y33122250D01*
X9041297Y33103332D01*
X9041291Y33103330D01*
X8907376Y33047862D01*
X8792379Y32959621D01*
X8704138Y32844624D01*
X8648670Y32710709D01*
X8648668Y32710703D01*
X8629750Y32567003D01*
X8629750Y32566998D01*
X8648668Y32423298D01*
X8648669Y32423293D01*
X8648670Y32423291D01*
X8666245Y32380861D01*
X8701900Y32294779D01*
X8704139Y32289375D01*
X8792379Y32174379D01*
X8907375Y32086139D01*
X9041291Y32030670D01*
X9041295Y32030670D01*
X9041297Y32030669D01*
X9184997Y32011750D01*
X9185000Y32011750D01*
X9185003Y32011750D01*
X9328702Y32030669D01*
X9328702Y32030670D01*
X9328709Y32030670D01*
X9462625Y32086139D01*
X9516553Y32127521D01*
X9562754Y32139900D01*
X9604181Y32115985D01*
X9681379Y32015379D01*
X9796375Y31927139D01*
X9930291Y31871670D01*
X9930295Y31871670D01*
X9930297Y31871669D01*
X10073997Y31852750D01*
X10074000Y31852750D01*
X10074003Y31852750D01*
X10217702Y31871669D01*
X10217702Y31871670D01*
X10217709Y31871670D01*
X10351625Y31927139D01*
X10363676Y31936387D01*
X10409879Y31948770D01*
X10451307Y31924854D01*
X10459467Y31910722D01*
X10478155Y31865606D01*
X10482139Y31855988D01*
X10516454Y31811268D01*
X10528834Y31765063D01*
X10504917Y31723636D01*
X10475028Y31711256D01*
X10387497Y31699732D01*
X10387491Y31699730D01*
X10253576Y31644262D01*
X10138576Y31556019D01*
X10068240Y31464356D01*
X10026813Y31440439D01*
X9990187Y31447722D01*
X9990043Y31447372D01*
X9988284Y31448101D01*
X9987412Y31448274D01*
X9986259Y31448940D01*
X9844805Y31507532D01*
X9844803Y31507533D01*
X9844802Y31507533D01*
X9844800Y31507534D01*
X9844794Y31507535D01*
X9731122Y31522500D01*
X9731116Y31522500D01*
X9267753Y31522500D01*
X9223559Y31540806D01*
X7841559Y32922806D01*
X7823253Y32967000D01*
X7841559Y33011194D01*
X7885753Y33029500D01*
X8035054Y33029500D01*
X8035056Y33029500D01*
X8200225Y33070210D01*
X8350852Y33149266D01*
X8478183Y33262071D01*
X8574818Y33402070D01*
X8635140Y33561128D01*
X8638347Y33587541D01*
X8655645Y33729997D01*
X8655645Y33730004D01*
X8635141Y33898865D01*
X8635140Y33898867D01*
X8635140Y33898872D01*
X8631334Y33908908D01*
X8632778Y33956721D01*
X8667608Y33989509D01*
X8712347Y33989352D01*
X8847544Y33936976D01*
X9048024Y33899500D01*
X9048027Y33899500D01*
X9251973Y33899500D01*
X9251976Y33899500D01*
X9452456Y33936976D01*
X9574097Y33984100D01*
X9621918Y33982995D01*
X9654953Y33948398D01*
X9658717Y33918287D01*
X9644355Y33800004D01*
X9644355Y33799997D01*
X9664858Y33631136D01*
X9664859Y33631130D01*
X9725182Y33472069D01*
X9821811Y33332078D01*
X9821816Y33332072D01*
X9821817Y33332071D01*
X9949148Y33219266D01*
X10099775Y33140210D01*
X10264944Y33099500D01*
X10264946Y33099500D01*
X10435054Y33099500D01*
X10435056Y33099500D01*
X10600225Y33140210D01*
X10750852Y33219266D01*
X10878183Y33332071D01*
X10892605Y33352964D01*
X10912196Y33381348D01*
X10974818Y33472070D01*
X11035140Y33631128D01*
X11047145Y33729997D01*
X11055645Y33799997D01*
X11055645Y33800004D01*
X11035141Y33968865D01*
X11035140Y33968871D01*
X11029364Y33984100D01*
X10974818Y34127930D01*
X10948648Y34165844D01*
X10878188Y34267923D01*
X10878181Y34267931D01*
X10750851Y34380735D01*
X10600226Y34459790D01*
X10435059Y34500500D01*
X10435056Y34500500D01*
X10264944Y34500500D01*
X10264938Y34500500D01*
X10242958Y34495082D01*
X10195667Y34502280D01*
X10167318Y34540810D01*
X10172055Y34583626D01*
X10180582Y34600750D01*
X10236397Y34796917D01*
X10236398Y34796925D01*
X10255215Y34999997D01*
X10255215Y35000004D01*
X10236398Y35203076D01*
X10236396Y35203087D01*
X10220800Y35257900D01*
X10180582Y35399250D01*
X10172053Y35416377D01*
X10168742Y35464097D01*
X10200143Y35500183D01*
X10242958Y35504919D01*
X10264944Y35499500D01*
X10264946Y35499500D01*
X10435054Y35499500D01*
X10435056Y35499500D01*
X10600225Y35540210D01*
X10750852Y35619266D01*
X10878183Y35732071D01*
X10974818Y35872070D01*
X11035140Y36031128D01*
X11041282Y36081714D01*
X11055645Y36199997D01*
X11055645Y36203781D01*
X11057357Y36203781D01*
X11068672Y36244432D01*
X11110328Y36267948D01*
X11156411Y36255121D01*
X11162480Y36249698D01*
X11195692Y36215877D01*
X11196999Y36214788D01*
X11202387Y36209180D01*
X11202483Y36209275D01*
X11205379Y36206379D01*
X11320373Y36118140D01*
X11320374Y36118140D01*
X11320375Y36118139D01*
X11454291Y36062670D01*
X11454295Y36062670D01*
X11454297Y36062669D01*
X11597997Y36043750D01*
X11598000Y36043750D01*
X11598003Y36043750D01*
X11741702Y36062669D01*
X11741702Y36062670D01*
X11741709Y36062670D01*
X11875625Y36118139D01*
X11990621Y36206379D01*
X12078861Y36321375D01*
X12134330Y36455291D01*
X12134331Y36455298D01*
X12153250Y36598998D01*
X12153250Y36599003D01*
X12134331Y36742703D01*
X12134330Y36742705D01*
X12134330Y36742709D01*
X12134117Y36743221D01*
X12134117Y36743499D01*
X12133270Y36746663D01*
X12134117Y36746891D01*
X12134115Y36791055D01*
X12167938Y36824882D01*
X12212110Y36824885D01*
X12212337Y36825730D01*
X12215489Y36824885D01*
X12215772Y36824885D01*
X12216291Y36824670D01*
X12216295Y36824670D01*
X12216297Y36824669D01*
X12359997Y36805750D01*
X12360000Y36805750D01*
X12360003Y36805750D01*
X12503702Y36824669D01*
X12503702Y36824670D01*
X12503709Y36824670D01*
X12637625Y36880139D01*
X12752621Y36968379D01*
X12840861Y37083375D01*
X12896330Y37217291D01*
X12896980Y37222226D01*
X12915250Y37360998D01*
X12915250Y37361003D01*
X12896331Y37504703D01*
X12896330Y37504705D01*
X12896330Y37504709D01*
X12840861Y37638625D01*
X12752621Y37753621D01*
X12637625Y37841861D01*
X12632125Y37844139D01*
X12563242Y37872671D01*
X12503709Y37897330D01*
X12503707Y37897331D01*
X12503702Y37897332D01*
X12360003Y37916250D01*
X12359997Y37916250D01*
X12216297Y37897332D01*
X12216291Y37897330D01*
X12082376Y37841862D01*
X11967379Y37753621D01*
X11879138Y37638624D01*
X11823670Y37504709D01*
X11823668Y37504703D01*
X11804750Y37361003D01*
X11804750Y37360998D01*
X11823284Y37220216D01*
X11810904Y37174010D01*
X11769477Y37150093D01*
X11731200Y37157294D01*
X11348482Y37367784D01*
X11334407Y37378354D01*
X10546806Y38165955D01*
X10528500Y38210149D01*
X10528500Y38819642D01*
X10546806Y38863836D01*
X10603166Y38920196D01*
X10647359Y38938500D01*
X11448643Y38938500D01*
X11450530Y38938443D01*
X11514093Y38934598D01*
X11566604Y38944222D01*
X11576733Y38946077D01*
X11578572Y38946358D01*
X11632453Y38952901D01*
X11641794Y38954034D01*
X11641794Y38954035D01*
X11641801Y38954035D01*
X11656732Y38959698D01*
X11667615Y38962732D01*
X11683329Y38965611D01*
X11741422Y38991758D01*
X11743122Y38992462D01*
X11802675Y39015046D01*
X11815813Y39024116D01*
X11825666Y39029673D01*
X11840226Y39036225D01*
X11890355Y39075501D01*
X11891864Y39076610D01*
X11898059Y39080887D01*
X11944273Y39112785D01*
X11986525Y39160479D01*
X11987779Y39161811D01*
X12667389Y39841421D01*
X12668721Y39842675D01*
X12716415Y39884927D01*
X12752598Y39937348D01*
X12753682Y39938823D01*
X12792975Y39988975D01*
X12799525Y40003529D01*
X12805082Y40013384D01*
X12814154Y40026525D01*
X12836734Y40086067D01*
X12837449Y40087794D01*
X12863589Y40145871D01*
X12866468Y40161585D01*
X12869502Y40172468D01*
X12875165Y40187399D01*
X12882842Y40250631D01*
X12883118Y40252446D01*
X12890388Y40292118D01*
X12916359Y40332287D01*
X12963129Y40342327D01*
X12980905Y40336194D01*
X13119568Y40263417D01*
X13284737Y40222707D01*
X13284739Y40222707D01*
X13454847Y40222707D01*
X13454849Y40222707D01*
X13620018Y40263417D01*
X13770645Y40342473D01*
X13897976Y40455278D01*
X13994611Y40595277D01*
X14054933Y40754335D01*
X14059475Y40791739D01*
X14075438Y40923204D01*
X14075438Y40923211D01*
X14054934Y41092072D01*
X14054933Y41092078D01*
X14053247Y41096523D01*
X13994611Y41251137D01*
X13994610Y41251139D01*
X13897981Y41391130D01*
X13897974Y41391138D01*
X13770644Y41503942D01*
X13620019Y41582997D01*
X13454852Y41623707D01*
X13451099Y41624162D01*
X13451355Y41626279D01*
X13413371Y41642013D01*
X13395065Y41686207D01*
X13413371Y41730401D01*
X13553396Y41870426D01*
X13988189Y42305221D01*
X13989521Y42306475D01*
X14037215Y42348727D01*
X14073390Y42401136D01*
X14074499Y42402645D01*
X14113775Y42452774D01*
X14120327Y42467334D01*
X14125885Y42477187D01*
X14132938Y42487405D01*
X14134954Y42490325D01*
X14157536Y42549872D01*
X14158255Y42551606D01*
X14184388Y42609670D01*
X14187266Y42625380D01*
X14190301Y42636267D01*
X14195965Y42651199D01*
X14203645Y42714461D01*
X14203920Y42716263D01*
X14215401Y42778907D01*
X14211557Y42842460D01*
X14211500Y42844347D01*
X14211500Y45912860D01*
X14211499Y45912866D01*
X14195966Y46040794D01*
X14195965Y46040798D01*
X14195965Y46040801D01*
X14134954Y46201675D01*
X14134952Y46201677D01*
X14134952Y46201679D01*
X14037220Y46343267D01*
X14037213Y46343275D01*
X13908429Y46457368D01*
X13756084Y46537325D01*
X13589031Y46578500D01*
X13589028Y46578500D01*
X13416972Y46578500D01*
X13416968Y46578500D01*
X13249915Y46537325D01*
X13097570Y46457368D01*
X12981945Y46354932D01*
X12936726Y46339328D01*
X12893718Y46360269D01*
X12878000Y46401714D01*
X12878000Y51044848D01*
X12879201Y51057041D01*
X12883171Y51077000D01*
X12878000Y51102999D01*
X12878000Y51103002D01*
X12862683Y51180008D01*
X12804333Y51267333D01*
X12787407Y51278643D01*
X12777936Y51286416D01*
X11947769Y52116583D01*
X11933361Y52139051D01*
X11930805Y52145944D01*
X11897913Y52234666D01*
X11899714Y52282466D01*
X11934789Y52314993D01*
X11964673Y52318356D01*
X12105997Y52299750D01*
X12106000Y52299750D01*
X12106003Y52299750D01*
X12249702Y52318669D01*
X12249702Y52318670D01*
X12249709Y52318670D01*
X12383625Y52374139D01*
X12498621Y52462379D01*
X12586861Y52577375D01*
X12642330Y52711291D01*
X12661250Y52855000D01*
X12647964Y52955913D01*
X12642331Y52998703D01*
X12642330Y52998705D01*
X12642330Y52998709D01*
X12586861Y53132625D01*
X12498621Y53247621D01*
X12383625Y53335861D01*
X12249709Y53391330D01*
X12249707Y53391331D01*
X12249702Y53391332D01*
X12106003Y53410250D01*
X12105997Y53410250D01*
X11962297Y53391332D01*
X11962291Y53391330D01*
X11828376Y53335862D01*
X11713379Y53247621D01*
X11625138Y53132624D01*
X11605054Y53084136D01*
X11574485Y53010332D01*
X11568103Y52994925D01*
X11566567Y52995562D01*
X11540903Y52962140D01*
X11493474Y52955913D01*
X11485755Y52958535D01*
X11477052Y52962140D01*
X11360709Y53010330D01*
X11360707Y53010331D01*
X11360702Y53010332D01*
X11217003Y53029250D01*
X11216997Y53029250D01*
X11073297Y53010332D01*
X11073291Y53010330D01*
X10939376Y52954862D01*
X10824379Y52866621D01*
X10736138Y52751624D01*
X10680670Y52617709D01*
X10680668Y52617703D01*
X10661750Y52474003D01*
X10661750Y52473998D01*
X10680668Y52330298D01*
X10680669Y52330293D01*
X10680670Y52330291D01*
X10736139Y52196375D01*
X10824379Y52081379D01*
X10939375Y51993139D01*
X10994687Y51970229D01*
X11003505Y51965727D01*
X11022986Y51953746D01*
X11551949Y51757639D01*
X11574417Y51743231D01*
X12331694Y50985954D01*
X12350000Y50941760D01*
X12350000Y43338240D01*
X12331694Y43294046D01*
X11633954Y42596306D01*
X11589760Y42578000D01*
X9344152Y42578000D01*
X9331960Y42579201D01*
X9312000Y42583171D01*
X9311999Y42583171D01*
X9302331Y42581248D01*
X9287908Y42578380D01*
X9287887Y42578376D01*
X9208993Y42562684D01*
X9208988Y42562681D01*
X9121667Y42504334D01*
X9121666Y42504333D01*
X9110354Y42487405D01*
X9102584Y42477938D01*
X8640062Y42015416D01*
X8630595Y42007646D01*
X8613668Y41996335D01*
X8593787Y41966582D01*
X8593786Y41966580D01*
X8555319Y41909012D01*
X8555316Y41909007D01*
X8534828Y41806000D01*
X8538799Y41786036D01*
X8540000Y41773843D01*
X8540000Y41052241D01*
X8521694Y41008047D01*
X7049744Y39536098D01*
X7034132Y39524710D01*
X7028710Y39521923D01*
X6684361Y39248433D01*
X6638369Y39235282D01*
X6596548Y39258504D01*
X6594193Y39261966D01*
X6592462Y39264222D01*
X6592461Y39264225D01*
X6504221Y39379221D01*
X6389225Y39467461D01*
X6255309Y39522930D01*
X6255307Y39522931D01*
X6255302Y39522932D01*
X6111603Y39541850D01*
X6111597Y39541850D01*
X5967897Y39522932D01*
X5967891Y39522930D01*
X5833976Y39467462D01*
X5718979Y39379221D01*
X5630738Y39264224D01*
X5575270Y39130309D01*
X5575268Y39130303D01*
X5556350Y38986603D01*
X5556350Y38986598D01*
X5575268Y38842898D01*
X5575269Y38842893D01*
X5575270Y38842891D01*
X5630739Y38708975D01*
X5718979Y38593979D01*
X5833975Y38505739D01*
X5967891Y38450270D01*
X5967895Y38450270D01*
X5967897Y38450269D01*
X6111597Y38431350D01*
X6111600Y38431350D01*
X6111603Y38431350D01*
X6255302Y38450269D01*
X6255302Y38450270D01*
X6255309Y38450270D01*
X6359896Y38493591D01*
X6407730Y38493590D01*
X6441554Y38459766D01*
X6443537Y38454979D01*
X6443536Y38454979D01*
X6443538Y38454976D01*
X6443539Y38454975D01*
X6531779Y38339979D01*
X6646775Y38251739D01*
X6780691Y38196270D01*
X6780695Y38196270D01*
X6780697Y38196269D01*
X6924397Y38177350D01*
X6924400Y38177350D01*
X6924403Y38177350D01*
X7068102Y38196269D01*
X7068102Y38196270D01*
X7068109Y38196270D01*
X7202025Y38251739D01*
X7317021Y38339979D01*
X7381616Y38424161D01*
X7423042Y38448078D01*
X7469247Y38435698D01*
X7469248Y38435697D01*
X7510373Y38404140D01*
X7510374Y38404140D01*
X7510375Y38404139D01*
X7644291Y38348670D01*
X7644295Y38348670D01*
X7644297Y38348669D01*
X7787997Y38329750D01*
X7788000Y38329750D01*
X7788003Y38329750D01*
X7931702Y38348669D01*
X7931702Y38348670D01*
X7931709Y38348670D01*
X8065625Y38404139D01*
X8180621Y38492379D01*
X8268861Y38607375D01*
X8324330Y38741291D01*
X8335310Y38824691D01*
X8343250Y38884998D01*
X8343250Y38885003D01*
X8324331Y39028703D01*
X8324330Y39028705D01*
X8324330Y39028709D01*
X8268861Y39162625D01*
X8180621Y39277621D01*
X8065625Y39365861D01*
X7931709Y39421330D01*
X7931707Y39421331D01*
X7931701Y39421332D01*
X7836421Y39433876D01*
X7794994Y39457794D01*
X7782614Y39503999D01*
X7800384Y39540034D01*
X8967943Y40707593D01*
X8977409Y40715360D01*
X8994333Y40726667D01*
X9006114Y40744300D01*
X9006125Y40744314D01*
X9009061Y40748709D01*
X9009063Y40748710D01*
X9052683Y40813992D01*
X9073172Y40917000D01*
X9071937Y40923207D01*
X9069201Y40936966D01*
X9068000Y40949158D01*
X9068000Y41670760D01*
X9086306Y41714954D01*
X9403046Y42031694D01*
X9447240Y42050000D01*
X11581033Y42050000D01*
X11625227Y42031694D01*
X11643533Y41987500D01*
X11632468Y41951994D01*
X11611811Y41922070D01*
X11610694Y41920551D01*
X11571424Y41870425D01*
X11564870Y41855864D01*
X11559317Y41846018D01*
X11550245Y41832875D01*
X11527670Y41773348D01*
X11526948Y41771605D01*
X11500813Y41713535D01*
X11500809Y41713522D01*
X11497931Y41697821D01*
X11494896Y41686932D01*
X11489234Y41672001D01*
X11489234Y41672000D01*
X11481559Y41608796D01*
X11481278Y41606949D01*
X11476890Y41582997D01*
X11469798Y41544296D01*
X11473027Y41490912D01*
X11457423Y41445694D01*
X11414414Y41424753D01*
X11369196Y41440357D01*
X11352898Y41463222D01*
X11341429Y41490912D01*
X11316861Y41550225D01*
X11228621Y41665221D01*
X11113625Y41753461D01*
X11105141Y41756975D01*
X11049558Y41779998D01*
X10979709Y41808930D01*
X10979707Y41808931D01*
X10979702Y41808932D01*
X10836003Y41827850D01*
X10835997Y41827850D01*
X10692297Y41808932D01*
X10692291Y41808930D01*
X10558376Y41753462D01*
X10443376Y41665219D01*
X10428384Y41645681D01*
X10386957Y41621764D01*
X10340752Y41634145D01*
X10329216Y41645681D01*
X10314223Y41665219D01*
X10314221Y41665220D01*
X10314221Y41665221D01*
X10199225Y41753461D01*
X10190741Y41756975D01*
X10135158Y41779998D01*
X10065309Y41808930D01*
X10065307Y41808931D01*
X10065302Y41808932D01*
X9921603Y41827850D01*
X9921597Y41827850D01*
X9777897Y41808932D01*
X9777891Y41808930D01*
X9643976Y41753462D01*
X9528979Y41665221D01*
X9440738Y41550224D01*
X9385270Y41416309D01*
X9385268Y41416303D01*
X9366350Y41272603D01*
X9366350Y41272598D01*
X9385268Y41128898D01*
X9385269Y41128893D01*
X9385270Y41128891D01*
X9440739Y40994975D01*
X9528979Y40879979D01*
X9643975Y40791739D01*
X9777891Y40736270D01*
X9777895Y40736270D01*
X9777897Y40736269D01*
X9921597Y40717350D01*
X9921600Y40717350D01*
X9921603Y40717350D01*
X10065302Y40736269D01*
X10065302Y40736270D01*
X10065309Y40736270D01*
X10199225Y40791739D01*
X10314221Y40879979D01*
X10329215Y40899519D01*
X10370642Y40923437D01*
X10416847Y40911057D01*
X10428385Y40899519D01*
X10443379Y40879979D01*
X10558375Y40791739D01*
X10692291Y40736270D01*
X10692295Y40736270D01*
X10692297Y40736269D01*
X10835997Y40717350D01*
X10836000Y40717350D01*
X10836003Y40717350D01*
X10979702Y40736269D01*
X10979702Y40736270D01*
X10979709Y40736270D01*
X11113625Y40791739D01*
X11228621Y40879979D01*
X11316861Y40994975D01*
X11353457Y41083329D01*
X11387282Y41117153D01*
X11435117Y41117154D01*
X11468942Y41083329D01*
X11473700Y41059411D01*
X11473700Y40677558D01*
X11455394Y40633364D01*
X11195836Y40373806D01*
X11151642Y40355500D01*
X10350345Y40355500D01*
X10348459Y40355557D01*
X10284907Y40359401D01*
X10284906Y40359401D01*
X10284904Y40359401D01*
X10222285Y40347926D01*
X10220433Y40347644D01*
X10202137Y40345422D01*
X10157206Y40339967D01*
X10157201Y40339966D01*
X10150152Y40337293D01*
X10142266Y40334303D01*
X10131376Y40331267D01*
X10115672Y40328389D01*
X10115670Y40328389D01*
X10057605Y40302256D01*
X10055868Y40301537D01*
X10048918Y40298901D01*
X9996326Y40278956D01*
X9983177Y40269880D01*
X9973332Y40264328D01*
X9958778Y40257777D01*
X9958770Y40257772D01*
X9908648Y40218505D01*
X9907129Y40217387D01*
X9854727Y40181216D01*
X9854724Y40181213D01*
X9812503Y40133556D01*
X9811210Y40132182D01*
X9334825Y39655797D01*
X9333450Y39654503D01*
X9285787Y39612276D01*
X9285782Y39612270D01*
X9249612Y39559870D01*
X9248494Y39558351D01*
X9209224Y39508225D01*
X9202670Y39493664D01*
X9197117Y39483818D01*
X9188045Y39470675D01*
X9165470Y39411148D01*
X9164748Y39409405D01*
X9138613Y39351335D01*
X9138609Y39351322D01*
X9135731Y39335621D01*
X9132696Y39324732D01*
X9127034Y39309801D01*
X9127034Y39309800D01*
X9119359Y39246596D01*
X9119078Y39244749D01*
X9113940Y39216706D01*
X9107598Y39182097D01*
X9107598Y39182094D01*
X9107598Y39182093D01*
X9108907Y39160453D01*
X9111443Y39118531D01*
X9111500Y39116644D01*
X9111500Y38315358D01*
X9093194Y38271164D01*
X8909836Y38087806D01*
X8865642Y38069500D01*
X7302345Y38069500D01*
X7300459Y38069557D01*
X7236907Y38073401D01*
X7236906Y38073401D01*
X7236904Y38073401D01*
X7174285Y38061926D01*
X7172433Y38061644D01*
X7154137Y38059422D01*
X7109206Y38053967D01*
X7109201Y38053966D01*
X7102152Y38051293D01*
X7094266Y38048303D01*
X7083376Y38045267D01*
X7067672Y38042389D01*
X7067670Y38042389D01*
X7009605Y38016256D01*
X7007868Y38015537D01*
X7000918Y38012901D01*
X6948326Y37992956D01*
X6935177Y37983880D01*
X6925332Y37978328D01*
X6910778Y37971777D01*
X6910770Y37971772D01*
X6860648Y37932505D01*
X6859129Y37931387D01*
X6806727Y37895216D01*
X6806724Y37895213D01*
X6764503Y37847556D01*
X6763210Y37846182D01*
X6286825Y37369797D01*
X6285450Y37368503D01*
X6237787Y37326276D01*
X6237782Y37326270D01*
X6201612Y37273870D01*
X6200494Y37272351D01*
X6161224Y37222225D01*
X6154670Y37207664D01*
X6149117Y37197818D01*
X6140045Y37184675D01*
X6117470Y37125148D01*
X6116748Y37123405D01*
X6090613Y37065335D01*
X6090610Y37065326D01*
X6088687Y37054837D01*
X6062709Y37014670D01*
X6015938Y37004636D01*
X5989164Y37016526D01*
X5979683Y37023801D01*
X5906625Y37079861D01*
X5898141Y37083375D01*
X5841114Y37106996D01*
X5772709Y37135330D01*
X5772707Y37135331D01*
X5772702Y37135332D01*
X5629003Y37154250D01*
X5628997Y37154250D01*
X5485297Y37135332D01*
X5485291Y37135330D01*
X5351376Y37079862D01*
X5236379Y36991621D01*
X5148138Y36876624D01*
X5092670Y36742709D01*
X5092668Y36742703D01*
X5073750Y36599003D01*
X5073750Y36598998D01*
X5092668Y36455298D01*
X5092671Y36455288D01*
X5099431Y36438968D01*
X5099431Y36391132D01*
X5065607Y36357308D01*
X4970378Y36317863D01*
X4970375Y36317862D01*
X4970375Y36317861D01*
X4894593Y36259711D01*
X4855379Y36229621D01*
X4767138Y36114624D01*
X4711670Y35980709D01*
X4711668Y35980703D01*
X4692750Y35837003D01*
X4692750Y35836998D01*
X4711668Y35693298D01*
X4711669Y35693293D01*
X4711670Y35693291D01*
X4767139Y35559375D01*
X4855379Y35444379D01*
X4970375Y35356139D01*
X5065606Y35316694D01*
X5099431Y35282869D01*
X5099431Y35235035D01*
X5092670Y35218709D01*
X5092668Y35218703D01*
X5073750Y35075003D01*
X5073750Y35074998D01*
X5092668Y34931298D01*
X5092669Y34931293D01*
X5092670Y34931291D01*
X5148139Y34797375D01*
X5236379Y34682379D01*
X5351375Y34594139D01*
X5485291Y34538670D01*
X5485295Y34538670D01*
X5485297Y34538669D01*
X5628997Y34519750D01*
X5629000Y34519750D01*
X5629003Y34519750D01*
X5772702Y34538669D01*
X5772702Y34538670D01*
X5772709Y34538670D01*
X5906625Y34594139D01*
X6021621Y34682379D01*
X6109861Y34797375D01*
X6165330Y34931291D01*
X6170640Y34971625D01*
X6184250Y35074998D01*
X6184250Y35075003D01*
X6165331Y35218703D01*
X6165330Y35218705D01*
X6165330Y35218709D01*
X6133281Y35296084D01*
X6133282Y35343918D01*
X6167107Y35377743D01*
X6191024Y35382500D01*
X6255000Y35382500D01*
X6299194Y35364194D01*
X6317500Y35320000D01*
X6317500Y33083165D01*
X6317232Y33079082D01*
X6312482Y33043002D01*
X6312482Y33042996D01*
X6317231Y33006919D01*
X6317233Y33006913D01*
X6322748Y32965025D01*
X6332465Y32891206D01*
X6332466Y32891202D01*
X6332467Y32891198D01*
X6391060Y32749741D01*
X6391061Y32749740D01*
X6461578Y32657839D01*
X6461602Y32657810D01*
X6482255Y32630893D01*
X6484269Y32628269D01*
X6502247Y32614474D01*
X6513140Y32606116D01*
X6516216Y32603418D01*
X8561416Y30558219D01*
X8564107Y30555150D01*
X8586266Y30526272D01*
X8586267Y30526271D01*
X8586269Y30526269D01*
X8621404Y30499310D01*
X8653513Y30474671D01*
X8707741Y30433060D01*
X8849198Y30374467D01*
X8849202Y30374467D01*
X8849204Y30374466D01*
X9000998Y30354482D01*
X9001000Y30354482D01*
X9001002Y30354482D01*
X9037080Y30359232D01*
X9041164Y30359500D01*
X9731110Y30359500D01*
X9731116Y30359500D01*
X9844802Y30374467D01*
X9986259Y30433061D01*
X10107731Y30526269D01*
X10200939Y30647741D01*
X10200938Y30647741D01*
X10203433Y30650991D01*
X10204961Y30649819D01*
X10237819Y30675062D01*
X10277946Y30672445D01*
X10387491Y30627070D01*
X10387495Y30627070D01*
X10387497Y30627069D01*
X10531197Y30608150D01*
X10531200Y30608150D01*
X10531203Y30608150D01*
X10674902Y30627069D01*
X10674902Y30627070D01*
X10674909Y30627070D01*
X10805754Y30681268D01*
X10853588Y30681268D01*
X10879253Y30661574D01*
X10951379Y30567579D01*
X11066375Y30479339D01*
X11200291Y30423870D01*
X11200295Y30423870D01*
X11200297Y30423869D01*
X11343997Y30404950D01*
X11344000Y30404950D01*
X11344003Y30404950D01*
X11487702Y30423869D01*
X11487702Y30423870D01*
X11487709Y30423870D01*
X11621625Y30479339D01*
X11736621Y30567579D01*
X11824861Y30682575D01*
X11880330Y30816491D01*
X11885528Y30855973D01*
X11885980Y30859404D01*
X11909897Y30900830D01*
X11956103Y30913211D01*
X11997528Y30889295D01*
X12021726Y30857760D01*
X12058551Y30809768D01*
X12068979Y30796179D01*
X12183975Y30707939D01*
X12317891Y30652470D01*
X12317895Y30652470D01*
X12317897Y30652469D01*
X12461597Y30633550D01*
X12461600Y30633550D01*
X12461603Y30633550D01*
X12605305Y30652469D01*
X12605307Y30652470D01*
X12605309Y30652470D01*
X12626973Y30661445D01*
X12674807Y30661446D01*
X12708633Y30627623D01*
X12711426Y30617204D01*
X12711608Y30617252D01*
X12712668Y30613296D01*
X12712669Y30613292D01*
X12712670Y30613291D01*
X12715687Y30606008D01*
X12766620Y30483041D01*
X12768139Y30479375D01*
X12856379Y30364379D01*
X12971375Y30276139D01*
X13066606Y30236694D01*
X13100431Y30202869D01*
X13100432Y30155034D01*
X13093670Y30138709D01*
X13093668Y30138703D01*
X13074750Y29995003D01*
X13074750Y29994998D01*
X13093668Y29851298D01*
X13093669Y29851293D01*
X13093670Y29851291D01*
X13149139Y29717375D01*
X13237379Y29602379D01*
X13352375Y29514139D01*
X13486291Y29458670D01*
X13486295Y29458670D01*
X13486297Y29458669D01*
X13629997Y29439750D01*
X13630000Y29439750D01*
X13630003Y29439750D01*
X13773702Y29458669D01*
X13773702Y29458670D01*
X13773709Y29458670D01*
X13907625Y29514139D01*
X14022621Y29602379D01*
X14110861Y29717375D01*
X14166330Y29851291D01*
X14179735Y29953123D01*
X14183408Y29967507D01*
X14184132Y29969377D01*
X14226795Y30214160D01*
X14236401Y30238151D01*
X14247873Y30255319D01*
X14259683Y30272992D01*
X14275000Y30349998D01*
X14275000Y30350002D01*
X14280171Y30376000D01*
X14276201Y30395961D01*
X14275000Y30408153D01*
X14275000Y30488079D01*
X14275263Y30492123D01*
X14276464Y30501334D01*
X14277019Y30507750D01*
X14277092Y30508785D01*
X14277462Y30513967D01*
X14275883Y30523261D01*
X14275000Y30533729D01*
X14275000Y30857760D01*
X14293306Y30901954D01*
X14337500Y30920260D01*
X14381694Y30901954D01*
X15125694Y30157954D01*
X15144000Y30113760D01*
X15144000Y29038285D01*
X15125694Y28994091D01*
X15081500Y28975785D01*
X15057583Y28980542D01*
X15023896Y28994495D01*
X14992909Y29007330D01*
X14992907Y29007331D01*
X14992902Y29007332D01*
X14849203Y29026250D01*
X14849197Y29026250D01*
X14705497Y29007332D01*
X14705491Y29007330D01*
X14571576Y28951862D01*
X14456579Y28863621D01*
X14368338Y28748624D01*
X14312870Y28614709D01*
X14312868Y28614703D01*
X14293950Y28471003D01*
X14293950Y28470998D01*
X14312868Y28327298D01*
X14312870Y28327292D01*
X14368339Y28193375D01*
X14416932Y28130047D01*
X14429312Y28083842D01*
X14405394Y28042415D01*
X14367347Y28029500D01*
X13356252Y28029500D01*
X13297769Y28017868D01*
X13297767Y28017867D01*
X13231447Y27973553D01*
X13187133Y27907233D01*
X13187132Y27907231D01*
X13175500Y27848749D01*
X13175500Y26031252D01*
X13187132Y25972770D01*
X13187133Y25972768D01*
X13231447Y25906448D01*
X13297767Y25862134D01*
X13297769Y25862133D01*
X13356252Y25850500D01*
X15081500Y25850500D01*
X15125694Y25832194D01*
X15144000Y25788000D01*
X15144000Y25214507D01*
X15125694Y25170313D01*
X15081500Y25152007D01*
X15039394Y25168319D01*
X14924388Y25273162D01*
X14924385Y25273164D01*
X14924384Y25273165D01*
X14752713Y25379459D01*
X14752711Y25379460D01*
X14697986Y25400660D01*
X14564433Y25452399D01*
X14564430Y25452400D01*
X14564429Y25452400D01*
X14365961Y25489500D01*
X14365957Y25489500D01*
X14164043Y25489500D01*
X14164038Y25489500D01*
X13965570Y25452400D01*
X13777288Y25379460D01*
X13605611Y25273162D01*
X13456403Y25137139D01*
X13456396Y25137131D01*
X13334720Y24976005D01*
X13244719Y24795260D01*
X13189462Y24601057D01*
X13189460Y24601046D01*
X13170832Y24400005D01*
X13170832Y24399996D01*
X13189460Y24198955D01*
X13189462Y24198944D01*
X13229564Y24058003D01*
X13244719Y24004741D01*
X13334720Y23823995D01*
X13456400Y23662864D01*
X13485115Y23636687D01*
X13605611Y23526839D01*
X13605612Y23526838D01*
X13605616Y23526835D01*
X13777287Y23420541D01*
X13965567Y23347601D01*
X14164043Y23310500D01*
X14164046Y23310500D01*
X14365954Y23310500D01*
X14365957Y23310500D01*
X14564433Y23347601D01*
X14752713Y23420541D01*
X14924384Y23526835D01*
X15039394Y23631682D01*
X15084386Y23647926D01*
X15127688Y23627599D01*
X15144000Y23585493D01*
X15144000Y22674507D01*
X15125694Y22630313D01*
X15081500Y22612007D01*
X15039394Y22628319D01*
X14924388Y22733162D01*
X14924385Y22733164D01*
X14924384Y22733165D01*
X14752713Y22839459D01*
X14752711Y22839460D01*
X14697986Y22860660D01*
X14564433Y22912399D01*
X14564430Y22912400D01*
X14564429Y22912400D01*
X14365961Y22949500D01*
X14365957Y22949500D01*
X14164043Y22949500D01*
X14164038Y22949500D01*
X13965570Y22912400D01*
X13777288Y22839460D01*
X13605611Y22733162D01*
X13456403Y22597139D01*
X13456396Y22597131D01*
X13334720Y22436005D01*
X13244719Y22255260D01*
X13189462Y22061057D01*
X13189460Y22061046D01*
X13170832Y21860005D01*
X13170832Y21859996D01*
X13189460Y21658955D01*
X13189462Y21658944D01*
X13230948Y21513139D01*
X13244719Y21464741D01*
X13334720Y21283995D01*
X13456400Y21122864D01*
X13490606Y21091681D01*
X13605611Y20986839D01*
X13605612Y20986838D01*
X13605616Y20986835D01*
X13777287Y20880541D01*
X13965567Y20807601D01*
X14164043Y20770500D01*
X14164046Y20770500D01*
X14365954Y20770500D01*
X14365957Y20770500D01*
X14564433Y20807601D01*
X14752713Y20880541D01*
X14924384Y20986835D01*
X15039394Y21091682D01*
X15084386Y21107926D01*
X15127688Y21087599D01*
X15144000Y21045493D01*
X15144000Y9799762D01*
X15125694Y9755568D01*
X15081500Y9737262D01*
X15050667Y9746868D01*
X15050200Y9745977D01*
X14896226Y9826790D01*
X14731059Y9867500D01*
X14731056Y9867500D01*
X14560944Y9867500D01*
X14560940Y9867500D01*
X14395773Y9826790D01*
X14245148Y9747735D01*
X14117818Y9634931D01*
X14117811Y9634923D01*
X14021182Y9494932D01*
X13960859Y9335871D01*
X13960858Y9335865D01*
X13940355Y9167004D01*
X13940355Y9166997D01*
X13960858Y8998136D01*
X13960859Y8998130D01*
X14021182Y8839069D01*
X14117811Y8699078D01*
X14117818Y8699070D01*
X14245148Y8586266D01*
X14365518Y8523090D01*
X14395775Y8507210D01*
X14560944Y8466500D01*
X14560946Y8466500D01*
X14731054Y8466500D01*
X14731056Y8466500D01*
X14896225Y8507210D01*
X15046852Y8586266D01*
X15046851Y8586266D01*
X15050200Y8588023D01*
X15050883Y8586722D01*
X15092757Y8595717D01*
X15132931Y8569751D01*
X15144000Y8534239D01*
X15144000Y3860205D01*
X15125694Y3816011D01*
X15081500Y3797705D01*
X15054659Y3804895D01*
X15054410Y3804293D01*
X15050625Y3805861D01*
X14916709Y3861330D01*
X14916707Y3861331D01*
X14916702Y3861332D01*
X14773003Y3880250D01*
X14772997Y3880250D01*
X14629297Y3861332D01*
X14629291Y3861330D01*
X14495376Y3805862D01*
X14380379Y3717621D01*
X14292138Y3602624D01*
X14236670Y3468709D01*
X14236668Y3468703D01*
X14217750Y3325003D01*
X14217750Y3324998D01*
X14236668Y3181298D01*
X14236669Y3181293D01*
X14236670Y3181291D01*
X14292139Y3047375D01*
X14380379Y2932379D01*
X14495375Y2844139D01*
X14629291Y2788670D01*
X14629295Y2788670D01*
X14629297Y2788669D01*
X14772997Y2769750D01*
X14773000Y2769750D01*
X14773003Y2769750D01*
X14916702Y2788669D01*
X14916702Y2788670D01*
X14916709Y2788670D01*
X15050625Y2844139D01*
X15068146Y2857584D01*
X15114348Y2869966D01*
X15155776Y2846050D01*
X15158160Y2842724D01*
X15217666Y2753668D01*
X15217667Y2753667D01*
X15234591Y2742359D01*
X15244062Y2734586D01*
X15307494Y2671154D01*
X15323003Y2645449D01*
X15540775Y1942259D01*
X15774857Y1186402D01*
X15784719Y1151741D01*
X15874720Y970995D01*
X15996400Y809864D01*
X16023677Y784998D01*
X16145611Y673839D01*
X16145612Y673838D01*
X16145616Y673835D01*
X16317287Y567541D01*
X16505567Y494601D01*
X16704043Y457500D01*
X16704046Y457500D01*
X16905954Y457500D01*
X16905957Y457500D01*
X17104433Y494601D01*
X17292713Y567541D01*
X17464384Y673835D01*
X17613600Y809864D01*
X17735280Y970995D01*
X17825281Y1151741D01*
X17872086Y1316241D01*
X17901788Y1353739D01*
X17949304Y1359251D01*
X17986802Y1329549D01*
X17994700Y1299137D01*
X17994700Y367800D01*
X17976394Y323606D01*
X17932200Y305300D01*
X12812541Y305300D01*
X12768347Y323606D01*
X12750041Y367800D01*
X12762956Y405848D01*
X12840861Y507375D01*
X12896330Y641291D01*
X12915250Y785000D01*
X12896330Y928709D01*
X12840861Y1062625D01*
X12752621Y1177621D01*
X12637625Y1265861D01*
X12503709Y1321330D01*
X12503707Y1321331D01*
X12503702Y1321332D01*
X12360003Y1340250D01*
X12359997Y1340250D01*
X12216297Y1321332D01*
X12216291Y1321330D01*
X12082376Y1265862D01*
X11967379Y1177621D01*
X11879138Y1062624D01*
X11823670Y928709D01*
X11823668Y928703D01*
X11804750Y785003D01*
X11804750Y784998D01*
X11823668Y641298D01*
X11823669Y641293D01*
X11823670Y641291D01*
X11879139Y507375D01*
X11888941Y494601D01*
X11957044Y405848D01*
X11969424Y359642D01*
X11945507Y318215D01*
X11907459Y305300D01*
X6589541Y305300D01*
X6545347Y323606D01*
X6527041Y367800D01*
X6539956Y405848D01*
X6617861Y507375D01*
X6673330Y641291D01*
X6692250Y785000D01*
X6673330Y928709D01*
X6617861Y1062625D01*
X6529621Y1177621D01*
X6414625Y1265861D01*
X6280709Y1321330D01*
X6280707Y1321331D01*
X6280702Y1321332D01*
X6137003Y1340250D01*
X6136997Y1340250D01*
X5993297Y1321332D01*
X5993291Y1321330D01*
X5859376Y1265862D01*
X5744379Y1177621D01*
X5656138Y1062624D01*
X5600670Y928709D01*
X5600668Y928703D01*
X5581750Y785003D01*
X5581750Y784998D01*
X5600668Y641298D01*
X5600669Y641293D01*
X5600670Y641291D01*
X5656139Y507375D01*
X5665941Y494601D01*
X5734044Y405848D01*
X5746424Y359642D01*
X5722507Y318215D01*
X5684459Y305300D01*
X367800Y305300D01*
X323606Y323606D01*
X305300Y367800D01*
X305300Y1546996D01*
X470832Y1546996D01*
X489460Y1345955D01*
X489462Y1345944D01*
X534857Y1186402D01*
X544719Y1151741D01*
X634720Y970995D01*
X756400Y809864D01*
X783677Y784998D01*
X905611Y673839D01*
X905612Y673838D01*
X905616Y673835D01*
X1077287Y567541D01*
X1265567Y494601D01*
X1464043Y457500D01*
X1464046Y457500D01*
X1665954Y457500D01*
X1665957Y457500D01*
X1864433Y494601D01*
X2052713Y567541D01*
X2224384Y673835D01*
X2373600Y809864D01*
X2495280Y970995D01*
X2585281Y1151741D01*
X2640538Y1345947D01*
X2659168Y1547000D01*
X2640538Y1748053D01*
X2639793Y1750670D01*
X2627219Y1794864D01*
X2585281Y1942259D01*
X2495280Y2123005D01*
X2373600Y2284136D01*
X2298992Y2352151D01*
X2224388Y2420162D01*
X2224385Y2420164D01*
X2224384Y2420165D01*
X2052713Y2526459D01*
X2052711Y2526460D01*
X1979066Y2554990D01*
X1864433Y2599399D01*
X1864430Y2599400D01*
X1864429Y2599400D01*
X1665961Y2636500D01*
X1665957Y2636500D01*
X1464043Y2636500D01*
X1464038Y2636500D01*
X1265570Y2599400D01*
X1077288Y2526460D01*
X905611Y2420162D01*
X756403Y2284139D01*
X756396Y2284131D01*
X634720Y2123005D01*
X544719Y1942260D01*
X489462Y1748057D01*
X489460Y1748046D01*
X470832Y1547005D01*
X470832Y1546996D01*
X305300Y1546996D01*
X305300Y4086996D01*
X470832Y4086996D01*
X489460Y3885955D01*
X489462Y3885944D01*
X514569Y3797705D01*
X544719Y3691741D01*
X634720Y3510995D01*
X756400Y3349864D01*
X786890Y3322069D01*
X905611Y3213839D01*
X905612Y3213838D01*
X905616Y3213835D01*
X1077287Y3107541D01*
X1265567Y3034601D01*
X1464043Y2997500D01*
X1464046Y2997500D01*
X1665954Y2997500D01*
X1665957Y2997500D01*
X1864433Y3034601D01*
X2052713Y3107541D01*
X2224384Y3213835D01*
X2373600Y3349864D01*
X2495280Y3510995D01*
X2585281Y3691741D01*
X2632700Y3858398D01*
X3346550Y3858398D01*
X3365468Y3714698D01*
X3365470Y3714692D01*
X3411888Y3602625D01*
X3420939Y3580775D01*
X3509179Y3465779D01*
X3624175Y3377539D01*
X3758091Y3322070D01*
X3758095Y3322070D01*
X3758097Y3322069D01*
X3901797Y3303150D01*
X3901800Y3303150D01*
X3901803Y3303150D01*
X4045502Y3322069D01*
X4045502Y3322070D01*
X4045509Y3322070D01*
X4179425Y3377539D01*
X4294421Y3465779D01*
X4382661Y3580775D01*
X4438130Y3714691D01*
X4457050Y3858400D01*
X4456812Y3860205D01*
X4438131Y4002103D01*
X4438130Y4002105D01*
X4438130Y4002109D01*
X4402969Y4086997D01*
X6828355Y4086997D01*
X6848858Y3918136D01*
X6848859Y3918130D01*
X6909182Y3759069D01*
X7005811Y3619078D01*
X7005816Y3619072D01*
X7005817Y3619071D01*
X7133148Y3506266D01*
X7283775Y3427210D01*
X7448944Y3386500D01*
X7448946Y3386500D01*
X7619054Y3386500D01*
X7619056Y3386500D01*
X7784225Y3427210D01*
X7934852Y3506266D01*
X8062183Y3619071D01*
X8158818Y3759070D01*
X8219140Y3918128D01*
X8235658Y4054162D01*
X8239645Y4086997D01*
X8239645Y4087004D01*
X8219141Y4255865D01*
X8219140Y4255871D01*
X8206935Y4288053D01*
X8158818Y4414930D01*
X8158817Y4414932D01*
X8062188Y4554923D01*
X8062181Y4554931D01*
X7934851Y4667735D01*
X7784226Y4746790D01*
X7619059Y4787500D01*
X7619056Y4787500D01*
X7448944Y4787500D01*
X7448940Y4787500D01*
X7283773Y4746790D01*
X7133148Y4667735D01*
X7005818Y4554931D01*
X7005811Y4554923D01*
X6909182Y4414932D01*
X6848859Y4255871D01*
X6848858Y4255865D01*
X6828355Y4087004D01*
X6828355Y4086997D01*
X4402969Y4086997D01*
X4382661Y4136025D01*
X4294421Y4251021D01*
X4179425Y4339261D01*
X4045509Y4394730D01*
X4045507Y4394731D01*
X4045502Y4394732D01*
X3901803Y4413650D01*
X3901797Y4413650D01*
X3758097Y4394732D01*
X3758091Y4394730D01*
X3624176Y4339262D01*
X3509179Y4251021D01*
X3420938Y4136024D01*
X3365470Y4002109D01*
X3365468Y4002103D01*
X3346550Y3858403D01*
X3346550Y3858398D01*
X2632700Y3858398D01*
X2640538Y3885947D01*
X2643521Y3918136D01*
X2659168Y4086996D01*
X2659168Y4087005D01*
X2640539Y4288046D01*
X2640537Y4288057D01*
X2604437Y4414932D01*
X2585281Y4482259D01*
X2495280Y4663005D01*
X2373600Y4824136D01*
X2298992Y4892151D01*
X2224388Y4960162D01*
X2224385Y4960164D01*
X2224384Y4960165D01*
X2052713Y5066459D01*
X2052711Y5066460D01*
X1955204Y5104234D01*
X1864433Y5139399D01*
X1864430Y5139400D01*
X1864429Y5139400D01*
X1665961Y5176500D01*
X1665957Y5176500D01*
X1464043Y5176500D01*
X1464038Y5176500D01*
X1265570Y5139400D01*
X1077288Y5066460D01*
X905611Y4960162D01*
X756403Y4824139D01*
X756396Y4824131D01*
X634720Y4663005D01*
X544719Y4482260D01*
X489462Y4288057D01*
X489460Y4288046D01*
X470832Y4087005D01*
X470832Y4086996D01*
X305300Y4086996D01*
X305300Y6626996D01*
X470832Y6626996D01*
X489460Y6425955D01*
X489462Y6425944D01*
X499774Y6389703D01*
X544719Y6231741D01*
X634720Y6050995D01*
X756400Y5889864D01*
X796421Y5853380D01*
X905611Y5753839D01*
X905612Y5753838D01*
X905616Y5753835D01*
X1077287Y5647541D01*
X1265567Y5574601D01*
X1464043Y5537500D01*
X1464046Y5537500D01*
X1665954Y5537500D01*
X1665957Y5537500D01*
X1864433Y5574601D01*
X2052713Y5647541D01*
X2224384Y5753835D01*
X2373600Y5889864D01*
X2495280Y6050995D01*
X2585281Y6231741D01*
X2589338Y6245998D01*
X8883750Y6245998D01*
X8902668Y6102298D01*
X8902669Y6102293D01*
X8902670Y6102291D01*
X8958139Y5968375D01*
X9046379Y5853379D01*
X9161375Y5765139D01*
X9295291Y5709670D01*
X9295295Y5709670D01*
X9295297Y5709669D01*
X9438997Y5690750D01*
X9439000Y5690750D01*
X9439003Y5690750D01*
X9582702Y5709669D01*
X9582702Y5709670D01*
X9582709Y5709670D01*
X9716625Y5765139D01*
X9831621Y5853379D01*
X9919861Y5968375D01*
X9975330Y6102291D01*
X9975331Y6102298D01*
X9994250Y6245998D01*
X9994250Y6246003D01*
X9975331Y6389703D01*
X9975330Y6389705D01*
X9975330Y6389709D01*
X9919861Y6523625D01*
X9831621Y6638621D01*
X9716625Y6726861D01*
X9582709Y6782330D01*
X9582707Y6782331D01*
X9582702Y6782332D01*
X9439003Y6801250D01*
X9438997Y6801250D01*
X9295297Y6782332D01*
X9295291Y6782330D01*
X9161376Y6726862D01*
X9046379Y6638621D01*
X8958138Y6523624D01*
X8902670Y6389709D01*
X8902668Y6389703D01*
X8883750Y6246003D01*
X8883750Y6245998D01*
X2589338Y6245998D01*
X2640538Y6425947D01*
X2659168Y6627000D01*
X2658091Y6638621D01*
X2640539Y6828046D01*
X2640537Y6828057D01*
X2631596Y6859480D01*
X2585281Y7022259D01*
X2495280Y7203005D01*
X2450731Y7261997D01*
X4669355Y7261997D01*
X4689858Y7093136D01*
X4689859Y7093130D01*
X4750182Y6934069D01*
X4846811Y6794078D01*
X4846816Y6794072D01*
X4846817Y6794071D01*
X4974148Y6681266D01*
X5124775Y6602210D01*
X5289944Y6561500D01*
X5289946Y6561500D01*
X5460054Y6561500D01*
X5460056Y6561500D01*
X5625225Y6602210D01*
X5775852Y6681266D01*
X5903183Y6794071D01*
X5999818Y6934070D01*
X6060140Y7093128D01*
X6080645Y7262000D01*
X6068243Y7364136D01*
X6060141Y7430865D01*
X6060140Y7430871D01*
X6034152Y7499396D01*
X5999818Y7589930D01*
X5988409Y7606459D01*
X5903188Y7729923D01*
X5903181Y7729931D01*
X5775851Y7842735D01*
X5625226Y7921790D01*
X5460059Y7962500D01*
X5460056Y7962500D01*
X5289944Y7962500D01*
X5289940Y7962500D01*
X5124773Y7921790D01*
X4974148Y7842735D01*
X4846818Y7729931D01*
X4846811Y7729923D01*
X4750182Y7589932D01*
X4689859Y7430871D01*
X4689858Y7430865D01*
X4669355Y7262004D01*
X4669355Y7261997D01*
X2450731Y7261997D01*
X2373600Y7364136D01*
X2298992Y7432151D01*
X2224388Y7500162D01*
X2224385Y7500164D01*
X2224384Y7500165D01*
X2052713Y7606459D01*
X2052711Y7606460D01*
X1948351Y7646889D01*
X1864433Y7679399D01*
X1864430Y7679400D01*
X1864429Y7679400D01*
X1665961Y7716500D01*
X1665957Y7716500D01*
X1464043Y7716500D01*
X1464038Y7716500D01*
X1265570Y7679400D01*
X1265567Y7679400D01*
X1265567Y7679399D01*
X1226153Y7664130D01*
X1077288Y7606460D01*
X905611Y7500162D01*
X756403Y7364139D01*
X756396Y7364131D01*
X634720Y7203005D01*
X544719Y7022260D01*
X489462Y6828057D01*
X489460Y6828046D01*
X470832Y6627005D01*
X470832Y6626996D01*
X305300Y6626996D01*
X305300Y9166996D01*
X470832Y9166996D01*
X489460Y8965955D01*
X489462Y8965944D01*
X525562Y8839070D01*
X544719Y8771741D01*
X634720Y8590995D01*
X756400Y8429864D01*
X836286Y8357038D01*
X905611Y8293839D01*
X905612Y8293838D01*
X905616Y8293835D01*
X1077287Y8187541D01*
X1265567Y8114601D01*
X1464043Y8077500D01*
X1464046Y8077500D01*
X1665954Y8077500D01*
X1665957Y8077500D01*
X1864433Y8114601D01*
X2052713Y8187541D01*
X2224384Y8293835D01*
X2373600Y8429864D01*
X2495280Y8590995D01*
X2585281Y8771741D01*
X2640538Y8965947D01*
X2659168Y9167000D01*
X2640538Y9368053D01*
X2585281Y9562259D01*
X2495280Y9743005D01*
X2373600Y9904136D01*
X2298992Y9972151D01*
X2224388Y10040162D01*
X2224385Y10040164D01*
X2224384Y10040165D01*
X2052713Y10146459D01*
X2052711Y10146460D01*
X1997986Y10167660D01*
X1864433Y10219399D01*
X1864430Y10219400D01*
X1864429Y10219400D01*
X1665961Y10256500D01*
X1665957Y10256500D01*
X1464043Y10256500D01*
X1464038Y10256500D01*
X1265570Y10219400D01*
X1077288Y10146460D01*
X905611Y10040162D01*
X756403Y9904139D01*
X756396Y9904131D01*
X634720Y9743005D01*
X544719Y9562260D01*
X489462Y9368057D01*
X489460Y9368046D01*
X470832Y9167005D01*
X470832Y9166996D01*
X305300Y9166996D01*
X305300Y11706996D01*
X470832Y11706996D01*
X489460Y11505955D01*
X489462Y11505944D01*
X529261Y11366070D01*
X544719Y11311741D01*
X634720Y11130995D01*
X756400Y10969864D01*
X836286Y10897038D01*
X905611Y10833839D01*
X905612Y10833838D01*
X905616Y10833835D01*
X1077287Y10727541D01*
X1265567Y10654601D01*
X1464043Y10617500D01*
X1464046Y10617500D01*
X1665954Y10617500D01*
X1665957Y10617500D01*
X1864433Y10654601D01*
X2052713Y10727541D01*
X2224384Y10833835D01*
X2373600Y10969864D01*
X2495280Y11130995D01*
X2585281Y11311741D01*
X2640538Y11505947D01*
X2640539Y11505955D01*
X2659168Y11706996D01*
X2659168Y11707005D01*
X2640539Y11908046D01*
X2640537Y11908057D01*
X2613561Y12002865D01*
X2585281Y12102259D01*
X2495280Y12283005D01*
X2450731Y12341997D01*
X4542355Y12341997D01*
X4562858Y12173136D01*
X4562859Y12173130D01*
X4623182Y12014069D01*
X4719811Y11874078D01*
X4719816Y11874072D01*
X4719817Y11874071D01*
X4847148Y11761266D01*
X4997775Y11682210D01*
X5162944Y11641500D01*
X5162946Y11641500D01*
X5333054Y11641500D01*
X5333056Y11641500D01*
X5498225Y11682210D01*
X5648852Y11761266D01*
X5730949Y11833997D01*
X10130355Y11833997D01*
X10150858Y11665136D01*
X10150859Y11665130D01*
X10211182Y11506069D01*
X10307811Y11366078D01*
X10307816Y11366072D01*
X10307817Y11366071D01*
X10435148Y11253266D01*
X10585775Y11174210D01*
X10750944Y11133500D01*
X10750946Y11133500D01*
X10921054Y11133500D01*
X10921056Y11133500D01*
X11086225Y11174210D01*
X11236852Y11253266D01*
X11364183Y11366071D01*
X11460818Y11506070D01*
X11521140Y11665128D01*
X11526225Y11707005D01*
X11541645Y11833997D01*
X11541645Y11834004D01*
X11521141Y12002865D01*
X11521140Y12002871D01*
X11516893Y12014069D01*
X11460818Y12161930D01*
X11453089Y12173128D01*
X11364188Y12301923D01*
X11364181Y12301931D01*
X11236851Y12414735D01*
X11086226Y12493790D01*
X10921059Y12534500D01*
X10921056Y12534500D01*
X10750944Y12534500D01*
X10750940Y12534500D01*
X10585773Y12493790D01*
X10435148Y12414735D01*
X10307818Y12301931D01*
X10307811Y12301923D01*
X10211182Y12161932D01*
X10150859Y12002871D01*
X10150858Y12002865D01*
X10130355Y11834004D01*
X10130355Y11833997D01*
X5730949Y11833997D01*
X5776183Y11874071D01*
X5872818Y12014070D01*
X5933140Y12173128D01*
X5948779Y12301923D01*
X5953645Y12341997D01*
X5953645Y12342004D01*
X5933141Y12510865D01*
X5933140Y12510871D01*
X5929106Y12521507D01*
X5872818Y12669930D01*
X5861409Y12686459D01*
X5776188Y12809923D01*
X5776181Y12809931D01*
X5648851Y12922735D01*
X5498226Y13001790D01*
X5333059Y13042500D01*
X5333056Y13042500D01*
X5162944Y13042500D01*
X5162940Y13042500D01*
X4997773Y13001790D01*
X4847148Y12922735D01*
X4719818Y12809931D01*
X4719811Y12809923D01*
X4623182Y12669932D01*
X4562859Y12510871D01*
X4562858Y12510865D01*
X4542355Y12342004D01*
X4542355Y12341997D01*
X2450731Y12341997D01*
X2373600Y12444136D01*
X2298992Y12512151D01*
X2224388Y12580162D01*
X2224385Y12580164D01*
X2224384Y12580165D01*
X2052713Y12686459D01*
X2052711Y12686460D01*
X1997986Y12707660D01*
X1864433Y12759399D01*
X1864430Y12759400D01*
X1864429Y12759400D01*
X1665961Y12796500D01*
X1665957Y12796500D01*
X1464043Y12796500D01*
X1464038Y12796500D01*
X1265570Y12759400D01*
X1077288Y12686460D01*
X905611Y12580162D01*
X756403Y12444139D01*
X756396Y12444131D01*
X634720Y12283005D01*
X544719Y12102260D01*
X489462Y11908057D01*
X489460Y11908046D01*
X470832Y11707005D01*
X470832Y11706996D01*
X305300Y11706996D01*
X305300Y14246996D01*
X470832Y14246996D01*
X489460Y14045955D01*
X489462Y14045944D01*
X499774Y14009703D01*
X544719Y13851741D01*
X634720Y13670995D01*
X756400Y13509864D01*
X796421Y13473380D01*
X905611Y13373839D01*
X905612Y13373838D01*
X905616Y13373835D01*
X1077287Y13267541D01*
X1265567Y13194601D01*
X1464043Y13157500D01*
X1464046Y13157500D01*
X1665954Y13157500D01*
X1665957Y13157500D01*
X1864433Y13194601D01*
X2052713Y13267541D01*
X2224384Y13373835D01*
X2373600Y13509864D01*
X2495280Y13670995D01*
X2585281Y13851741D01*
X2589338Y13865998D01*
X6851750Y13865998D01*
X6870668Y13722298D01*
X6870669Y13722293D01*
X6870670Y13722291D01*
X6926139Y13588375D01*
X7014379Y13473379D01*
X7129375Y13385139D01*
X7263291Y13329670D01*
X7263295Y13329670D01*
X7263297Y13329669D01*
X7406997Y13310750D01*
X7407000Y13310750D01*
X7407003Y13310750D01*
X7550702Y13329669D01*
X7550702Y13329670D01*
X7550709Y13329670D01*
X7684625Y13385139D01*
X7799621Y13473379D01*
X7887861Y13588375D01*
X7943330Y13722291D01*
X7962250Y13865998D01*
X8502750Y13865998D01*
X8521668Y13722298D01*
X8521669Y13722293D01*
X8521670Y13722291D01*
X8577139Y13588375D01*
X8665379Y13473379D01*
X8780375Y13385139D01*
X8914291Y13329670D01*
X8914295Y13329670D01*
X8914297Y13329669D01*
X9057997Y13310750D01*
X9058000Y13310750D01*
X9058003Y13310750D01*
X9201702Y13329669D01*
X9201702Y13329670D01*
X9201709Y13329670D01*
X9335625Y13385139D01*
X9450621Y13473379D01*
X9538861Y13588375D01*
X9594330Y13722291D01*
X9613250Y13866000D01*
X9594330Y14009709D01*
X9538861Y14143625D01*
X9450621Y14258621D01*
X9335625Y14346861D01*
X9201709Y14402330D01*
X9201707Y14402331D01*
X9201702Y14402332D01*
X9058003Y14421250D01*
X9057997Y14421250D01*
X8914297Y14402332D01*
X8914291Y14402330D01*
X8780376Y14346862D01*
X8665379Y14258621D01*
X8577138Y14143624D01*
X8521670Y14009709D01*
X8521668Y14009703D01*
X8502750Y13866003D01*
X8502750Y13865998D01*
X7962250Y13865998D01*
X7962250Y13866000D01*
X7943330Y14009709D01*
X7887861Y14143625D01*
X7799621Y14258621D01*
X7684625Y14346861D01*
X7550709Y14402330D01*
X7550707Y14402331D01*
X7550702Y14402332D01*
X7407003Y14421250D01*
X7406997Y14421250D01*
X7263297Y14402332D01*
X7263291Y14402330D01*
X7129376Y14346862D01*
X7014379Y14258621D01*
X6926138Y14143624D01*
X6870670Y14009709D01*
X6870668Y14009703D01*
X6851750Y13866003D01*
X6851750Y13865998D01*
X2589338Y13865998D01*
X2640538Y14045947D01*
X2659168Y14247000D01*
X2658091Y14258621D01*
X2640539Y14448046D01*
X2640537Y14448057D01*
X2631596Y14479480D01*
X2585281Y14642259D01*
X2495280Y14823005D01*
X2373600Y14984136D01*
X2298992Y15052151D01*
X2224388Y15120162D01*
X2224385Y15120164D01*
X2224384Y15120165D01*
X2052713Y15226459D01*
X2052711Y15226460D01*
X1997986Y15247660D01*
X1864433Y15299399D01*
X1864430Y15299400D01*
X1864429Y15299400D01*
X1665961Y15336500D01*
X1665957Y15336500D01*
X1464043Y15336500D01*
X1464038Y15336500D01*
X1265570Y15299400D01*
X1077288Y15226460D01*
X905611Y15120162D01*
X756403Y14984139D01*
X756396Y14984131D01*
X634720Y14823005D01*
X544719Y14642260D01*
X489462Y14448057D01*
X489460Y14448046D01*
X470832Y14247005D01*
X470832Y14246996D01*
X305300Y14246996D01*
X305300Y16786996D01*
X470832Y16786996D01*
X489460Y16585955D01*
X489462Y16585944D01*
X519967Y16478734D01*
X544719Y16391741D01*
X634720Y16210995D01*
X756400Y16049864D01*
X836286Y15977038D01*
X905611Y15913839D01*
X905612Y15913838D01*
X905616Y15913835D01*
X1077287Y15807541D01*
X1265567Y15734601D01*
X1464043Y15697500D01*
X1464046Y15697500D01*
X1665954Y15697500D01*
X1665957Y15697500D01*
X1864433Y15734601D01*
X2052713Y15807541D01*
X2198805Y15897997D01*
X11273355Y15897997D01*
X11293858Y15729136D01*
X11293859Y15729130D01*
X11354182Y15570069D01*
X11450811Y15430078D01*
X11450816Y15430072D01*
X11450817Y15430071D01*
X11578148Y15317266D01*
X11728775Y15238210D01*
X11893944Y15197500D01*
X11893946Y15197500D01*
X12064054Y15197500D01*
X12064056Y15197500D01*
X12229225Y15238210D01*
X12379852Y15317266D01*
X12507183Y15430071D01*
X12603818Y15570070D01*
X12664140Y15729128D01*
X12684645Y15898000D01*
X12682722Y15913835D01*
X12664141Y16066865D01*
X12664140Y16066871D01*
X12635234Y16143090D01*
X12603818Y16225930D01*
X12603817Y16225932D01*
X12507188Y16365923D01*
X12507181Y16365931D01*
X12379851Y16478735D01*
X12229226Y16557790D01*
X12064059Y16598500D01*
X12064056Y16598500D01*
X11893944Y16598500D01*
X11893940Y16598500D01*
X11728773Y16557790D01*
X11578148Y16478735D01*
X11450818Y16365931D01*
X11450811Y16365923D01*
X11354182Y16225932D01*
X11293859Y16066871D01*
X11293858Y16066865D01*
X11273355Y15898004D01*
X11273355Y15897997D01*
X2198805Y15897997D01*
X2224384Y15913835D01*
X2373600Y16049864D01*
X2495280Y16210995D01*
X2585281Y16391741D01*
X2640538Y16585947D01*
X2659168Y16787000D01*
X2640538Y16988053D01*
X2585281Y17182259D01*
X2495280Y17363005D01*
X2373600Y17524136D01*
X2298992Y17592151D01*
X2224388Y17660162D01*
X2224385Y17660164D01*
X2224384Y17660165D01*
X2052713Y17766459D01*
X2052711Y17766460D01*
X1997986Y17787660D01*
X1864433Y17839399D01*
X1864430Y17839400D01*
X1864429Y17839400D01*
X1665961Y17876500D01*
X1665957Y17876500D01*
X1464043Y17876500D01*
X1464038Y17876500D01*
X1265570Y17839400D01*
X1077288Y17766460D01*
X905611Y17660162D01*
X756403Y17524139D01*
X756396Y17524131D01*
X634720Y17363005D01*
X544719Y17182260D01*
X489462Y16988057D01*
X489460Y16988046D01*
X470832Y16787005D01*
X470832Y16786996D01*
X305300Y16786996D01*
X305300Y19326996D01*
X470832Y19326996D01*
X489460Y19125955D01*
X489462Y19125944D01*
X544719Y18931741D01*
X634720Y18750995D01*
X756400Y18589864D01*
X836286Y18517038D01*
X905611Y18453839D01*
X905612Y18453838D01*
X905616Y18453835D01*
X1077287Y18347541D01*
X1265567Y18274601D01*
X1464043Y18237500D01*
X1464046Y18237500D01*
X1665954Y18237500D01*
X1665957Y18237500D01*
X1864433Y18274601D01*
X2052713Y18347541D01*
X2224384Y18453835D01*
X2373600Y18589864D01*
X2495280Y18750995D01*
X2585281Y18931741D01*
X2640538Y19125947D01*
X2659168Y19327000D01*
X2640538Y19528053D01*
X2585281Y19722259D01*
X2495280Y19903005D01*
X2373600Y20064136D01*
X2298992Y20132151D01*
X2224388Y20200162D01*
X2224385Y20200164D01*
X2224384Y20200165D01*
X2052713Y20306459D01*
X2052711Y20306460D01*
X1997986Y20327660D01*
X1958394Y20342998D01*
X4819750Y20342998D01*
X4838668Y20199298D01*
X4838669Y20199293D01*
X4838670Y20199291D01*
X4894139Y20065375D01*
X4982379Y19950379D01*
X5097375Y19862139D01*
X5231291Y19806670D01*
X5231295Y19806670D01*
X5231297Y19806669D01*
X5374997Y19787750D01*
X5375000Y19787750D01*
X5375003Y19787750D01*
X5518702Y19806669D01*
X5518702Y19806670D01*
X5518709Y19806670D01*
X5652625Y19862139D01*
X5767621Y19950379D01*
X5855861Y20065375D01*
X5911330Y20199291D01*
X5925439Y20306459D01*
X5930250Y20342998D01*
X5930250Y20343003D01*
X5911331Y20486703D01*
X5911330Y20486705D01*
X5911330Y20486709D01*
X5855861Y20620625D01*
X5767621Y20735621D01*
X5652625Y20823861D01*
X5518709Y20879330D01*
X5518707Y20879331D01*
X5518702Y20879332D01*
X5375003Y20898250D01*
X5374997Y20898250D01*
X5231297Y20879332D01*
X5231291Y20879330D01*
X5097376Y20823862D01*
X4982379Y20735621D01*
X4894138Y20620624D01*
X4838670Y20486709D01*
X4838668Y20486703D01*
X4819750Y20343003D01*
X4819750Y20342998D01*
X1958394Y20342998D01*
X1864433Y20379399D01*
X1864430Y20379400D01*
X1864429Y20379400D01*
X1665961Y20416500D01*
X1665957Y20416500D01*
X1464043Y20416500D01*
X1464038Y20416500D01*
X1265570Y20379400D01*
X1077288Y20306460D01*
X905611Y20200162D01*
X756403Y20064139D01*
X756396Y20064131D01*
X634720Y19903005D01*
X544719Y19722260D01*
X489462Y19528057D01*
X489460Y19528046D01*
X470832Y19327005D01*
X470832Y19326996D01*
X305300Y19326996D01*
X305300Y21866996D01*
X470832Y21866996D01*
X489460Y21665955D01*
X489462Y21665944D01*
X499774Y21629703D01*
X544719Y21471741D01*
X634720Y21290995D01*
X756400Y21129864D01*
X836286Y21057038D01*
X905611Y20993839D01*
X905612Y20993838D01*
X905616Y20993835D01*
X1077287Y20887541D01*
X1265567Y20814601D01*
X1464043Y20777500D01*
X1464046Y20777500D01*
X1665954Y20777500D01*
X1665957Y20777500D01*
X1864433Y20814601D01*
X2052713Y20887541D01*
X2224384Y20993835D01*
X2373600Y21129864D01*
X2495280Y21290995D01*
X2585281Y21471741D01*
X2640538Y21665947D01*
X2657620Y21850292D01*
X2659168Y21866996D01*
X2659168Y21867005D01*
X2647400Y21993998D01*
X4565750Y21993998D01*
X4584668Y21850298D01*
X4584669Y21850293D01*
X4584670Y21850291D01*
X4640139Y21716375D01*
X4728379Y21601379D01*
X4843375Y21513139D01*
X4977291Y21457670D01*
X4977295Y21457670D01*
X4977297Y21457669D01*
X5120997Y21438750D01*
X5121000Y21438750D01*
X5121003Y21438750D01*
X5264702Y21457669D01*
X5264702Y21457670D01*
X5264709Y21457670D01*
X5398625Y21513139D01*
X5513621Y21601379D01*
X5601861Y21716375D01*
X5657330Y21850291D01*
X5659530Y21867000D01*
X5676250Y21993998D01*
X5676250Y21994003D01*
X5657331Y22137703D01*
X5657330Y22137705D01*
X5657330Y22137709D01*
X5601861Y22271625D01*
X5513621Y22386621D01*
X5398625Y22474861D01*
X5264709Y22530330D01*
X5264707Y22530331D01*
X5264702Y22530332D01*
X5121003Y22549250D01*
X5120997Y22549250D01*
X4977297Y22530332D01*
X4977291Y22530330D01*
X4843376Y22474862D01*
X4728379Y22386621D01*
X4640138Y22271624D01*
X4584670Y22137709D01*
X4584668Y22137703D01*
X4565750Y21994003D01*
X4565750Y21993998D01*
X2647400Y21993998D01*
X2640539Y22068046D01*
X2640537Y22068057D01*
X2628779Y22109380D01*
X2585281Y22262259D01*
X2495280Y22443005D01*
X2373600Y22604136D01*
X2296407Y22674507D01*
X2224388Y22740162D01*
X2224385Y22740164D01*
X2224384Y22740165D01*
X2052713Y22846459D01*
X2052711Y22846460D01*
X1928392Y22894621D01*
X1864433Y22919399D01*
X1864430Y22919400D01*
X1864429Y22919400D01*
X1665961Y22956500D01*
X1665957Y22956500D01*
X1464043Y22956500D01*
X1464038Y22956500D01*
X1265570Y22919400D01*
X1265567Y22919400D01*
X1265567Y22919399D01*
X1247498Y22912399D01*
X1077288Y22846460D01*
X905611Y22740162D01*
X756403Y22604139D01*
X756396Y22604131D01*
X634720Y22443005D01*
X544719Y22262260D01*
X489462Y22068057D01*
X489460Y22068046D01*
X470832Y21867005D01*
X470832Y21866996D01*
X305300Y21866996D01*
X305300Y23009998D01*
X7232750Y23009998D01*
X7251668Y22866298D01*
X7251669Y22866293D01*
X7251670Y22866291D01*
X7262784Y22839460D01*
X7303913Y22740162D01*
X7307139Y22732375D01*
X7395379Y22617379D01*
X7510375Y22529139D01*
X7644291Y22473670D01*
X7644295Y22473670D01*
X7644297Y22473669D01*
X7787997Y22454750D01*
X7788000Y22454750D01*
X7788003Y22454750D01*
X7931702Y22473669D01*
X7931702Y22473670D01*
X7931709Y22473670D01*
X8065625Y22529139D01*
X8180621Y22617379D01*
X8182915Y22620368D01*
X8224341Y22644286D01*
X8270547Y22631906D01*
X8282085Y22620368D01*
X8284379Y22617379D01*
X8399375Y22529139D01*
X8533291Y22473670D01*
X8533295Y22473670D01*
X8533297Y22473669D01*
X8676997Y22454750D01*
X8677000Y22454750D01*
X8677003Y22454750D01*
X8817802Y22473287D01*
X8864007Y22460907D01*
X8887925Y22419480D01*
X8902668Y22307499D01*
X8902669Y22307493D01*
X8902670Y22307491D01*
X8958139Y22173575D01*
X9046379Y22058579D01*
X9161375Y21970339D01*
X9161376Y21970339D01*
X9163642Y21968600D01*
X9187559Y21927173D01*
X9175179Y21880968D01*
X9085139Y21763626D01*
X9029670Y21629709D01*
X9029668Y21629703D01*
X9010750Y21486003D01*
X9010750Y21485998D01*
X9029668Y21342298D01*
X9029669Y21342293D01*
X9029670Y21342291D01*
X9085139Y21208375D01*
X9173379Y21093379D01*
X9288375Y21005139D01*
X9422291Y20949670D01*
X9422295Y20949670D01*
X9422297Y20949669D01*
X9565997Y20930750D01*
X9566000Y20930750D01*
X9566003Y20930750D01*
X9709702Y20949669D01*
X9709702Y20949670D01*
X9709709Y20949670D01*
X9843625Y21005139D01*
X9958621Y21093379D01*
X10046861Y21208375D01*
X10102330Y21342291D01*
X10102331Y21342298D01*
X10121250Y21485998D01*
X10121250Y21486003D01*
X10102331Y21629703D01*
X10102330Y21629705D01*
X10102330Y21629709D01*
X10046861Y21763625D01*
X9958621Y21878621D01*
X9958619Y21878622D01*
X9958619Y21878623D01*
X9845178Y21965669D01*
X9843625Y21966861D01*
X9843623Y21966862D01*
X9841358Y21968600D01*
X9817440Y22010027D01*
X9829820Y22056232D01*
X9829821Y22056233D01*
X9919860Y22173574D01*
X9919861Y22173575D01*
X9975330Y22307491D01*
X9994250Y22451200D01*
X9991342Y22473287D01*
X9975331Y22594903D01*
X9975330Y22594905D01*
X9975330Y22594909D01*
X9919861Y22728825D01*
X9831621Y22843821D01*
X9716625Y22932061D01*
X9582709Y22987530D01*
X9582707Y22987531D01*
X9582702Y22987532D01*
X9439003Y23006450D01*
X9438997Y23006450D01*
X9298197Y22987914D01*
X9251991Y23000295D01*
X9228074Y23041721D01*
X9213331Y23153703D01*
X9213330Y23153705D01*
X9213330Y23153709D01*
X9157861Y23287625D01*
X9069621Y23402621D01*
X8954625Y23490861D01*
X8820709Y23546330D01*
X8820707Y23546331D01*
X8820702Y23546332D01*
X8677003Y23565250D01*
X8676997Y23565250D01*
X8533297Y23546332D01*
X8533291Y23546330D01*
X8399376Y23490862D01*
X8284376Y23402619D01*
X8282082Y23399629D01*
X8240654Y23375714D01*
X8194449Y23388098D01*
X8182918Y23399629D01*
X8180623Y23402619D01*
X8180621Y23402620D01*
X8180621Y23402621D01*
X8065625Y23490861D01*
X7931709Y23546330D01*
X7931707Y23546331D01*
X7931702Y23546332D01*
X7788003Y23565250D01*
X7787997Y23565250D01*
X7644297Y23546332D01*
X7644291Y23546330D01*
X7510376Y23490862D01*
X7395379Y23402621D01*
X7307138Y23287624D01*
X7251670Y23153709D01*
X7251668Y23153703D01*
X7232750Y23010003D01*
X7232750Y23009998D01*
X305300Y23009998D01*
X305300Y24406996D01*
X470832Y24406996D01*
X489460Y24205955D01*
X489462Y24205944D01*
X532940Y24053139D01*
X544719Y24011741D01*
X634720Y23830995D01*
X756400Y23669864D01*
X809590Y23621375D01*
X905611Y23533839D01*
X905612Y23533838D01*
X905616Y23533835D01*
X1077287Y23427541D01*
X1265567Y23354601D01*
X1464043Y23317500D01*
X1464046Y23317500D01*
X1665954Y23317500D01*
X1665957Y23317500D01*
X1864433Y23354601D01*
X2052713Y23427541D01*
X2224384Y23533835D01*
X2373600Y23669864D01*
X2495280Y23830995D01*
X2585281Y24011741D01*
X2598442Y24057998D01*
X4565750Y24057998D01*
X4584668Y23914298D01*
X4584669Y23914293D01*
X4584670Y23914291D01*
X4640139Y23780375D01*
X4728379Y23665379D01*
X4843375Y23577139D01*
X4977291Y23521670D01*
X4977295Y23521670D01*
X4977297Y23521669D01*
X5120997Y23502750D01*
X5121000Y23502750D01*
X5121003Y23502750D01*
X5264702Y23521669D01*
X5264702Y23521670D01*
X5264709Y23521670D01*
X5398625Y23577139D01*
X5513621Y23665379D01*
X5601861Y23780375D01*
X5650996Y23898998D01*
X9264750Y23898998D01*
X9283668Y23755298D01*
X9283669Y23755293D01*
X9283670Y23755291D01*
X9339139Y23621375D01*
X9427379Y23506379D01*
X9542375Y23418139D01*
X9676291Y23362670D01*
X9676295Y23362670D01*
X9676297Y23362669D01*
X9819997Y23343750D01*
X9820000Y23343750D01*
X9820003Y23343750D01*
X9960326Y23362224D01*
X10006532Y23349844D01*
X10030449Y23308417D01*
X10030449Y23292102D01*
X10026750Y23264004D01*
X10026750Y23263998D01*
X10045668Y23120298D01*
X10045669Y23120293D01*
X10045670Y23120291D01*
X10076234Y23046501D01*
X10100660Y22987530D01*
X10101139Y22986375D01*
X10189379Y22871379D01*
X10304375Y22783139D01*
X10438291Y22727670D01*
X10438295Y22727670D01*
X10438297Y22727669D01*
X10500345Y22719500D01*
X10541771Y22695583D01*
X10554152Y22649377D01*
X10534750Y22502003D01*
X10534750Y22501998D01*
X10553668Y22358298D01*
X10553669Y22358293D01*
X10553670Y22358291D01*
X10609139Y22224375D01*
X10697379Y22109379D01*
X10812375Y22021139D01*
X10946291Y21965670D01*
X10946295Y21965670D01*
X10946297Y21965669D01*
X11089997Y21946750D01*
X11090000Y21946750D01*
X11090003Y21946750D01*
X11233702Y21965669D01*
X11233702Y21965670D01*
X11233709Y21965670D01*
X11367625Y22021139D01*
X11482621Y22109379D01*
X11570861Y22224375D01*
X11626330Y22358291D01*
X11634386Y22419480D01*
X11645250Y22501998D01*
X11645250Y22502003D01*
X11626331Y22645703D01*
X11626330Y22645705D01*
X11626330Y22645709D01*
X11570861Y22779625D01*
X11482621Y22894621D01*
X11367625Y22982861D01*
X11359141Y22986375D01*
X11233704Y23038332D01*
X11233705Y23038332D01*
X11171654Y23046501D01*
X11130227Y23070419D01*
X11117847Y23116624D01*
X11137250Y23263998D01*
X11137250Y23264003D01*
X11118331Y23407703D01*
X11118330Y23407705D01*
X11118330Y23407709D01*
X11062861Y23541625D01*
X10974621Y23656621D01*
X10859625Y23744861D01*
X10834444Y23755291D01*
X10773885Y23780375D01*
X10725709Y23800330D01*
X10725707Y23800331D01*
X10725702Y23800332D01*
X10582003Y23819250D01*
X10581997Y23819250D01*
X10441673Y23800776D01*
X10395467Y23813156D01*
X10371550Y23854583D01*
X10371550Y23870900D01*
X10375250Y23899000D01*
X10375250Y23899003D01*
X10356331Y24042703D01*
X10356330Y24042705D01*
X10356330Y24042709D01*
X10300861Y24176625D01*
X10212621Y24291621D01*
X10097625Y24379861D01*
X10072444Y24390291D01*
X10032114Y24406996D01*
X9963709Y24435330D01*
X9963707Y24435331D01*
X9963702Y24435332D01*
X9820003Y24454250D01*
X9819997Y24454250D01*
X9676297Y24435332D01*
X9676291Y24435330D01*
X9542376Y24379862D01*
X9427379Y24291621D01*
X9339138Y24176624D01*
X9283670Y24042709D01*
X9283668Y24042703D01*
X9264750Y23899003D01*
X9264750Y23898998D01*
X5650996Y23898998D01*
X5657330Y23914291D01*
X5657331Y23914298D01*
X5676250Y24057998D01*
X5676250Y24058003D01*
X5657331Y24201703D01*
X5657330Y24201705D01*
X5657330Y24201709D01*
X5601861Y24335625D01*
X5513621Y24450621D01*
X5513619Y24450622D01*
X5513619Y24450623D01*
X5479241Y24477002D01*
X5448727Y24500416D01*
X5429339Y24533998D01*
X5835750Y24533998D01*
X5854668Y24390298D01*
X5854669Y24390293D01*
X5854670Y24390291D01*
X5910139Y24256375D01*
X5998379Y24141379D01*
X6113375Y24053139D01*
X6247291Y23997670D01*
X6247295Y23997670D01*
X6247297Y23997669D01*
X6390997Y23978750D01*
X6391000Y23978750D01*
X6391003Y23978750D01*
X6534702Y23997669D01*
X6534702Y23997670D01*
X6534709Y23997670D01*
X6668625Y24053139D01*
X6783621Y24141379D01*
X6871861Y24256375D01*
X6927330Y24390291D01*
X6929530Y24407000D01*
X6946250Y24533998D01*
X6946250Y24534003D01*
X6927331Y24677703D01*
X6927330Y24677705D01*
X6927330Y24677709D01*
X6871861Y24811625D01*
X6783621Y24926621D01*
X6783619Y24926622D01*
X6783619Y24926623D01*
X6697877Y24992415D01*
X6673959Y25033842D01*
X6686339Y25080047D01*
X6697877Y25091585D01*
X6783621Y25157379D01*
X6792537Y25168998D01*
X11042750Y25168998D01*
X11061668Y25025298D01*
X11061669Y25025293D01*
X11061670Y25025291D01*
X11117139Y24891375D01*
X11205379Y24776379D01*
X11320375Y24688139D01*
X11454291Y24632670D01*
X11454295Y24632670D01*
X11454297Y24632669D01*
X11597997Y24613750D01*
X11598000Y24613750D01*
X11598003Y24613750D01*
X11741702Y24632669D01*
X11741702Y24632670D01*
X11741709Y24632670D01*
X11875625Y24688139D01*
X11990621Y24776379D01*
X12078861Y24891375D01*
X12134330Y25025291D01*
X12136530Y25042003D01*
X12153250Y25168998D01*
X12153250Y25169003D01*
X12134331Y25312703D01*
X12134330Y25312705D01*
X12134330Y25312709D01*
X12078861Y25446625D01*
X11990621Y25561621D01*
X11875625Y25649861D01*
X11741709Y25705330D01*
X11741707Y25705331D01*
X11741702Y25705332D01*
X11598003Y25724250D01*
X11597997Y25724250D01*
X11454297Y25705332D01*
X11454291Y25705330D01*
X11320376Y25649862D01*
X11205379Y25561621D01*
X11117138Y25446624D01*
X11061670Y25312709D01*
X11061668Y25312703D01*
X11042750Y25169003D01*
X11042750Y25168998D01*
X6792537Y25168998D01*
X6871861Y25272375D01*
X6927330Y25406291D01*
X6933400Y25452399D01*
X6946250Y25549998D01*
X6946250Y25550003D01*
X6927332Y25693697D01*
X6927331Y25693701D01*
X6927330Y25693709D01*
X6927326Y25693718D01*
X6927189Y25694231D01*
X6927225Y25694509D01*
X6926796Y25697770D01*
X6927669Y25697885D01*
X6933422Y25741659D01*
X6971366Y25770788D01*
X6979400Y25772386D01*
X6991759Y25774014D01*
X7010709Y25776508D01*
X7144625Y25831977D01*
X7259621Y25920217D01*
X7347861Y26035213D01*
X7403330Y26169129D01*
X7422250Y26312838D01*
X7414593Y26370995D01*
X7403331Y26456541D01*
X7403330Y26456543D01*
X7403330Y26456547D01*
X7347861Y26590463D01*
X7259621Y26705459D01*
X7144625Y26793699D01*
X7010709Y26849168D01*
X7010707Y26849169D01*
X7010702Y26849170D01*
X6867003Y26868088D01*
X6866997Y26868088D01*
X6723297Y26849170D01*
X6723291Y26849168D01*
X6589376Y26793700D01*
X6474379Y26705459D01*
X6386138Y26590462D01*
X6330670Y26456547D01*
X6330668Y26456541D01*
X6311750Y26312841D01*
X6311750Y26312836D01*
X6330670Y26169124D01*
X6330814Y26168586D01*
X6330777Y26168309D01*
X6331204Y26165068D01*
X6330335Y26164954D01*
X6324565Y26121161D01*
X6286610Y26092046D01*
X6278600Y26090453D01*
X6247295Y26086332D01*
X6113376Y26030862D01*
X5998379Y25942621D01*
X5910138Y25827624D01*
X5854670Y25693709D01*
X5854668Y25693703D01*
X5835750Y25550003D01*
X5835750Y25549998D01*
X5854668Y25406298D01*
X5854670Y25406292D01*
X5906913Y25280162D01*
X5910139Y25272375D01*
X5998379Y25157379D01*
X5998381Y25157377D01*
X6084123Y25091584D01*
X6108040Y25050158D01*
X6095659Y25003952D01*
X6084123Y24992416D01*
X5998381Y24926624D01*
X5910138Y24811624D01*
X5854670Y24677709D01*
X5854668Y24677703D01*
X5835750Y24534003D01*
X5835750Y24533998D01*
X5429339Y24533998D01*
X5424810Y24541842D01*
X5437190Y24588047D01*
X5448726Y24599584D01*
X5513621Y24649379D01*
X5601861Y24764375D01*
X5657330Y24898291D01*
X5661060Y24926624D01*
X5676250Y25041998D01*
X5676250Y25042003D01*
X5657331Y25185703D01*
X5657330Y25185705D01*
X5657330Y25185709D01*
X5601861Y25319625D01*
X5513621Y25434621D01*
X5513619Y25434622D01*
X5513619Y25434623D01*
X5427877Y25500415D01*
X5403959Y25541842D01*
X5416339Y25588047D01*
X5427877Y25599585D01*
X5513621Y25665379D01*
X5601861Y25780375D01*
X5657330Y25914291D01*
X5672677Y26030862D01*
X5676250Y26057998D01*
X5676250Y26058003D01*
X5657331Y26201703D01*
X5657330Y26201705D01*
X5657330Y26201709D01*
X5601861Y26335625D01*
X5513621Y26450621D01*
X5398625Y26538861D01*
X5367529Y26551741D01*
X5359397Y26555110D01*
X5264709Y26594330D01*
X5264707Y26594331D01*
X5264702Y26594332D01*
X5121003Y26613250D01*
X5120997Y26613250D01*
X4977297Y26594332D01*
X4977291Y26594330D01*
X4843376Y26538862D01*
X4728379Y26450621D01*
X4640138Y26335624D01*
X4584670Y26201709D01*
X4584668Y26201703D01*
X4565750Y26058003D01*
X4565750Y26057998D01*
X4584668Y25914298D01*
X4584669Y25914293D01*
X4584670Y25914291D01*
X4640139Y25780375D01*
X4706650Y25693697D01*
X4728381Y25665377D01*
X4814123Y25599584D01*
X4838040Y25558158D01*
X4825659Y25511952D01*
X4814123Y25500416D01*
X4728381Y25434624D01*
X4640138Y25319624D01*
X4584670Y25185709D01*
X4584668Y25185703D01*
X4565750Y25042003D01*
X4565750Y25041998D01*
X4584668Y24898298D01*
X4584669Y24898293D01*
X4584670Y24898291D01*
X4640139Y24764375D01*
X4728379Y24649379D01*
X4793272Y24599585D01*
X4817189Y24558158D01*
X4804809Y24511952D01*
X4793273Y24500417D01*
X4733108Y24454250D01*
X4728379Y24450621D01*
X4640138Y24335624D01*
X4584670Y24201709D01*
X4584668Y24201703D01*
X4565750Y24058003D01*
X4565750Y24057998D01*
X2598442Y24057998D01*
X2640538Y24205947D01*
X2652554Y24335624D01*
X2659168Y24406996D01*
X2659168Y24407005D01*
X2640539Y24608046D01*
X2640537Y24608057D01*
X2628779Y24649380D01*
X2585281Y24802259D01*
X2495280Y24983005D01*
X2373600Y25144136D01*
X2296407Y25214507D01*
X2224388Y25280162D01*
X2224385Y25280164D01*
X2224384Y25280165D01*
X2052713Y25386459D01*
X2052711Y25386460D01*
X1928387Y25434623D01*
X1864433Y25459399D01*
X1864430Y25459400D01*
X1864429Y25459400D01*
X1665961Y25496500D01*
X1665957Y25496500D01*
X1464043Y25496500D01*
X1464038Y25496500D01*
X1265570Y25459400D01*
X1265567Y25459400D01*
X1265567Y25459399D01*
X1232591Y25446624D01*
X1077288Y25386460D01*
X905611Y25280162D01*
X756403Y25144139D01*
X756396Y25144131D01*
X634720Y24983005D01*
X544719Y24802260D01*
X489462Y24608057D01*
X489460Y24608046D01*
X470832Y24407005D01*
X470832Y24406996D01*
X305300Y24406996D01*
X305300Y26946996D01*
X470832Y26946996D01*
X489460Y26745955D01*
X489462Y26745944D01*
X533702Y26590462D01*
X544719Y26551741D01*
X634720Y26370995D01*
X756400Y26209864D01*
X805539Y26165068D01*
X905611Y26073839D01*
X905612Y26073838D01*
X905616Y26073835D01*
X1077287Y25967541D01*
X1265567Y25894601D01*
X1464043Y25857500D01*
X1464046Y25857500D01*
X1665954Y25857500D01*
X1665957Y25857500D01*
X1864433Y25894601D01*
X2052713Y25967541D01*
X2224384Y26073835D01*
X2373600Y26209864D01*
X2495280Y26370995D01*
X2585281Y26551741D01*
X2640538Y26745947D01*
X2659168Y26947000D01*
X2640538Y27148053D01*
X2585281Y27342259D01*
X2495280Y27523005D01*
X2373600Y27684136D01*
X2298992Y27752151D01*
X2224388Y27820162D01*
X2224385Y27820164D01*
X2224384Y27820165D01*
X2052713Y27926459D01*
X2052711Y27926460D01*
X1997986Y27947660D01*
X1864433Y27999399D01*
X1864430Y27999400D01*
X1864429Y27999400D01*
X1665961Y28036500D01*
X1665957Y28036500D01*
X1464043Y28036500D01*
X1464038Y28036500D01*
X1265570Y27999400D01*
X1077288Y27926460D01*
X905611Y27820162D01*
X756403Y27684139D01*
X756396Y27684131D01*
X634720Y27523005D01*
X544719Y27342260D01*
X489462Y27148057D01*
X489460Y27148046D01*
X470832Y26947005D01*
X470832Y26946996D01*
X305300Y26946996D01*
X305300Y29486996D01*
X470832Y29486996D01*
X489460Y29285955D01*
X489462Y29285944D01*
X510325Y29212621D01*
X544719Y29091741D01*
X634720Y28910995D01*
X756400Y28749864D01*
X809590Y28701375D01*
X905611Y28613839D01*
X905612Y28613838D01*
X905616Y28613835D01*
X1077287Y28507541D01*
X1265567Y28434601D01*
X1464043Y28397500D01*
X1464046Y28397500D01*
X1665954Y28397500D01*
X1665957Y28397500D01*
X1864433Y28434601D01*
X2052713Y28507541D01*
X2224384Y28613835D01*
X2373600Y28749864D01*
X2426563Y28819998D01*
X4216750Y28819998D01*
X4235668Y28676298D01*
X4235669Y28676293D01*
X4235670Y28676291D01*
X4291139Y28542375D01*
X4379379Y28427379D01*
X4494375Y28339139D01*
X4628291Y28283670D01*
X4628295Y28283670D01*
X4628297Y28283669D01*
X4771997Y28264750D01*
X4772000Y28264750D01*
X4772003Y28264750D01*
X4915702Y28283669D01*
X4915702Y28283670D01*
X4915709Y28283670D01*
X5049625Y28339139D01*
X5164621Y28427379D01*
X5252861Y28542375D01*
X5308330Y28676291D01*
X5308428Y28677038D01*
X5327250Y28819998D01*
X5327250Y28820003D01*
X5308331Y28963703D01*
X5308330Y28963705D01*
X5308330Y28963709D01*
X5301997Y28978998D01*
X9391750Y28978998D01*
X9410668Y28835298D01*
X9410669Y28835293D01*
X9410670Y28835291D01*
X9466139Y28701375D01*
X9554379Y28586379D01*
X9669375Y28498139D01*
X9803291Y28442670D01*
X9803295Y28442670D01*
X9803297Y28442669D01*
X9946997Y28423750D01*
X9947000Y28423750D01*
X9947003Y28423750D01*
X10090702Y28442669D01*
X10090702Y28442670D01*
X10090709Y28442670D01*
X10224625Y28498139D01*
X10339621Y28586379D01*
X10427861Y28701375D01*
X10483330Y28835291D01*
X10502250Y28979000D01*
X10500263Y28994091D01*
X10483331Y29122703D01*
X10483330Y29122705D01*
X10483330Y29122709D01*
X10427861Y29256625D01*
X10339621Y29371621D01*
X10224625Y29459861D01*
X10090709Y29515330D01*
X10090707Y29515331D01*
X10090702Y29515332D01*
X9947003Y29534250D01*
X9946997Y29534250D01*
X9803297Y29515332D01*
X9803291Y29515330D01*
X9669376Y29459862D01*
X9554379Y29371621D01*
X9466138Y29256624D01*
X9410670Y29122709D01*
X9410668Y29122703D01*
X9391750Y28979003D01*
X9391750Y28978998D01*
X5301997Y28978998D01*
X5252861Y29097625D01*
X5164621Y29212621D01*
X5049625Y29300861D01*
X5049624Y29300862D01*
X5049622Y29300863D01*
X5041239Y29304335D01*
X5007415Y29338161D01*
X5007416Y29385996D01*
X5041241Y29419820D01*
X5068425Y29431079D01*
X5183421Y29519319D01*
X5271661Y29634315D01*
X5327130Y29768231D01*
X5338065Y29851291D01*
X5346050Y29911938D01*
X5346050Y29911943D01*
X5327131Y30055643D01*
X5327130Y30055645D01*
X5327130Y30055649D01*
X5271661Y30189565D01*
X5189665Y30296423D01*
X5177286Y30342628D01*
X5189666Y30372518D01*
X5192340Y30376003D01*
X5271661Y30479375D01*
X5327130Y30613291D01*
X5327645Y30617204D01*
X5346050Y30756998D01*
X5346050Y30757003D01*
X5339103Y30809768D01*
X5351483Y30855973D01*
X5392910Y30879891D01*
X5439115Y30867511D01*
X5458810Y30841844D01*
X5503739Y30733375D01*
X5591979Y30618379D01*
X5706975Y30530139D01*
X5840891Y30474670D01*
X5840895Y30474670D01*
X5840897Y30474669D01*
X5984597Y30455750D01*
X5984600Y30455750D01*
X5984603Y30455750D01*
X6128302Y30474669D01*
X6128302Y30474670D01*
X6128309Y30474670D01*
X6262225Y30530139D01*
X6377221Y30618379D01*
X6465461Y30733375D01*
X6520930Y30867291D01*
X6527904Y30920260D01*
X6539850Y31010998D01*
X6539850Y31011003D01*
X6520931Y31154703D01*
X6520930Y31154705D01*
X6520930Y31154709D01*
X6465461Y31288625D01*
X6421634Y31345741D01*
X6409255Y31391945D01*
X6433170Y31433370D01*
X6529621Y31507379D01*
X6617861Y31622375D01*
X6673330Y31756291D01*
X6682502Y31825955D01*
X6692250Y31899998D01*
X6692250Y31900003D01*
X6673331Y32043703D01*
X6673330Y32043705D01*
X6673330Y32043709D01*
X6617861Y32177625D01*
X6529621Y32292621D01*
X6414625Y32380861D01*
X6280709Y32436330D01*
X6280707Y32436331D01*
X6280702Y32436332D01*
X6137003Y32455250D01*
X6136997Y32455250D01*
X6074354Y32447003D01*
X6028148Y32459383D01*
X6004231Y32500810D01*
X6008453Y32532884D01*
X6012930Y32543691D01*
X6014503Y32555641D01*
X6031850Y32687398D01*
X6031850Y32687403D01*
X6012931Y32831103D01*
X6012930Y32831105D01*
X6012930Y32831109D01*
X5957461Y32965025D01*
X5957460Y32965027D01*
X5928757Y33002432D01*
X5916376Y33048637D01*
X5940293Y33090064D01*
X5940293Y33090065D01*
X5996221Y33132979D01*
X6084461Y33247975D01*
X6139930Y33381891D01*
X6148897Y33449999D01*
X6158850Y33525598D01*
X6158850Y33525603D01*
X6139931Y33669303D01*
X6139930Y33669305D01*
X6139930Y33669309D01*
X6084461Y33803225D01*
X5996221Y33918221D01*
X5881225Y34006461D01*
X5747309Y34061930D01*
X5747307Y34061931D01*
X5747302Y34061932D01*
X5603603Y34080850D01*
X5603597Y34080850D01*
X5459897Y34061932D01*
X5459891Y34061930D01*
X5325976Y34006462D01*
X5210979Y33918221D01*
X5122738Y33803224D01*
X5067270Y33669309D01*
X5067268Y33669303D01*
X5048350Y33525603D01*
X5048350Y33525598D01*
X5067268Y33381898D01*
X5067269Y33381893D01*
X5067270Y33381891D01*
X5090698Y33325330D01*
X5122739Y33247975D01*
X5122739Y33247974D01*
X5151442Y33210569D01*
X5163823Y33164364D01*
X5139906Y33122937D01*
X5083981Y33080024D01*
X4995738Y32965024D01*
X4940270Y32831109D01*
X4940268Y32831103D01*
X4921350Y32687403D01*
X4921350Y32687398D01*
X4940268Y32543698D01*
X4940269Y32543695D01*
X4940270Y32543691D01*
X4962436Y32490176D01*
X4990140Y32423291D01*
X4995739Y32409775D01*
X5083979Y32294779D01*
X5198975Y32206539D01*
X5237647Y32190521D01*
X5271472Y32156696D01*
X5271473Y32108861D01*
X5237648Y32075036D01*
X5221888Y32070813D01*
X5104298Y32055332D01*
X5104291Y32055330D01*
X4970376Y31999862D01*
X4855379Y31911621D01*
X4767138Y31796624D01*
X4711670Y31662709D01*
X4711668Y31662703D01*
X4692750Y31519003D01*
X4692750Y31518998D01*
X4711669Y31375293D01*
X4712237Y31373173D01*
X4712092Y31372077D01*
X4712204Y31371230D01*
X4711977Y31371201D01*
X4705991Y31325747D01*
X4668040Y31296628D01*
X4660026Y31295034D01*
X4647097Y31293332D01*
X4647091Y31293330D01*
X4513176Y31237862D01*
X4398179Y31149621D01*
X4309938Y31034624D01*
X4254470Y30900709D01*
X4254468Y30900703D01*
X4235550Y30757003D01*
X4235550Y30756998D01*
X4254468Y30613298D01*
X4254469Y30613296D01*
X4254470Y30613291D01*
X4285076Y30539400D01*
X4308420Y30483041D01*
X4309939Y30479375D01*
X4389260Y30376003D01*
X4391934Y30372518D01*
X4404314Y30326312D01*
X4391934Y30296422D01*
X4309938Y30189564D01*
X4254470Y30055649D01*
X4254468Y30055643D01*
X4235550Y29911943D01*
X4235550Y29911938D01*
X4254468Y29768238D01*
X4254469Y29768233D01*
X4254470Y29768231D01*
X4309939Y29634315D01*
X4398179Y29519319D01*
X4513175Y29431079D01*
X4521558Y29427607D01*
X4555383Y29393782D01*
X4555384Y29345947D01*
X4521560Y29312122D01*
X4494377Y29300863D01*
X4379379Y29212621D01*
X4291138Y29097624D01*
X4235670Y28963709D01*
X4235668Y28963703D01*
X4216750Y28820003D01*
X4216750Y28819998D01*
X2426563Y28819998D01*
X2495280Y28910995D01*
X2585281Y29091741D01*
X2640538Y29285947D01*
X2642242Y29304335D01*
X2659168Y29486996D01*
X2659168Y29487005D01*
X2640539Y29688046D01*
X2640537Y29688057D01*
X2594092Y29851291D01*
X2585281Y29882259D01*
X2495280Y30063005D01*
X2373600Y30224136D01*
X2294306Y30296422D01*
X2224388Y30360162D01*
X2224385Y30360164D01*
X2224384Y30360165D01*
X2052713Y30466459D01*
X2052711Y30466460D01*
X1990083Y30490722D01*
X1864433Y30539399D01*
X1864430Y30539400D01*
X1864429Y30539400D01*
X1665961Y30576500D01*
X1665957Y30576500D01*
X1464043Y30576500D01*
X1464038Y30576500D01*
X1265570Y30539400D01*
X1265567Y30539400D01*
X1265567Y30539399D01*
X1237320Y30528456D01*
X1077288Y30466460D01*
X905611Y30360162D01*
X756403Y30224139D01*
X756396Y30224131D01*
X634720Y30063005D01*
X544719Y29882260D01*
X489462Y29688057D01*
X489460Y29688046D01*
X470832Y29487005D01*
X470832Y29486996D01*
X305300Y29486996D01*
X305300Y32026996D01*
X470832Y32026996D01*
X489460Y31825955D01*
X489462Y31825944D01*
X525374Y31699730D01*
X544719Y31631741D01*
X634720Y31450995D01*
X756400Y31289864D01*
X813484Y31237825D01*
X905611Y31153839D01*
X905612Y31153838D01*
X905616Y31153835D01*
X1077287Y31047541D01*
X1265567Y30974601D01*
X1464043Y30937500D01*
X1464046Y30937500D01*
X1665954Y30937500D01*
X1665957Y30937500D01*
X1864433Y30974601D01*
X2052713Y31047541D01*
X2224384Y31153835D01*
X2373600Y31289864D01*
X2495280Y31450995D01*
X2585281Y31631741D01*
X2640538Y31825947D01*
X2648084Y31907383D01*
X2659168Y32026996D01*
X2659168Y32027005D01*
X2640539Y32228046D01*
X2640537Y32228057D01*
X2623090Y32289375D01*
X2585281Y32422259D01*
X2495280Y32603005D01*
X2373600Y32764136D01*
X2295754Y32835102D01*
X2224388Y32900162D01*
X2224385Y32900164D01*
X2224384Y32900165D01*
X2052713Y33006459D01*
X2052711Y33006460D01*
X1958400Y33042996D01*
X1864433Y33079399D01*
X1864430Y33079400D01*
X1864429Y33079400D01*
X1665961Y33116500D01*
X1665957Y33116500D01*
X1464043Y33116500D01*
X1464038Y33116500D01*
X1265570Y33079400D01*
X1265567Y33079400D01*
X1265567Y33079399D01*
X1226153Y33064130D01*
X1077288Y33006460D01*
X905611Y32900162D01*
X756403Y32764139D01*
X756396Y32764131D01*
X634720Y32603005D01*
X544719Y32422260D01*
X489462Y32228057D01*
X489460Y32228046D01*
X470832Y32027005D01*
X470832Y32026996D01*
X305300Y32026996D01*
X305300Y34566996D01*
X470832Y34566996D01*
X489460Y34365955D01*
X489462Y34365944D01*
X534049Y34209242D01*
X544719Y34171741D01*
X634720Y33990995D01*
X756400Y33829864D01*
X832634Y33760367D01*
X905611Y33693839D01*
X905612Y33693838D01*
X905616Y33693835D01*
X1077287Y33587541D01*
X1265567Y33514601D01*
X1464043Y33477500D01*
X1464046Y33477500D01*
X1665954Y33477500D01*
X1665957Y33477500D01*
X1864433Y33514601D01*
X2052713Y33587541D01*
X2224384Y33693835D01*
X2373600Y33829864D01*
X2495280Y33990995D01*
X2585281Y34171741D01*
X2640538Y34365947D01*
X2640539Y34365955D01*
X2659168Y34566996D01*
X2659168Y34567005D01*
X2640539Y34768046D01*
X2640537Y34768057D01*
X2616479Y34852611D01*
X2585281Y34962259D01*
X2495280Y35143005D01*
X2373600Y35304136D01*
X2287038Y35383048D01*
X2224388Y35440162D01*
X2224385Y35440164D01*
X2224384Y35440165D01*
X2052713Y35546459D01*
X2052711Y35546460D01*
X1997986Y35567660D01*
X1864433Y35619399D01*
X1864430Y35619400D01*
X1864429Y35619400D01*
X1665961Y35656500D01*
X1665957Y35656500D01*
X1464043Y35656500D01*
X1464038Y35656500D01*
X1265570Y35619400D01*
X1265567Y35619400D01*
X1265567Y35619399D01*
X1234204Y35607249D01*
X1077288Y35546460D01*
X905611Y35440162D01*
X770175Y35316694D01*
X756400Y35304136D01*
X756397Y35304133D01*
X756396Y35304131D01*
X634720Y35143005D01*
X544719Y34962260D01*
X489462Y34768057D01*
X489460Y34768046D01*
X470832Y34567005D01*
X470832Y34566996D01*
X305300Y34566996D01*
X305300Y37106996D01*
X470832Y37106996D01*
X489460Y36905955D01*
X489462Y36905944D01*
X533769Y36750226D01*
X544719Y36711741D01*
X634720Y36530995D01*
X756400Y36369864D01*
X824066Y36308178D01*
X905611Y36233839D01*
X905612Y36233838D01*
X905616Y36233835D01*
X1077287Y36127541D01*
X1265567Y36054601D01*
X1464043Y36017500D01*
X1464046Y36017500D01*
X1665954Y36017500D01*
X1665957Y36017500D01*
X1864433Y36054601D01*
X2052713Y36127541D01*
X2224384Y36233835D01*
X2373600Y36369864D01*
X2495280Y36530995D01*
X2585281Y36711741D01*
X2640538Y36905947D01*
X2641730Y36918806D01*
X2659168Y37106996D01*
X2659168Y37107005D01*
X2640539Y37308046D01*
X2640537Y37308057D01*
X2620535Y37378354D01*
X2585281Y37502259D01*
X2495280Y37683005D01*
X2373600Y37844136D01*
X2271242Y37937448D01*
X2224388Y37980162D01*
X2224385Y37980164D01*
X2224384Y37980165D01*
X2052713Y38086459D01*
X2052711Y38086460D01*
X1997986Y38107660D01*
X1864433Y38159399D01*
X1864430Y38159400D01*
X1864429Y38159400D01*
X1665961Y38196500D01*
X1665957Y38196500D01*
X1464043Y38196500D01*
X1464038Y38196500D01*
X1265570Y38159400D01*
X1077288Y38086460D01*
X905611Y37980162D01*
X756403Y37844139D01*
X756396Y37844131D01*
X634720Y37683005D01*
X544719Y37502260D01*
X489462Y37308057D01*
X489460Y37308046D01*
X470832Y37107005D01*
X470832Y37106996D01*
X305300Y37106996D01*
X305300Y39646996D01*
X470832Y39646996D01*
X489460Y39445955D01*
X489462Y39445944D01*
X537355Y39277621D01*
X544719Y39251741D01*
X634720Y39070995D01*
X756400Y38909864D01*
X829866Y38842891D01*
X905611Y38773839D01*
X905612Y38773838D01*
X905616Y38773835D01*
X1077287Y38667541D01*
X1265567Y38594601D01*
X1464043Y38557500D01*
X1464046Y38557500D01*
X1665954Y38557500D01*
X1665957Y38557500D01*
X1864433Y38594601D01*
X2052713Y38667541D01*
X2224384Y38773835D01*
X2373600Y38909864D01*
X2495280Y39070995D01*
X2585281Y39251741D01*
X2625473Y39392998D01*
X3581750Y39392998D01*
X3600668Y39249298D01*
X3600669Y39249293D01*
X3600670Y39249291D01*
X3656139Y39115375D01*
X3744379Y39000379D01*
X3859375Y38912139D01*
X3993291Y38856670D01*
X3993295Y38856670D01*
X3993297Y38856669D01*
X4136997Y38837750D01*
X4137000Y38837750D01*
X4137003Y38837750D01*
X4280702Y38856669D01*
X4280702Y38856670D01*
X4280709Y38856670D01*
X4414625Y38912139D01*
X4529621Y39000379D01*
X4617861Y39115375D01*
X4673330Y39249291D01*
X4681296Y39309800D01*
X4692250Y39392998D01*
X4692250Y39393003D01*
X4673331Y39536703D01*
X4673330Y39536705D01*
X4673330Y39536709D01*
X4617861Y39670625D01*
X4529621Y39785621D01*
X4414625Y39873861D01*
X4280709Y39929330D01*
X4280707Y39929331D01*
X4280702Y39929332D01*
X4137003Y39948250D01*
X4136997Y39948250D01*
X3993297Y39929332D01*
X3993291Y39929330D01*
X3859376Y39873862D01*
X3744379Y39785621D01*
X3656138Y39670624D01*
X3600670Y39536709D01*
X3600668Y39536703D01*
X3581750Y39393003D01*
X3581750Y39392998D01*
X2625473Y39392998D01*
X2640538Y39445947D01*
X2642532Y39467462D01*
X2659168Y39646996D01*
X2659168Y39647005D01*
X2640539Y39848046D01*
X2640537Y39848057D01*
X2612029Y39948250D01*
X2585281Y40042259D01*
X2495280Y40223005D01*
X2373600Y40384136D01*
X2248304Y40498359D01*
X2224388Y40520162D01*
X2224385Y40520164D01*
X2224384Y40520165D01*
X2052713Y40626459D01*
X2052711Y40626460D01*
X1987636Y40651670D01*
X1864433Y40699399D01*
X1864430Y40699400D01*
X1864429Y40699400D01*
X1665961Y40736500D01*
X1665957Y40736500D01*
X1464043Y40736500D01*
X1464038Y40736500D01*
X1265570Y40699400D01*
X1077288Y40626460D01*
X905611Y40520162D01*
X756403Y40384139D01*
X756396Y40384131D01*
X634720Y40223005D01*
X544719Y40042260D01*
X489462Y39848057D01*
X489460Y39848046D01*
X470832Y39647005D01*
X470832Y39646996D01*
X305300Y39646996D01*
X305300Y41075998D01*
X4946750Y41075998D01*
X4965668Y40932298D01*
X4965669Y40932293D01*
X4965670Y40932291D01*
X5021139Y40798375D01*
X5109379Y40683379D01*
X5224375Y40595139D01*
X5358291Y40539670D01*
X5358295Y40539670D01*
X5358297Y40539669D01*
X5501997Y40520750D01*
X5502000Y40520750D01*
X5502003Y40520750D01*
X5645702Y40539669D01*
X5645702Y40539670D01*
X5645709Y40539670D01*
X5779625Y40595139D01*
X5894621Y40683379D01*
X5982861Y40798375D01*
X6038330Y40932291D01*
X6038331Y40932298D01*
X6057250Y41075998D01*
X6057250Y41076003D01*
X6038331Y41219703D01*
X6038330Y41219705D01*
X6038330Y41219709D01*
X5982861Y41353625D01*
X5896284Y41466453D01*
X5883905Y41512658D01*
X5896285Y41542548D01*
X5897624Y41544293D01*
X5982861Y41655375D01*
X6038330Y41789291D01*
X6040916Y41808932D01*
X6057250Y41932998D01*
X6057250Y41933003D01*
X6038331Y42076703D01*
X6038330Y42076705D01*
X6038330Y42076709D01*
X5982861Y42210625D01*
X5894621Y42325621D01*
X5779625Y42413861D01*
X5645709Y42469330D01*
X5645707Y42469331D01*
X5645702Y42469332D01*
X5502003Y42488250D01*
X5501997Y42488250D01*
X5358297Y42469332D01*
X5358291Y42469330D01*
X5224376Y42413862D01*
X5109379Y42325621D01*
X5021138Y42210624D01*
X4965670Y42076709D01*
X4965668Y42076703D01*
X4946750Y41933003D01*
X4946750Y41932998D01*
X4965668Y41789298D01*
X4965669Y41789293D01*
X4965670Y41789291D01*
X5005871Y41692236D01*
X5021139Y41655375D01*
X5107714Y41542547D01*
X5120094Y41496342D01*
X5107714Y41466453D01*
X5021139Y41353626D01*
X4965670Y41219709D01*
X4965668Y41219703D01*
X4946750Y41076003D01*
X4946750Y41075998D01*
X305300Y41075998D01*
X305300Y42186996D01*
X470832Y42186996D01*
X489460Y41985955D01*
X489462Y41985944D01*
X533015Y41832875D01*
X544719Y41791741D01*
X634720Y41610995D01*
X756400Y41449864D01*
X805574Y41405036D01*
X905611Y41313839D01*
X905612Y41313838D01*
X905616Y41313835D01*
X1077287Y41207541D01*
X1265567Y41134601D01*
X1464043Y41097500D01*
X1464046Y41097500D01*
X1665954Y41097500D01*
X1665957Y41097500D01*
X1864433Y41134601D01*
X2052713Y41207541D01*
X2224384Y41313835D01*
X2373600Y41449864D01*
X2495280Y41610995D01*
X2585281Y41791741D01*
X2640538Y41985947D01*
X2641260Y41993739D01*
X2645046Y42034598D01*
X3575150Y42034598D01*
X3594068Y41890898D01*
X3594069Y41890893D01*
X3594070Y41890891D01*
X3649539Y41756975D01*
X3737779Y41641979D01*
X3852775Y41553739D01*
X3986691Y41498270D01*
X3986695Y41498270D01*
X3986697Y41498269D01*
X4130397Y41479350D01*
X4130400Y41479350D01*
X4130403Y41479350D01*
X4274102Y41498269D01*
X4274102Y41498270D01*
X4274109Y41498270D01*
X4408025Y41553739D01*
X4523021Y41641979D01*
X4611261Y41756975D01*
X4666730Y41890891D01*
X4679449Y41987500D01*
X4685650Y42034598D01*
X4685650Y42034603D01*
X4666731Y42178303D01*
X4666730Y42178305D01*
X4666730Y42178309D01*
X4611261Y42312225D01*
X4523021Y42427221D01*
X4408025Y42515461D01*
X4274109Y42570930D01*
X4274107Y42570931D01*
X4274102Y42570932D01*
X4130403Y42589850D01*
X4130397Y42589850D01*
X3986697Y42570932D01*
X3986691Y42570930D01*
X3852776Y42515462D01*
X3737779Y42427221D01*
X3649538Y42312224D01*
X3594070Y42178309D01*
X3594068Y42178303D01*
X3575150Y42034603D01*
X3575150Y42034598D01*
X2645046Y42034598D01*
X2659168Y42186996D01*
X2659168Y42187005D01*
X2640539Y42388046D01*
X2640537Y42388057D01*
X2614963Y42477938D01*
X2585281Y42582259D01*
X2495280Y42763005D01*
X2373600Y42924136D01*
X2298992Y42992151D01*
X2224388Y43060162D01*
X2224385Y43060164D01*
X2224384Y43060165D01*
X2052713Y43166459D01*
X2052711Y43166460D01*
X1997986Y43187660D01*
X1864433Y43239399D01*
X1864430Y43239400D01*
X1864429Y43239400D01*
X1665961Y43276500D01*
X1665957Y43276500D01*
X1464043Y43276500D01*
X1464038Y43276500D01*
X1265570Y43239400D01*
X1077288Y43166460D01*
X905611Y43060162D01*
X756403Y42924139D01*
X756396Y42924131D01*
X634720Y42763005D01*
X544719Y42582260D01*
X489462Y42388057D01*
X489460Y42388046D01*
X470832Y42187005D01*
X470832Y42186996D01*
X305300Y42186996D01*
X305300Y44726996D01*
X470832Y44726996D01*
X489460Y44525955D01*
X489462Y44525944D01*
X533940Y44369625D01*
X544719Y44331741D01*
X634720Y44150995D01*
X756400Y43989864D01*
X841205Y43912554D01*
X905611Y43853839D01*
X905612Y43853838D01*
X905616Y43853835D01*
X1077287Y43747541D01*
X1265567Y43674601D01*
X1464043Y43637500D01*
X1464046Y43637500D01*
X1665954Y43637500D01*
X1665957Y43637500D01*
X1864433Y43674601D01*
X2052713Y43747541D01*
X2224384Y43853835D01*
X2373600Y43989864D01*
X2450728Y44091998D01*
X4057750Y44091998D01*
X4076668Y43948298D01*
X4076669Y43948293D01*
X4076670Y43948291D01*
X4132139Y43814375D01*
X4220379Y43699379D01*
X4335375Y43611139D01*
X4469291Y43555670D01*
X4469295Y43555670D01*
X4469297Y43555669D01*
X4612997Y43536750D01*
X4613000Y43536750D01*
X4613003Y43536750D01*
X4756702Y43555669D01*
X4756702Y43555670D01*
X4756709Y43555670D01*
X4890625Y43611139D01*
X5005621Y43699379D01*
X5093861Y43814375D01*
X5149330Y43948291D01*
X5168250Y44092000D01*
X5149330Y44235709D01*
X5093861Y44369625D01*
X5005621Y44484621D01*
X4890625Y44572861D01*
X4756709Y44628330D01*
X4756707Y44628331D01*
X4756702Y44628332D01*
X4613003Y44647250D01*
X4612997Y44647250D01*
X4469297Y44628332D01*
X4469291Y44628330D01*
X4335376Y44572862D01*
X4220379Y44484621D01*
X4132138Y44369624D01*
X4076670Y44235709D01*
X4076668Y44235703D01*
X4057750Y44092003D01*
X4057750Y44091998D01*
X2450728Y44091998D01*
X2495280Y44150995D01*
X2585281Y44331741D01*
X2640538Y44525947D01*
X2644885Y44572861D01*
X2659168Y44726996D01*
X2659168Y44727005D01*
X2640539Y44928046D01*
X2640537Y44928057D01*
X2627219Y44974864D01*
X2585281Y45122259D01*
X2495280Y45303005D01*
X2373600Y45464136D01*
X2291525Y45538958D01*
X2224388Y45600162D01*
X2224385Y45600164D01*
X2224384Y45600165D01*
X2052713Y45706459D01*
X2052711Y45706460D01*
X1988384Y45731380D01*
X1864433Y45779399D01*
X1864430Y45779400D01*
X1864429Y45779400D01*
X1665961Y45816500D01*
X1665957Y45816500D01*
X1464043Y45816500D01*
X1464038Y45816500D01*
X1265570Y45779400D01*
X1077288Y45706460D01*
X905611Y45600162D01*
X756403Y45464139D01*
X756396Y45464131D01*
X634720Y45303005D01*
X544719Y45122260D01*
X489462Y44928057D01*
X489460Y44928046D01*
X470832Y44727005D01*
X470832Y44726996D01*
X305300Y44726996D01*
X305300Y47266996D01*
X470832Y47266996D01*
X489460Y47065955D01*
X489462Y47065944D01*
X540661Y46886002D01*
X544719Y46871741D01*
X634720Y46690995D01*
X756400Y46529864D01*
X765336Y46521718D01*
X905611Y46393839D01*
X905612Y46393838D01*
X905616Y46393835D01*
X1077287Y46287541D01*
X1265567Y46214601D01*
X1464043Y46177500D01*
X1464046Y46177500D01*
X1665954Y46177500D01*
X1665957Y46177500D01*
X1864433Y46214601D01*
X2052713Y46287541D01*
X2224384Y46393835D01*
X2373600Y46529864D01*
X2495280Y46690995D01*
X2585281Y46871741D01*
X2589338Y46885999D01*
X5531318Y46885999D01*
X5551954Y46729245D01*
X5551957Y46729235D01*
X5612462Y46583162D01*
X5612464Y46583159D01*
X5708717Y46457718D01*
X5834158Y46361465D01*
X5834161Y46361463D01*
X5878071Y46343275D01*
X5980238Y46300956D01*
X5980242Y46300956D01*
X5980244Y46300955D01*
X6136998Y46280318D01*
X6137000Y46280318D01*
X6137001Y46280318D01*
X6158343Y46283128D01*
X6204549Y46270748D01*
X6228467Y46229322D01*
X6228467Y46213005D01*
X6216750Y46124003D01*
X6216750Y46123998D01*
X6235668Y45980298D01*
X6235669Y45980293D01*
X6235670Y45980291D01*
X6291139Y45846375D01*
X6379379Y45731379D01*
X6494375Y45643139D01*
X6628291Y45587670D01*
X6628295Y45587670D01*
X6628297Y45587669D01*
X6771997Y45568750D01*
X6772000Y45568750D01*
X6772003Y45568750D01*
X6915702Y45587669D01*
X6915702Y45587670D01*
X6915709Y45587670D01*
X7049625Y45643139D01*
X7164621Y45731379D01*
X7252861Y45846375D01*
X7285757Y45925796D01*
X7319582Y45959620D01*
X7367417Y45959621D01*
X7401242Y45925796D01*
X7434139Y45846375D01*
X7522379Y45731379D01*
X7637375Y45643139D01*
X7771291Y45587670D01*
X7771295Y45587670D01*
X7771297Y45587669D01*
X7914997Y45568750D01*
X7915000Y45568750D01*
X7915003Y45568750D01*
X8058702Y45587669D01*
X8058702Y45587670D01*
X8058709Y45587670D01*
X8192625Y45643139D01*
X8307621Y45731379D01*
X8395861Y45846375D01*
X8451330Y45980291D01*
X8451331Y45980298D01*
X8470250Y46123998D01*
X8470250Y46123999D01*
X8706318Y46123999D01*
X8726954Y45967245D01*
X8726957Y45967235D01*
X8787462Y45821162D01*
X8787464Y45821159D01*
X8883717Y45695718D01*
X8952240Y45643139D01*
X9008249Y45600162D01*
X9009158Y45599465D01*
X9009161Y45599463D01*
X9057852Y45579295D01*
X9155238Y45538956D01*
X9155242Y45538956D01*
X9155244Y45538955D01*
X9311998Y45518318D01*
X9312000Y45518318D01*
X9312002Y45518318D01*
X9468755Y45538955D01*
X9468755Y45538956D01*
X9468762Y45538956D01*
X9614841Y45599464D01*
X9740282Y45695718D01*
X9836536Y45821159D01*
X9897044Y45967238D01*
X9897045Y45967245D01*
X9900962Y45996997D01*
X10638355Y45996997D01*
X10658858Y45828136D01*
X10658859Y45828130D01*
X10719182Y45669069D01*
X10815811Y45529078D01*
X10815816Y45529072D01*
X10815817Y45529071D01*
X10943148Y45416266D01*
X11093775Y45337210D01*
X11258944Y45296500D01*
X11258946Y45296500D01*
X11429054Y45296500D01*
X11429056Y45296500D01*
X11594225Y45337210D01*
X11744852Y45416266D01*
X11872183Y45529071D01*
X11879006Y45538955D01*
X11968817Y45669069D01*
X11968816Y45669069D01*
X11968818Y45669070D01*
X12029140Y45828128D01*
X12031356Y45846377D01*
X12049645Y45996997D01*
X12049645Y45997004D01*
X12029141Y46165865D01*
X12029140Y46165871D01*
X12024729Y46177501D01*
X11968818Y46324930D01*
X11956157Y46343273D01*
X11872188Y46464923D01*
X11872181Y46464931D01*
X11835414Y46497504D01*
X11808080Y46521719D01*
X11787140Y46564726D01*
X11802744Y46609945D01*
X11808081Y46615282D01*
X11845617Y46648536D01*
X11872183Y46672071D01*
X11968818Y46812070D01*
X12029140Y46971128D01*
X12029141Y46971136D01*
X12049645Y47139997D01*
X12049645Y47140004D01*
X12029141Y47308865D01*
X12029140Y47308871D01*
X11990583Y47410538D01*
X11968818Y47467930D01*
X11968733Y47468053D01*
X11872188Y47607923D01*
X11872181Y47607931D01*
X11744851Y47720735D01*
X11594226Y47799790D01*
X11429059Y47840500D01*
X11429056Y47840500D01*
X11258944Y47840500D01*
X11258940Y47840500D01*
X11093773Y47799790D01*
X10943148Y47720735D01*
X10815818Y47607931D01*
X10815811Y47607923D01*
X10719182Y47467932D01*
X10658859Y47308871D01*
X10658858Y47308865D01*
X10638355Y47140004D01*
X10638355Y47139997D01*
X10658858Y46971136D01*
X10658859Y46971130D01*
X10719182Y46812069D01*
X10815814Y46672074D01*
X10815818Y46672070D01*
X10879918Y46615282D01*
X10900859Y46572273D01*
X10885255Y46527055D01*
X10879918Y46521718D01*
X10815818Y46464931D01*
X10815814Y46464927D01*
X10719182Y46324932D01*
X10658859Y46165871D01*
X10658858Y46165865D01*
X10638355Y45997004D01*
X10638355Y45996997D01*
X9900962Y45996997D01*
X9917682Y46123999D01*
X9917682Y46124002D01*
X9897045Y46280756D01*
X9897044Y46280758D01*
X9897044Y46280762D01*
X9836536Y46426841D01*
X9763735Y46521718D01*
X9740282Y46552283D01*
X9614841Y46648536D01*
X9614838Y46648538D01*
X9468765Y46709043D01*
X9468755Y46709046D01*
X9312002Y46729682D01*
X9311998Y46729682D01*
X9155244Y46709046D01*
X9155234Y46709043D01*
X9009161Y46648538D01*
X9009158Y46648536D01*
X8883717Y46552283D01*
X8787464Y46426842D01*
X8787462Y46426839D01*
X8726957Y46280766D01*
X8726954Y46280756D01*
X8706318Y46124002D01*
X8706318Y46123999D01*
X8470250Y46123999D01*
X8470250Y46124003D01*
X8451331Y46267703D01*
X8451330Y46267705D01*
X8451330Y46267709D01*
X8395861Y46401625D01*
X8307621Y46516621D01*
X8192625Y46604861D01*
X8058709Y46660330D01*
X8058707Y46660331D01*
X8058702Y46660332D01*
X7915003Y46679250D01*
X7914997Y46679250D01*
X7771297Y46660332D01*
X7771291Y46660330D01*
X7637376Y46604862D01*
X7522379Y46516621D01*
X7434139Y46401625D01*
X7402372Y46324930D01*
X7401243Y46322205D01*
X7367418Y46288381D01*
X7319582Y46288380D01*
X7285758Y46322205D01*
X7285757Y46322205D01*
X7252861Y46401625D01*
X7164621Y46516621D01*
X7049625Y46604861D01*
X6915709Y46660330D01*
X6915707Y46660331D01*
X6915702Y46660332D01*
X6778391Y46678409D01*
X6736964Y46702326D01*
X6724584Y46748532D01*
X6742682Y46885999D01*
X6742682Y46886002D01*
X6722045Y47042756D01*
X6722044Y47042758D01*
X6722044Y47042762D01*
X6661536Y47188841D01*
X6569439Y47308865D01*
X6565282Y47314283D01*
X6439841Y47410536D01*
X6439838Y47410538D01*
X6293765Y47471043D01*
X6293755Y47471046D01*
X6137002Y47491682D01*
X6136998Y47491682D01*
X5980244Y47471046D01*
X5980234Y47471043D01*
X5834161Y47410538D01*
X5834158Y47410536D01*
X5708717Y47314283D01*
X5612464Y47188842D01*
X5612462Y47188839D01*
X5551957Y47042766D01*
X5551954Y47042756D01*
X5531318Y46886002D01*
X5531318Y46885999D01*
X2589338Y46885999D01*
X2640538Y47065947D01*
X2647400Y47140000D01*
X2659168Y47266996D01*
X2659168Y47267005D01*
X2640539Y47468046D01*
X2640537Y47468057D01*
X2600739Y47607929D01*
X2585281Y47662259D01*
X2495280Y47843005D01*
X2373600Y48004136D01*
X2298992Y48072151D01*
X2224388Y48140162D01*
X2224385Y48140164D01*
X2224384Y48140165D01*
X2198813Y48155998D01*
X8248750Y48155998D01*
X8267668Y48012298D01*
X8267669Y48012293D01*
X8267670Y48012291D01*
X8323139Y47878375D01*
X8411379Y47763379D01*
X8526375Y47675139D01*
X8660291Y47619670D01*
X8660295Y47619670D01*
X8660297Y47619669D01*
X8803997Y47600750D01*
X8804000Y47600750D01*
X8804003Y47600750D01*
X8947702Y47619669D01*
X8947702Y47619670D01*
X8947709Y47619670D01*
X9081625Y47675139D01*
X9196621Y47763379D01*
X9284861Y47878375D01*
X9340330Y48012291D01*
X9359250Y48156000D01*
X9347340Y48246460D01*
X9340331Y48299703D01*
X9340330Y48299705D01*
X9340330Y48299709D01*
X9284861Y48433625D01*
X9196621Y48548621D01*
X9081625Y48636861D01*
X8947709Y48692330D01*
X8947707Y48692331D01*
X8947702Y48692332D01*
X8804003Y48711250D01*
X8803997Y48711250D01*
X8660297Y48692332D01*
X8660291Y48692330D01*
X8526376Y48636862D01*
X8411379Y48548621D01*
X8323138Y48433624D01*
X8267670Y48299709D01*
X8267668Y48299703D01*
X8248750Y48156003D01*
X8248750Y48155998D01*
X2198813Y48155998D01*
X2052713Y48246459D01*
X2052711Y48246460D01*
X1997986Y48267660D01*
X1864433Y48319399D01*
X1864430Y48319400D01*
X1864429Y48319400D01*
X1665961Y48356500D01*
X1665957Y48356500D01*
X1464043Y48356500D01*
X1464038Y48356500D01*
X1265570Y48319400D01*
X1077288Y48246460D01*
X905611Y48140162D01*
X756403Y48004139D01*
X756396Y48004131D01*
X634720Y47843005D01*
X544719Y47662260D01*
X489462Y47468057D01*
X489460Y47468046D01*
X470832Y47267005D01*
X470832Y47266996D01*
X305300Y47266996D01*
X305300Y49806996D01*
X470832Y49806996D01*
X489460Y49605955D01*
X489462Y49605944D01*
X533940Y49449625D01*
X544719Y49411741D01*
X634720Y49230995D01*
X756400Y49069864D01*
X837247Y48996162D01*
X905611Y48933839D01*
X905612Y48933838D01*
X905616Y48933835D01*
X1077287Y48827541D01*
X1265567Y48754601D01*
X1464043Y48717500D01*
X1464046Y48717500D01*
X1665954Y48717500D01*
X1665957Y48717500D01*
X1864433Y48754601D01*
X2052713Y48827541D01*
X2224384Y48933835D01*
X2373600Y49069864D01*
X2495280Y49230995D01*
X2529142Y49298999D01*
X4261318Y49298999D01*
X4281954Y49142245D01*
X4281957Y49142235D01*
X4342462Y48996162D01*
X4342464Y48996159D01*
X4438717Y48870718D01*
X4534971Y48796861D01*
X4564159Y48774464D01*
X4710238Y48713956D01*
X4710242Y48713956D01*
X4710244Y48713955D01*
X4866998Y48693318D01*
X4867000Y48693318D01*
X4867002Y48693318D01*
X5023755Y48713955D01*
X5023755Y48713956D01*
X5023762Y48713956D01*
X5169841Y48774464D01*
X5295282Y48870718D01*
X5391536Y48996159D01*
X5452044Y49142238D01*
X5455962Y49171998D01*
X9264750Y49171998D01*
X9283668Y49028298D01*
X9283669Y49028293D01*
X9283670Y49028291D01*
X9339139Y48894375D01*
X9427379Y48779379D01*
X9542375Y48691139D01*
X9676291Y48635670D01*
X9676295Y48635670D01*
X9676297Y48635669D01*
X9819997Y48616750D01*
X9820000Y48616750D01*
X9820003Y48616750D01*
X9963702Y48635669D01*
X9963702Y48635670D01*
X9963709Y48635670D01*
X10097625Y48691139D01*
X10212621Y48779379D01*
X10300861Y48894375D01*
X10356330Y49028291D01*
X10361804Y49069870D01*
X10375250Y49171998D01*
X10375250Y49172003D01*
X10356331Y49315703D01*
X10356330Y49315705D01*
X10356330Y49315709D01*
X10300861Y49449625D01*
X10212621Y49564621D01*
X10097625Y49652861D01*
X9963709Y49708330D01*
X9963707Y49708331D01*
X9963702Y49708332D01*
X9820003Y49727250D01*
X9819997Y49727250D01*
X9676297Y49708332D01*
X9676291Y49708330D01*
X9542376Y49652862D01*
X9427379Y49564621D01*
X9339138Y49449624D01*
X9283670Y49315709D01*
X9283668Y49315703D01*
X9264750Y49172003D01*
X9264750Y49171998D01*
X5455962Y49171998D01*
X5472682Y49299000D01*
X5457839Y49411741D01*
X5452045Y49455756D01*
X5452044Y49455758D01*
X5452044Y49455762D01*
X5391536Y49601841D01*
X5352386Y49652862D01*
X5295282Y49727283D01*
X5169841Y49823536D01*
X5169838Y49823538D01*
X5023765Y49884043D01*
X5023755Y49884046D01*
X4867002Y49904682D01*
X4866998Y49904682D01*
X4710244Y49884046D01*
X4710234Y49884043D01*
X4564161Y49823538D01*
X4564158Y49823536D01*
X4438717Y49727283D01*
X4342464Y49601842D01*
X4342462Y49601839D01*
X4281957Y49455766D01*
X4281954Y49455756D01*
X4261318Y49299002D01*
X4261318Y49298999D01*
X2529142Y49298999D01*
X2585281Y49411741D01*
X2640538Y49605947D01*
X2644885Y49652861D01*
X2659168Y49806996D01*
X2659168Y49807005D01*
X2640539Y50008046D01*
X2640537Y50008057D01*
X2597399Y50159669D01*
X2585281Y50202259D01*
X2495280Y50383005D01*
X2373600Y50544136D01*
X2298992Y50612151D01*
X2224388Y50680162D01*
X2224385Y50680164D01*
X2224384Y50680165D01*
X2198813Y50695998D01*
X10153750Y50695998D01*
X10172668Y50552298D01*
X10172669Y50552293D01*
X10172670Y50552291D01*
X10228139Y50418375D01*
X10316379Y50303379D01*
X10431375Y50215139D01*
X10565291Y50159670D01*
X10565295Y50159670D01*
X10565297Y50159669D01*
X10708997Y50140750D01*
X10709000Y50140750D01*
X10709003Y50140750D01*
X10852702Y50159669D01*
X10852702Y50159670D01*
X10852709Y50159670D01*
X10986625Y50215139D01*
X11101621Y50303379D01*
X11189861Y50418375D01*
X11245330Y50552291D01*
X11264250Y50696000D01*
X11252340Y50786460D01*
X11245331Y50839703D01*
X11245330Y50839705D01*
X11245330Y50839709D01*
X11189861Y50973625D01*
X11101621Y51088621D01*
X10986625Y51176861D01*
X10979027Y51180008D01*
X10947397Y51193110D01*
X10852709Y51232330D01*
X10852707Y51232331D01*
X10852702Y51232332D01*
X10709003Y51251250D01*
X10708997Y51251250D01*
X10565297Y51232332D01*
X10565291Y51232330D01*
X10431376Y51176862D01*
X10316379Y51088621D01*
X10228138Y50973624D01*
X10172670Y50839709D01*
X10172668Y50839703D01*
X10153750Y50696003D01*
X10153750Y50695998D01*
X2198813Y50695998D01*
X2052713Y50786459D01*
X2052711Y50786460D01*
X1997986Y50807660D01*
X1864433Y50859399D01*
X1864430Y50859400D01*
X1864429Y50859400D01*
X1665961Y50896500D01*
X1665957Y50896500D01*
X1464043Y50896500D01*
X1464038Y50896500D01*
X1265570Y50859400D01*
X1077288Y50786460D01*
X905611Y50680162D01*
X756403Y50544139D01*
X756396Y50544131D01*
X634720Y50383005D01*
X544719Y50202260D01*
X489462Y50008057D01*
X489460Y50008046D01*
X470832Y49807005D01*
X470832Y49806996D01*
X305300Y49806996D01*
X305300Y52346996D01*
X470832Y52346996D01*
X489460Y52145955D01*
X489462Y52145944D01*
X540740Y51965725D01*
X544719Y51951741D01*
X634720Y51770995D01*
X756400Y51609864D01*
X841205Y51532554D01*
X905611Y51473839D01*
X905612Y51473838D01*
X905616Y51473835D01*
X1077287Y51367541D01*
X1265567Y51294601D01*
X1464043Y51257500D01*
X1464046Y51257500D01*
X1665954Y51257500D01*
X1665957Y51257500D01*
X1864433Y51294601D01*
X2052713Y51367541D01*
X2224384Y51473835D01*
X2373600Y51609864D01*
X2495280Y51770995D01*
X2585281Y51951741D01*
X2640538Y52145947D01*
X2654790Y52299750D01*
X2659168Y52346996D01*
X2659168Y52347005D01*
X2640539Y52548046D01*
X2640537Y52548057D01*
X2627219Y52594864D01*
X2585281Y52742259D01*
X2529143Y52854999D01*
X6039318Y52854999D01*
X6059954Y52698245D01*
X6059957Y52698235D01*
X6120462Y52552162D01*
X6120464Y52552159D01*
X6216717Y52426718D01*
X6342158Y52330465D01*
X6342161Y52330463D01*
X6371390Y52318356D01*
X6488238Y52269956D01*
X6488242Y52269956D01*
X6488244Y52269955D01*
X6644998Y52249318D01*
X6645000Y52249318D01*
X6645002Y52249318D01*
X6801755Y52269955D01*
X6801755Y52269956D01*
X6801762Y52269956D01*
X6947841Y52330464D01*
X7073282Y52426718D01*
X7169536Y52552159D01*
X7230044Y52698238D01*
X7230045Y52698245D01*
X7250682Y52854999D01*
X7250682Y52855002D01*
X7230045Y53011756D01*
X7230044Y53011758D01*
X7230044Y53011762D01*
X7169536Y53157841D01*
X7121716Y53220162D01*
X7073282Y53283283D01*
X6947841Y53379536D01*
X6947838Y53379538D01*
X6801765Y53440043D01*
X6801755Y53440046D01*
X6645002Y53460682D01*
X6644998Y53460682D01*
X6488244Y53440046D01*
X6488234Y53440043D01*
X6342161Y53379538D01*
X6342158Y53379536D01*
X6216717Y53283283D01*
X6120464Y53157842D01*
X6120462Y53157839D01*
X6059957Y53011766D01*
X6059954Y53011756D01*
X6039318Y52855002D01*
X6039318Y52854999D01*
X2529143Y52854999D01*
X2495280Y52923005D01*
X2373600Y53084136D01*
X2292749Y53157842D01*
X2224388Y53220162D01*
X2224385Y53220164D01*
X2224384Y53220165D01*
X2052713Y53326459D01*
X2052711Y53326460D01*
X1997986Y53347660D01*
X1864433Y53399399D01*
X1864430Y53399400D01*
X1864429Y53399400D01*
X1665961Y53436500D01*
X1665957Y53436500D01*
X1464043Y53436500D01*
X1464038Y53436500D01*
X1265570Y53399400D01*
X1265567Y53399400D01*
X1265567Y53399399D01*
X1226153Y53384130D01*
X1077288Y53326460D01*
X905611Y53220162D01*
X756403Y53084139D01*
X756396Y53084131D01*
X634720Y52923005D01*
X544719Y52742260D01*
X489462Y52548057D01*
X489460Y52548046D01*
X470832Y52347005D01*
X470832Y52346996D01*
X305300Y52346996D01*
X305300Y54886996D01*
X470832Y54886996D01*
X489460Y54685955D01*
X489462Y54685944D01*
X544719Y54491741D01*
X634720Y54310995D01*
X756400Y54149864D01*
X841205Y54072554D01*
X905611Y54013839D01*
X905612Y54013838D01*
X905616Y54013835D01*
X1077287Y53907541D01*
X1265567Y53834601D01*
X1464043Y53797500D01*
X1464046Y53797500D01*
X1665954Y53797500D01*
X1665957Y53797500D01*
X1864433Y53834601D01*
X2052713Y53907541D01*
X2224384Y54013835D01*
X2373600Y54149864D01*
X2495280Y54310995D01*
X2585281Y54491741D01*
X2640538Y54685947D01*
X2659168Y54887000D01*
X2640538Y55088053D01*
X2639793Y55090670D01*
X2627219Y55134864D01*
X2585281Y55282259D01*
X2495280Y55463005D01*
X2373600Y55624136D01*
X2260590Y55727159D01*
X2224388Y55760162D01*
X2224385Y55760164D01*
X2224384Y55760165D01*
X2052713Y55866459D01*
X2052711Y55866460D01*
X1947584Y55907186D01*
X1864433Y55939399D01*
X1864430Y55939400D01*
X1864429Y55939400D01*
X1665961Y55976500D01*
X1665957Y55976500D01*
X1464043Y55976500D01*
X1464038Y55976500D01*
X1265570Y55939400D01*
X1077288Y55866460D01*
X905611Y55760162D01*
X756403Y55624139D01*
X756396Y55624131D01*
X634720Y55463005D01*
X544719Y55282260D01*
X489462Y55088057D01*
X489460Y55088046D01*
X470832Y54887005D01*
X470832Y54886996D01*
X305300Y54886996D01*
X305300Y56029999D01*
X6801318Y56029999D01*
X6821954Y55873245D01*
X6821957Y55873235D01*
X6882462Y55727162D01*
X6882464Y55727159D01*
X6978717Y55601718D01*
X7074971Y55527861D01*
X7104159Y55505464D01*
X7250238Y55444956D01*
X7250242Y55444956D01*
X7250244Y55444955D01*
X7406998Y55424318D01*
X7407000Y55424318D01*
X7407002Y55424318D01*
X7563755Y55444955D01*
X7563755Y55444956D01*
X7563762Y55444956D01*
X7709841Y55505464D01*
X7835282Y55601718D01*
X7931536Y55727159D01*
X7992044Y55873238D01*
X7996513Y55907186D01*
X8012682Y56029999D01*
X12389318Y56029999D01*
X12409954Y55873245D01*
X12409957Y55873235D01*
X12470462Y55727162D01*
X12470464Y55727159D01*
X12566717Y55601718D01*
X12662971Y55527861D01*
X12692159Y55505464D01*
X12838238Y55444956D01*
X12838242Y55444956D01*
X12838244Y55444955D01*
X12994998Y55424318D01*
X12995000Y55424318D01*
X12995002Y55424318D01*
X13151755Y55444955D01*
X13151755Y55444956D01*
X13151762Y55444956D01*
X13297841Y55505464D01*
X13423282Y55601718D01*
X13519536Y55727159D01*
X13580044Y55873238D01*
X13580044Y55873243D01*
X13580094Y55873362D01*
X13613919Y55907186D01*
X13661755Y55907187D01*
X13689273Y55884948D01*
X13736811Y55816078D01*
X13736816Y55816072D01*
X13736817Y55816071D01*
X13864148Y55703266D01*
X14014775Y55624210D01*
X14179944Y55583500D01*
X14179946Y55583500D01*
X14350054Y55583500D01*
X14350056Y55583500D01*
X14515225Y55624210D01*
X14665852Y55703266D01*
X14793183Y55816071D01*
X14889818Y55956070D01*
X14950140Y56115128D01*
X14953217Y56140465D01*
X14970645Y56283997D01*
X14970645Y56284004D01*
X14950141Y56452865D01*
X14950140Y56452871D01*
X14948088Y56458281D01*
X14889818Y56611930D01*
X14889817Y56611932D01*
X14793188Y56751923D01*
X14793181Y56751931D01*
X14729081Y56808718D01*
X14708140Y56851726D01*
X14723744Y56896945D01*
X14729081Y56902282D01*
X14793183Y56959071D01*
X14799235Y56967838D01*
X14853186Y57046000D01*
X14889818Y57099070D01*
X14950140Y57258128D01*
X14957232Y57316538D01*
X14970645Y57426997D01*
X14970645Y57427004D01*
X14950141Y57595865D01*
X14950140Y57595871D01*
X14937935Y57628053D01*
X14889818Y57754930D01*
X14843344Y57822259D01*
X14793188Y57894923D01*
X14793181Y57894931D01*
X14665851Y58007735D01*
X14515226Y58086790D01*
X14350059Y58127500D01*
X14350056Y58127500D01*
X14179944Y58127500D01*
X14179940Y58127500D01*
X14014773Y58086790D01*
X13864148Y58007735D01*
X13736818Y57894931D01*
X13736811Y57894923D01*
X13640182Y57754932D01*
X13579859Y57595871D01*
X13579858Y57595866D01*
X13564170Y57466664D01*
X13540671Y57424999D01*
X13494592Y57412154D01*
X13452927Y57435653D01*
X13452541Y57436151D01*
X13423282Y57474283D01*
X13297841Y57570536D01*
X13297838Y57570538D01*
X13151765Y57631043D01*
X13151755Y57631046D01*
X12995002Y57651682D01*
X12994998Y57651682D01*
X12838244Y57631046D01*
X12838234Y57631043D01*
X12692161Y57570538D01*
X12692158Y57570536D01*
X12566717Y57474283D01*
X12470464Y57348842D01*
X12470462Y57348839D01*
X12409957Y57202766D01*
X12409954Y57202756D01*
X12389318Y57046002D01*
X12389318Y57045999D01*
X12409954Y56889245D01*
X12409957Y56889235D01*
X12466833Y56751923D01*
X12470464Y56743159D01*
X12566718Y56617718D01*
X12566719Y56617717D01*
X12566721Y56617715D01*
X12605988Y56587584D01*
X12629905Y56546158D01*
X12617524Y56499952D01*
X12605988Y56488416D01*
X12566721Y56458286D01*
X12566719Y56458283D01*
X12566718Y56458282D01*
X12492961Y56362159D01*
X12470462Y56332838D01*
X12409957Y56186766D01*
X12409954Y56186756D01*
X12389318Y56030002D01*
X12389318Y56029999D01*
X8012682Y56029999D01*
X8012682Y56030002D01*
X8006105Y56079958D01*
X8001110Y56117897D01*
X8013490Y56164101D01*
X8054915Y56188019D01*
X8198762Y56206956D01*
X8344841Y56267464D01*
X8470282Y56363718D01*
X8566536Y56489159D01*
X8627044Y56635238D01*
X8627045Y56635245D01*
X8630962Y56664999D01*
X9976318Y56664999D01*
X9996954Y56508245D01*
X9996957Y56508235D01*
X10057462Y56362162D01*
X10057464Y56362159D01*
X10153717Y56236718D01*
X10248355Y56164101D01*
X10279159Y56140464D01*
X10425238Y56079956D01*
X10425242Y56079956D01*
X10425244Y56079955D01*
X10581998Y56059318D01*
X10582000Y56059318D01*
X10582002Y56059318D01*
X10738755Y56079955D01*
X10738755Y56079956D01*
X10738762Y56079956D01*
X10884841Y56140464D01*
X11010282Y56236718D01*
X11106536Y56362159D01*
X11167044Y56508238D01*
X11173047Y56553835D01*
X11187682Y56664999D01*
X11187682Y56665002D01*
X11167045Y56821756D01*
X11167044Y56821758D01*
X11167044Y56821762D01*
X11106536Y56967841D01*
X11010282Y57093282D01*
X10971010Y57123417D01*
X10947093Y57164842D01*
X10959473Y57211047D01*
X10971010Y57222584D01*
X11010282Y57252718D01*
X11106536Y57378159D01*
X11167044Y57524238D01*
X11173139Y57570536D01*
X11187682Y57680999D01*
X11187682Y57681002D01*
X11167045Y57837756D01*
X11167044Y57837758D01*
X11167044Y57837762D01*
X11106536Y57983841D01*
X11027541Y58086790D01*
X11010282Y58109283D01*
X10884841Y58205536D01*
X10884838Y58205538D01*
X10738765Y58266043D01*
X10738755Y58266046D01*
X10582002Y58286682D01*
X10581998Y58286682D01*
X10425244Y58266046D01*
X10425234Y58266043D01*
X10279161Y58205538D01*
X10279158Y58205536D01*
X10153717Y58109283D01*
X10057464Y57983842D01*
X10057462Y57983839D01*
X9996957Y57837766D01*
X9996954Y57837756D01*
X9976318Y57681002D01*
X9976318Y57680999D01*
X9996954Y57524245D01*
X9996957Y57524235D01*
X10043382Y57412154D01*
X10057464Y57378159D01*
X10153718Y57252718D01*
X10153719Y57252717D01*
X10153721Y57252715D01*
X10192988Y57222584D01*
X10216905Y57181158D01*
X10204524Y57134952D01*
X10192988Y57123416D01*
X10153721Y57093286D01*
X10057462Y56967838D01*
X9996957Y56821766D01*
X9996954Y56821756D01*
X9976318Y56665002D01*
X9976318Y56664999D01*
X8630962Y56664999D01*
X8647682Y56791999D01*
X8647682Y56792002D01*
X8627045Y56948756D01*
X8627044Y56948758D01*
X8627044Y56948762D01*
X8566536Y57094841D01*
X8535758Y57134952D01*
X8470282Y57220283D01*
X8344841Y57316536D01*
X8344838Y57316538D01*
X8198765Y57377043D01*
X8198755Y57377046D01*
X8042002Y57397682D01*
X8041998Y57397682D01*
X7885244Y57377046D01*
X7885234Y57377043D01*
X7739161Y57316538D01*
X7739158Y57316536D01*
X7613717Y57220283D01*
X7517464Y57094842D01*
X7517462Y57094839D01*
X7456957Y56948766D01*
X7456954Y56948756D01*
X7436318Y56792002D01*
X7436318Y56791999D01*
X7447889Y56704105D01*
X7435508Y56657899D01*
X7394082Y56633982D01*
X7250244Y56615046D01*
X7250234Y56615043D01*
X7104161Y56554538D01*
X7104158Y56554536D01*
X6978717Y56458283D01*
X6882464Y56332842D01*
X6882462Y56332839D01*
X6821957Y56186766D01*
X6821954Y56186756D01*
X6801318Y56030002D01*
X6801318Y56029999D01*
X305300Y56029999D01*
X305300Y57426996D01*
X470832Y57426996D01*
X489460Y57225955D01*
X489462Y57225944D01*
X527209Y57093282D01*
X544719Y57031741D01*
X634720Y56850995D01*
X756400Y56689864D01*
X835538Y56617720D01*
X905611Y56553839D01*
X905612Y56553838D01*
X905616Y56553835D01*
X1077287Y56447541D01*
X1265567Y56374601D01*
X1464043Y56337500D01*
X1464046Y56337500D01*
X1665954Y56337500D01*
X1665957Y56337500D01*
X1864433Y56374601D01*
X2052713Y56447541D01*
X2224384Y56553835D01*
X2373600Y56689864D01*
X2495280Y56850995D01*
X2585281Y57031741D01*
X2640538Y57225947D01*
X2641771Y57239251D01*
X2659168Y57426996D01*
X2659168Y57427005D01*
X2640539Y57628046D01*
X2640537Y57628057D01*
X2625473Y57681000D01*
X2585281Y57822259D01*
X2495280Y58003005D01*
X2373600Y58164136D01*
X2261811Y58266046D01*
X2224388Y58300162D01*
X2224385Y58300164D01*
X2224384Y58300165D01*
X2052713Y58406459D01*
X2052711Y58406460D01*
X1997986Y58427660D01*
X1864433Y58479399D01*
X1864430Y58479400D01*
X1864429Y58479400D01*
X1665961Y58516500D01*
X1665957Y58516500D01*
X1464043Y58516500D01*
X1464038Y58516500D01*
X1265570Y58479400D01*
X1077288Y58406460D01*
X905611Y58300162D01*
X756403Y58164139D01*
X756396Y58164131D01*
X634720Y58003005D01*
X544719Y57822260D01*
X489462Y57628057D01*
X489460Y57628046D01*
X470832Y57427005D01*
X470832Y57426996D01*
X305300Y57426996D01*
X305300Y59966996D01*
X470832Y59966996D01*
X489460Y59765955D01*
X489462Y59765944D01*
X544719Y59571741D01*
X634720Y59390995D01*
X756400Y59229864D01*
X841205Y59152554D01*
X905611Y59093839D01*
X905612Y59093838D01*
X905616Y59093835D01*
X1077287Y58987541D01*
X1265567Y58914601D01*
X1464043Y58877500D01*
X1464046Y58877500D01*
X1665954Y58877500D01*
X1665957Y58877500D01*
X1864433Y58914601D01*
X2023950Y58976398D01*
X9137750Y58976398D01*
X9156668Y58832698D01*
X9156669Y58832693D01*
X9156670Y58832691D01*
X9212139Y58698775D01*
X9300379Y58583779D01*
X9415375Y58495539D01*
X9549291Y58440070D01*
X9549295Y58440070D01*
X9549297Y58440069D01*
X9692997Y58421150D01*
X9693000Y58421150D01*
X9693003Y58421150D01*
X9836702Y58440069D01*
X9836702Y58440070D01*
X9836709Y58440070D01*
X9970625Y58495539D01*
X10085621Y58583779D01*
X10173861Y58698775D01*
X10229330Y58832691D01*
X10235229Y58877500D01*
X10248250Y58976398D01*
X10248250Y58976403D01*
X10229331Y59120103D01*
X10229330Y59120105D01*
X10229330Y59120109D01*
X10173861Y59254025D01*
X10085621Y59369021D01*
X9970625Y59457261D01*
X9836709Y59512730D01*
X9836707Y59512731D01*
X9836702Y59512732D01*
X9693003Y59531650D01*
X9692997Y59531650D01*
X9549297Y59512732D01*
X9549291Y59512730D01*
X9415376Y59457262D01*
X9300379Y59369021D01*
X9212138Y59254024D01*
X9156670Y59120109D01*
X9156668Y59120103D01*
X9137750Y58976403D01*
X9137750Y58976398D01*
X2023950Y58976398D01*
X2052713Y58987541D01*
X2224384Y59093835D01*
X2373600Y59229864D01*
X2495280Y59390995D01*
X2585281Y59571741D01*
X2640538Y59765947D01*
X2641771Y59779251D01*
X2659168Y59966996D01*
X2659168Y59967005D01*
X2640539Y60168046D01*
X2640537Y60168057D01*
X2631596Y60199480D01*
X2589339Y60347998D01*
X7994750Y60347998D01*
X8013668Y60204298D01*
X8013669Y60204293D01*
X8013670Y60204291D01*
X8069139Y60070375D01*
X8157379Y59955379D01*
X8272375Y59867139D01*
X8406291Y59811670D01*
X8406295Y59811670D01*
X8406297Y59811669D01*
X8549997Y59792750D01*
X8550000Y59792750D01*
X8550003Y59792750D01*
X8693702Y59811669D01*
X8693702Y59811670D01*
X8693709Y59811670D01*
X8827625Y59867139D01*
X8942621Y59955379D01*
X8948720Y59963329D01*
X8990145Y59987248D01*
X9036351Y59974869D01*
X9047890Y59963331D01*
X9054306Y59954969D01*
X9169303Y59866728D01*
X9169304Y59866728D01*
X9169305Y59866727D01*
X9303221Y59811258D01*
X9303225Y59811258D01*
X9303227Y59811257D01*
X9446927Y59792338D01*
X9446930Y59792338D01*
X9446933Y59792338D01*
X9590632Y59811257D01*
X9590632Y59811258D01*
X9590639Y59811258D01*
X9724555Y59866727D01*
X9839551Y59954967D01*
X9927791Y60069963D01*
X9983260Y60203879D01*
X10002180Y60347588D01*
X10002125Y60348003D01*
X9983261Y60491291D01*
X9983260Y60491293D01*
X9983260Y60491297D01*
X9927791Y60625213D01*
X9839551Y60740209D01*
X9724555Y60828449D01*
X9723560Y60828861D01*
X9685327Y60844698D01*
X9590639Y60883918D01*
X9590637Y60883919D01*
X9590632Y60883920D01*
X9446933Y60902838D01*
X9446927Y60902838D01*
X9303227Y60883920D01*
X9303221Y60883918D01*
X9169306Y60828450D01*
X9054306Y60740207D01*
X9048207Y60732258D01*
X9006780Y60708341D01*
X8960575Y60720722D01*
X8949038Y60732258D01*
X8942621Y60740621D01*
X8827625Y60828861D01*
X8693709Y60884330D01*
X8693707Y60884331D01*
X8693702Y60884332D01*
X8550003Y60903250D01*
X8549997Y60903250D01*
X8406297Y60884332D01*
X8406291Y60884330D01*
X8272376Y60828862D01*
X8157379Y60740621D01*
X8069138Y60625624D01*
X8013670Y60491709D01*
X8013668Y60491703D01*
X7994750Y60348003D01*
X7994750Y60347998D01*
X2589339Y60347998D01*
X2585281Y60362259D01*
X2495280Y60543005D01*
X2373600Y60704136D01*
X2236783Y60828862D01*
X2224388Y60840162D01*
X2224385Y60840164D01*
X2224384Y60840165D01*
X2052713Y60946459D01*
X2052711Y60946460D01*
X1997986Y60967660D01*
X1864433Y61019399D01*
X1864430Y61019400D01*
X1864429Y61019400D01*
X1665961Y61056500D01*
X1665957Y61056500D01*
X1464043Y61056500D01*
X1464038Y61056500D01*
X1265570Y61019400D01*
X1077288Y60946460D01*
X905611Y60840162D01*
X756403Y60704139D01*
X756396Y60704131D01*
X634720Y60543005D01*
X544719Y60362260D01*
X489462Y60168057D01*
X489460Y60168046D01*
X470832Y59967005D01*
X470832Y59966996D01*
X305300Y59966996D01*
X305300Y62506996D01*
X470832Y62506996D01*
X489460Y62305955D01*
X489462Y62305944D01*
X527042Y62173869D01*
X544719Y62111741D01*
X634720Y61930995D01*
X756400Y61769864D01*
X841205Y61692554D01*
X905611Y61633839D01*
X905612Y61633838D01*
X905616Y61633835D01*
X1077287Y61527541D01*
X1265567Y61454601D01*
X1464043Y61417500D01*
X1464046Y61417500D01*
X1665954Y61417500D01*
X1665957Y61417500D01*
X1864433Y61454601D01*
X2052713Y61527541D01*
X2224384Y61633835D01*
X2373600Y61769864D01*
X2490791Y61925050D01*
X4029500Y61925050D01*
X4044631Y61790748D01*
X4044631Y61790746D01*
X4044632Y61790745D01*
X4051936Y61769870D01*
X4104213Y61620473D01*
X4104214Y61620472D01*
X4200182Y61467740D01*
X4327739Y61340183D01*
X4480471Y61244215D01*
X4480472Y61244214D01*
X4480474Y61244214D01*
X4480478Y61244211D01*
X4650745Y61184632D01*
X4830000Y61164435D01*
X5009255Y61184632D01*
X5179522Y61244211D01*
X5332262Y61340184D01*
X5459816Y61467738D01*
X5555789Y61620478D01*
X5615368Y61790745D01*
X5630500Y61925046D01*
X5630500Y62611949D01*
X5648806Y62656143D01*
X5693000Y62674449D01*
X5737194Y62656143D01*
X5742581Y62650000D01*
X5828295Y62538295D01*
X5954739Y62441272D01*
X6101985Y62380280D01*
X6101989Y62380280D01*
X6101991Y62380279D01*
X6147041Y62374349D01*
X6220327Y62364700D01*
X6220333Y62364700D01*
X6299667Y62364700D01*
X6299673Y62364700D01*
X6401188Y62378065D01*
X6418008Y62380279D01*
X6418008Y62380280D01*
X6418015Y62380280D01*
X6565261Y62441272D01*
X6691705Y62538295D01*
X6788728Y62664738D01*
X6807558Y62710198D01*
X9544150Y62710198D01*
X9563068Y62566498D01*
X9563069Y62566493D01*
X9563070Y62566491D01*
X9618539Y62432575D01*
X9706779Y62317579D01*
X9821775Y62229339D01*
X9955691Y62173870D01*
X9955695Y62173870D01*
X9955697Y62173869D01*
X10099397Y62154950D01*
X10099400Y62154950D01*
X10099403Y62154950D01*
X10243102Y62173869D01*
X10243102Y62173870D01*
X10243109Y62173870D01*
X10377025Y62229339D01*
X10492021Y62317579D01*
X10580261Y62432575D01*
X10635730Y62566491D01*
X10652302Y62692364D01*
X10654650Y62710198D01*
X10654650Y62710203D01*
X10635731Y62853903D01*
X10635730Y62853905D01*
X10635730Y62853909D01*
X10587645Y62969999D01*
X11429477Y62969999D01*
X11450278Y62811992D01*
X11450281Y62811982D01*
X11511270Y62664742D01*
X11511271Y62664741D01*
X11511272Y62664739D01*
X11608295Y62538295D01*
X11734739Y62441272D01*
X11881985Y62380280D01*
X11881989Y62380280D01*
X11881991Y62380279D01*
X11927041Y62374349D01*
X12000327Y62364700D01*
X12000333Y62364700D01*
X12079667Y62364700D01*
X12079673Y62364700D01*
X12181188Y62378065D01*
X12198008Y62380279D01*
X12198008Y62380280D01*
X12198015Y62380280D01*
X12345261Y62441272D01*
X12471705Y62538295D01*
X12557415Y62649996D01*
X12598842Y62673913D01*
X12645047Y62661533D01*
X12668965Y62620106D01*
X12669500Y62611948D01*
X12669500Y61925050D01*
X12684631Y61790748D01*
X12684631Y61790746D01*
X12684632Y61790745D01*
X12691936Y61769870D01*
X12744213Y61620473D01*
X12744214Y61620472D01*
X12840182Y61467740D01*
X12967739Y61340183D01*
X13120471Y61244215D01*
X13120472Y61244214D01*
X13120474Y61244214D01*
X13120478Y61244211D01*
X13290745Y61184632D01*
X13470000Y61164435D01*
X13649255Y61184632D01*
X13819522Y61244211D01*
X13972262Y61340184D01*
X14099816Y61467738D01*
X14195789Y61620478D01*
X14255368Y61790745D01*
X14270500Y61925046D01*
X14270500Y63014954D01*
X14255368Y63149255D01*
X14195789Y63319522D01*
X14195786Y63319526D01*
X14195786Y63319528D01*
X14195785Y63319529D01*
X14099817Y63472261D01*
X13972260Y63599818D01*
X13819528Y63695786D01*
X13819527Y63695787D01*
X13819522Y63695789D01*
X13649255Y63755368D01*
X13649254Y63755369D01*
X13649252Y63755369D01*
X13470000Y63775565D01*
X13290747Y63755369D01*
X13120472Y63695787D01*
X13120471Y63695786D01*
X12967739Y63599818D01*
X12840182Y63472261D01*
X12744214Y63319529D01*
X12744213Y63319528D01*
X12744211Y63319522D01*
X12709534Y63220421D01*
X12677659Y63184754D01*
X12629899Y63182072D01*
X12594231Y63213948D01*
X12592800Y63217147D01*
X12568729Y63275259D01*
X12568727Y63275262D01*
X12568726Y63275263D01*
X12471705Y63401705D01*
X12345261Y63498728D01*
X12345258Y63498730D01*
X12198018Y63559719D01*
X12198008Y63559722D01*
X12079677Y63575300D01*
X12079673Y63575300D01*
X12000327Y63575300D01*
X12000322Y63575300D01*
X11881991Y63559722D01*
X11881981Y63559719D01*
X11734741Y63498730D01*
X11734738Y63498728D01*
X11608293Y63401704D01*
X11511272Y63275263D01*
X11511270Y63275260D01*
X11450281Y63128019D01*
X11450278Y63128009D01*
X11429477Y62970002D01*
X11429477Y62969999D01*
X10587645Y62969999D01*
X10580261Y62987825D01*
X10492021Y63102821D01*
X10377025Y63191061D01*
X10243109Y63246530D01*
X10243107Y63246531D01*
X10243102Y63246532D01*
X10099403Y63265450D01*
X10099397Y63265450D01*
X9955697Y63246532D01*
X9955691Y63246530D01*
X9821776Y63191062D01*
X9706779Y63102821D01*
X9618538Y62987824D01*
X9563070Y62853909D01*
X9563068Y62853903D01*
X9544150Y62710203D01*
X9544150Y62710198D01*
X6807558Y62710198D01*
X6849720Y62811985D01*
X6870523Y62970000D01*
X6868176Y62987824D01*
X6849721Y63128009D01*
X6849720Y63128011D01*
X6849720Y63128015D01*
X6788728Y63275261D01*
X6691705Y63401705D01*
X6565261Y63498728D01*
X6565258Y63498730D01*
X6418018Y63559719D01*
X6418008Y63559722D01*
X6299677Y63575300D01*
X6299673Y63575300D01*
X6220327Y63575300D01*
X6220322Y63575300D01*
X6101991Y63559722D01*
X6101981Y63559719D01*
X5954741Y63498730D01*
X5954738Y63498728D01*
X5828293Y63401704D01*
X5731272Y63275263D01*
X5731271Y63275262D01*
X5707199Y63217147D01*
X5673374Y63183323D01*
X5625538Y63183324D01*
X5591714Y63217149D01*
X5590474Y63220396D01*
X5555789Y63319522D01*
X5517686Y63380162D01*
X5459817Y63472261D01*
X5332260Y63599818D01*
X5179528Y63695786D01*
X5179527Y63695787D01*
X5179522Y63695789D01*
X5009255Y63755368D01*
X5009254Y63755369D01*
X5009252Y63755369D01*
X4830000Y63775565D01*
X4650747Y63755369D01*
X4480472Y63695787D01*
X4480471Y63695786D01*
X4327739Y63599818D01*
X4200182Y63472261D01*
X4104214Y63319529D01*
X4104213Y63319528D01*
X4044631Y63149253D01*
X4029500Y63014951D01*
X4029500Y61925050D01*
X2490791Y61925050D01*
X2495280Y61930995D01*
X2585281Y62111741D01*
X2640538Y62305947D01*
X2645982Y62364700D01*
X2659168Y62506996D01*
X2659168Y62507005D01*
X2640539Y62708046D01*
X2640537Y62708057D01*
X2610964Y62811992D01*
X2585281Y62902259D01*
X2495280Y63083005D01*
X2373600Y63244136D01*
X2290898Y63319529D01*
X2224388Y63380162D01*
X2224385Y63380164D01*
X2224384Y63380165D01*
X2052713Y63486459D01*
X2052711Y63486460D01*
X1997986Y63507660D01*
X1864433Y63559399D01*
X1864430Y63559400D01*
X1864429Y63559400D01*
X1665961Y63596500D01*
X1665957Y63596500D01*
X1464043Y63596500D01*
X1464038Y63596500D01*
X1265570Y63559400D01*
X1077288Y63486460D01*
X905611Y63380162D01*
X756403Y63244139D01*
X756396Y63244131D01*
X634720Y63083005D01*
X544719Y62902260D01*
X489462Y62708057D01*
X489460Y62708046D01*
X470832Y62507005D01*
X470832Y62506996D01*
X305300Y62506996D01*
X305300Y66216073D01*
X323606Y66260267D01*
X367800Y66278573D01*
X405255Y66266106D01*
X430032Y66247558D01*
X430040Y66247553D01*
X566904Y66196506D01*
X627402Y66190001D01*
X627416Y66190000D01*
X1165090Y66190000D01*
X1209284Y66171694D01*
X1227590Y66127500D01*
X1209284Y66083306D01*
X1187668Y66069221D01*
X1143782Y66052220D01*
X1077288Y66026460D01*
X905611Y65920162D01*
X756403Y65784139D01*
X756396Y65784131D01*
X634720Y65623005D01*
X544719Y65442260D01*
X489462Y65248057D01*
X489460Y65248046D01*
X470832Y65047005D01*
X470832Y65046996D01*
X489460Y64845955D01*
X489462Y64845944D01*
X543968Y64654380D01*
X544719Y64651741D01*
X634720Y64470995D01*
X756400Y64309864D01*
X841205Y64232554D01*
X905611Y64173839D01*
X905612Y64173838D01*
X905616Y64173835D01*
X1077287Y64067541D01*
X1265567Y63994601D01*
X1464043Y63957500D01*
X1464046Y63957500D01*
X1665954Y63957500D01*
X1665957Y63957500D01*
X1864433Y63994601D01*
X2052713Y64067541D01*
X2224384Y64173835D01*
X2373600Y64309864D01*
X2495280Y64470995D01*
X2585281Y64651741D01*
X2640538Y64845947D01*
X2645852Y64903292D01*
X2659168Y65046996D01*
X2659168Y65046998D01*
X6851750Y65046998D01*
X6870668Y64903298D01*
X6870669Y64903293D01*
X6870670Y64903291D01*
X6926139Y64769375D01*
X7014379Y64654379D01*
X7129375Y64566139D01*
X7263291Y64510670D01*
X7263295Y64510670D01*
X7263297Y64510669D01*
X7406997Y64491750D01*
X7407000Y64491750D01*
X7407003Y64491750D01*
X7550702Y64510669D01*
X7550702Y64510670D01*
X7550709Y64510670D01*
X7684625Y64566139D01*
X7799621Y64654379D01*
X7887861Y64769375D01*
X7943330Y64903291D01*
X7943331Y64903298D01*
X7962250Y65046998D01*
X10280750Y65046998D01*
X10299668Y64903298D01*
X10299669Y64903293D01*
X10299670Y64903291D01*
X10355139Y64769375D01*
X10443379Y64654379D01*
X10558375Y64566139D01*
X10692291Y64510670D01*
X10692295Y64510670D01*
X10692297Y64510669D01*
X10835997Y64491750D01*
X10836000Y64491750D01*
X10836003Y64491750D01*
X10979702Y64510669D01*
X10979702Y64510670D01*
X10979709Y64510670D01*
X11113625Y64566139D01*
X11228621Y64654379D01*
X11316861Y64769375D01*
X11372330Y64903291D01*
X11372331Y64903298D01*
X11391250Y65046998D01*
X11391250Y65047003D01*
X11372331Y65190703D01*
X11372330Y65190705D01*
X11372330Y65190709D01*
X11316861Y65324625D01*
X11228621Y65439621D01*
X11113625Y65527861D01*
X10979709Y65583330D01*
X10979707Y65583331D01*
X10979702Y65583332D01*
X10836003Y65602250D01*
X10835997Y65602250D01*
X10692297Y65583332D01*
X10692291Y65583330D01*
X10558376Y65527862D01*
X10443379Y65439621D01*
X10355138Y65324624D01*
X10299670Y65190709D01*
X10299668Y65190703D01*
X10280750Y65047003D01*
X10280750Y65046998D01*
X7962250Y65046998D01*
X7962250Y65047003D01*
X7943331Y65190703D01*
X7943330Y65190705D01*
X7943330Y65190709D01*
X7887861Y65324625D01*
X7799621Y65439621D01*
X7684625Y65527861D01*
X7550709Y65583330D01*
X7550707Y65583331D01*
X7550702Y65583332D01*
X7407003Y65602250D01*
X7406997Y65602250D01*
X7263297Y65583332D01*
X7263291Y65583330D01*
X7129376Y65527862D01*
X7014379Y65439621D01*
X6926138Y65324624D01*
X6870670Y65190709D01*
X6870668Y65190703D01*
X6851750Y65047003D01*
X6851750Y65046998D01*
X2659168Y65046998D01*
X2659168Y65047005D01*
X2640539Y65248046D01*
X2640537Y65248057D01*
X2618751Y65324625D01*
X2585281Y65442259D01*
X2495280Y65623005D01*
X2373600Y65784136D01*
X2291544Y65858940D01*
X2224388Y65920162D01*
X2224385Y65920164D01*
X2224384Y65920165D01*
X2052713Y66026459D01*
X2052711Y66026460D01*
X2013223Y66041758D01*
X1942332Y66069221D01*
X1907735Y66102255D01*
X1906630Y66150077D01*
X1939665Y66184675D01*
X1964910Y66190000D01*
X2502584Y66190000D01*
X2502597Y66190001D01*
X2563095Y66196506D01*
X2699959Y66247553D01*
X2699963Y66247556D01*
X2708420Y66253887D01*
X3979500Y66253887D01*
X3994486Y66116090D01*
X4010279Y66069220D01*
X4053555Y65940780D01*
X4148928Y65782266D01*
X4148930Y65782264D01*
X4276151Y65647959D01*
X4429270Y65544142D01*
X4429274Y65544141D01*
X4429275Y65544140D01*
X4526889Y65505247D01*
X4601125Y65475669D01*
X4783683Y65445740D01*
X4968407Y65455755D01*
X5146659Y65505246D01*
X5310104Y65591900D01*
X5451100Y65711663D01*
X5563054Y65858936D01*
X5640732Y66026833D01*
X5680500Y66207503D01*
X5680500Y66253887D01*
X12619500Y66253887D01*
X12634486Y66116090D01*
X12650279Y66069220D01*
X12693555Y65940780D01*
X12788928Y65782266D01*
X12788930Y65782264D01*
X12916151Y65647959D01*
X13069270Y65544142D01*
X13069274Y65544141D01*
X13069275Y65544140D01*
X13166889Y65505247D01*
X13241125Y65475669D01*
X13423683Y65445740D01*
X13608407Y65455755D01*
X13786659Y65505246D01*
X13950104Y65591900D01*
X14091100Y65711663D01*
X14203054Y65858936D01*
X14280732Y66026833D01*
X14320500Y66207503D01*
X14320500Y67046113D01*
X14305514Y67183910D01*
X14246444Y67359221D01*
X14223413Y67397500D01*
X14151071Y67517735D01*
X14145000Y67524144D01*
X14023849Y67652041D01*
X13870730Y67755858D01*
X13870726Y67755860D01*
X13870724Y67755861D01*
X13698882Y67824329D01*
X13698878Y67824330D01*
X13698875Y67824331D01*
X13516317Y67854260D01*
X13516316Y67854260D01*
X13516310Y67854261D01*
X13331599Y67844246D01*
X13331594Y67844246D01*
X13331593Y67844245D01*
X13272175Y67827748D01*
X13153339Y67794754D01*
X13153335Y67794752D01*
X12989899Y67708103D01*
X12989895Y67708100D01*
X12848900Y67588337D01*
X12736943Y67441061D01*
X12659270Y67273174D01*
X12659268Y67273169D01*
X12639621Y67183910D01*
X12619500Y67092497D01*
X12619500Y66253887D01*
X5680500Y66253887D01*
X5680500Y67046113D01*
X5665514Y67183910D01*
X5606444Y67359221D01*
X5583413Y67397500D01*
X5511071Y67517735D01*
X5505000Y67524144D01*
X5383849Y67652041D01*
X5230730Y67755858D01*
X5230726Y67755860D01*
X5230724Y67755861D01*
X5058882Y67824329D01*
X5058878Y67824330D01*
X5058875Y67824331D01*
X4876317Y67854260D01*
X4876316Y67854260D01*
X4876310Y67854261D01*
X4691599Y67844246D01*
X4691594Y67844246D01*
X4691593Y67844245D01*
X4632175Y67827748D01*
X4513339Y67794754D01*
X4513335Y67794752D01*
X4349899Y67708103D01*
X4349895Y67708100D01*
X4208900Y67588337D01*
X4096943Y67441061D01*
X4019270Y67273174D01*
X4019268Y67273169D01*
X3999621Y67183910D01*
X3979500Y67092497D01*
X3979500Y66253887D01*
X2708420Y66253887D01*
X2816903Y66335097D01*
X2904444Y66452037D01*
X2904447Y66452041D01*
X2955494Y66588905D01*
X2961999Y66649403D01*
X2962000Y66649416D01*
X2962000Y66952000D01*
X992500Y66952000D01*
X948306Y66970306D01*
X930000Y67014500D01*
X930000Y67515111D01*
X1065000Y67515111D01*
X1105507Y67377156D01*
X1183239Y67256202D01*
X1291900Y67162048D01*
X1422685Y67102320D01*
X1529237Y67087000D01*
X1600763Y67087000D01*
X1707315Y67102320D01*
X1838100Y67162048D01*
X1946761Y67256202D01*
X2024493Y67377156D01*
X2065000Y67515111D01*
X2065000Y67658889D01*
X2024493Y67796844D01*
X1946761Y67917798D01*
X1838100Y68011952D01*
X1707315Y68071680D01*
X1600763Y68087000D01*
X1529237Y68087000D01*
X1422685Y68071680D01*
X1291900Y68011952D01*
X1183239Y67917798D01*
X1105507Y67796844D01*
X1065000Y67658889D01*
X1065000Y67515111D01*
X930000Y67515111D01*
X930000Y68159500D01*
X948306Y68203694D01*
X992500Y68222000D01*
X2962000Y68222000D01*
X2962000Y68524585D01*
X2961999Y68524598D01*
X2955494Y68585096D01*
X2946072Y68610358D01*
X2947779Y68658163D01*
X2982789Y68690759D01*
X3004631Y68694700D01*
X6074500Y68694700D01*
X6118694Y68676394D01*
G37*
%TD.AperFunction*%
%TD*%
%TA.AperFunction,Conductor*%
%TO.N,/GPIO31*%
G36*
X14068858Y30533758D02*
G01*
X14072285Y30525485D01*
X14072111Y30523476D01*
X13981684Y30004663D01*
X13976888Y29997101D01*
X13970191Y29994972D01*
X13637850Y29994023D01*
X13629568Y29997426D01*
X13627003Y30001257D01*
X13500267Y30308172D01*
X13500277Y30317127D01*
X13505976Y30323165D01*
X13945082Y30536014D01*
X13950185Y30537185D01*
X14060585Y30537185D01*
X14068858Y30533758D01*
G37*
%TD.AperFunction*%
%TD*%
%TA.AperFunction,Conductor*%
%TO.N,/GPIO8\u005CQMI_CS1n*%
G36*
X11538106Y52603309D02*
G01*
X11544421Y52596960D01*
X11544570Y52596578D01*
X11754266Y52030962D01*
X11753929Y52022014D01*
X11751569Y52018622D01*
X11672378Y51939431D01*
X11664105Y51936004D01*
X11660038Y51936734D01*
X11094422Y52146430D01*
X11087856Y52152519D01*
X11087519Y52161467D01*
X11087658Y52161826D01*
X11214437Y52470194D01*
X11220748Y52476539D01*
X11529152Y52603332D01*
X11538106Y52603309D01*
G37*
%TD.AperFunction*%
%TD*%
%TA.AperFunction,Conductor*%
%TO.N,/GPIO31*%
G36*
X16184691Y42807066D02*
G01*
X16186289Y42805733D01*
X16802267Y42191139D01*
X16805703Y42182871D01*
X16805703Y42182849D01*
X16805010Y41310607D01*
X16801577Y41302336D01*
X16793301Y41298916D01*
X16792430Y41298949D01*
X16338722Y41333189D01*
X16330730Y41337229D01*
X16328962Y41339990D01*
X16321829Y41355611D01*
X16231911Y41459381D01*
X16116400Y41533616D01*
X16050527Y41552958D01*
X15984655Y41572300D01*
X15984654Y41572300D01*
X15847346Y41572300D01*
X15847345Y41572300D01*
X15715600Y41533616D01*
X15600089Y41459381D01*
X15600087Y41459380D01*
X15600087Y41459379D01*
X15546644Y41397704D01*
X15538636Y41393696D01*
X15536922Y41393699D01*
X15357680Y41407226D01*
X15350287Y41410620D01*
X15270457Y41490450D01*
X15267030Y41498723D01*
X15269110Y41505383D01*
X16168412Y42804110D01*
X16175938Y42808958D01*
X16184691Y42807066D01*
G37*
%TD.AperFunction*%
%TD*%
%TA.AperFunction,Conductor*%
%TO.N,/GPIO45*%
G36*
X15372029Y38057203D02*
G01*
X15373471Y38055985D01*
X15608446Y37822348D01*
X15611897Y37814085D01*
X15611897Y37814028D01*
X15611222Y37479398D01*
X15607778Y37471132D01*
X15600011Y37467732D01*
X15079671Y37445954D01*
X15071262Y37449032D01*
X15070909Y37449371D01*
X14991749Y37528531D01*
X14988322Y37536804D01*
X14990502Y37543604D01*
X15355709Y38054491D01*
X15363306Y38059227D01*
X15372029Y38057203D01*
G37*
%TD.AperFunction*%
%TD*%
%TA.AperFunction,Conductor*%
%TO.N,/GPIO45*%
G36*
X15727333Y7930930D02*
G01*
X17133395Y7452349D01*
X17140123Y7446439D01*
X17140701Y7437503D01*
X17140436Y7436800D01*
X16806856Y6630488D01*
X16800527Y6624154D01*
X16800511Y6624147D01*
X15996391Y6292048D01*
X15987436Y6292057D01*
X15981111Y6298396D01*
X15980533Y6300194D01*
X15601865Y7917186D01*
X15603315Y7926023D01*
X15610589Y7931246D01*
X15613257Y7931554D01*
X15723563Y7931554D01*
X15727333Y7930930D01*
G37*
%TD.AperFunction*%
%TD*%
%TA.AperFunction,Conductor*%
%TO.N,/+1V1*%
G36*
X11239457Y37193216D02*
G01*
X11618896Y36984530D01*
X11722782Y36927394D01*
X11728380Y36920404D01*
X11727965Y36912693D01*
X11599604Y36600477D01*
X11597032Y36596629D01*
X11358861Y36359814D01*
X11350579Y36356411D01*
X11342315Y36359862D01*
X11342264Y36359913D01*
X11109810Y36596629D01*
X10880674Y36829967D01*
X10877323Y36838270D01*
X10880749Y36846436D01*
X11225550Y37191237D01*
X11233822Y37194663D01*
X11239457Y37193216D01*
G37*
%TD.AperFunction*%
%TD*%
%TA.AperFunction,Conductor*%
%TO.N,/+1V1*%
G36*
X5261251Y36185182D02*
G01*
X5421988Y36163138D01*
X5426721Y36161392D01*
X5428600Y36160184D01*
X5494473Y36140842D01*
X5560345Y36121500D01*
X5560346Y36121500D01*
X5697653Y36121500D01*
X5697654Y36121500D01*
X5704153Y36123409D01*
X5709032Y36123773D01*
X5937891Y36092387D01*
X5945621Y36087868D01*
X5948000Y36080796D01*
X5948000Y35593206D01*
X5944573Y35584933D01*
X5937890Y35581614D01*
X5709032Y35550229D01*
X5704147Y35550595D01*
X5697657Y35552500D01*
X5697654Y35552500D01*
X5560346Y35552500D01*
X5560345Y35552500D01*
X5428599Y35513816D01*
X5426717Y35512607D01*
X5421986Y35510862D01*
X5261251Y35488818D01*
X5252589Y35491088D01*
X5248070Y35498819D01*
X5247961Y35500365D01*
X5247000Y35837000D01*
X5247961Y36173626D01*
X5251412Y36181888D01*
X5259694Y36185291D01*
X5261251Y36185182D01*
G37*
%TD.AperFunction*%
%TD*%
%TA.AperFunction,Conductor*%
%TO.N,/GPIO8\u005CQMI_CS1n*%
G36*
X7172065Y39360111D02*
G01*
X7251237Y39280939D01*
X7254656Y39273093D01*
X7273957Y38744703D01*
X7270835Y38736310D01*
X7262692Y38732584D01*
X7262289Y38732576D01*
X6928572Y38731903D01*
X6920292Y38735313D01*
X6686134Y38970813D01*
X6682732Y38979094D01*
X6686183Y38987358D01*
X6687138Y38988209D01*
X7156517Y39361001D01*
X7165125Y39363462D01*
X7172065Y39360111D01*
G37*
%TD.AperFunction*%
%TD*%
%TA.AperFunction,Conductor*%
%TO.N,/GPIO47*%
G36*
X15222843Y39141334D02*
G01*
X15531191Y39014564D01*
X15537540Y39008249D01*
X15537563Y39008192D01*
X15664331Y38699849D01*
X15664308Y38690894D01*
X15657959Y38684579D01*
X15657577Y38684430D01*
X15091961Y38474734D01*
X15083013Y38475071D01*
X15079621Y38477431D01*
X15000430Y38556622D01*
X14997003Y38564895D01*
X14997733Y38568962D01*
X15046258Y38699849D01*
X15207430Y39134580D01*
X15213518Y39141144D01*
X15222466Y39141481D01*
X15222843Y39141334D01*
G37*
%TD.AperFunction*%
%TD*%
%TA.AperFunction,Conductor*%
%TO.N,/GPIO46*%
G36*
X17760191Y38505933D02*
G01*
X17766506Y38499584D01*
X17766939Y38498333D01*
X17943767Y37876016D01*
X17942732Y37867121D01*
X17935711Y37861564D01*
X17932513Y37861118D01*
X17823115Y37861118D01*
X17819018Y37861859D01*
X17317397Y38049404D01*
X17310847Y38055511D01*
X17310535Y38064460D01*
X17310669Y38064804D01*
X17438141Y38373500D01*
X17444464Y38379836D01*
X17751237Y38505956D01*
X17760191Y38505933D01*
G37*
%TD.AperFunction*%
%TD*%
%TA.AperFunction,Conductor*%
%TO.N,/GPIO47*%
G36*
X15599408Y2847049D02*
G01*
X17132959Y2372122D01*
X17139848Y2366401D01*
X17140674Y2357485D01*
X17140312Y2356480D01*
X16807562Y1550786D01*
X16801237Y1544447D01*
X16801214Y1544438D01*
X15995520Y1211688D01*
X15986565Y1211697D01*
X15980240Y1218036D01*
X15979878Y1219041D01*
X15879105Y1544438D01*
X15504951Y2752592D01*
X15505777Y2761508D01*
X15507851Y2764323D01*
X15587675Y2844147D01*
X15595947Y2847573D01*
X15599408Y2847049D01*
G37*
%TD.AperFunction*%
%TD*%
%TA.AperFunction,Conductor*%
%TO.N,/GPIO46*%
G36*
X17942128Y5414430D02*
G01*
X17945555Y5406157D01*
X17945348Y5403964D01*
X17695812Y4096497D01*
X17690894Y4089013D01*
X17684332Y4086990D01*
X16812830Y4086009D01*
X16804553Y4089427D01*
X16802006Y4093236D01*
X16469416Y4897156D01*
X16469420Y4906111D01*
X16475754Y4912440D01*
X16476073Y4912567D01*
X17789858Y5406157D01*
X17819012Y5417110D01*
X17823127Y5417857D01*
X17933855Y5417857D01*
X17942128Y5414430D01*
G37*
%TD.AperFunction*%
%TD*%
M02*
