%TF.GenerationSoftware,KiCad,Pcbnew,7.0.9-7.0.9~ubuntu22.04.1*%
%TF.CreationDate,2025-04-08T09:34:51+03:00*%
%TF.ProjectId,PICO2-BB48_Rev_A,5049434f-322d-4424-9234-385f5265765f,A*%
%TF.SameCoordinates,PX8321560PY7f50c60*%
%TF.FileFunction,Legend,Top*%
%TF.FilePolarity,Positive*%
%FSLAX46Y46*%
G04 Gerber Fmt 4.6, Leading zero omitted, Abs format (unit mm)*
G04 Created by KiCad (PCBNEW 7.0.9-7.0.9~ubuntu22.04.1) date 2025-04-08 09:34:51*
%MOMM*%
%LPD*%
G01*
G04 APERTURE LIST*
%ADD10C,0.254000*%
%ADD11C,0.222250*%
%ADD12C,0.190500*%
%ADD13C,0.203200*%
%ADD14C,0.317500*%
%ADD15C,0.127000*%
%ADD16C,0.050000*%
%ADD17C,0.100000*%
%ADD18C,0.228600*%
%ADD19C,0.009000*%
G04 APERTURE END LIST*
D10*
X8165000Y52728000D02*
G75*
G03*
X8165000Y52728000I-250000J0D01*
G01*
X4232000Y57935000D02*
X5629000Y57935000D01*
X12102000Y45743000D02*
G75*
G03*
X12102000Y45743000I-250000J0D01*
G01*
X5629000Y57935000D02*
X5756000Y57808000D01*
G36*
X3398009Y20495046D02*
G01*
X3417248Y20475807D01*
X3443003Y20424297D01*
X3443003Y20194229D01*
X3164812Y20194229D01*
X3164812Y20424297D01*
X3190567Y20475807D01*
X3209806Y20495046D01*
X3261316Y20520801D01*
X3346499Y20520801D01*
X3398009Y20495046D01*
G37*
G36*
X3843740Y23048935D02*
G01*
X3901055Y22991621D01*
X3926812Y22940107D01*
X3926812Y22806544D01*
X3901055Y22755030D01*
X3843740Y22697716D01*
X3699512Y22661658D01*
X3392113Y22661658D01*
X3247884Y22697716D01*
X3190567Y22755033D01*
X3164812Y22806543D01*
X3164812Y22940107D01*
X3190567Y22991618D01*
X3247884Y23048935D01*
X3392113Y23084992D01*
X3699512Y23084992D01*
X3843740Y23048935D01*
G37*
G36*
X3349628Y26252380D02*
G01*
X3368867Y26233141D01*
X3394622Y26181631D01*
X3394622Y25999944D01*
X3164812Y25999944D01*
X3164812Y26181631D01*
X3190567Y26233141D01*
X3209806Y26252380D01*
X3261316Y26278135D01*
X3298118Y26278135D01*
X3349628Y26252380D01*
G37*
G36*
X3881819Y26300761D02*
G01*
X3901056Y26281524D01*
X3926812Y26230012D01*
X3926812Y25999944D01*
X3648622Y25999944D01*
X3648622Y26191001D01*
X3681005Y26288150D01*
X3693616Y26300761D01*
X3745126Y26326516D01*
X3830309Y26326516D01*
X3881819Y26300761D01*
G37*
G36*
X3349628Y27268380D02*
G01*
X3368867Y27249141D01*
X3394622Y27197631D01*
X3394622Y27015944D01*
X3164812Y27015944D01*
X3164812Y27197631D01*
X3190567Y27249141D01*
X3209806Y27268380D01*
X3261316Y27294135D01*
X3298118Y27294135D01*
X3349628Y27268380D01*
G37*
G36*
X3881819Y27316761D02*
G01*
X3901056Y27297524D01*
X3926812Y27246012D01*
X3926812Y27015944D01*
X3648622Y27015944D01*
X3648622Y27207001D01*
X3681005Y27304150D01*
X3693616Y27316761D01*
X3745126Y27342516D01*
X3830309Y27342516D01*
X3881819Y27316761D01*
G37*
G36*
X3881819Y29251999D02*
G01*
X3901056Y29232762D01*
X3926812Y29181250D01*
X3926812Y29047687D01*
X3901056Y28996175D01*
X3881819Y28976937D01*
X3830309Y28951182D01*
X3696745Y28951182D01*
X3645235Y28976937D01*
X3625996Y28996176D01*
X3600241Y29047686D01*
X3600241Y29181250D01*
X3625996Y29232760D01*
X3645235Y29251999D01*
X3696745Y29277754D01*
X3830309Y29277754D01*
X3881819Y29251999D01*
G37*
G36*
X3301247Y29251999D02*
G01*
X3320486Y29232760D01*
X3346241Y29181250D01*
X3346241Y29047686D01*
X3320486Y28996176D01*
X3301247Y28976937D01*
X3255526Y28954077D01*
X3209806Y28976937D01*
X3190567Y28996176D01*
X3164812Y29047686D01*
X3164812Y29181250D01*
X3190567Y29232760D01*
X3209806Y29251999D01*
X3255526Y29274860D01*
X3301247Y29251999D01*
G37*
G36*
X4325955Y19795086D02*
G01*
X2719317Y19795086D01*
X2719317Y20067229D01*
X2910812Y20067229D01*
X2913424Y20058332D01*
X2912105Y20049155D01*
X2923347Y20024537D01*
X2930973Y19998568D01*
X2937980Y19992497D01*
X2941832Y19984062D01*
X2964600Y19969430D01*
X2985054Y19951706D01*
X2994230Y19950387D01*
X3002032Y19945373D01*
X3037812Y19940229D01*
X4053812Y19940229D01*
X4122473Y19960390D01*
X4169335Y20014471D01*
X4179519Y20085303D01*
X4149792Y20150396D01*
X4089592Y20189085D01*
X4053812Y20194229D01*
X3697003Y20194229D01*
X3697003Y20454277D01*
X3693759Y20465323D01*
X3694996Y20476770D01*
X3683595Y20511073D01*
X3635214Y20607835D01*
X3633593Y20609578D01*
X3633087Y20611904D01*
X3611425Y20640842D01*
X3563044Y20689223D01*
X3560954Y20690365D01*
X3559739Y20692410D01*
X3530037Y20713012D01*
X3433275Y20761393D01*
X3421945Y20763432D01*
X3412259Y20769657D01*
X3376479Y20774801D01*
X3231336Y20774801D01*
X3220290Y20771558D01*
X3208843Y20772794D01*
X3174540Y20761393D01*
X3077778Y20713012D01*
X3076035Y20711392D01*
X3073709Y20710885D01*
X3044771Y20689223D01*
X2996390Y20640842D01*
X2995248Y20638753D01*
X2993203Y20637537D01*
X2972601Y20607835D01*
X2924220Y20511073D01*
X2922181Y20499744D01*
X2915956Y20490057D01*
X2910812Y20454277D01*
X2910812Y20067229D01*
X2719317Y20067229D01*
X2719317Y21065155D01*
X2912105Y21065155D01*
X2941832Y21000062D01*
X3002032Y20961373D01*
X3037812Y20956229D01*
X4053812Y20956229D01*
X4122473Y20976390D01*
X4169335Y21030471D01*
X4179519Y21101303D01*
X4149792Y21166396D01*
X4089592Y21205085D01*
X4053812Y21210229D01*
X3037812Y21210229D01*
X2969151Y21190068D01*
X2922289Y21135987D01*
X2912105Y21065155D01*
X2719317Y21065155D01*
X2719317Y21857325D01*
X2910812Y21857325D01*
X2911482Y21855042D01*
X2910895Y21852735D01*
X2917329Y21817164D01*
X2965710Y21672021D01*
X2972280Y21662567D01*
X2974728Y21651317D01*
X2996390Y21622379D01*
X3093152Y21525618D01*
X3095241Y21524478D01*
X3096457Y21522430D01*
X3126159Y21501828D01*
X3222921Y21453447D01*
X3227301Y21452659D01*
X3248915Y21443831D01*
X3442439Y21395450D01*
X3445889Y21395591D01*
X3473241Y21391658D01*
X3618384Y21391658D01*
X3621696Y21392631D01*
X3649186Y21395450D01*
X3842710Y21443831D01*
X3846549Y21446084D01*
X3868704Y21453447D01*
X3965466Y21501828D01*
X3967208Y21503449D01*
X3969535Y21503955D01*
X3998473Y21525617D01*
X4095234Y21622379D01*
X4100751Y21632484D01*
X4109721Y21639705D01*
X4125915Y21672022D01*
X4174295Y21817165D01*
X4174380Y21819543D01*
X4175668Y21821545D01*
X4180812Y21857325D01*
X4180812Y21954087D01*
X4180141Y21956371D01*
X4180729Y21958676D01*
X4174295Y21994247D01*
X4125915Y22139390D01*
X4119344Y22148845D01*
X4116897Y22160095D01*
X4095235Y22189033D01*
X4046854Y22237414D01*
X3984047Y22271708D01*
X3912669Y22266604D01*
X3855382Y22223719D01*
X3830375Y22156671D01*
X3845586Y22086746D01*
X3867248Y22057808D01*
X3894430Y22030626D01*
X3926812Y21933479D01*
X3926812Y21877934D01*
X3894429Y21780786D01*
X3833438Y21719795D01*
X3767582Y21686866D01*
X3602750Y21645658D01*
X3488875Y21645658D01*
X3324043Y21686866D01*
X3258185Y21719795D01*
X3197195Y21780786D01*
X3164812Y21877935D01*
X3164812Y21933477D01*
X3197195Y22030626D01*
X3224377Y22057808D01*
X3258671Y22120615D01*
X3253567Y22191993D01*
X3210682Y22249279D01*
X3143634Y22274287D01*
X3073709Y22259076D01*
X3044771Y22237414D01*
X2996390Y22189033D01*
X2990872Y22178928D01*
X2981905Y22171708D01*
X2965710Y22139391D01*
X2917329Y21994248D01*
X2917242Y21991870D01*
X2915956Y21989867D01*
X2910812Y21954087D01*
X2910812Y21857325D01*
X2719317Y21857325D01*
X2719317Y22776563D01*
X2910812Y22776563D01*
X2914055Y22765518D01*
X2912819Y22754070D01*
X2924220Y22719767D01*
X2972601Y22623005D01*
X2974221Y22621263D01*
X2974728Y22618936D01*
X2996390Y22589998D01*
X3093152Y22493237D01*
X3107493Y22485406D01*
X3118689Y22473499D01*
X3152153Y22459831D01*
X3345677Y22411450D01*
X3349127Y22411591D01*
X3376479Y22407658D01*
X3715146Y22407658D01*
X3718458Y22408631D01*
X3745948Y22411450D01*
X3939472Y22459831D01*
X3953566Y22468101D01*
X3969535Y22471574D01*
X3998473Y22493236D01*
X4095234Y22589998D01*
X4096375Y22592088D01*
X4098423Y22593304D01*
X4119025Y22623006D01*
X4167405Y22719768D01*
X4169443Y22731099D01*
X4175668Y22740783D01*
X4180812Y22776563D01*
X4180812Y22970087D01*
X4177568Y22981132D01*
X4178805Y22992579D01*
X4167405Y23026882D01*
X4119025Y23123644D01*
X4117403Y23125388D01*
X4116897Y23127714D01*
X4095234Y23156652D01*
X3998473Y23253414D01*
X3984129Y23261246D01*
X3972936Y23273151D01*
X3939472Y23286819D01*
X3745948Y23335200D01*
X3742497Y23335060D01*
X3715146Y23338992D01*
X3376479Y23338992D01*
X3373166Y23338020D01*
X3345677Y23335200D01*
X3152153Y23286819D01*
X3138058Y23278550D01*
X3122090Y23275076D01*
X3093152Y23253413D01*
X2996390Y23156652D01*
X2995248Y23154563D01*
X2993203Y23153347D01*
X2972601Y23123645D01*
X2924220Y23026883D01*
X2922181Y23015554D01*
X2915956Y23005867D01*
X2910812Y22970087D01*
X2910812Y22776563D01*
X2719317Y22776563D01*
X2719317Y23744182D01*
X2910812Y23744182D01*
X2914055Y23733137D01*
X2912819Y23721689D01*
X2924220Y23687386D01*
X2972601Y23590624D01*
X2974221Y23588882D01*
X2974728Y23586555D01*
X2996390Y23557617D01*
X3044771Y23509236D01*
X3107578Y23474942D01*
X3178956Y23480046D01*
X3236242Y23522931D01*
X3261250Y23589979D01*
X3246039Y23659904D01*
X3224377Y23688842D01*
X3190567Y23722652D01*
X3164812Y23774162D01*
X3164812Y23956107D01*
X3190567Y24007617D01*
X3209806Y24026856D01*
X3261316Y24052611D01*
X3307488Y24052611D01*
X3404638Y24020228D01*
X3964009Y23460856D01*
X3983913Y23449988D01*
X4001054Y23435135D01*
X4014709Y23433172D01*
X4026816Y23426561D01*
X4049437Y23428179D01*
X4071886Y23424951D01*
X4084433Y23430682D01*
X4098193Y23431665D01*
X4116349Y23445257D01*
X4136979Y23454678D01*
X4144437Y23466284D01*
X4155480Y23474550D01*
X4163404Y23495796D01*
X4175668Y23514878D01*
X4178895Y23537330D01*
X4180488Y23541598D01*
X4179898Y23544307D01*
X4180812Y23550658D01*
X4180812Y24179611D01*
X4160651Y24248272D01*
X4106570Y24295134D01*
X4035738Y24305318D01*
X3970645Y24275591D01*
X3931956Y24215391D01*
X3926812Y24179611D01*
X3926812Y23857264D01*
X3563044Y24221032D01*
X3552939Y24226550D01*
X3545719Y24235518D01*
X3513402Y24251713D01*
X3368259Y24300094D01*
X3365880Y24300181D01*
X3363878Y24301467D01*
X3328098Y24306611D01*
X3231336Y24306611D01*
X3220290Y24303368D01*
X3208843Y24304604D01*
X3174540Y24293203D01*
X3077778Y24244822D01*
X3076035Y24243202D01*
X3073709Y24242695D01*
X3044771Y24221033D01*
X2996390Y24172652D01*
X2995248Y24170563D01*
X2993203Y24169347D01*
X2972601Y24139645D01*
X2924220Y24042883D01*
X2922181Y24031554D01*
X2915956Y24021867D01*
X2910812Y23986087D01*
X2910812Y23744182D01*
X2719317Y23744182D01*
X2719317Y24615039D01*
X3539765Y24615039D01*
X3559926Y24546378D01*
X3614007Y24499516D01*
X3684839Y24489332D01*
X3749932Y24519059D01*
X3788621Y24579259D01*
X3793765Y24615039D01*
X3793765Y25389134D01*
X3773604Y25457795D01*
X3719523Y25504657D01*
X3648691Y25514841D01*
X3583598Y25485114D01*
X3544909Y25424914D01*
X3539765Y25389134D01*
X3539765Y24615039D01*
X2719317Y24615039D01*
X2719317Y25872944D01*
X2910812Y25872944D01*
X2913424Y25864047D01*
X2912105Y25854870D01*
X2923347Y25830252D01*
X2930973Y25804283D01*
X2937980Y25798212D01*
X2941832Y25789777D01*
X2964600Y25775145D01*
X2985054Y25757421D01*
X2994230Y25756102D01*
X3002032Y25751088D01*
X3037812Y25745944D01*
X4053812Y25745944D01*
X4062709Y25748557D01*
X4071886Y25747237D01*
X4096504Y25758480D01*
X4122473Y25766105D01*
X4128544Y25773113D01*
X4136979Y25776964D01*
X4151611Y25799733D01*
X4169335Y25820186D01*
X4170654Y25829363D01*
X4175668Y25837164D01*
X4180812Y25872944D01*
X4180812Y26259992D01*
X4177568Y26271037D01*
X4178805Y26282484D01*
X4167405Y26316787D01*
X4119025Y26413549D01*
X4117403Y26415293D01*
X4116897Y26417619D01*
X4095235Y26446557D01*
X4046854Y26494938D01*
X4044764Y26496080D01*
X4043549Y26498125D01*
X4013847Y26518727D01*
X3917085Y26567108D01*
X3905755Y26569147D01*
X3896069Y26575372D01*
X3860289Y26580516D01*
X3715146Y26580516D01*
X3704100Y26577273D01*
X3692653Y26578509D01*
X3658350Y26567108D01*
X3561588Y26518727D01*
X3559845Y26517107D01*
X3557519Y26516600D01*
X3528581Y26494938D01*
X3494842Y26461200D01*
X3481656Y26470346D01*
X3384894Y26518727D01*
X3373564Y26520766D01*
X3363878Y26526991D01*
X3328098Y26532135D01*
X3231336Y26532135D01*
X3220290Y26528892D01*
X3208843Y26530128D01*
X3174540Y26518727D01*
X3077778Y26470346D01*
X3076035Y26468726D01*
X3073709Y26468219D01*
X3044771Y26446557D01*
X2996390Y26398176D01*
X2995248Y26396087D01*
X2993203Y26394871D01*
X2972601Y26365169D01*
X2924220Y26268407D01*
X2922181Y26257078D01*
X2915956Y26247391D01*
X2910812Y26211611D01*
X2910812Y25872944D01*
X2719317Y25872944D01*
X2719317Y26888944D01*
X2910812Y26888944D01*
X2913424Y26880047D01*
X2912105Y26870870D01*
X2923347Y26846252D01*
X2930973Y26820283D01*
X2937980Y26814212D01*
X2941832Y26805777D01*
X2964600Y26791145D01*
X2985054Y26773421D01*
X2994230Y26772102D01*
X3002032Y26767088D01*
X3037812Y26761944D01*
X4053812Y26761944D01*
X4062709Y26764557D01*
X4071886Y26763237D01*
X4096504Y26774480D01*
X4122473Y26782105D01*
X4128544Y26789113D01*
X4136979Y26792964D01*
X4151611Y26815733D01*
X4169335Y26836186D01*
X4170654Y26845363D01*
X4175668Y26853164D01*
X4180812Y26888944D01*
X4180812Y27275992D01*
X4177568Y27287037D01*
X4178805Y27298484D01*
X4167405Y27332787D01*
X4119025Y27429549D01*
X4117403Y27431293D01*
X4116897Y27433619D01*
X4095235Y27462557D01*
X4046854Y27510938D01*
X4044764Y27512080D01*
X4043549Y27514125D01*
X4013847Y27534727D01*
X3917085Y27583108D01*
X3905755Y27585147D01*
X3896069Y27591372D01*
X3860289Y27596516D01*
X3715146Y27596516D01*
X3704100Y27593273D01*
X3692653Y27594509D01*
X3658350Y27583108D01*
X3561588Y27534727D01*
X3559845Y27533107D01*
X3557519Y27532600D01*
X3528581Y27510938D01*
X3494842Y27477200D01*
X3481656Y27486346D01*
X3384894Y27534727D01*
X3373564Y27536766D01*
X3363878Y27542991D01*
X3328098Y27548135D01*
X3231336Y27548135D01*
X3220290Y27544892D01*
X3208843Y27546128D01*
X3174540Y27534727D01*
X3077778Y27486346D01*
X3076035Y27484726D01*
X3073709Y27484219D01*
X3044771Y27462557D01*
X2996390Y27414176D01*
X2995248Y27412087D01*
X2993203Y27410871D01*
X2972601Y27381169D01*
X2924220Y27284407D01*
X2922181Y27273078D01*
X2915956Y27263391D01*
X2910812Y27227611D01*
X2910812Y26888944D01*
X2719317Y26888944D01*
X2719317Y28121074D01*
X2864460Y28121074D01*
X2872078Y28049920D01*
X2916954Y27994180D01*
X2949271Y27977985D01*
X3674985Y27736080D01*
X3704245Y27735022D01*
X3733220Y27730856D01*
X3739546Y27733746D01*
X3746498Y27733494D01*
X3771682Y27748422D01*
X3798313Y27760583D01*
X3802073Y27766435D01*
X3808057Y27769981D01*
X3821172Y27796153D01*
X3837002Y27820783D01*
X3838404Y27830538D01*
X3840118Y27833957D01*
X3839596Y27838830D01*
X3842146Y27856563D01*
X3842146Y28213373D01*
X4053812Y28213373D01*
X4122473Y28233534D01*
X4169335Y28287615D01*
X4179519Y28358447D01*
X4149792Y28423540D01*
X4089592Y28462229D01*
X4053812Y28467373D01*
X3842146Y28467373D01*
X3842146Y28485516D01*
X3821985Y28554177D01*
X3767904Y28601039D01*
X3697072Y28611223D01*
X3631979Y28581496D01*
X3593290Y28521296D01*
X3588146Y28485516D01*
X3588146Y28467373D01*
X3376479Y28467373D01*
X3307818Y28447212D01*
X3260956Y28393131D01*
X3250772Y28322299D01*
X3280499Y28257206D01*
X3340699Y28218517D01*
X3376479Y28213373D01*
X3588146Y28213373D01*
X3588146Y28032767D01*
X3029593Y28218951D01*
X2958080Y28221537D01*
X2896521Y28185050D01*
X2864460Y28121074D01*
X2719317Y28121074D01*
X2719317Y29017706D01*
X2910812Y29017706D01*
X2914055Y29006661D01*
X2912819Y28995213D01*
X2924220Y28960910D01*
X2972601Y28864148D01*
X2974221Y28862406D01*
X2974728Y28860079D01*
X2996390Y28831141D01*
X3044771Y28782760D01*
X3046860Y28781619D01*
X3048076Y28779573D01*
X3077778Y28758971D01*
X3174540Y28710590D01*
X3185869Y28708552D01*
X3195556Y28702326D01*
X3231336Y28697182D01*
X3279717Y28697182D01*
X3290762Y28700426D01*
X3302210Y28699189D01*
X3336513Y28710590D01*
X3433275Y28758971D01*
X3435017Y28760592D01*
X3437344Y28761098D01*
X3466282Y28782760D01*
X3473241Y28789719D01*
X3480200Y28782760D01*
X3482289Y28781619D01*
X3483505Y28779573D01*
X3513207Y28758971D01*
X3609969Y28710590D01*
X3621298Y28708552D01*
X3630985Y28702326D01*
X3666765Y28697182D01*
X3860289Y28697182D01*
X3871334Y28700426D01*
X3882782Y28699189D01*
X3917085Y28710590D01*
X4013847Y28758971D01*
X4015589Y28760592D01*
X4017916Y28761098D01*
X4046854Y28782760D01*
X4095235Y28831141D01*
X4096376Y28833232D01*
X4098423Y28834447D01*
X4119025Y28864149D01*
X4167405Y28960911D01*
X4169443Y28972242D01*
X4175668Y28981926D01*
X4180812Y29017706D01*
X4180812Y29211230D01*
X4177568Y29222275D01*
X4178805Y29233722D01*
X4167405Y29268025D01*
X4119025Y29364787D01*
X4117403Y29366531D01*
X4116897Y29368857D01*
X4095235Y29397795D01*
X4046854Y29446176D01*
X4044764Y29447318D01*
X4043549Y29449363D01*
X4013847Y29469965D01*
X3917085Y29518346D01*
X3905755Y29520385D01*
X3896069Y29526610D01*
X3860289Y29531754D01*
X3666765Y29531754D01*
X3655719Y29528511D01*
X3644272Y29529747D01*
X3609969Y29518346D01*
X3513207Y29469965D01*
X3511464Y29468345D01*
X3509138Y29467838D01*
X3480200Y29446176D01*
X3473241Y29439217D01*
X3466282Y29446176D01*
X3464192Y29447318D01*
X3462977Y29449363D01*
X3433275Y29469965D01*
X3336513Y29518346D01*
X3325183Y29520385D01*
X3315497Y29526610D01*
X3279717Y29531754D01*
X3231336Y29531754D01*
X3220290Y29528511D01*
X3208843Y29529747D01*
X3174540Y29518346D01*
X3077778Y29469965D01*
X3076035Y29468345D01*
X3073709Y29467838D01*
X3044771Y29446176D01*
X2996390Y29397795D01*
X2995248Y29395706D01*
X2993203Y29394490D01*
X2972601Y29364788D01*
X2924220Y29268026D01*
X2922181Y29256697D01*
X2915956Y29247010D01*
X2910812Y29211230D01*
X2910812Y29017706D01*
X2719317Y29017706D01*
X2719317Y29676897D01*
X4325955Y29676897D01*
X4325955Y19795086D01*
G37*
D11*
G36*
X15767686Y67203163D02*
G01*
X14790114Y67203163D01*
X14790114Y68059739D01*
X14917114Y68059739D01*
X14947829Y67998310D01*
X15008783Y67966666D01*
X15076696Y67976895D01*
X15161363Y68019227D01*
X15169875Y68027611D01*
X15169875Y67552413D01*
X15027000Y67552413D01*
X14961682Y67531190D01*
X14921314Y67475628D01*
X14921314Y67406948D01*
X14961682Y67351386D01*
X15027000Y67330163D01*
X15535000Y67330163D01*
X15600318Y67351386D01*
X15640686Y67406948D01*
X15640686Y67475628D01*
X15600318Y67531190D01*
X15535000Y67552413D01*
X15392125Y67552413D01*
X15392125Y68330288D01*
X15391401Y68332514D01*
X15392035Y68334767D01*
X15380853Y68364979D01*
X15370902Y68395606D01*
X15369008Y68396982D01*
X15368197Y68399175D01*
X15341409Y68417034D01*
X15315340Y68435974D01*
X15312999Y68435974D01*
X15311052Y68437272D01*
X15278873Y68435974D01*
X15246660Y68435974D01*
X15244766Y68434599D01*
X15242429Y68434504D01*
X15217161Y68414543D01*
X15191098Y68395606D01*
X15190374Y68393381D01*
X15188538Y68391929D01*
X15109975Y68274085D01*
X15045839Y68209949D01*
X14977304Y68175681D01*
X14928373Y68127488D01*
X14917114Y68059739D01*
X14790114Y68059739D01*
X14790114Y68564272D01*
X15767686Y68564272D01*
X15767686Y67203163D01*
G37*
G36*
X3575686Y67203163D02*
G01*
X2598114Y67203163D01*
X2598114Y68059739D01*
X2725114Y68059739D01*
X2755829Y67998310D01*
X2816783Y67966666D01*
X2884696Y67976895D01*
X2969363Y68019227D01*
X2977875Y68027611D01*
X2977875Y67552413D01*
X2835000Y67552413D01*
X2769682Y67531190D01*
X2729314Y67475628D01*
X2729314Y67406948D01*
X2769682Y67351386D01*
X2835000Y67330163D01*
X3343000Y67330163D01*
X3408318Y67351386D01*
X3448686Y67406948D01*
X3448686Y67475628D01*
X3408318Y67531190D01*
X3343000Y67552413D01*
X3200125Y67552413D01*
X3200125Y68330288D01*
X3199401Y68332514D01*
X3200035Y68334767D01*
X3188853Y68364979D01*
X3178902Y68395606D01*
X3177008Y68396982D01*
X3176197Y68399175D01*
X3149409Y68417034D01*
X3123340Y68435974D01*
X3120999Y68435974D01*
X3119052Y68437272D01*
X3086873Y68435974D01*
X3054660Y68435974D01*
X3052766Y68434599D01*
X3050429Y68434504D01*
X3025161Y68414543D01*
X2999098Y68395606D01*
X2998374Y68393381D01*
X2996538Y68391929D01*
X2917975Y68274085D01*
X2853839Y68209949D01*
X2785304Y68175681D01*
X2736373Y68127488D01*
X2725114Y68059739D01*
X2598114Y68059739D01*
X2598114Y68564272D01*
X3575686Y68564272D01*
X3575686Y67203163D01*
G37*
D12*
G36*
X15825159Y28559284D02*
G01*
X14987240Y28559284D01*
X14987240Y29293490D01*
X15096097Y29293490D01*
X15122424Y29240837D01*
X15174671Y29213714D01*
X15232882Y29222482D01*
X15305454Y29258768D01*
X15312750Y29265954D01*
X15312750Y28858641D01*
X15190285Y28858641D01*
X15134298Y28840450D01*
X15099697Y28792825D01*
X15099697Y28733957D01*
X15134298Y28686332D01*
X15190285Y28668141D01*
X15625714Y28668141D01*
X15681701Y28686332D01*
X15716302Y28733957D01*
X15716302Y28792825D01*
X15681701Y28840450D01*
X15625714Y28858641D01*
X15503250Y28858641D01*
X15503250Y29525391D01*
X15502630Y29527299D01*
X15503173Y29529230D01*
X15493590Y29555122D01*
X15485059Y29581378D01*
X15483435Y29582558D01*
X15482740Y29584437D01*
X15459777Y29599747D01*
X15437434Y29615979D01*
X15435428Y29615979D01*
X15433759Y29617092D01*
X15406159Y29615979D01*
X15378566Y29615979D01*
X15376944Y29614801D01*
X15374939Y29614720D01*
X15353274Y29597605D01*
X15330941Y29581378D01*
X15330320Y29579470D01*
X15328747Y29578226D01*
X15261404Y29477215D01*
X15206435Y29422244D01*
X15147688Y29392870D01*
X15105747Y29351562D01*
X15096097Y29293490D01*
X14987240Y29293490D01*
X14987240Y29725949D01*
X15825159Y29725949D01*
X15825159Y28559284D01*
G37*
G36*
X15829821Y19161284D02*
G01*
X14951065Y19161284D01*
X14951065Y19423063D01*
X15059922Y19423063D01*
X15086647Y19370611D01*
X15122932Y19334325D01*
X15136688Y19327316D01*
X15147689Y19316481D01*
X15220261Y19280196D01*
X15241975Y19276926D01*
X15262857Y19270141D01*
X15480571Y19270141D01*
X15501452Y19276926D01*
X15523167Y19280196D01*
X15595740Y19316482D01*
X15606739Y19327316D01*
X15620496Y19334325D01*
X15656781Y19370611D01*
X15663789Y19384367D01*
X15674622Y19395365D01*
X15710908Y19467937D01*
X15714178Y19489651D01*
X15720964Y19510534D01*
X15720964Y19691962D01*
X15714178Y19712846D01*
X15710908Y19734559D01*
X15674622Y19807131D01*
X15663789Y19818130D01*
X15656780Y19831886D01*
X15620495Y19868171D01*
X15606738Y19875181D01*
X15595740Y19886013D01*
X15557711Y19905028D01*
X15697397Y20064669D01*
X15704980Y20082375D01*
X15716302Y20097957D01*
X15716302Y20108806D01*
X15720575Y20118782D01*
X15716302Y20137567D01*
X15716302Y20156825D01*
X15709924Y20165603D01*
X15707518Y20176183D01*
X15693023Y20188866D01*
X15681701Y20204450D01*
X15671380Y20207804D01*
X15663215Y20214948D01*
X15644032Y20216690D01*
X15625714Y20222641D01*
X15154000Y20222641D01*
X15098013Y20204450D01*
X15063412Y20156825D01*
X15063412Y20097957D01*
X15098013Y20050332D01*
X15154000Y20032141D01*
X15415805Y20032141D01*
X15300031Y19899828D01*
X15292446Y19882121D01*
X15281126Y19866539D01*
X15281126Y19855691D01*
X15276853Y19845714D01*
X15281126Y19826930D01*
X15281126Y19807671D01*
X15287503Y19798894D01*
X15289910Y19788313D01*
X15304404Y19775631D01*
X15315727Y19760046D01*
X15326047Y19756693D01*
X15334213Y19749548D01*
X15353395Y19747807D01*
X15371714Y19741855D01*
X15458086Y19741855D01*
X15496720Y19722538D01*
X15511147Y19708111D01*
X15530464Y19669477D01*
X15530464Y19533019D01*
X15511146Y19494385D01*
X15496720Y19479959D01*
X15458086Y19460641D01*
X15285342Y19460641D01*
X15246707Y19479958D01*
X15221353Y19505313D01*
X15168901Y19532040D01*
X15110759Y19522831D01*
X15069132Y19481206D01*
X15059922Y19423063D01*
X14951065Y19423063D01*
X14951065Y20331498D01*
X15829821Y20331498D01*
X15829821Y19161284D01*
G37*
D10*
G36*
X14181582Y50340317D02*
G01*
X14247438Y50307389D01*
X14308429Y50246398D01*
X14340812Y50149250D01*
X14340812Y50054953D01*
X13578812Y50054953D01*
X13578812Y50149248D01*
X13611195Y50246398D01*
X13672185Y50307389D01*
X13738043Y50340317D01*
X13902875Y50381525D01*
X14016750Y50381525D01*
X14181582Y50340317D01*
G37*
G36*
X14739955Y47914096D02*
G01*
X13179669Y47914096D01*
X13179669Y48168165D01*
X13326105Y48168165D01*
X13355832Y48103072D01*
X13416032Y48064383D01*
X13451812Y48059239D01*
X14467812Y48059239D01*
X14476709Y48061852D01*
X14485886Y48060532D01*
X14510504Y48071775D01*
X14536473Y48079400D01*
X14542544Y48086408D01*
X14550979Y48090259D01*
X14565611Y48113028D01*
X14583335Y48133481D01*
X14584654Y48142658D01*
X14589668Y48150459D01*
X14594812Y48186239D01*
X14594812Y48670049D01*
X14574651Y48738710D01*
X14520570Y48785572D01*
X14449738Y48795756D01*
X14384645Y48766029D01*
X14345956Y48705829D01*
X14340812Y48670049D01*
X14340812Y48313239D01*
X13451812Y48313239D01*
X13383151Y48293078D01*
X13336289Y48238997D01*
X13326105Y48168165D01*
X13179669Y48168165D01*
X13179669Y49008715D01*
X13324812Y49008715D01*
X13327424Y48999818D01*
X13326105Y48990641D01*
X13337347Y48966023D01*
X13344973Y48940054D01*
X13351980Y48933983D01*
X13355832Y48925548D01*
X13378600Y48910916D01*
X13399054Y48893192D01*
X13408230Y48891873D01*
X13416032Y48886859D01*
X13451812Y48881715D01*
X14467812Y48881715D01*
X14476709Y48884328D01*
X14485886Y48883008D01*
X14510504Y48894251D01*
X14536473Y48901876D01*
X14542544Y48908884D01*
X14550979Y48912735D01*
X14565611Y48935504D01*
X14583335Y48955957D01*
X14584654Y48965134D01*
X14589668Y48972935D01*
X14594812Y49008715D01*
X14594812Y49492525D01*
X14574651Y49561186D01*
X14520570Y49608048D01*
X14449738Y49618232D01*
X14384645Y49588505D01*
X14345956Y49528305D01*
X14340812Y49492525D01*
X14340812Y49135715D01*
X14062622Y49135715D01*
X14062622Y49347382D01*
X14042461Y49416043D01*
X13988380Y49462905D01*
X13917548Y49473089D01*
X13852455Y49443362D01*
X13813766Y49383162D01*
X13808622Y49347382D01*
X13808622Y49135715D01*
X13578812Y49135715D01*
X13578812Y49492525D01*
X13558651Y49561186D01*
X13504570Y49608048D01*
X13433738Y49618232D01*
X13368645Y49588505D01*
X13329956Y49528305D01*
X13324812Y49492525D01*
X13324812Y49008715D01*
X13179669Y49008715D01*
X13179669Y49927953D01*
X13324812Y49927953D01*
X13327424Y49919056D01*
X13326105Y49909879D01*
X13337347Y49885261D01*
X13344973Y49859292D01*
X13351980Y49853221D01*
X13355832Y49844786D01*
X13378600Y49830154D01*
X13399054Y49812430D01*
X13408230Y49811111D01*
X13416032Y49806097D01*
X13451812Y49800953D01*
X14467812Y49800953D01*
X14476709Y49803566D01*
X14485886Y49802246D01*
X14510504Y49813489D01*
X14536473Y49821114D01*
X14542544Y49828122D01*
X14550979Y49831973D01*
X14565611Y49854742D01*
X14583335Y49875195D01*
X14584654Y49884372D01*
X14589668Y49892173D01*
X14594812Y49927953D01*
X14594812Y50169858D01*
X14594141Y50172142D01*
X14594729Y50174447D01*
X14588295Y50210018D01*
X14539915Y50355161D01*
X14533344Y50364616D01*
X14530897Y50375866D01*
X14509234Y50404804D01*
X14412473Y50501566D01*
X14410383Y50502708D01*
X14409168Y50504753D01*
X14379466Y50525355D01*
X14282704Y50573736D01*
X14278323Y50574525D01*
X14256710Y50583352D01*
X14063186Y50631733D01*
X14059735Y50631593D01*
X14032384Y50635525D01*
X13887241Y50635525D01*
X13883928Y50634553D01*
X13856439Y50631733D01*
X13662915Y50583352D01*
X13659075Y50581100D01*
X13636921Y50573736D01*
X13540159Y50525355D01*
X13538416Y50523735D01*
X13536090Y50523228D01*
X13507152Y50501565D01*
X13410390Y50404804D01*
X13404872Y50394699D01*
X13395905Y50387479D01*
X13379710Y50355162D01*
X13331329Y50210019D01*
X13331242Y50207641D01*
X13329956Y50205638D01*
X13324812Y50169858D01*
X13324812Y49927953D01*
X13179669Y49927953D01*
X13179669Y51169899D01*
X13325819Y51169899D01*
X13326262Y51168883D01*
X13326105Y51167784D01*
X13340539Y51136176D01*
X13354448Y51104315D01*
X13355535Y51103341D01*
X13355832Y51102691D01*
X13357343Y51101720D01*
X13381365Y51080188D01*
X13516041Y50990404D01*
X13589342Y50917104D01*
X13628506Y50838776D01*
X13677244Y50786380D01*
X13746573Y50768651D01*
X13814482Y50791219D01*
X13859408Y50846918D01*
X13867091Y50918065D01*
X13855690Y50952368D01*
X13807309Y51049130D01*
X13805688Y51050873D01*
X13805182Y51053199D01*
X13800946Y51058858D01*
X14340812Y51058858D01*
X14340812Y50895572D01*
X14360973Y50826911D01*
X14415054Y50780049D01*
X14485886Y50769865D01*
X14550979Y50799592D01*
X14589668Y50859792D01*
X14594812Y50895572D01*
X14594812Y51476144D01*
X14574651Y51544805D01*
X14520570Y51591667D01*
X14449738Y51601851D01*
X14384645Y51572124D01*
X14345956Y51511924D01*
X14340812Y51476144D01*
X14340812Y51312858D01*
X13451812Y51312858D01*
X13418471Y51303069D01*
X13384956Y51293836D01*
X13384215Y51293010D01*
X13383151Y51292697D01*
X13360382Y51266421D01*
X13337192Y51240549D01*
X13337015Y51239455D01*
X13336289Y51238616D01*
X13331341Y51204207D01*
X13325819Y51169899D01*
X13179669Y51169899D01*
X13179669Y51746994D01*
X14739955Y51746994D01*
X14739955Y47914096D01*
G37*
D11*
X15807712Y60580834D02*
X14918712Y60580834D01*
X14918712Y60580834D02*
X14918712Y60792501D01*
X14918712Y60792501D02*
X14961045Y60919501D01*
X14961045Y60919501D02*
X15045712Y61004167D01*
X15045712Y61004167D02*
X15130379Y61046501D01*
X15130379Y61046501D02*
X15299712Y61088834D01*
X15299712Y61088834D02*
X15426712Y61088834D01*
X15426712Y61088834D02*
X15596045Y61046501D01*
X15596045Y61046501D02*
X15680712Y61004167D01*
X15680712Y61004167D02*
X15765379Y60919501D01*
X15765379Y60919501D02*
X15807712Y60792501D01*
X15807712Y60792501D02*
X15807712Y60580834D01*
X15807712Y61935501D02*
X15807712Y61427501D01*
X15807712Y61681501D02*
X14918712Y61681501D01*
X14918712Y61681501D02*
X15045712Y61596834D01*
X15045712Y61596834D02*
X15130379Y61512167D01*
X15130379Y61512167D02*
X15172712Y61427501D01*
X15426712Y6690500D02*
X15003379Y6394167D01*
X15426712Y6182500D02*
X14537712Y6182500D01*
X14537712Y6182500D02*
X14537712Y6521167D01*
X14537712Y6521167D02*
X14580045Y6605833D01*
X14580045Y6605833D02*
X14622379Y6648167D01*
X14622379Y6648167D02*
X14707045Y6690500D01*
X14707045Y6690500D02*
X14834045Y6690500D01*
X14834045Y6690500D02*
X14918712Y6648167D01*
X14918712Y6648167D02*
X14961045Y6605833D01*
X14961045Y6605833D02*
X15003379Y6521167D01*
X15003379Y6521167D02*
X15003379Y6182500D01*
X15426712Y7537167D02*
X15426712Y7029167D01*
X15426712Y7283167D02*
X14537712Y7283167D01*
X14537712Y7283167D02*
X14664712Y7198500D01*
X14664712Y7198500D02*
X14749379Y7113833D01*
X14749379Y7113833D02*
X14791712Y7029167D01*
X14918712Y8045167D02*
X14876379Y7960500D01*
X14876379Y7960500D02*
X14834045Y7918167D01*
X14834045Y7918167D02*
X14749379Y7875834D01*
X14749379Y7875834D02*
X14707045Y7875834D01*
X14707045Y7875834D02*
X14622379Y7918167D01*
X14622379Y7918167D02*
X14580045Y7960500D01*
X14580045Y7960500D02*
X14537712Y8045167D01*
X14537712Y8045167D02*
X14537712Y8214500D01*
X14537712Y8214500D02*
X14580045Y8299167D01*
X14580045Y8299167D02*
X14622379Y8341500D01*
X14622379Y8341500D02*
X14707045Y8383834D01*
X14707045Y8383834D02*
X14749379Y8383834D01*
X14749379Y8383834D02*
X14834045Y8341500D01*
X14834045Y8341500D02*
X14876379Y8299167D01*
X14876379Y8299167D02*
X14918712Y8214500D01*
X14918712Y8214500D02*
X14918712Y8045167D01*
X14918712Y8045167D02*
X14961045Y7960500D01*
X14961045Y7960500D02*
X15003379Y7918167D01*
X15003379Y7918167D02*
X15088045Y7875834D01*
X15088045Y7875834D02*
X15257379Y7875834D01*
X15257379Y7875834D02*
X15342045Y7918167D01*
X15342045Y7918167D02*
X15384379Y7960500D01*
X15384379Y7960500D02*
X15426712Y8045167D01*
X15426712Y8045167D02*
X15426712Y8214500D01*
X15426712Y8214500D02*
X15384379Y8299167D01*
X15384379Y8299167D02*
X15342045Y8341500D01*
X15342045Y8341500D02*
X15257379Y8383834D01*
X15257379Y8383834D02*
X15088045Y8383834D01*
X15088045Y8383834D02*
X15003379Y8341500D01*
X15003379Y8341500D02*
X14961045Y8299167D01*
X14961045Y8299167D02*
X14918712Y8214500D01*
X13902712Y6690500D02*
X13479379Y6394167D01*
X13902712Y6182500D02*
X13013712Y6182500D01*
X13013712Y6182500D02*
X13013712Y6521167D01*
X13013712Y6521167D02*
X13056045Y6605833D01*
X13056045Y6605833D02*
X13098379Y6648167D01*
X13098379Y6648167D02*
X13183045Y6690500D01*
X13183045Y6690500D02*
X13310045Y6690500D01*
X13310045Y6690500D02*
X13394712Y6648167D01*
X13394712Y6648167D02*
X13437045Y6605833D01*
X13437045Y6605833D02*
X13479379Y6521167D01*
X13479379Y6521167D02*
X13479379Y6182500D01*
X13902712Y7537167D02*
X13902712Y7029167D01*
X13902712Y7283167D02*
X13013712Y7283167D01*
X13013712Y7283167D02*
X13140712Y7198500D01*
X13140712Y7198500D02*
X13225379Y7113833D01*
X13225379Y7113833D02*
X13267712Y7029167D01*
X13013712Y7833500D02*
X13013712Y8426167D01*
X13013712Y8426167D02*
X13902712Y8045167D01*
D10*
G36*
X7843009Y15721056D02*
G01*
X7862248Y15701817D01*
X7888003Y15650307D01*
X7888003Y15420239D01*
X7609812Y15420239D01*
X7609812Y15650307D01*
X7635567Y15701817D01*
X7654806Y15721056D01*
X7706316Y15746811D01*
X7791499Y15746811D01*
X7843009Y15721056D01*
G37*
G36*
X8770955Y15021096D02*
G01*
X7210669Y15021096D01*
X7210669Y15293239D01*
X7355812Y15293239D01*
X7358424Y15284342D01*
X7357105Y15275165D01*
X7368347Y15250547D01*
X7375973Y15224578D01*
X7382980Y15218507D01*
X7386832Y15210072D01*
X7409600Y15195440D01*
X7430054Y15177716D01*
X7439230Y15176397D01*
X7447032Y15171383D01*
X7482812Y15166239D01*
X8498812Y15166239D01*
X8567473Y15186400D01*
X8614335Y15240481D01*
X8624519Y15311313D01*
X8594792Y15376406D01*
X8534592Y15415095D01*
X8498812Y15420239D01*
X8142003Y15420239D01*
X8142003Y15469022D01*
X8571642Y15769769D01*
X8616330Y15825660D01*
X8623707Y15896838D01*
X8591431Y15960706D01*
X8529749Y15996985D01*
X8458245Y15994158D01*
X8425983Y15977854D01*
X8116521Y15761231D01*
X8080214Y15833845D01*
X8078593Y15835588D01*
X8078087Y15837914D01*
X8056425Y15866852D01*
X8008044Y15915233D01*
X8005954Y15916375D01*
X8004739Y15918420D01*
X7975037Y15939022D01*
X7878275Y15987403D01*
X7866945Y15989442D01*
X7857259Y15995667D01*
X7821479Y16000811D01*
X7676336Y16000811D01*
X7665290Y15997568D01*
X7653843Y15998804D01*
X7619540Y15987403D01*
X7522778Y15939022D01*
X7521035Y15937402D01*
X7518709Y15936895D01*
X7489771Y15915233D01*
X7441390Y15866852D01*
X7440248Y15864763D01*
X7438203Y15863547D01*
X7417601Y15833845D01*
X7369220Y15737083D01*
X7367181Y15725754D01*
X7360956Y15716067D01*
X7355812Y15680287D01*
X7355812Y15293239D01*
X7210669Y15293239D01*
X7210669Y16454382D01*
X7355812Y16454382D01*
X7359055Y16443337D01*
X7357819Y16431889D01*
X7369220Y16397586D01*
X7417601Y16300824D01*
X7419221Y16299082D01*
X7419728Y16296755D01*
X7441390Y16267817D01*
X7489771Y16219436D01*
X7491860Y16218295D01*
X7493076Y16216249D01*
X7522778Y16195647D01*
X7619540Y16147266D01*
X7630869Y16145228D01*
X7640556Y16139002D01*
X7676336Y16133858D01*
X7773098Y16133858D01*
X7784143Y16137102D01*
X7795591Y16135865D01*
X7829894Y16147266D01*
X7926656Y16195647D01*
X7928398Y16197268D01*
X7930725Y16197774D01*
X7959663Y16219436D01*
X8008044Y16267817D01*
X8009185Y16269907D01*
X8011231Y16271122D01*
X8031833Y16300824D01*
X8080214Y16397586D01*
X8081002Y16401967D01*
X8089830Y16423580D01*
X8134830Y16603580D01*
X8167758Y16669436D01*
X8186997Y16688675D01*
X8238507Y16714430D01*
X8275309Y16714430D01*
X8326819Y16688675D01*
X8346056Y16669438D01*
X8371812Y16617926D01*
X8371812Y16426610D01*
X8329949Y16301018D01*
X8327363Y16229505D01*
X8363850Y16167946D01*
X8427827Y16135886D01*
X8498980Y16143504D01*
X8554721Y16188381D01*
X8570915Y16220698D01*
X8619295Y16365841D01*
X8619380Y16368219D01*
X8620668Y16370221D01*
X8625812Y16406001D01*
X8625812Y16647906D01*
X8622568Y16658951D01*
X8623805Y16670398D01*
X8612405Y16704701D01*
X8564025Y16801463D01*
X8562403Y16803207D01*
X8561897Y16805533D01*
X8540235Y16834471D01*
X8491854Y16882852D01*
X8489764Y16883994D01*
X8488549Y16886039D01*
X8458847Y16906641D01*
X8362085Y16955022D01*
X8350755Y16957061D01*
X8341069Y16963286D01*
X8305289Y16968430D01*
X8208527Y16968430D01*
X8197481Y16965187D01*
X8186034Y16966423D01*
X8151731Y16955022D01*
X8054969Y16906641D01*
X8053226Y16905021D01*
X8050900Y16904514D01*
X8021962Y16882852D01*
X7973581Y16834471D01*
X7972439Y16832382D01*
X7970394Y16831166D01*
X7949792Y16801464D01*
X7901411Y16704702D01*
X7900622Y16700322D01*
X7891795Y16678708D01*
X7846795Y16498708D01*
X7813867Y16432852D01*
X7794628Y16413613D01*
X7743118Y16387858D01*
X7706316Y16387858D01*
X7654806Y16413613D01*
X7635567Y16432852D01*
X7609812Y16484362D01*
X7609812Y16675677D01*
X7651676Y16801269D01*
X7654262Y16872782D01*
X7617775Y16934341D01*
X7553798Y16966401D01*
X7482645Y16958784D01*
X7426905Y16913908D01*
X7410710Y16881591D01*
X7362329Y16736448D01*
X7362242Y16734070D01*
X7360956Y16732067D01*
X7355812Y16696287D01*
X7355812Y16454382D01*
X7210669Y16454382D01*
X7210669Y17131715D01*
X7355812Y17131715D01*
X7375973Y17063054D01*
X7430054Y17016192D01*
X7500886Y17006008D01*
X7565979Y17035735D01*
X7604668Y17095935D01*
X7609812Y17131715D01*
X7609812Y17295001D01*
X8498812Y17295001D01*
X8567473Y17315162D01*
X8614335Y17369243D01*
X8624519Y17440075D01*
X8594792Y17505168D01*
X8534592Y17543857D01*
X8498812Y17549001D01*
X7609812Y17549001D01*
X7609812Y17712287D01*
X7589651Y17780948D01*
X7535570Y17827810D01*
X7464738Y17837994D01*
X7399645Y17808267D01*
X7360956Y17748067D01*
X7355812Y17712287D01*
X7355812Y17131715D01*
X7210669Y17131715D01*
X7210669Y18276899D01*
X7356819Y18276899D01*
X7357262Y18275883D01*
X7357105Y18274784D01*
X7371539Y18243176D01*
X7385448Y18211315D01*
X7386535Y18210341D01*
X7386832Y18209691D01*
X7388343Y18208720D01*
X7412365Y18187188D01*
X7547041Y18097404D01*
X7620342Y18024104D01*
X7659506Y17945776D01*
X7708244Y17893380D01*
X7777573Y17875651D01*
X7845482Y17898219D01*
X7890408Y17953918D01*
X7898091Y18025065D01*
X7886690Y18059368D01*
X7838309Y18156130D01*
X7836688Y18157873D01*
X7836182Y18160199D01*
X7831946Y18165858D01*
X8371812Y18165858D01*
X8371812Y18002572D01*
X8391973Y17933911D01*
X8446054Y17887049D01*
X8516886Y17876865D01*
X8581979Y17906592D01*
X8620668Y17966792D01*
X8625812Y18002572D01*
X8625812Y18583144D01*
X8605651Y18651805D01*
X8551570Y18698667D01*
X8480738Y18708851D01*
X8415645Y18679124D01*
X8376956Y18618924D01*
X8371812Y18583144D01*
X8371812Y18419858D01*
X7482812Y18419858D01*
X7449471Y18410069D01*
X7415956Y18400836D01*
X7415215Y18400010D01*
X7414151Y18399697D01*
X7391382Y18373421D01*
X7368192Y18347549D01*
X7368015Y18346455D01*
X7367289Y18345616D01*
X7362341Y18311207D01*
X7356819Y18276899D01*
X7210669Y18276899D01*
X7210669Y18853994D01*
X8770955Y18853994D01*
X8770955Y15021096D01*
G37*
D12*
X8333809Y58265201D02*
X7970952Y58011201D01*
X8333809Y57829772D02*
X7571809Y57829772D01*
X7571809Y57829772D02*
X7571809Y58120058D01*
X7571809Y58120058D02*
X7608095Y58192629D01*
X7608095Y58192629D02*
X7644381Y58228915D01*
X7644381Y58228915D02*
X7716952Y58265201D01*
X7716952Y58265201D02*
X7825809Y58265201D01*
X7825809Y58265201D02*
X7898381Y58228915D01*
X7898381Y58228915D02*
X7934666Y58192629D01*
X7934666Y58192629D02*
X7970952Y58120058D01*
X7970952Y58120058D02*
X7970952Y57829772D01*
X7571809Y58954629D02*
X7571809Y58591772D01*
X7571809Y58591772D02*
X7934666Y58555486D01*
X7934666Y58555486D02*
X7898381Y58591772D01*
X7898381Y58591772D02*
X7862095Y58664343D01*
X7862095Y58664343D02*
X7862095Y58845772D01*
X7862095Y58845772D02*
X7898381Y58918343D01*
X7898381Y58918343D02*
X7934666Y58954629D01*
X7934666Y58954629D02*
X8007238Y58990915D01*
X8007238Y58990915D02*
X8188666Y58990915D01*
X8188666Y58990915D02*
X8261238Y58954629D01*
X8261238Y58954629D02*
X8297524Y58918343D01*
X8297524Y58918343D02*
X8333809Y58845772D01*
X8333809Y58845772D02*
X8333809Y58664343D01*
X8333809Y58664343D02*
X8297524Y58591772D01*
X8297524Y58591772D02*
X8261238Y58555486D01*
X9101543Y58227391D02*
X8847543Y58590248D01*
X8666114Y58227391D02*
X8666114Y58989391D01*
X8666114Y58989391D02*
X8956400Y58989391D01*
X8956400Y58989391D02*
X9028971Y58953105D01*
X9028971Y58953105D02*
X9065257Y58916819D01*
X9065257Y58916819D02*
X9101543Y58844248D01*
X9101543Y58844248D02*
X9101543Y58735391D01*
X9101543Y58735391D02*
X9065257Y58662819D01*
X9065257Y58662819D02*
X9028971Y58626534D01*
X9028971Y58626534D02*
X8956400Y58590248D01*
X8956400Y58590248D02*
X8666114Y58590248D01*
X9827257Y58227391D02*
X9391828Y58227391D01*
X9609543Y58227391D02*
X9609543Y58989391D01*
X9609543Y58989391D02*
X9536971Y58880534D01*
X9536971Y58880534D02*
X9464400Y58807962D01*
X9464400Y58807962D02*
X9391828Y58771676D01*
X10117542Y58916819D02*
X10153828Y58953105D01*
X10153828Y58953105D02*
X10226400Y58989391D01*
X10226400Y58989391D02*
X10407828Y58989391D01*
X10407828Y58989391D02*
X10480400Y58953105D01*
X10480400Y58953105D02*
X10516685Y58916819D01*
X10516685Y58916819D02*
X10552971Y58844248D01*
X10552971Y58844248D02*
X10552971Y58771676D01*
X10552971Y58771676D02*
X10516685Y58662819D01*
X10516685Y58662819D02*
X10081257Y58227391D01*
X10081257Y58227391D02*
X10552971Y58227391D01*
D10*
G36*
X7186625Y7638766D02*
G01*
X7205864Y7619527D01*
X7231619Y7568017D01*
X7231619Y7337691D01*
X7205864Y7286181D01*
X7186626Y7266944D01*
X7135115Y7241188D01*
X7001809Y7241188D01*
X7001809Y7664521D01*
X7135115Y7664521D01*
X7186625Y7638766D01*
G37*
G36*
X12322421Y6504671D02*
G01*
X6602666Y6504671D01*
X6602666Y6775521D01*
X6747809Y6775521D01*
X6767970Y6706860D01*
X6822051Y6659998D01*
X6892883Y6649814D01*
X6957976Y6679541D01*
X6996665Y6739741D01*
X7001809Y6775521D01*
X7001809Y6987188D01*
X7165095Y6987188D01*
X7176139Y6990432D01*
X7187587Y6989195D01*
X7221890Y7000595D01*
X7318652Y7048975D01*
X7320395Y7050597D01*
X7322722Y7051103D01*
X7351660Y7072765D01*
X7400041Y7121146D01*
X7401182Y7123236D01*
X7403228Y7124451D01*
X7423830Y7154153D01*
X7472211Y7250915D01*
X7474249Y7262245D01*
X7480475Y7271931D01*
X7485619Y7307711D01*
X7667047Y7307711D01*
X7670290Y7296666D01*
X7669054Y7285218D01*
X7680455Y7250915D01*
X7728836Y7154153D01*
X7730456Y7152411D01*
X7730963Y7150084D01*
X7752625Y7121146D01*
X7801006Y7072765D01*
X7803096Y7071624D01*
X7804312Y7069577D01*
X7834014Y7048975D01*
X7930776Y7000595D01*
X7942106Y6998557D01*
X7951791Y6992332D01*
X7987571Y6987188D01*
X8181095Y6987188D01*
X8192139Y6990432D01*
X8203587Y6989195D01*
X8237890Y7000595D01*
X8334652Y7048975D01*
X8336395Y7050597D01*
X8338722Y7051103D01*
X8367660Y7072765D01*
X8409083Y7114188D01*
X8731428Y7114188D01*
X8734040Y7105291D01*
X8732721Y7096114D01*
X8743963Y7071496D01*
X8751589Y7045527D01*
X8758596Y7039456D01*
X8762448Y7031021D01*
X8785216Y7016389D01*
X8805670Y6998665D01*
X8814846Y6997346D01*
X8822648Y6992332D01*
X8858428Y6987188D01*
X9342238Y6987188D01*
X9410899Y7007349D01*
X9457761Y7061430D01*
X9465653Y7116322D01*
X9553922Y7116322D01*
X9572926Y7047332D01*
X9626213Y6999568D01*
X9696863Y6988195D01*
X9762447Y7016824D01*
X9786574Y7043741D01*
X10019570Y7393236D01*
X10252567Y7043741D01*
X10307429Y6997795D01*
X10378421Y6988803D01*
X10443006Y7019619D01*
X10480677Y7080461D01*
X10479475Y7152011D01*
X10463908Y7184635D01*
X10172205Y7622188D01*
X10463908Y8059741D01*
X10477887Y8104554D01*
X10504162Y8047021D01*
X10564362Y8008332D01*
X10600142Y8003188D01*
X10763428Y8003188D01*
X10763428Y7114188D01*
X10783589Y7045527D01*
X10837670Y6998665D01*
X10908502Y6988481D01*
X10973595Y7018208D01*
X11012284Y7078408D01*
X11017428Y7114188D01*
X11017428Y7835427D01*
X11344078Y7835427D01*
X11366646Y7767518D01*
X11422345Y7722592D01*
X11493492Y7714909D01*
X11527795Y7726310D01*
X11624557Y7774691D01*
X11626299Y7776312D01*
X11628626Y7776818D01*
X11634285Y7781055D01*
X11634285Y7241188D01*
X11470999Y7241188D01*
X11402338Y7221027D01*
X11355476Y7166946D01*
X11345292Y7096114D01*
X11375019Y7031021D01*
X11435219Y6992332D01*
X11470999Y6987188D01*
X12051571Y6987188D01*
X12120232Y7007349D01*
X12167094Y7061430D01*
X12177278Y7132262D01*
X12147551Y7197355D01*
X12087351Y7236044D01*
X12051571Y7241188D01*
X11888285Y7241188D01*
X11888285Y8130188D01*
X11878495Y8163529D01*
X11869263Y8197044D01*
X11868436Y8197785D01*
X11868124Y8198849D01*
X11841847Y8221618D01*
X11815976Y8244808D01*
X11814881Y8244985D01*
X11814043Y8245711D01*
X11779633Y8250659D01*
X11745326Y8256181D01*
X11744309Y8255738D01*
X11743211Y8255895D01*
X11711602Y8241461D01*
X11679742Y8227552D01*
X11678767Y8226465D01*
X11678118Y8226168D01*
X11677146Y8224657D01*
X11655615Y8200635D01*
X11565829Y8065957D01*
X11492529Y7992658D01*
X11414203Y7953494D01*
X11361807Y7904756D01*
X11344078Y7835427D01*
X11017428Y7835427D01*
X11017428Y8003188D01*
X11180714Y8003188D01*
X11249375Y8023349D01*
X11296237Y8077430D01*
X11306421Y8148262D01*
X11276694Y8213355D01*
X11216494Y8252044D01*
X11180714Y8257188D01*
X10600142Y8257188D01*
X10531481Y8237027D01*
X10484619Y8182946D01*
X10479639Y8148311D01*
X10466216Y8197044D01*
X10412929Y8244808D01*
X10342279Y8256181D01*
X10276695Y8227552D01*
X10252567Y8200635D01*
X10019570Y7851141D01*
X9786574Y8200635D01*
X9731713Y8246581D01*
X9660721Y8255574D01*
X9596136Y8224757D01*
X9558465Y8163915D01*
X9559667Y8092365D01*
X9575234Y8059741D01*
X9866935Y7622188D01*
X9575234Y7184635D01*
X9553922Y7116322D01*
X9465653Y7116322D01*
X9467945Y7132262D01*
X9438218Y7197355D01*
X9378018Y7236044D01*
X9342238Y7241188D01*
X8985428Y7241188D01*
X8985428Y7519378D01*
X9197095Y7519378D01*
X9265756Y7539539D01*
X9312618Y7593620D01*
X9322802Y7664452D01*
X9293075Y7729545D01*
X9232875Y7768234D01*
X9197095Y7773378D01*
X8985428Y7773378D01*
X8985428Y8003188D01*
X9342238Y8003188D01*
X9410899Y8023349D01*
X9457761Y8077430D01*
X9467945Y8148262D01*
X9438218Y8213355D01*
X9378018Y8252044D01*
X9342238Y8257188D01*
X8858428Y8257188D01*
X8849530Y8254576D01*
X8840354Y8255895D01*
X8815735Y8244653D01*
X8789767Y8237027D01*
X8783695Y8230020D01*
X8775261Y8226168D01*
X8760628Y8203400D01*
X8742905Y8182946D01*
X8741585Y8173770D01*
X8736572Y8165968D01*
X8731428Y8130188D01*
X8731428Y7114188D01*
X8409083Y7114188D01*
X8416041Y7121146D01*
X8417182Y7123236D01*
X8419228Y7124451D01*
X8439830Y7154153D01*
X8488211Y7250915D01*
X8490249Y7262245D01*
X8496475Y7271931D01*
X8501619Y7307711D01*
X8501619Y8130188D01*
X8481458Y8198849D01*
X8427377Y8245711D01*
X8356545Y8255895D01*
X8291452Y8226168D01*
X8252763Y8165968D01*
X8247619Y8130188D01*
X8247619Y7337691D01*
X8221864Y7286181D01*
X8202626Y7266944D01*
X8151115Y7241188D01*
X8017551Y7241188D01*
X7966039Y7266944D01*
X7946802Y7286181D01*
X7921047Y7337691D01*
X7921047Y8130188D01*
X7900886Y8198849D01*
X7846805Y8245711D01*
X7775973Y8255895D01*
X7710880Y8226168D01*
X7672191Y8165968D01*
X7667047Y8130188D01*
X7667047Y7307711D01*
X7485619Y7307711D01*
X7485619Y7597997D01*
X7482375Y7609043D01*
X7483612Y7620490D01*
X7472211Y7654793D01*
X7423830Y7751555D01*
X7422209Y7753298D01*
X7421703Y7755624D01*
X7400041Y7784562D01*
X7351660Y7832943D01*
X7349570Y7834085D01*
X7348355Y7836130D01*
X7318653Y7856732D01*
X7221891Y7905113D01*
X7210561Y7907152D01*
X7200875Y7913377D01*
X7165095Y7918521D01*
X6971571Y7918521D01*
X6960525Y7915278D01*
X6949078Y7916514D01*
X6922693Y7907745D01*
X6856735Y7917228D01*
X6791642Y7887501D01*
X6752953Y7827301D01*
X6747809Y7791521D01*
X6747809Y6775521D01*
X6602666Y6775521D01*
X6602666Y8402331D01*
X12322421Y8402331D01*
X12322421Y6504671D01*
G37*
G36*
X5936136Y6787045D02*
G01*
X4812650Y6787045D01*
X4812650Y7780427D01*
X4957793Y7780427D01*
X4980361Y7712518D01*
X5036060Y7667592D01*
X5107207Y7659909D01*
X5141510Y7671310D01*
X5238272Y7719691D01*
X5240014Y7721312D01*
X5242341Y7721818D01*
X5248000Y7726055D01*
X5248000Y7186188D01*
X5084714Y7186188D01*
X5016053Y7166027D01*
X4969191Y7111946D01*
X4959007Y7041114D01*
X4988734Y6976021D01*
X5048934Y6937332D01*
X5084714Y6932188D01*
X5665286Y6932188D01*
X5733947Y6952349D01*
X5780809Y7006430D01*
X5790993Y7077262D01*
X5761266Y7142355D01*
X5701066Y7181044D01*
X5665286Y7186188D01*
X5502000Y7186188D01*
X5502000Y8075188D01*
X5492210Y8108529D01*
X5482978Y8142044D01*
X5482151Y8142785D01*
X5481839Y8143849D01*
X5455562Y8166618D01*
X5429691Y8189808D01*
X5428596Y8189985D01*
X5427758Y8190711D01*
X5393348Y8195659D01*
X5359041Y8201181D01*
X5358024Y8200738D01*
X5356926Y8200895D01*
X5325317Y8186461D01*
X5293457Y8172552D01*
X5292482Y8171465D01*
X5291833Y8171168D01*
X5290861Y8169657D01*
X5269330Y8145635D01*
X5179544Y8010957D01*
X5106244Y7937658D01*
X5027918Y7898494D01*
X4975522Y7849756D01*
X4957793Y7780427D01*
X4812650Y7780427D01*
X4812650Y8346324D01*
X5936136Y8346324D01*
X5936136Y6787045D01*
G37*
G36*
X9826628Y15178103D02*
G01*
X9845867Y15158864D01*
X9871622Y15107354D01*
X9871622Y14925667D01*
X9641812Y14925667D01*
X9641812Y15107354D01*
X9667567Y15158864D01*
X9686806Y15178103D01*
X9738316Y15203858D01*
X9775118Y15203858D01*
X9826628Y15178103D01*
G37*
G36*
X10358819Y15226484D02*
G01*
X10378056Y15207247D01*
X10403812Y15155735D01*
X10403812Y14925667D01*
X10125622Y14925667D01*
X10125622Y15116724D01*
X10158005Y15213873D01*
X10170616Y15226484D01*
X10222126Y15252239D01*
X10307309Y15252239D01*
X10358819Y15226484D01*
G37*
G36*
X10320740Y16280563D02*
G01*
X10378055Y16223249D01*
X10403812Y16171735D01*
X10403812Y16038172D01*
X10378055Y15986658D01*
X10320740Y15929344D01*
X10176512Y15893286D01*
X9869113Y15893286D01*
X9724884Y15929344D01*
X9667567Y15986661D01*
X9641812Y16038171D01*
X9641812Y16171735D01*
X9667567Y16223246D01*
X9724884Y16280563D01*
X9869113Y16316620D01*
X10176512Y16316620D01*
X10320740Y16280563D01*
G37*
G36*
X10320740Y17344944D02*
G01*
X10378055Y17287630D01*
X10403812Y17236116D01*
X10403812Y17102553D01*
X10378055Y17051039D01*
X10320740Y16993725D01*
X10176512Y16957667D01*
X9869113Y16957667D01*
X9724884Y16993725D01*
X9667567Y17051042D01*
X9641812Y17102552D01*
X9641812Y17236116D01*
X9667567Y17287627D01*
X9724884Y17344944D01*
X9869113Y17381001D01*
X10176512Y17381001D01*
X10320740Y17344944D01*
G37*
G36*
X10802955Y14526524D02*
G01*
X9242669Y14526524D01*
X9242669Y14798667D01*
X9387812Y14798667D01*
X9390424Y14789770D01*
X9389105Y14780593D01*
X9400347Y14755975D01*
X9407973Y14730006D01*
X9414980Y14723935D01*
X9418832Y14715500D01*
X9441600Y14700868D01*
X9462054Y14683144D01*
X9471230Y14681825D01*
X9479032Y14676811D01*
X9514812Y14671667D01*
X10530812Y14671667D01*
X10539709Y14674280D01*
X10548886Y14672960D01*
X10573504Y14684203D01*
X10599473Y14691828D01*
X10605544Y14698836D01*
X10613979Y14702687D01*
X10628611Y14725456D01*
X10646335Y14745909D01*
X10647654Y14755086D01*
X10652668Y14762887D01*
X10657812Y14798667D01*
X10657812Y15185715D01*
X10654568Y15196760D01*
X10655805Y15208207D01*
X10644405Y15242510D01*
X10596025Y15339272D01*
X10594403Y15341016D01*
X10593897Y15343342D01*
X10572235Y15372280D01*
X10523854Y15420661D01*
X10521764Y15421803D01*
X10520549Y15423848D01*
X10490847Y15444450D01*
X10394085Y15492831D01*
X10382755Y15494870D01*
X10373069Y15501095D01*
X10337289Y15506239D01*
X10192146Y15506239D01*
X10181100Y15502996D01*
X10169653Y15504232D01*
X10135350Y15492831D01*
X10038588Y15444450D01*
X10036845Y15442830D01*
X10034519Y15442323D01*
X10005581Y15420661D01*
X9971842Y15386923D01*
X9958656Y15396069D01*
X9861894Y15444450D01*
X9850564Y15446489D01*
X9840878Y15452714D01*
X9805098Y15457858D01*
X9708336Y15457858D01*
X9697290Y15454615D01*
X9685843Y15455851D01*
X9651540Y15444450D01*
X9554778Y15396069D01*
X9553035Y15394449D01*
X9550709Y15393942D01*
X9521771Y15372280D01*
X9473390Y15323899D01*
X9472248Y15321810D01*
X9470203Y15320594D01*
X9449601Y15290892D01*
X9401220Y15194130D01*
X9399181Y15182801D01*
X9392956Y15173114D01*
X9387812Y15137334D01*
X9387812Y14798667D01*
X9242669Y14798667D01*
X9242669Y16008191D01*
X9387812Y16008191D01*
X9391055Y15997146D01*
X9389819Y15985698D01*
X9401220Y15951395D01*
X9449601Y15854633D01*
X9451221Y15852891D01*
X9451728Y15850564D01*
X9473390Y15821626D01*
X9570152Y15724865D01*
X9584493Y15717034D01*
X9595689Y15705127D01*
X9629153Y15691459D01*
X9822677Y15643078D01*
X9826127Y15643219D01*
X9853479Y15639286D01*
X10192146Y15639286D01*
X10195458Y15640259D01*
X10222948Y15643078D01*
X10416472Y15691459D01*
X10430566Y15699729D01*
X10446535Y15703202D01*
X10475473Y15724864D01*
X10572234Y15821626D01*
X10573375Y15823716D01*
X10575423Y15824932D01*
X10596025Y15854634D01*
X10644405Y15951396D01*
X10646443Y15962727D01*
X10652668Y15972411D01*
X10657812Y16008191D01*
X10657812Y16201715D01*
X10654568Y16212760D01*
X10655805Y16224207D01*
X10644405Y16258510D01*
X10596025Y16355272D01*
X10594403Y16357016D01*
X10593897Y16359342D01*
X10572234Y16388280D01*
X10475473Y16485042D01*
X10461129Y16492874D01*
X10449936Y16504779D01*
X10416472Y16518447D01*
X10222948Y16566828D01*
X10219497Y16566688D01*
X10192146Y16570620D01*
X9853479Y16570620D01*
X9850166Y16569648D01*
X9822677Y16566828D01*
X9629153Y16518447D01*
X9615058Y16510178D01*
X9599090Y16506704D01*
X9570152Y16485041D01*
X9473390Y16388280D01*
X9472248Y16386191D01*
X9470203Y16384975D01*
X9449601Y16355273D01*
X9401220Y16258511D01*
X9399181Y16247182D01*
X9392956Y16237495D01*
X9387812Y16201715D01*
X9387812Y16008191D01*
X9242669Y16008191D01*
X9242669Y17072572D01*
X9387812Y17072572D01*
X9391055Y17061527D01*
X9389819Y17050079D01*
X9401220Y17015776D01*
X9449601Y16919014D01*
X9451221Y16917272D01*
X9451728Y16914945D01*
X9473390Y16886007D01*
X9570152Y16789246D01*
X9584493Y16781415D01*
X9595689Y16769508D01*
X9629153Y16755840D01*
X9822677Y16707459D01*
X9826127Y16707600D01*
X9853479Y16703667D01*
X10192146Y16703667D01*
X10195458Y16704640D01*
X10222948Y16707459D01*
X10416472Y16755840D01*
X10430566Y16764110D01*
X10446535Y16767583D01*
X10475473Y16789245D01*
X10572234Y16886007D01*
X10573375Y16888097D01*
X10575423Y16889313D01*
X10596025Y16919015D01*
X10644405Y17015777D01*
X10646443Y17027108D01*
X10652668Y17036792D01*
X10657812Y17072572D01*
X10657812Y17266096D01*
X10654568Y17277141D01*
X10655805Y17288588D01*
X10644405Y17322891D01*
X10596025Y17419653D01*
X10594403Y17421397D01*
X10593897Y17423723D01*
X10572234Y17452661D01*
X10475473Y17549423D01*
X10461129Y17557255D01*
X10449936Y17569160D01*
X10416472Y17582828D01*
X10222948Y17631209D01*
X10219497Y17631069D01*
X10192146Y17635001D01*
X9853479Y17635001D01*
X9850166Y17634029D01*
X9822677Y17631209D01*
X9629153Y17582828D01*
X9615058Y17574559D01*
X9599090Y17571085D01*
X9570152Y17549422D01*
X9473390Y17452661D01*
X9472248Y17450572D01*
X9470203Y17449356D01*
X9449601Y17419654D01*
X9401220Y17322892D01*
X9399181Y17311563D01*
X9392956Y17301876D01*
X9387812Y17266096D01*
X9387812Y17072572D01*
X9242669Y17072572D01*
X9242669Y17798286D01*
X9387812Y17798286D01*
X9407973Y17729625D01*
X9462054Y17682763D01*
X9532886Y17672579D01*
X9597979Y17702306D01*
X9636668Y17762506D01*
X9641812Y17798286D01*
X9641812Y17961572D01*
X10530812Y17961572D01*
X10599473Y17981733D01*
X10646335Y18035814D01*
X10656519Y18106646D01*
X10626792Y18171739D01*
X10566592Y18210428D01*
X10530812Y18215572D01*
X9641812Y18215572D01*
X9641812Y18378858D01*
X9621651Y18447519D01*
X9567570Y18494381D01*
X9496738Y18504565D01*
X9431645Y18474838D01*
X9392956Y18414638D01*
X9387812Y18378858D01*
X9387812Y17798286D01*
X9242669Y17798286D01*
X9242669Y18943470D01*
X9388819Y18943470D01*
X9389262Y18942454D01*
X9389105Y18941355D01*
X9403539Y18909747D01*
X9417448Y18877886D01*
X9418535Y18876912D01*
X9418832Y18876262D01*
X9420343Y18875291D01*
X9444365Y18853759D01*
X9579041Y18763975D01*
X9652342Y18690675D01*
X9691506Y18612347D01*
X9740244Y18559951D01*
X9809573Y18542222D01*
X9877482Y18564790D01*
X9922408Y18620489D01*
X9930091Y18691636D01*
X9918690Y18725939D01*
X9870309Y18822701D01*
X9868688Y18824444D01*
X9868182Y18826770D01*
X9863946Y18832429D01*
X10403812Y18832429D01*
X10403812Y18669143D01*
X10423973Y18600482D01*
X10478054Y18553620D01*
X10548886Y18543436D01*
X10613979Y18573163D01*
X10652668Y18633363D01*
X10657812Y18669143D01*
X10657812Y19249715D01*
X10637651Y19318376D01*
X10583570Y19365238D01*
X10512738Y19375422D01*
X10447645Y19345695D01*
X10408956Y19285495D01*
X10403812Y19249715D01*
X10403812Y19086429D01*
X9514812Y19086429D01*
X9481471Y19076640D01*
X9447956Y19067407D01*
X9447215Y19066581D01*
X9446151Y19066268D01*
X9423382Y19039992D01*
X9400192Y19014120D01*
X9400015Y19013026D01*
X9399289Y19012187D01*
X9394341Y18977778D01*
X9388819Y18943470D01*
X9242669Y18943470D01*
X9242669Y19520565D01*
X10802955Y19520565D01*
X10802955Y14526524D01*
G37*
D11*
X11235712Y50505500D02*
X10812379Y50209167D01*
X11235712Y49997500D02*
X10346712Y49997500D01*
X10346712Y49997500D02*
X10346712Y50336167D01*
X10346712Y50336167D02*
X10389045Y50420833D01*
X10389045Y50420833D02*
X10431379Y50463167D01*
X10431379Y50463167D02*
X10516045Y50505500D01*
X10516045Y50505500D02*
X10643045Y50505500D01*
X10643045Y50505500D02*
X10727712Y50463167D01*
X10727712Y50463167D02*
X10770045Y50420833D01*
X10770045Y50420833D02*
X10812379Y50336167D01*
X10812379Y50336167D02*
X10812379Y49997500D01*
X11235712Y51352167D02*
X11235712Y50844167D01*
X11235712Y51098167D02*
X10346712Y51098167D01*
X10346712Y51098167D02*
X10473712Y51013500D01*
X10473712Y51013500D02*
X10558379Y50928833D01*
X10558379Y50928833D02*
X10600712Y50844167D01*
X10346712Y52156500D02*
X10346712Y51733167D01*
X10346712Y51733167D02*
X10770045Y51690834D01*
X10770045Y51690834D02*
X10727712Y51733167D01*
X10727712Y51733167D02*
X10685379Y51817834D01*
X10685379Y51817834D02*
X10685379Y52029500D01*
X10685379Y52029500D02*
X10727712Y52114167D01*
X10727712Y52114167D02*
X10770045Y52156500D01*
X10770045Y52156500D02*
X10854712Y52198834D01*
X10854712Y52198834D02*
X11066379Y52198834D01*
X11066379Y52198834D02*
X11151045Y52156500D01*
X11151045Y52156500D02*
X11193379Y52114167D01*
X11193379Y52114167D02*
X11235712Y52029500D01*
X11235712Y52029500D02*
X11235712Y51817834D01*
X11235712Y51817834D02*
X11193379Y51733167D01*
X11193379Y51733167D02*
X11151045Y51690834D01*
D10*
G36*
X8729348Y59882995D02*
G01*
X8741959Y59870384D01*
X8767714Y59818874D01*
X8767714Y59733691D01*
X8741959Y59682181D01*
X8722721Y59662944D01*
X8671210Y59637188D01*
X8441142Y59637188D01*
X8441142Y59915378D01*
X8632199Y59915378D01*
X8729348Y59882995D01*
G37*
G36*
X8674339Y60373433D02*
G01*
X8693578Y60354194D01*
X8719333Y60302684D01*
X8719333Y60265882D01*
X8693578Y60214372D01*
X8674339Y60195133D01*
X8622829Y60169378D01*
X8441142Y60169378D01*
X8441142Y60399188D01*
X8622829Y60399188D01*
X8674339Y60373433D01*
G37*
G36*
X12407088Y59238045D02*
G01*
X6009999Y59238045D01*
X6009999Y59703711D01*
X6155142Y59703711D01*
X6158385Y59692666D01*
X6157149Y59681218D01*
X6168550Y59646915D01*
X6216931Y59550153D01*
X6218551Y59548411D01*
X6219058Y59546084D01*
X6240720Y59517146D01*
X6289101Y59468765D01*
X6291191Y59467624D01*
X6292407Y59465577D01*
X6322109Y59444975D01*
X6418871Y59396595D01*
X6430201Y59394557D01*
X6439886Y59388332D01*
X6475666Y59383188D01*
X6669190Y59383188D01*
X6680234Y59386432D01*
X6691682Y59385195D01*
X6725985Y59396595D01*
X6822747Y59444975D01*
X6824490Y59446597D01*
X6826817Y59447103D01*
X6855755Y59468765D01*
X6904136Y59517146D01*
X6905277Y59519236D01*
X6907323Y59520451D01*
X6927925Y59550153D01*
X6976306Y59646915D01*
X6978344Y59658245D01*
X6984570Y59667931D01*
X6989714Y59703711D01*
X6989714Y60235902D01*
X7171142Y60235902D01*
X7174385Y60224857D01*
X7173149Y60213409D01*
X7184550Y60179106D01*
X7232931Y60082344D01*
X7234551Y60080602D01*
X7235058Y60078275D01*
X7256720Y60049337D01*
X7305101Y60000956D01*
X7307190Y59999815D01*
X7308406Y59997769D01*
X7338108Y59977167D01*
X7434870Y59928786D01*
X7439250Y59927998D01*
X7460864Y59919170D01*
X7640864Y59874170D01*
X7706720Y59841242D01*
X7725959Y59822003D01*
X7751714Y59770493D01*
X7751714Y59733691D01*
X7725959Y59682181D01*
X7706721Y59662944D01*
X7655210Y59637188D01*
X7463894Y59637188D01*
X7338302Y59679051D01*
X7266789Y59681637D01*
X7205230Y59645150D01*
X7173170Y59581173D01*
X7180788Y59510020D01*
X7225665Y59454279D01*
X7257982Y59438085D01*
X7403125Y59389705D01*
X7405502Y59389620D01*
X7407505Y59388332D01*
X7443285Y59383188D01*
X7685190Y59383188D01*
X7696234Y59386432D01*
X7707682Y59385195D01*
X7741985Y59396595D01*
X7838747Y59444975D01*
X7840490Y59446597D01*
X7842817Y59447103D01*
X7871755Y59468765D01*
X7913178Y59510188D01*
X8187142Y59510188D01*
X8189754Y59501291D01*
X8188435Y59492114D01*
X8199677Y59467496D01*
X8207303Y59441527D01*
X8214310Y59435456D01*
X8218162Y59427021D01*
X8240930Y59412389D01*
X8261384Y59394665D01*
X8270560Y59393346D01*
X8278362Y59388332D01*
X8314142Y59383188D01*
X8701190Y59383188D01*
X8712234Y59386432D01*
X8723682Y59385195D01*
X8757985Y59396595D01*
X8854747Y59444975D01*
X8856490Y59446597D01*
X8858817Y59447103D01*
X8887755Y59468765D01*
X8936136Y59517146D01*
X8937277Y59519236D01*
X8939323Y59520451D01*
X8959925Y59550153D01*
X9008306Y59646915D01*
X9010344Y59658245D01*
X9016570Y59667931D01*
X9021714Y59703711D01*
X9021714Y59848854D01*
X9018470Y59859900D01*
X9019707Y59871347D01*
X9017110Y59879161D01*
X9204435Y59879161D01*
X9234162Y59814068D01*
X9294362Y59775379D01*
X9330142Y59770235D01*
X10104238Y59770235D01*
X10172899Y59790396D01*
X10219761Y59844477D01*
X10229945Y59915309D01*
X10216104Y59945616D01*
X10412666Y59945616D01*
X10413638Y59942304D01*
X10416458Y59914814D01*
X10464839Y59721290D01*
X10467091Y59717451D01*
X10474455Y59695296D01*
X10522836Y59598534D01*
X10524456Y59596792D01*
X10524963Y59594465D01*
X10546625Y59565527D01*
X10643387Y59468766D01*
X10653491Y59463249D01*
X10660713Y59454279D01*
X10693030Y59438085D01*
X10838173Y59389705D01*
X10840550Y59389620D01*
X10842553Y59388332D01*
X10878333Y59383188D01*
X10975095Y59383188D01*
X10977378Y59383859D01*
X10979685Y59383271D01*
X11015255Y59389705D01*
X11160398Y59438085D01*
X11169852Y59444656D01*
X11181103Y59447103D01*
X11210041Y59468765D01*
X11258422Y59517146D01*
X11292716Y59579953D01*
X11287612Y59651331D01*
X11244727Y59708617D01*
X11177679Y59733625D01*
X11107754Y59718414D01*
X11078816Y59696752D01*
X11051633Y59669570D01*
X10954486Y59637188D01*
X10898942Y59637188D01*
X10801793Y59669571D01*
X10740802Y59730562D01*
X10707874Y59796418D01*
X10666666Y59961250D01*
X10666666Y60075125D01*
X10705742Y60231427D01*
X11428745Y60231427D01*
X11451313Y60163518D01*
X11507012Y60118592D01*
X11578159Y60110909D01*
X11612462Y60122310D01*
X11709224Y60170691D01*
X11710966Y60172312D01*
X11713293Y60172818D01*
X11718952Y60177055D01*
X11718952Y59637188D01*
X11555666Y59637188D01*
X11487005Y59617027D01*
X11440143Y59562946D01*
X11429959Y59492114D01*
X11459686Y59427021D01*
X11519886Y59388332D01*
X11555666Y59383188D01*
X12136238Y59383188D01*
X12204899Y59403349D01*
X12251761Y59457430D01*
X12261945Y59528262D01*
X12232218Y59593355D01*
X12172018Y59632044D01*
X12136238Y59637188D01*
X11972952Y59637188D01*
X11972952Y60526188D01*
X11963162Y60559529D01*
X11953930Y60593044D01*
X11953103Y60593785D01*
X11952791Y60594849D01*
X11926514Y60617618D01*
X11900643Y60640808D01*
X11899548Y60640985D01*
X11898710Y60641711D01*
X11864300Y60646659D01*
X11829993Y60652181D01*
X11828976Y60651738D01*
X11827878Y60651895D01*
X11796269Y60637461D01*
X11764409Y60623552D01*
X11763434Y60622465D01*
X11762785Y60622168D01*
X11761813Y60620657D01*
X11740282Y60596635D01*
X11650496Y60461957D01*
X11577196Y60388658D01*
X11498870Y60349494D01*
X11446474Y60300756D01*
X11428745Y60231427D01*
X10705742Y60231427D01*
X10707874Y60239957D01*
X10740802Y60305814D01*
X10801792Y60366805D01*
X10898943Y60399188D01*
X10954485Y60399188D01*
X11051634Y60366805D01*
X11078816Y60339623D01*
X11141623Y60305329D01*
X11213001Y60310433D01*
X11270287Y60353318D01*
X11295295Y60420366D01*
X11280084Y60490291D01*
X11258422Y60519229D01*
X11210041Y60567610D01*
X11199935Y60573128D01*
X11192716Y60582095D01*
X11160399Y60598290D01*
X11015256Y60646671D01*
X11012877Y60646758D01*
X11010875Y60648044D01*
X10975095Y60653188D01*
X10878333Y60653188D01*
X10876048Y60652518D01*
X10873742Y60653105D01*
X10838172Y60646671D01*
X10693029Y60598290D01*
X10683574Y60591720D01*
X10672325Y60589272D01*
X10643387Y60567609D01*
X10546625Y60470848D01*
X10545483Y60468759D01*
X10543438Y60467543D01*
X10522836Y60437841D01*
X10474455Y60341079D01*
X10473666Y60336699D01*
X10464839Y60315085D01*
X10416458Y60121561D01*
X10416598Y60118111D01*
X10412666Y60090759D01*
X10412666Y59945616D01*
X10216104Y59945616D01*
X10200218Y59980402D01*
X10140018Y60019091D01*
X10104238Y60024235D01*
X9330142Y60024235D01*
X9261481Y60004074D01*
X9214619Y59949993D01*
X9204435Y59879161D01*
X9017110Y59879161D01*
X9008306Y59905650D01*
X8959925Y60002412D01*
X8958304Y60004155D01*
X8957798Y60006481D01*
X8936136Y60035419D01*
X8902397Y60069158D01*
X8911544Y60082344D01*
X8959925Y60179106D01*
X8961963Y60190436D01*
X8968189Y60200122D01*
X8973333Y60235902D01*
X8973333Y60332664D01*
X8970089Y60343710D01*
X8971326Y60355157D01*
X8959925Y60389460D01*
X8911544Y60486222D01*
X8909923Y60487965D01*
X8909417Y60490291D01*
X8887755Y60519229D01*
X8839374Y60567610D01*
X8837284Y60568752D01*
X8836069Y60570797D01*
X8806367Y60591399D01*
X8709605Y60639780D01*
X8698275Y60641819D01*
X8688589Y60648044D01*
X8652809Y60653188D01*
X8314142Y60653188D01*
X8305244Y60650576D01*
X8296068Y60651895D01*
X8271449Y60640653D01*
X8245481Y60633027D01*
X8239409Y60626020D01*
X8230975Y60622168D01*
X8216342Y60599400D01*
X8198619Y60578946D01*
X8197299Y60569770D01*
X8192286Y60561968D01*
X8187142Y60526188D01*
X8187142Y59510188D01*
X7913178Y59510188D01*
X7920136Y59517146D01*
X7921277Y59519236D01*
X7923323Y59520451D01*
X7943925Y59550153D01*
X7992306Y59646915D01*
X7994344Y59658245D01*
X8000570Y59667931D01*
X8005714Y59703711D01*
X8005714Y59800473D01*
X8002470Y59811519D01*
X8003707Y59822966D01*
X7992306Y59857269D01*
X7943925Y59954031D01*
X7942304Y59955774D01*
X7941798Y59958100D01*
X7920136Y59987038D01*
X7871755Y60035419D01*
X7869665Y60036561D01*
X7868450Y60038606D01*
X7838748Y60059208D01*
X7741986Y60107589D01*
X7737605Y60108378D01*
X7715992Y60117205D01*
X7535992Y60162205D01*
X7470136Y60195133D01*
X7450897Y60214372D01*
X7425142Y60265882D01*
X7425142Y60302684D01*
X7450897Y60354194D01*
X7470136Y60373433D01*
X7521646Y60399188D01*
X7712961Y60399188D01*
X7838553Y60357324D01*
X7910066Y60354738D01*
X7971625Y60391225D01*
X8003685Y60455202D01*
X7996068Y60526355D01*
X7951192Y60582095D01*
X7918875Y60598290D01*
X7773732Y60646671D01*
X7771353Y60646758D01*
X7769351Y60648044D01*
X7733571Y60653188D01*
X7491666Y60653188D01*
X7480620Y60649945D01*
X7469173Y60651181D01*
X7434870Y60639780D01*
X7338108Y60591399D01*
X7336365Y60589779D01*
X7334039Y60589272D01*
X7305101Y60567610D01*
X7256720Y60519229D01*
X7255578Y60517140D01*
X7253533Y60515924D01*
X7232931Y60486222D01*
X7184550Y60389460D01*
X7182511Y60378131D01*
X7176286Y60368444D01*
X7171142Y60332664D01*
X7171142Y60235902D01*
X6989714Y60235902D01*
X6989714Y60526188D01*
X6969553Y60594849D01*
X6915472Y60641711D01*
X6844640Y60651895D01*
X6779547Y60622168D01*
X6740858Y60561968D01*
X6735714Y60526188D01*
X6735714Y59733691D01*
X6709959Y59682181D01*
X6690721Y59662944D01*
X6639210Y59637188D01*
X6505646Y59637188D01*
X6454134Y59662944D01*
X6434897Y59682181D01*
X6409142Y59733691D01*
X6409142Y60526188D01*
X6388981Y60594849D01*
X6334900Y60641711D01*
X6264068Y60651895D01*
X6198975Y60622168D01*
X6160286Y60561968D01*
X6155142Y60526188D01*
X6155142Y59703711D01*
X6009999Y59703711D01*
X6009999Y60798331D01*
X12407088Y60798331D01*
X12407088Y59238045D01*
G37*
D12*
X3431609Y55540144D02*
X3068752Y55286144D01*
X3431609Y55104715D02*
X2669609Y55104715D01*
X2669609Y55104715D02*
X2669609Y55395001D01*
X2669609Y55395001D02*
X2705895Y55467572D01*
X2705895Y55467572D02*
X2742181Y55503858D01*
X2742181Y55503858D02*
X2814752Y55540144D01*
X2814752Y55540144D02*
X2923609Y55540144D01*
X2923609Y55540144D02*
X2996181Y55503858D01*
X2996181Y55503858D02*
X3032466Y55467572D01*
X3032466Y55467572D02*
X3068752Y55395001D01*
X3068752Y55395001D02*
X3068752Y55104715D01*
X3431609Y56265858D02*
X3431609Y55830429D01*
X3431609Y56048144D02*
X2669609Y56048144D01*
X2669609Y56048144D02*
X2778466Y55975572D01*
X2778466Y55975572D02*
X2851038Y55903001D01*
X2851038Y55903001D02*
X2887324Y55830429D01*
X2669609Y56519858D02*
X2669609Y56991572D01*
X2669609Y56991572D02*
X2959895Y56737572D01*
X2959895Y56737572D02*
X2959895Y56846429D01*
X2959895Y56846429D02*
X2996181Y56919000D01*
X2996181Y56919000D02*
X3032466Y56955286D01*
X3032466Y56955286D02*
X3105038Y56991572D01*
X3105038Y56991572D02*
X3286466Y56991572D01*
X3286466Y56991572D02*
X3359038Y56955286D01*
X3359038Y56955286D02*
X3395324Y56919000D01*
X3395324Y56919000D02*
X3431609Y56846429D01*
X3431609Y56846429D02*
X3431609Y56628715D01*
X3431609Y56628715D02*
X3395324Y56556143D01*
X3395324Y56556143D02*
X3359038Y56519858D01*
D13*
X13283040Y45855486D02*
X13321745Y45816782D01*
X13321745Y45816782D02*
X13360449Y45700667D01*
X13360449Y45700667D02*
X13360449Y45623258D01*
X13360449Y45623258D02*
X13321745Y45507144D01*
X13321745Y45507144D02*
X13244335Y45429734D01*
X13244335Y45429734D02*
X13166925Y45391029D01*
X13166925Y45391029D02*
X13012106Y45352325D01*
X13012106Y45352325D02*
X12895992Y45352325D01*
X12895992Y45352325D02*
X12741173Y45391029D01*
X12741173Y45391029D02*
X12663764Y45429734D01*
X12663764Y45429734D02*
X12586354Y45507144D01*
X12586354Y45507144D02*
X12547649Y45623258D01*
X12547649Y45623258D02*
X12547649Y45700667D01*
X12547649Y45700667D02*
X12586354Y45816782D01*
X12586354Y45816782D02*
X12625059Y45855486D01*
X13360449Y46629582D02*
X13360449Y46165125D01*
X13360449Y46397353D02*
X12547649Y46397353D01*
X12547649Y46397353D02*
X12663764Y46319944D01*
X12663764Y46319944D02*
X12741173Y46242534D01*
X12741173Y46242534D02*
X12779878Y46165125D01*
X12818583Y47326267D02*
X13360449Y47326267D01*
X12508945Y47132743D02*
X13089516Y46939220D01*
X13089516Y46939220D02*
X13089516Y47442381D01*
D10*
X8719333Y21966568D02*
X8864476Y21918188D01*
X8864476Y21918188D02*
X9106381Y21918188D01*
X9106381Y21918188D02*
X9203143Y21966568D01*
X9203143Y21966568D02*
X9251524Y22014949D01*
X9251524Y22014949D02*
X9299905Y22111711D01*
X9299905Y22111711D02*
X9299905Y22208473D01*
X9299905Y22208473D02*
X9251524Y22305235D01*
X9251524Y22305235D02*
X9203143Y22353616D01*
X9203143Y22353616D02*
X9106381Y22401997D01*
X9106381Y22401997D02*
X8912857Y22450378D01*
X8912857Y22450378D02*
X8816095Y22498759D01*
X8816095Y22498759D02*
X8767714Y22547140D01*
X8767714Y22547140D02*
X8719333Y22643902D01*
X8719333Y22643902D02*
X8719333Y22740664D01*
X8719333Y22740664D02*
X8767714Y22837426D01*
X8767714Y22837426D02*
X8816095Y22885807D01*
X8816095Y22885807D02*
X8912857Y22934188D01*
X8912857Y22934188D02*
X9154762Y22934188D01*
X9154762Y22934188D02*
X9299905Y22885807D01*
X9638571Y22934188D02*
X9880476Y21918188D01*
X9880476Y21918188D02*
X10074000Y22643902D01*
X10074000Y22643902D02*
X10267524Y21918188D01*
X10267524Y21918188D02*
X10509429Y22934188D01*
X10896476Y21918188D02*
X10896476Y22934188D01*
X10896476Y22934188D02*
X11138381Y22934188D01*
X11138381Y22934188D02*
X11283524Y22885807D01*
X11283524Y22885807D02*
X11380286Y22789045D01*
X11380286Y22789045D02*
X11428667Y22692283D01*
X11428667Y22692283D02*
X11477048Y22498759D01*
X11477048Y22498759D02*
X11477048Y22353616D01*
X11477048Y22353616D02*
X11428667Y22160092D01*
X11428667Y22160092D02*
X11380286Y22063330D01*
X11380286Y22063330D02*
X11283524Y21966568D01*
X11283524Y21966568D02*
X11138381Y21918188D01*
X11138381Y21918188D02*
X10896476Y21918188D01*
X12444667Y21918188D02*
X11864095Y21918188D01*
X12154381Y21918188D02*
X12154381Y22934188D01*
X12154381Y22934188D02*
X12057619Y22789045D01*
X12057619Y22789045D02*
X11960857Y22692283D01*
X11960857Y22692283D02*
X11864095Y22643902D01*
D13*
X10192533Y42202551D02*
X9805485Y42202551D01*
X9805485Y42202551D02*
X9805485Y43015351D01*
X10889219Y42202551D02*
X10424762Y42202551D01*
X10656990Y42202551D02*
X10656990Y43015351D01*
X10656990Y43015351D02*
X10579581Y42899236D01*
X10579581Y42899236D02*
X10502171Y42821827D01*
X10502171Y42821827D02*
X10424762Y42783122D01*
D11*
X6242833Y21975288D02*
X5946500Y22398621D01*
X5734833Y21975288D02*
X5734833Y22864288D01*
X5734833Y22864288D02*
X6073500Y22864288D01*
X6073500Y22864288D02*
X6158167Y22821955D01*
X6158167Y22821955D02*
X6200500Y22779621D01*
X6200500Y22779621D02*
X6242833Y22694955D01*
X6242833Y22694955D02*
X6242833Y22567955D01*
X6242833Y22567955D02*
X6200500Y22483288D01*
X6200500Y22483288D02*
X6158167Y22440955D01*
X6158167Y22440955D02*
X6073500Y22398621D01*
X6073500Y22398621D02*
X5734833Y22398621D01*
X6581500Y22779621D02*
X6623833Y22821955D01*
X6623833Y22821955D02*
X6708500Y22864288D01*
X6708500Y22864288D02*
X6920167Y22864288D01*
X6920167Y22864288D02*
X7004833Y22821955D01*
X7004833Y22821955D02*
X7047167Y22779621D01*
X7047167Y22779621D02*
X7089500Y22694955D01*
X7089500Y22694955D02*
X7089500Y22610288D01*
X7089500Y22610288D02*
X7047167Y22483288D01*
X7047167Y22483288D02*
X6539167Y21975288D01*
X6539167Y21975288D02*
X7089500Y21975288D01*
D10*
X6167238Y23599426D02*
X6070476Y23647807D01*
X6070476Y23647807D02*
X5973714Y23744568D01*
X5973714Y23744568D02*
X5828571Y23889711D01*
X5828571Y23889711D02*
X5731809Y23938092D01*
X5731809Y23938092D02*
X5635047Y23938092D01*
X5683428Y23696188D02*
X5586666Y23744568D01*
X5586666Y23744568D02*
X5489904Y23841330D01*
X5489904Y23841330D02*
X5441523Y24034854D01*
X5441523Y24034854D02*
X5441523Y24373521D01*
X5441523Y24373521D02*
X5489904Y24567045D01*
X5489904Y24567045D02*
X5586666Y24663807D01*
X5586666Y24663807D02*
X5683428Y24712188D01*
X5683428Y24712188D02*
X5876952Y24712188D01*
X5876952Y24712188D02*
X5973714Y24663807D01*
X5973714Y24663807D02*
X6070476Y24567045D01*
X6070476Y24567045D02*
X6118857Y24373521D01*
X6118857Y24373521D02*
X6118857Y24034854D01*
X6118857Y24034854D02*
X6070476Y23841330D01*
X6070476Y23841330D02*
X5973714Y23744568D01*
X5973714Y23744568D02*
X5876952Y23696188D01*
X5876952Y23696188D02*
X5683428Y23696188D01*
X7086476Y23696188D02*
X6505904Y23696188D01*
X6796190Y23696188D02*
X6796190Y24712188D01*
X6796190Y24712188D02*
X6699428Y24567045D01*
X6699428Y24567045D02*
X6602666Y24470283D01*
X6602666Y24470283D02*
X6505904Y24421902D01*
D12*
X11797571Y27366391D02*
X11725000Y27402676D01*
X11725000Y27402676D02*
X11688714Y27438962D01*
X11688714Y27438962D02*
X11652428Y27511534D01*
X11652428Y27511534D02*
X11652428Y27729248D01*
X11652428Y27729248D02*
X11688714Y27801819D01*
X11688714Y27801819D02*
X11725000Y27838105D01*
X11725000Y27838105D02*
X11797571Y27874391D01*
X11797571Y27874391D02*
X11906428Y27874391D01*
X11906428Y27874391D02*
X11979000Y27838105D01*
X11979000Y27838105D02*
X12015286Y27801819D01*
X12015286Y27801819D02*
X12051571Y27729248D01*
X12051571Y27729248D02*
X12051571Y27511534D01*
X12051571Y27511534D02*
X12015286Y27438962D01*
X12015286Y27438962D02*
X11979000Y27402676D01*
X11979000Y27402676D02*
X11906428Y27366391D01*
X11906428Y27366391D02*
X11797571Y27366391D01*
D13*
X7900485Y28767160D02*
X7861781Y28728455D01*
X7861781Y28728455D02*
X7745666Y28689751D01*
X7745666Y28689751D02*
X7668257Y28689751D01*
X7668257Y28689751D02*
X7552143Y28728455D01*
X7552143Y28728455D02*
X7474733Y28805865D01*
X7474733Y28805865D02*
X7436028Y28883275D01*
X7436028Y28883275D02*
X7397324Y29038094D01*
X7397324Y29038094D02*
X7397324Y29154208D01*
X7397324Y29154208D02*
X7436028Y29309027D01*
X7436028Y29309027D02*
X7474733Y29386436D01*
X7474733Y29386436D02*
X7552143Y29463846D01*
X7552143Y29463846D02*
X7668257Y29502551D01*
X7668257Y29502551D02*
X7745666Y29502551D01*
X7745666Y29502551D02*
X7861781Y29463846D01*
X7861781Y29463846D02*
X7900485Y29425141D01*
X8210124Y29425141D02*
X8248828Y29463846D01*
X8248828Y29463846D02*
X8326238Y29502551D01*
X8326238Y29502551D02*
X8519762Y29502551D01*
X8519762Y29502551D02*
X8597171Y29463846D01*
X8597171Y29463846D02*
X8635876Y29425141D01*
X8635876Y29425141D02*
X8674581Y29347732D01*
X8674581Y29347732D02*
X8674581Y29270322D01*
X8674581Y29270322D02*
X8635876Y29154208D01*
X8635876Y29154208D02*
X8171419Y28689751D01*
X8171419Y28689751D02*
X8674581Y28689751D01*
X9448676Y28689751D02*
X8984219Y28689751D01*
X9216447Y28689751D02*
X9216447Y29502551D01*
X9216447Y29502551D02*
X9139038Y29386436D01*
X9139038Y29386436D02*
X9061628Y29309027D01*
X9061628Y29309027D02*
X8984219Y29270322D01*
X15322297Y45700668D02*
X15322297Y45429734D01*
X15748049Y45429734D02*
X14935249Y45429734D01*
X14935249Y45429734D02*
X14935249Y45816782D01*
X15322297Y46397354D02*
X15361002Y46513468D01*
X15361002Y46513468D02*
X15399706Y46552173D01*
X15399706Y46552173D02*
X15477116Y46590877D01*
X15477116Y46590877D02*
X15593230Y46590877D01*
X15593230Y46590877D02*
X15670640Y46552173D01*
X15670640Y46552173D02*
X15709345Y46513468D01*
X15709345Y46513468D02*
X15748049Y46436058D01*
X15748049Y46436058D02*
X15748049Y46126420D01*
X15748049Y46126420D02*
X14935249Y46126420D01*
X14935249Y46126420D02*
X14935249Y46397354D01*
X14935249Y46397354D02*
X14973954Y46474763D01*
X14973954Y46474763D02*
X15012659Y46513468D01*
X15012659Y46513468D02*
X15090068Y46552173D01*
X15090068Y46552173D02*
X15167478Y46552173D01*
X15167478Y46552173D02*
X15244887Y46513468D01*
X15244887Y46513468D02*
X15283592Y46474763D01*
X15283592Y46474763D02*
X15322297Y46397354D01*
X15322297Y46397354D02*
X15322297Y46126420D01*
X15748049Y47364973D02*
X15748049Y46900516D01*
X15748049Y47132744D02*
X14935249Y47132744D01*
X14935249Y47132744D02*
X15051364Y47055335D01*
X15051364Y47055335D02*
X15128773Y46977925D01*
X15128773Y46977925D02*
X15167478Y46900516D01*
D12*
X12274438Y53127144D02*
X12310724Y53090858D01*
X12310724Y53090858D02*
X12347009Y52982001D01*
X12347009Y52982001D02*
X12347009Y52909429D01*
X12347009Y52909429D02*
X12310724Y52800572D01*
X12310724Y52800572D02*
X12238152Y52728001D01*
X12238152Y52728001D02*
X12165581Y52691715D01*
X12165581Y52691715D02*
X12020438Y52655429D01*
X12020438Y52655429D02*
X11911581Y52655429D01*
X11911581Y52655429D02*
X11766438Y52691715D01*
X11766438Y52691715D02*
X11693866Y52728001D01*
X11693866Y52728001D02*
X11621295Y52800572D01*
X11621295Y52800572D02*
X11585009Y52909429D01*
X11585009Y52909429D02*
X11585009Y52982001D01*
X11585009Y52982001D02*
X11621295Y53090858D01*
X11621295Y53090858D02*
X11657581Y53127144D01*
X11657581Y53417429D02*
X11621295Y53453715D01*
X11621295Y53453715D02*
X11585009Y53526286D01*
X11585009Y53526286D02*
X11585009Y53707715D01*
X11585009Y53707715D02*
X11621295Y53780286D01*
X11621295Y53780286D02*
X11657581Y53816572D01*
X11657581Y53816572D02*
X11730152Y53852858D01*
X11730152Y53852858D02*
X11802724Y53852858D01*
X11802724Y53852858D02*
X11911581Y53816572D01*
X11911581Y53816572D02*
X12347009Y53381144D01*
X12347009Y53381144D02*
X12347009Y53852858D01*
X11657581Y54143143D02*
X11621295Y54179429D01*
X11621295Y54179429D02*
X11585009Y54252000D01*
X11585009Y54252000D02*
X11585009Y54433429D01*
X11585009Y54433429D02*
X11621295Y54506000D01*
X11621295Y54506000D02*
X11657581Y54542286D01*
X11657581Y54542286D02*
X11730152Y54578572D01*
X11730152Y54578572D02*
X11802724Y54578572D01*
X11802724Y54578572D02*
X11911581Y54542286D01*
X11911581Y54542286D02*
X12347009Y54106858D01*
X12347009Y54106858D02*
X12347009Y54578572D01*
D11*
X15596045Y30735834D02*
X15638379Y30693501D01*
X15638379Y30693501D02*
X15680712Y30566501D01*
X15680712Y30566501D02*
X15680712Y30481834D01*
X15680712Y30481834D02*
X15638379Y30354834D01*
X15638379Y30354834D02*
X15553712Y30270167D01*
X15553712Y30270167D02*
X15469045Y30227834D01*
X15469045Y30227834D02*
X15299712Y30185501D01*
X15299712Y30185501D02*
X15172712Y30185501D01*
X15172712Y30185501D02*
X15003379Y30227834D01*
X15003379Y30227834D02*
X14918712Y30270167D01*
X14918712Y30270167D02*
X14834045Y30354834D01*
X14834045Y30354834D02*
X14791712Y30481834D01*
X14791712Y30481834D02*
X14791712Y30566501D01*
X14791712Y30566501D02*
X14834045Y30693501D01*
X14834045Y30693501D02*
X14876379Y30735834D01*
X14876379Y31074501D02*
X14834045Y31116834D01*
X14834045Y31116834D02*
X14791712Y31201501D01*
X14791712Y31201501D02*
X14791712Y31413167D01*
X14791712Y31413167D02*
X14834045Y31497834D01*
X14834045Y31497834D02*
X14876379Y31540167D01*
X14876379Y31540167D02*
X14961045Y31582501D01*
X14961045Y31582501D02*
X15045712Y31582501D01*
X15045712Y31582501D02*
X15172712Y31540167D01*
X15172712Y31540167D02*
X15680712Y31032167D01*
X15680712Y31032167D02*
X15680712Y31582501D01*
D10*
X2695904Y41984188D02*
X2695904Y41161711D01*
X2695904Y41161711D02*
X2744285Y41064949D01*
X2744285Y41064949D02*
X2792666Y41016568D01*
X2792666Y41016568D02*
X2889428Y40968188D01*
X2889428Y40968188D02*
X3082952Y40968188D01*
X3082952Y40968188D02*
X3179714Y41016568D01*
X3179714Y41016568D02*
X3228095Y41064949D01*
X3228095Y41064949D02*
X3276476Y41161711D01*
X3276476Y41161711D02*
X3276476Y41984188D01*
X3663523Y41984188D02*
X4292476Y41984188D01*
X4292476Y41984188D02*
X3953809Y41597140D01*
X3953809Y41597140D02*
X4098952Y41597140D01*
X4098952Y41597140D02*
X4195714Y41548759D01*
X4195714Y41548759D02*
X4244095Y41500378D01*
X4244095Y41500378D02*
X4292476Y41403616D01*
X4292476Y41403616D02*
X4292476Y41161711D01*
X4292476Y41161711D02*
X4244095Y41064949D01*
X4244095Y41064949D02*
X4195714Y41016568D01*
X4195714Y41016568D02*
X4098952Y40968188D01*
X4098952Y40968188D02*
X3808666Y40968188D01*
X3808666Y40968188D02*
X3711904Y41016568D01*
X3711904Y41016568D02*
X3663523Y41064949D01*
D14*
X3031309Y38840067D02*
X3152261Y38779590D01*
X3152261Y38779590D02*
X3212738Y38719114D01*
X3212738Y38719114D02*
X3273214Y38598162D01*
X3273214Y38598162D02*
X3273214Y38235305D01*
X3273214Y38235305D02*
X3212738Y38114352D01*
X3212738Y38114352D02*
X3152261Y38053876D01*
X3152261Y38053876D02*
X3031309Y37993400D01*
X3031309Y37993400D02*
X2849880Y37993400D01*
X2849880Y37993400D02*
X2728928Y38053876D01*
X2728928Y38053876D02*
X2668452Y38114352D01*
X2668452Y38114352D02*
X2607976Y38235305D01*
X2607976Y38235305D02*
X2607976Y38598162D01*
X2607976Y38598162D02*
X2668452Y38719114D01*
X2668452Y38719114D02*
X2728928Y38779590D01*
X2728928Y38779590D02*
X2849880Y38840067D01*
X2849880Y38840067D02*
X3031309Y38840067D01*
D12*
X10455000Y53172791D02*
X10092143Y53172791D01*
X10092143Y53172791D02*
X10092143Y53934791D01*
X10672714Y53862219D02*
X10709000Y53898505D01*
X10709000Y53898505D02*
X10781572Y53934791D01*
X10781572Y53934791D02*
X10963000Y53934791D01*
X10963000Y53934791D02*
X11035572Y53898505D01*
X11035572Y53898505D02*
X11071857Y53862219D01*
X11071857Y53862219D02*
X11108143Y53789648D01*
X11108143Y53789648D02*
X11108143Y53717076D01*
X11108143Y53717076D02*
X11071857Y53608219D01*
X11071857Y53608219D02*
X10636429Y53172791D01*
X10636429Y53172791D02*
X11108143Y53172791D01*
X10035609Y54560429D02*
X10652466Y54560429D01*
X10652466Y54560429D02*
X10725038Y54596715D01*
X10725038Y54596715D02*
X10761324Y54633000D01*
X10761324Y54633000D02*
X10797609Y54705572D01*
X10797609Y54705572D02*
X10797609Y54850715D01*
X10797609Y54850715D02*
X10761324Y54923286D01*
X10761324Y54923286D02*
X10725038Y54959572D01*
X10725038Y54959572D02*
X10652466Y54995858D01*
X10652466Y54995858D02*
X10035609Y54995858D01*
X10108181Y55322429D02*
X10071895Y55358715D01*
X10071895Y55358715D02*
X10035609Y55431286D01*
X10035609Y55431286D02*
X10035609Y55612715D01*
X10035609Y55612715D02*
X10071895Y55685286D01*
X10071895Y55685286D02*
X10108181Y55721572D01*
X10108181Y55721572D02*
X10180752Y55757858D01*
X10180752Y55757858D02*
X10253324Y55757858D01*
X10253324Y55757858D02*
X10362181Y55721572D01*
X10362181Y55721572D02*
X10797609Y55286144D01*
X10797609Y55286144D02*
X10797609Y55757858D01*
X7510160Y55614387D02*
X7546446Y55686958D01*
X7546446Y55686958D02*
X7582731Y55723244D01*
X7582731Y55723244D02*
X7655303Y55759530D01*
X7655303Y55759530D02*
X7873017Y55759530D01*
X7873017Y55759530D02*
X7945588Y55723244D01*
X7945588Y55723244D02*
X7981874Y55686958D01*
X7981874Y55686958D02*
X8018160Y55614387D01*
X8018160Y55614387D02*
X8018160Y55505530D01*
X8018160Y55505530D02*
X7981874Y55432958D01*
X7981874Y55432958D02*
X7945588Y55396672D01*
X7945588Y55396672D02*
X7873017Y55360387D01*
X7873017Y55360387D02*
X7655303Y55360387D01*
X7655303Y55360387D02*
X7582731Y55396672D01*
X7582731Y55396672D02*
X7546446Y55432958D01*
X7546446Y55432958D02*
X7510160Y55505530D01*
X7510160Y55505530D02*
X7510160Y55614387D01*
D13*
X14554249Y45861534D02*
X14167202Y45590601D01*
X14554249Y45397077D02*
X13741449Y45397077D01*
X13741449Y45397077D02*
X13741449Y45706715D01*
X13741449Y45706715D02*
X13780154Y45784125D01*
X13780154Y45784125D02*
X13818859Y45822830D01*
X13818859Y45822830D02*
X13896268Y45861534D01*
X13896268Y45861534D02*
X14012383Y45861534D01*
X14012383Y45861534D02*
X14089792Y45822830D01*
X14089792Y45822830D02*
X14128497Y45784125D01*
X14128497Y45784125D02*
X14167202Y45706715D01*
X14167202Y45706715D02*
X14167202Y45397077D01*
X13741449Y46132468D02*
X13741449Y46635630D01*
X13741449Y46635630D02*
X14051087Y46364696D01*
X14051087Y46364696D02*
X14051087Y46480811D01*
X14051087Y46480811D02*
X14089792Y46558220D01*
X14089792Y46558220D02*
X14128497Y46596925D01*
X14128497Y46596925D02*
X14205906Y46635630D01*
X14205906Y46635630D02*
X14399430Y46635630D01*
X14399430Y46635630D02*
X14476840Y46596925D01*
X14476840Y46596925D02*
X14515545Y46558220D01*
X14515545Y46558220D02*
X14554249Y46480811D01*
X14554249Y46480811D02*
X14554249Y46248582D01*
X14554249Y46248582D02*
X14515545Y46171173D01*
X14515545Y46171173D02*
X14476840Y46132468D01*
X12368640Y23833686D02*
X12407345Y23794982D01*
X12407345Y23794982D02*
X12446049Y23678867D01*
X12446049Y23678867D02*
X12446049Y23601458D01*
X12446049Y23601458D02*
X12407345Y23485344D01*
X12407345Y23485344D02*
X12329935Y23407934D01*
X12329935Y23407934D02*
X12252525Y23369229D01*
X12252525Y23369229D02*
X12097706Y23330525D01*
X12097706Y23330525D02*
X11981592Y23330525D01*
X11981592Y23330525D02*
X11826773Y23369229D01*
X11826773Y23369229D02*
X11749364Y23407934D01*
X11749364Y23407934D02*
X11671954Y23485344D01*
X11671954Y23485344D02*
X11633249Y23601458D01*
X11633249Y23601458D02*
X11633249Y23678867D01*
X11633249Y23678867D02*
X11671954Y23794982D01*
X11671954Y23794982D02*
X11710659Y23833686D01*
X11710659Y24143325D02*
X11671954Y24182029D01*
X11671954Y24182029D02*
X11633249Y24259439D01*
X11633249Y24259439D02*
X11633249Y24452963D01*
X11633249Y24452963D02*
X11671954Y24530372D01*
X11671954Y24530372D02*
X11710659Y24569077D01*
X11710659Y24569077D02*
X11788068Y24607782D01*
X11788068Y24607782D02*
X11865478Y24607782D01*
X11865478Y24607782D02*
X11981592Y24569077D01*
X11981592Y24569077D02*
X12446049Y24104620D01*
X12446049Y24104620D02*
X12446049Y24607782D01*
X11633249Y25110943D02*
X11633249Y25188353D01*
X11633249Y25188353D02*
X11671954Y25265762D01*
X11671954Y25265762D02*
X11710659Y25304467D01*
X11710659Y25304467D02*
X11788068Y25343172D01*
X11788068Y25343172D02*
X11942887Y25381877D01*
X11942887Y25381877D02*
X12136411Y25381877D01*
X12136411Y25381877D02*
X12291230Y25343172D01*
X12291230Y25343172D02*
X12368640Y25304467D01*
X12368640Y25304467D02*
X12407345Y25265762D01*
X12407345Y25265762D02*
X12446049Y25188353D01*
X12446049Y25188353D02*
X12446049Y25110943D01*
X12446049Y25110943D02*
X12407345Y25033534D01*
X12407345Y25033534D02*
X12368640Y24994829D01*
X12368640Y24994829D02*
X12291230Y24956124D01*
X12291230Y24956124D02*
X12136411Y24917420D01*
X12136411Y24917420D02*
X11942887Y24917420D01*
X11942887Y24917420D02*
X11788068Y24956124D01*
X11788068Y24956124D02*
X11710659Y24994829D01*
X11710659Y24994829D02*
X11671954Y25033534D01*
X11671954Y25033534D02*
X11633249Y25110943D01*
D11*
X10899499Y40855955D02*
X10857166Y40813621D01*
X10857166Y40813621D02*
X10730166Y40771288D01*
X10730166Y40771288D02*
X10645499Y40771288D01*
X10645499Y40771288D02*
X10518499Y40813621D01*
X10518499Y40813621D02*
X10433833Y40898288D01*
X10433833Y40898288D02*
X10391499Y40982955D01*
X10391499Y40982955D02*
X10349166Y41152288D01*
X10349166Y41152288D02*
X10349166Y41279288D01*
X10349166Y41279288D02*
X10391499Y41448621D01*
X10391499Y41448621D02*
X10433833Y41533288D01*
X10433833Y41533288D02*
X10518499Y41617955D01*
X10518499Y41617955D02*
X10645499Y41660288D01*
X10645499Y41660288D02*
X10730166Y41660288D01*
X10730166Y41660288D02*
X10857166Y41617955D01*
X10857166Y41617955D02*
X10899499Y41575621D01*
X11746166Y40771288D02*
X11238166Y40771288D01*
X11492166Y40771288D02*
X11492166Y41660288D01*
X11492166Y41660288D02*
X11407499Y41533288D01*
X11407499Y41533288D02*
X11322833Y41448621D01*
X11322833Y41448621D02*
X11238166Y41406288D01*
X12254166Y41279288D02*
X12169500Y41321621D01*
X12169500Y41321621D02*
X12127166Y41363955D01*
X12127166Y41363955D02*
X12084833Y41448621D01*
X12084833Y41448621D02*
X12084833Y41490955D01*
X12084833Y41490955D02*
X12127166Y41575621D01*
X12127166Y41575621D02*
X12169500Y41617955D01*
X12169500Y41617955D02*
X12254166Y41660288D01*
X12254166Y41660288D02*
X12423500Y41660288D01*
X12423500Y41660288D02*
X12508166Y41617955D01*
X12508166Y41617955D02*
X12550500Y41575621D01*
X12550500Y41575621D02*
X12592833Y41490955D01*
X12592833Y41490955D02*
X12592833Y41448621D01*
X12592833Y41448621D02*
X12550500Y41363955D01*
X12550500Y41363955D02*
X12508166Y41321621D01*
X12508166Y41321621D02*
X12423500Y41279288D01*
X12423500Y41279288D02*
X12254166Y41279288D01*
X12254166Y41279288D02*
X12169500Y41236955D01*
X12169500Y41236955D02*
X12127166Y41194621D01*
X12127166Y41194621D02*
X12084833Y41109955D01*
X12084833Y41109955D02*
X12084833Y40940621D01*
X12084833Y40940621D02*
X12127166Y40855955D01*
X12127166Y40855955D02*
X12169500Y40813621D01*
X12169500Y40813621D02*
X12254166Y40771288D01*
X12254166Y40771288D02*
X12423500Y40771288D01*
X12423500Y40771288D02*
X12508166Y40813621D01*
X12508166Y40813621D02*
X12550500Y40855955D01*
X12550500Y40855955D02*
X12592833Y40940621D01*
X12592833Y40940621D02*
X12592833Y41109955D01*
X12592833Y41109955D02*
X12550500Y41194621D01*
X12550500Y41194621D02*
X12508166Y41236955D01*
X12508166Y41236955D02*
X12423500Y41279288D01*
D12*
X5774143Y52711962D02*
X5737857Y52675676D01*
X5737857Y52675676D02*
X5629000Y52639391D01*
X5629000Y52639391D02*
X5556428Y52639391D01*
X5556428Y52639391D02*
X5447571Y52675676D01*
X5447571Y52675676D02*
X5375000Y52748248D01*
X5375000Y52748248D02*
X5338714Y52820819D01*
X5338714Y52820819D02*
X5302428Y52965962D01*
X5302428Y52965962D02*
X5302428Y53074819D01*
X5302428Y53074819D02*
X5338714Y53219962D01*
X5338714Y53219962D02*
X5375000Y53292534D01*
X5375000Y53292534D02*
X5447571Y53365105D01*
X5447571Y53365105D02*
X5556428Y53401391D01*
X5556428Y53401391D02*
X5629000Y53401391D01*
X5629000Y53401391D02*
X5737857Y53365105D01*
X5737857Y53365105D02*
X5774143Y53328819D01*
X6064428Y53328819D02*
X6100714Y53365105D01*
X6100714Y53365105D02*
X6173286Y53401391D01*
X6173286Y53401391D02*
X6354714Y53401391D01*
X6354714Y53401391D02*
X6427286Y53365105D01*
X6427286Y53365105D02*
X6463571Y53328819D01*
X6463571Y53328819D02*
X6499857Y53256248D01*
X6499857Y53256248D02*
X6499857Y53183676D01*
X6499857Y53183676D02*
X6463571Y53074819D01*
X6463571Y53074819D02*
X6028143Y52639391D01*
X6028143Y52639391D02*
X6499857Y52639391D01*
X7153000Y53147391D02*
X7153000Y52639391D01*
X6971571Y53437676D02*
X6790142Y52893391D01*
X6790142Y52893391D02*
X7261857Y52893391D01*
D11*
X8867499Y20324288D02*
X8571166Y20747621D01*
X8359499Y20324288D02*
X8359499Y21213288D01*
X8359499Y21213288D02*
X8698166Y21213288D01*
X8698166Y21213288D02*
X8782833Y21170955D01*
X8782833Y21170955D02*
X8825166Y21128621D01*
X8825166Y21128621D02*
X8867499Y21043955D01*
X8867499Y21043955D02*
X8867499Y20916955D01*
X8867499Y20916955D02*
X8825166Y20832288D01*
X8825166Y20832288D02*
X8782833Y20789955D01*
X8782833Y20789955D02*
X8698166Y20747621D01*
X8698166Y20747621D02*
X8359499Y20747621D01*
X9714166Y20324288D02*
X9206166Y20324288D01*
X9460166Y20324288D02*
X9460166Y21213288D01*
X9460166Y21213288D02*
X9375499Y21086288D01*
X9375499Y21086288D02*
X9290833Y21001621D01*
X9290833Y21001621D02*
X9206166Y20959288D01*
X10560833Y20324288D02*
X10052833Y20324288D01*
X10306833Y20324288D02*
X10306833Y21213288D01*
X10306833Y21213288D02*
X10222166Y21086288D01*
X10222166Y21086288D02*
X10137500Y21001621D01*
X10137500Y21001621D02*
X10052833Y20959288D01*
X3361712Y48388834D02*
X2938379Y48092501D01*
X3361712Y47880834D02*
X2472712Y47880834D01*
X2472712Y47880834D02*
X2472712Y48219501D01*
X2472712Y48219501D02*
X2515045Y48304167D01*
X2515045Y48304167D02*
X2557379Y48346501D01*
X2557379Y48346501D02*
X2642045Y48388834D01*
X2642045Y48388834D02*
X2769045Y48388834D01*
X2769045Y48388834D02*
X2853712Y48346501D01*
X2853712Y48346501D02*
X2896045Y48304167D01*
X2896045Y48304167D02*
X2938379Y48219501D01*
X2938379Y48219501D02*
X2938379Y47880834D01*
X3361712Y49235501D02*
X3361712Y48727501D01*
X3361712Y48981501D02*
X2472712Y48981501D01*
X2472712Y48981501D02*
X2599712Y48896834D01*
X2599712Y48896834D02*
X2684379Y48812167D01*
X2684379Y48812167D02*
X2726712Y48727501D01*
X3277045Y50928834D02*
X3319379Y50886501D01*
X3319379Y50886501D02*
X3361712Y50759501D01*
X3361712Y50759501D02*
X3361712Y50674834D01*
X3361712Y50674834D02*
X3319379Y50547834D01*
X3319379Y50547834D02*
X3234712Y50463167D01*
X3234712Y50463167D02*
X3150045Y50420834D01*
X3150045Y50420834D02*
X2980712Y50378501D01*
X2980712Y50378501D02*
X2853712Y50378501D01*
X2853712Y50378501D02*
X2684379Y50420834D01*
X2684379Y50420834D02*
X2599712Y50463167D01*
X2599712Y50463167D02*
X2515045Y50547834D01*
X2515045Y50547834D02*
X2472712Y50674834D01*
X2472712Y50674834D02*
X2472712Y50759501D01*
X2472712Y50759501D02*
X2515045Y50886501D01*
X2515045Y50886501D02*
X2557379Y50928834D01*
X3361712Y51775501D02*
X3361712Y51267501D01*
X3361712Y51521501D02*
X2472712Y51521501D01*
X2472712Y51521501D02*
X2599712Y51436834D01*
X2599712Y51436834D02*
X2684379Y51352167D01*
X2684379Y51352167D02*
X2726712Y51267501D01*
D10*
X2822904Y45540188D02*
X2822904Y44717711D01*
X2822904Y44717711D02*
X2871285Y44620949D01*
X2871285Y44620949D02*
X2919666Y44572568D01*
X2919666Y44572568D02*
X3016428Y44524188D01*
X3016428Y44524188D02*
X3209952Y44524188D01*
X3209952Y44524188D02*
X3306714Y44572568D01*
X3306714Y44572568D02*
X3355095Y44620949D01*
X3355095Y44620949D02*
X3403476Y44717711D01*
X3403476Y44717711D02*
X3403476Y45540188D01*
X4419476Y44524188D02*
X3838904Y44524188D01*
X4129190Y44524188D02*
X4129190Y45540188D01*
X4129190Y45540188D02*
X4032428Y45395045D01*
X4032428Y45395045D02*
X3935666Y45298283D01*
X3935666Y45298283D02*
X3838904Y45249902D01*
X4058847Y43954453D02*
X4155609Y43906072D01*
X4155609Y43906072D02*
X4203990Y43857692D01*
X4203990Y43857692D02*
X4252371Y43760930D01*
X4252371Y43760930D02*
X4252371Y43470644D01*
X4252371Y43470644D02*
X4203990Y43373882D01*
X4203990Y43373882D02*
X4155609Y43325501D01*
X4155609Y43325501D02*
X4058847Y43277120D01*
X4058847Y43277120D02*
X3913704Y43277120D01*
X3913704Y43277120D02*
X3816942Y43325501D01*
X3816942Y43325501D02*
X3768561Y43373882D01*
X3768561Y43373882D02*
X3720180Y43470644D01*
X3720180Y43470644D02*
X3720180Y43760930D01*
X3720180Y43760930D02*
X3768561Y43857692D01*
X3768561Y43857692D02*
X3816942Y43906072D01*
X3816942Y43906072D02*
X3913704Y43954453D01*
X3913704Y43954453D02*
X4058847Y43954453D01*
D12*
X5574571Y47740819D02*
X5610857Y47777105D01*
X5610857Y47777105D02*
X5683429Y47813391D01*
X5683429Y47813391D02*
X5864857Y47813391D01*
X5864857Y47813391D02*
X5937429Y47777105D01*
X5937429Y47777105D02*
X5973714Y47740819D01*
X5973714Y47740819D02*
X6010000Y47668248D01*
X6010000Y47668248D02*
X6010000Y47595676D01*
X6010000Y47595676D02*
X5973714Y47486819D01*
X5973714Y47486819D02*
X5538286Y47051391D01*
X5538286Y47051391D02*
X6010000Y47051391D01*
X6481714Y47813391D02*
X6554285Y47813391D01*
X6554285Y47813391D02*
X6626857Y47777105D01*
X6626857Y47777105D02*
X6663143Y47740819D01*
X6663143Y47740819D02*
X6699428Y47668248D01*
X6699428Y47668248D02*
X6735714Y47523105D01*
X6735714Y47523105D02*
X6735714Y47341676D01*
X6735714Y47341676D02*
X6699428Y47196534D01*
X6699428Y47196534D02*
X6663143Y47123962D01*
X6663143Y47123962D02*
X6626857Y47087676D01*
X6626857Y47087676D02*
X6554285Y47051391D01*
X6554285Y47051391D02*
X6481714Y47051391D01*
X6481714Y47051391D02*
X6409143Y47087676D01*
X6409143Y47087676D02*
X6372857Y47123962D01*
X6372857Y47123962D02*
X6336571Y47196534D01*
X6336571Y47196534D02*
X6300285Y47341676D01*
X6300285Y47341676D02*
X6300285Y47523105D01*
X6300285Y47523105D02*
X6336571Y47668248D01*
X6336571Y47668248D02*
X6372857Y47740819D01*
X6372857Y47740819D02*
X6409143Y47777105D01*
X6409143Y47777105D02*
X6481714Y47813391D01*
X7171142Y47486819D02*
X7098571Y47523105D01*
X7098571Y47523105D02*
X7062285Y47559391D01*
X7062285Y47559391D02*
X7025999Y47631962D01*
X7025999Y47631962D02*
X7025999Y47668248D01*
X7025999Y47668248D02*
X7062285Y47740819D01*
X7062285Y47740819D02*
X7098571Y47777105D01*
X7098571Y47777105D02*
X7171142Y47813391D01*
X7171142Y47813391D02*
X7316285Y47813391D01*
X7316285Y47813391D02*
X7388857Y47777105D01*
X7388857Y47777105D02*
X7425142Y47740819D01*
X7425142Y47740819D02*
X7461428Y47668248D01*
X7461428Y47668248D02*
X7461428Y47631962D01*
X7461428Y47631962D02*
X7425142Y47559391D01*
X7425142Y47559391D02*
X7388857Y47523105D01*
X7388857Y47523105D02*
X7316285Y47486819D01*
X7316285Y47486819D02*
X7171142Y47486819D01*
X7171142Y47486819D02*
X7098571Y47450534D01*
X7098571Y47450534D02*
X7062285Y47414248D01*
X7062285Y47414248D02*
X7025999Y47341676D01*
X7025999Y47341676D02*
X7025999Y47196534D01*
X7025999Y47196534D02*
X7062285Y47123962D01*
X7062285Y47123962D02*
X7098571Y47087676D01*
X7098571Y47087676D02*
X7171142Y47051391D01*
X7171142Y47051391D02*
X7316285Y47051391D01*
X7316285Y47051391D02*
X7388857Y47087676D01*
X7388857Y47087676D02*
X7425142Y47123962D01*
X7425142Y47123962D02*
X7461428Y47196534D01*
X7461428Y47196534D02*
X7461428Y47341676D01*
X7461428Y47341676D02*
X7425142Y47414248D01*
X7425142Y47414248D02*
X7388857Y47450534D01*
X7388857Y47450534D02*
X7316285Y47486819D01*
X7787999Y47051391D02*
X7787999Y47559391D01*
X7787999Y47486819D02*
X7824285Y47523105D01*
X7824285Y47523105D02*
X7896856Y47559391D01*
X7896856Y47559391D02*
X8005713Y47559391D01*
X8005713Y47559391D02*
X8078285Y47523105D01*
X8078285Y47523105D02*
X8114571Y47450534D01*
X8114571Y47450534D02*
X8114571Y47051391D01*
X8114571Y47450534D02*
X8150856Y47523105D01*
X8150856Y47523105D02*
X8223428Y47559391D01*
X8223428Y47559391D02*
X8332285Y47559391D01*
X8332285Y47559391D02*
X8404856Y47523105D01*
X8404856Y47523105D02*
X8441142Y47450534D01*
X8441142Y47450534D02*
X8441142Y47051391D01*
X8803999Y47051391D02*
X8803999Y47559391D01*
X8803999Y47813391D02*
X8767713Y47777105D01*
X8767713Y47777105D02*
X8803999Y47740819D01*
X8803999Y47740819D02*
X8840285Y47777105D01*
X8840285Y47777105D02*
X8803999Y47813391D01*
X8803999Y47813391D02*
X8803999Y47740819D01*
X9275713Y47051391D02*
X9203142Y47087676D01*
X9203142Y47087676D02*
X9166856Y47160248D01*
X9166856Y47160248D02*
X9166856Y47813391D01*
D13*
X5471761Y48252927D02*
X5616904Y48204547D01*
X5616904Y48204547D02*
X5858809Y48204547D01*
X5858809Y48204547D02*
X5955571Y48252927D01*
X5955571Y48252927D02*
X6003952Y48301308D01*
X6003952Y48301308D02*
X6052333Y48398070D01*
X6052333Y48398070D02*
X6052333Y48494832D01*
X6052333Y48494832D02*
X6003952Y48591594D01*
X6003952Y48591594D02*
X5955571Y48639975D01*
X5955571Y48639975D02*
X5858809Y48688356D01*
X5858809Y48688356D02*
X5665285Y48736737D01*
X5665285Y48736737D02*
X5568523Y48785118D01*
X5568523Y48785118D02*
X5520142Y48833499D01*
X5520142Y48833499D02*
X5471761Y48930261D01*
X5471761Y48930261D02*
X5471761Y49027023D01*
X5471761Y49027023D02*
X5520142Y49123785D01*
X5520142Y49123785D02*
X5568523Y49172166D01*
X5568523Y49172166D02*
X5665285Y49220547D01*
X5665285Y49220547D02*
X5907190Y49220547D01*
X5907190Y49220547D02*
X6052333Y49172166D01*
X6681285Y49220547D02*
X6874809Y49220547D01*
X6874809Y49220547D02*
X6971571Y49172166D01*
X6971571Y49172166D02*
X7068333Y49075404D01*
X7068333Y49075404D02*
X7116714Y48881880D01*
X7116714Y48881880D02*
X7116714Y48543213D01*
X7116714Y48543213D02*
X7068333Y48349689D01*
X7068333Y48349689D02*
X6971571Y48252927D01*
X6971571Y48252927D02*
X6874809Y48204547D01*
X6874809Y48204547D02*
X6681285Y48204547D01*
X6681285Y48204547D02*
X6584523Y48252927D01*
X6584523Y48252927D02*
X6487761Y48349689D01*
X6487761Y48349689D02*
X6439380Y48543213D01*
X6439380Y48543213D02*
X6439380Y48881880D01*
X6439380Y48881880D02*
X6487761Y49075404D01*
X6487761Y49075404D02*
X6584523Y49172166D01*
X6584523Y49172166D02*
X6681285Y49220547D01*
X7552142Y48591594D02*
X8326238Y48591594D01*
X8955190Y48785118D02*
X8858428Y48833499D01*
X8858428Y48833499D02*
X8810047Y48881880D01*
X8810047Y48881880D02*
X8761666Y48978642D01*
X8761666Y48978642D02*
X8761666Y49027023D01*
X8761666Y49027023D02*
X8810047Y49123785D01*
X8810047Y49123785D02*
X8858428Y49172166D01*
X8858428Y49172166D02*
X8955190Y49220547D01*
X8955190Y49220547D02*
X9148714Y49220547D01*
X9148714Y49220547D02*
X9245476Y49172166D01*
X9245476Y49172166D02*
X9293857Y49123785D01*
X9293857Y49123785D02*
X9342238Y49027023D01*
X9342238Y49027023D02*
X9342238Y48978642D01*
X9342238Y48978642D02*
X9293857Y48881880D01*
X9293857Y48881880D02*
X9245476Y48833499D01*
X9245476Y48833499D02*
X9148714Y48785118D01*
X9148714Y48785118D02*
X8955190Y48785118D01*
X8955190Y48785118D02*
X8858428Y48736737D01*
X8858428Y48736737D02*
X8810047Y48688356D01*
X8810047Y48688356D02*
X8761666Y48591594D01*
X8761666Y48591594D02*
X8761666Y48398070D01*
X8761666Y48398070D02*
X8810047Y48301308D01*
X8810047Y48301308D02*
X8858428Y48252927D01*
X8858428Y48252927D02*
X8955190Y48204547D01*
X8955190Y48204547D02*
X9148714Y48204547D01*
X9148714Y48204547D02*
X9245476Y48252927D01*
X9245476Y48252927D02*
X9293857Y48301308D01*
X9293857Y48301308D02*
X9342238Y48398070D01*
X9342238Y48398070D02*
X9342238Y48591594D01*
X9342238Y48591594D02*
X9293857Y48688356D01*
X9293857Y48688356D02*
X9245476Y48736737D01*
X9245476Y48736737D02*
X9148714Y48785118D01*
X10954533Y28664351D02*
X10683600Y29051398D01*
X10490076Y28664351D02*
X10490076Y29477151D01*
X10490076Y29477151D02*
X10799714Y29477151D01*
X10799714Y29477151D02*
X10877124Y29438446D01*
X10877124Y29438446D02*
X10915829Y29399741D01*
X10915829Y29399741D02*
X10954533Y29322332D01*
X10954533Y29322332D02*
X10954533Y29206217D01*
X10954533Y29206217D02*
X10915829Y29128808D01*
X10915829Y29128808D02*
X10877124Y29090103D01*
X10877124Y29090103D02*
X10799714Y29051398D01*
X10799714Y29051398D02*
X10490076Y29051398D01*
X11341581Y28664351D02*
X11496400Y28664351D01*
X11496400Y28664351D02*
X11573810Y28703055D01*
X11573810Y28703055D02*
X11612514Y28741760D01*
X11612514Y28741760D02*
X11689924Y28857875D01*
X11689924Y28857875D02*
X11728629Y29012694D01*
X11728629Y29012694D02*
X11728629Y29322332D01*
X11728629Y29322332D02*
X11689924Y29399741D01*
X11689924Y29399741D02*
X11651219Y29438446D01*
X11651219Y29438446D02*
X11573810Y29477151D01*
X11573810Y29477151D02*
X11418991Y29477151D01*
X11418991Y29477151D02*
X11341581Y29438446D01*
X11341581Y29438446D02*
X11302876Y29399741D01*
X11302876Y29399741D02*
X11264172Y29322332D01*
X11264172Y29322332D02*
X11264172Y29128808D01*
X11264172Y29128808D02*
X11302876Y29051398D01*
X11302876Y29051398D02*
X11341581Y29012694D01*
X11341581Y29012694D02*
X11418991Y28973989D01*
X11418991Y28973989D02*
X11573810Y28973989D01*
X11573810Y28973989D02*
X11651219Y29012694D01*
X11651219Y29012694D02*
X11689924Y29051398D01*
X11689924Y29051398D02*
X11728629Y29128808D01*
D12*
X2980143Y52711962D02*
X2943857Y52675676D01*
X2943857Y52675676D02*
X2835000Y52639391D01*
X2835000Y52639391D02*
X2762428Y52639391D01*
X2762428Y52639391D02*
X2653571Y52675676D01*
X2653571Y52675676D02*
X2581000Y52748248D01*
X2581000Y52748248D02*
X2544714Y52820819D01*
X2544714Y52820819D02*
X2508428Y52965962D01*
X2508428Y52965962D02*
X2508428Y53074819D01*
X2508428Y53074819D02*
X2544714Y53219962D01*
X2544714Y53219962D02*
X2581000Y53292534D01*
X2581000Y53292534D02*
X2653571Y53365105D01*
X2653571Y53365105D02*
X2762428Y53401391D01*
X2762428Y53401391D02*
X2835000Y53401391D01*
X2835000Y53401391D02*
X2943857Y53365105D01*
X2943857Y53365105D02*
X2980143Y53328819D01*
X3270428Y53328819D02*
X3306714Y53365105D01*
X3306714Y53365105D02*
X3379286Y53401391D01*
X3379286Y53401391D02*
X3560714Y53401391D01*
X3560714Y53401391D02*
X3633286Y53365105D01*
X3633286Y53365105D02*
X3669571Y53328819D01*
X3669571Y53328819D02*
X3705857Y53256248D01*
X3705857Y53256248D02*
X3705857Y53183676D01*
X3705857Y53183676D02*
X3669571Y53074819D01*
X3669571Y53074819D02*
X3234143Y52639391D01*
X3234143Y52639391D02*
X3705857Y52639391D01*
X4395285Y53401391D02*
X4032428Y53401391D01*
X4032428Y53401391D02*
X3996142Y53038534D01*
X3996142Y53038534D02*
X4032428Y53074819D01*
X4032428Y53074819D02*
X4105000Y53111105D01*
X4105000Y53111105D02*
X4286428Y53111105D01*
X4286428Y53111105D02*
X4359000Y53074819D01*
X4359000Y53074819D02*
X4395285Y53038534D01*
X4395285Y53038534D02*
X4431571Y52965962D01*
X4431571Y52965962D02*
X4431571Y52784534D01*
X4431571Y52784534D02*
X4395285Y52711962D01*
X4395285Y52711962D02*
X4359000Y52675676D01*
X4359000Y52675676D02*
X4286428Y52639391D01*
X4286428Y52639391D02*
X4105000Y52639391D01*
X4105000Y52639391D02*
X4032428Y52675676D01*
X4032428Y52675676D02*
X3996142Y52711962D01*
X2246357Y58420120D02*
X2323330Y58856304D01*
X1938462Y58728014D02*
X2477278Y59266830D01*
X2477278Y59266830D02*
X2682541Y59061567D01*
X2682541Y59061567D02*
X2708198Y58984593D01*
X2708198Y58984593D02*
X2708198Y58933277D01*
X2708198Y58933277D02*
X2682541Y58856304D01*
X2682541Y58856304D02*
X2605567Y58779330D01*
X2605567Y58779330D02*
X2528593Y58753672D01*
X2528593Y58753672D02*
X2477278Y58753672D01*
X2477278Y58753672D02*
X2400304Y58779330D01*
X2400304Y58779330D02*
X2195041Y58984593D01*
X2759514Y57906962D02*
X2451620Y58214857D01*
X2605567Y58060910D02*
X3144382Y58599725D01*
X3144382Y58599725D02*
X3016093Y58574067D01*
X3016093Y58574067D02*
X2913461Y58574067D01*
X2913461Y58574067D02*
X2836488Y58599725D01*
X3580566Y57804331D02*
X3221356Y57445121D01*
X3657540Y58137884D02*
X3144382Y57881305D01*
X3144382Y57881305D02*
X3477935Y57547752D01*
D11*
G36*
X7849172Y1216828D02*
G01*
X7899324Y1166676D01*
X7930875Y1040474D01*
X7930875Y771503D01*
X7905594Y670381D01*
X7866577Y709398D01*
X7850529Y717575D01*
X7837697Y730214D01*
X7753030Y772548D01*
X7727697Y776364D01*
X7703333Y784280D01*
X7618666Y784280D01*
X7561876Y765828D01*
X7560458Y771501D01*
X7560458Y1040476D01*
X7592008Y1166677D01*
X7642158Y1216827D01*
X7687233Y1239363D01*
X7804101Y1239363D01*
X7849172Y1216828D01*
G37*
G36*
X11661352Y140199D02*
G01*
X7211208Y140199D01*
X7211208Y757821D01*
X7338208Y757821D01*
X7342481Y744667D01*
X7341526Y730869D01*
X7383859Y561537D01*
X7399608Y536368D01*
X7413089Y509911D01*
X7497756Y425244D01*
X7513804Y417067D01*
X7526637Y404428D01*
X7611304Y362095D01*
X7636634Y358280D01*
X7661000Y350363D01*
X7830333Y350363D01*
X7854698Y358280D01*
X7880029Y362095D01*
X7893057Y368610D01*
X7921089Y340578D01*
X7937136Y332402D01*
X7949969Y319762D01*
X8034636Y277428D01*
X8102549Y267199D01*
X8163504Y298842D01*
X8194219Y360271D01*
X8182961Y428020D01*
X8134030Y476214D01*
X8074374Y506043D01*
X8078244Y509912D01*
X8091725Y536371D01*
X8107473Y561536D01*
X8149807Y730869D01*
X8148851Y744667D01*
X8153125Y757821D01*
X8153125Y1054155D01*
X8148851Y1067310D01*
X8149807Y1081107D01*
X8107473Y1250440D01*
X8091725Y1275606D01*
X8078244Y1302064D01*
X8055560Y1324749D01*
X8230230Y1324749D01*
X8441896Y435749D01*
X8445891Y429202D01*
X8446302Y421540D01*
X8463478Y400382D01*
X8477671Y377123D01*
X8484752Y374175D01*
X8489587Y368219D01*
X8515913Y361199D01*
X8541072Y350722D01*
X8548534Y352499D01*
X8555948Y350522D01*
X8581379Y360320D01*
X8607884Y366630D01*
X8612876Y372454D01*
X8620035Y375211D01*
X8634848Y398081D01*
X8652585Y418769D01*
X8653201Y426416D01*
X8657372Y432855D01*
X8719332Y665207D01*
X8781293Y432855D01*
X8785463Y426416D01*
X8786080Y418769D01*
X8803816Y398081D01*
X8818630Y375211D01*
X8825788Y372454D01*
X8830781Y366630D01*
X8857285Y360320D01*
X8882717Y350522D01*
X8890130Y352499D01*
X8897593Y350722D01*
X8922751Y361199D01*
X8949078Y368219D01*
X8953912Y374174D01*
X8960994Y377123D01*
X8975188Y400385D01*
X8992362Y421540D01*
X8992772Y429201D01*
X8996769Y435749D01*
X9154088Y1096488D01*
X9285541Y1096488D01*
X9293457Y1072123D01*
X9297273Y1046792D01*
X9339605Y962125D01*
X9352245Y949291D01*
X9360423Y933243D01*
X9402757Y890910D01*
X9418803Y882734D01*
X9431636Y870095D01*
X9516302Y827762D01*
X9528548Y825918D01*
X9539047Y819348D01*
X9696546Y779973D01*
X9754174Y751159D01*
X9771004Y734329D01*
X9793541Y689255D01*
X9793541Y657054D01*
X9771004Y611981D01*
X9754174Y595150D01*
X9709100Y572613D01*
X9541698Y572613D01*
X9431807Y609244D01*
X9363129Y609765D01*
X9307263Y569819D01*
X9285544Y504664D01*
X9306271Y439188D01*
X9361525Y398398D01*
X9488526Y356065D01*
X9506537Y355929D01*
X9523666Y350363D01*
X9735333Y350363D01*
X9759697Y358280D01*
X9785030Y362095D01*
X9869695Y404428D01*
X9882527Y417067D01*
X9898576Y425244D01*
X9940910Y467578D01*
X9949086Y483625D01*
X9961726Y496458D01*
X10004059Y581124D01*
X10007874Y606457D01*
X10015791Y630821D01*
X10015791Y715488D01*
X10007874Y739854D01*
X10004059Y765184D01*
X9961726Y849851D01*
X9949088Y862682D01*
X9940910Y878733D01*
X9898575Y921066D01*
X9882526Y929243D01*
X9869695Y941881D01*
X9785030Y984214D01*
X9772783Y986059D01*
X9762285Y992628D01*
X9604783Y1032004D01*
X9547158Y1060817D01*
X9530326Y1077649D01*
X9507791Y1122720D01*
X9507791Y1154922D01*
X9530328Y1199996D01*
X9547158Y1216827D01*
X9592231Y1239363D01*
X9759631Y1239363D01*
X9869526Y1202732D01*
X9938203Y1202211D01*
X9994070Y1242156D01*
X10015788Y1307312D01*
X10012991Y1316148D01*
X10052980Y1316148D01*
X10093348Y1260586D01*
X10158666Y1239363D01*
X10301541Y1239363D01*
X10301541Y461488D01*
X10322764Y396170D01*
X10378326Y355802D01*
X10447006Y355802D01*
X10502568Y396170D01*
X10523791Y461488D01*
X10523791Y1079939D01*
X10810780Y1079939D01*
X10841495Y1018510D01*
X10902449Y986866D01*
X10970362Y997095D01*
X11055029Y1039427D01*
X11063541Y1047811D01*
X11063541Y572613D01*
X10920666Y572613D01*
X10855348Y551390D01*
X10814980Y495828D01*
X10814980Y427148D01*
X10855348Y371586D01*
X10920666Y350363D01*
X11428666Y350363D01*
X11493984Y371586D01*
X11534352Y427148D01*
X11534352Y495828D01*
X11493984Y551390D01*
X11428666Y572613D01*
X11285791Y572613D01*
X11285791Y1350488D01*
X11285067Y1352714D01*
X11285701Y1354967D01*
X11274519Y1385179D01*
X11264568Y1415806D01*
X11262674Y1417182D01*
X11261863Y1419375D01*
X11235075Y1437234D01*
X11209006Y1456174D01*
X11206665Y1456174D01*
X11204718Y1457472D01*
X11172539Y1456174D01*
X11140326Y1456174D01*
X11138432Y1454799D01*
X11136095Y1454704D01*
X11110827Y1434743D01*
X11084764Y1415806D01*
X11084040Y1413581D01*
X11082204Y1412129D01*
X11003641Y1294285D01*
X10939505Y1230149D01*
X10870970Y1195881D01*
X10822039Y1147688D01*
X10810780Y1079939D01*
X10523791Y1079939D01*
X10523791Y1239363D01*
X10666666Y1239363D01*
X10731984Y1260586D01*
X10772352Y1316148D01*
X10772352Y1384828D01*
X10731984Y1440390D01*
X10666666Y1461613D01*
X10158666Y1461613D01*
X10093348Y1440390D01*
X10052980Y1384828D01*
X10052980Y1316148D01*
X10012991Y1316148D01*
X9995062Y1372788D01*
X9939807Y1413577D01*
X9812807Y1455911D01*
X9794794Y1456048D01*
X9777666Y1461613D01*
X9565999Y1461613D01*
X9541634Y1453697D01*
X9516302Y1449881D01*
X9431636Y1407548D01*
X9418802Y1394909D01*
X9402756Y1386732D01*
X9360422Y1344398D01*
X9352244Y1328350D01*
X9339606Y1315517D01*
X9297273Y1230852D01*
X9293457Y1205520D01*
X9285541Y1181155D01*
X9285541Y1096488D01*
X9154088Y1096488D01*
X9208436Y1324749D01*
X9202919Y1393206D01*
X9158218Y1445346D01*
X9091406Y1461254D01*
X9028005Y1434853D01*
X8992230Y1376227D01*
X8882566Y915643D01*
X8826706Y1125121D01*
X8823358Y1130290D01*
X8823029Y1136436D01*
X8804957Y1158698D01*
X8789369Y1182765D01*
X8783624Y1184979D01*
X8779745Y1189757D01*
X8752046Y1197144D01*
X8725282Y1207454D01*
X8719331Y1205868D01*
X8713384Y1207453D01*
X8686627Y1197146D01*
X8658921Y1189757D01*
X8655041Y1184978D01*
X8649297Y1182765D01*
X8633708Y1158698D01*
X8615637Y1136436D01*
X8615307Y1130290D01*
X8611960Y1125121D01*
X8556098Y915643D01*
X8446436Y1376227D01*
X8410661Y1434853D01*
X8347260Y1461254D01*
X8280448Y1445346D01*
X8235747Y1393207D01*
X8230230Y1324749D01*
X8055560Y1324749D01*
X7993578Y1386732D01*
X7977528Y1394910D01*
X7964696Y1407549D01*
X7880029Y1449881D01*
X7854698Y1453697D01*
X7830333Y1461613D01*
X7661000Y1461613D01*
X7636634Y1453697D01*
X7611304Y1449881D01*
X7526637Y1407548D01*
X7513804Y1394910D01*
X7497756Y1386732D01*
X7413089Y1302065D01*
X7399608Y1275609D01*
X7383859Y1250439D01*
X7341526Y1081107D01*
X7342481Y1067310D01*
X7338208Y1054155D01*
X7338208Y757821D01*
X7211208Y757821D01*
X7211208Y1588613D01*
X11661352Y1588613D01*
X11661352Y140199D01*
G37*
D10*
G36*
X6825136Y1021045D02*
G01*
X5701650Y1021045D01*
X5701650Y2014427D01*
X5846793Y2014427D01*
X5869361Y1946518D01*
X5925060Y1901592D01*
X5996207Y1893909D01*
X6030510Y1905310D01*
X6127272Y1953691D01*
X6129014Y1955312D01*
X6131341Y1955818D01*
X6137000Y1960055D01*
X6137000Y1420188D01*
X5973714Y1420188D01*
X5905053Y1400027D01*
X5858191Y1345946D01*
X5848007Y1275114D01*
X5877734Y1210021D01*
X5937934Y1171332D01*
X5973714Y1166188D01*
X6554286Y1166188D01*
X6622947Y1186349D01*
X6669809Y1240430D01*
X6679993Y1311262D01*
X6650266Y1376355D01*
X6590066Y1415044D01*
X6554286Y1420188D01*
X6391000Y1420188D01*
X6391000Y2309188D01*
X6381210Y2342529D01*
X6371978Y2376044D01*
X6371151Y2376785D01*
X6370839Y2377849D01*
X6344562Y2400618D01*
X6318691Y2423808D01*
X6317596Y2423985D01*
X6316758Y2424711D01*
X6282348Y2429659D01*
X6248041Y2435181D01*
X6247024Y2434738D01*
X6245926Y2434895D01*
X6214317Y2420461D01*
X6182457Y2406552D01*
X6181482Y2405465D01*
X6180833Y2405168D01*
X6179861Y2403657D01*
X6158330Y2379635D01*
X6068544Y2244957D01*
X5995244Y2171658D01*
X5916918Y2132494D01*
X5864522Y2083756D01*
X5846793Y2014427D01*
X5701650Y2014427D01*
X5701650Y2580324D01*
X6825136Y2580324D01*
X6825136Y1021045D01*
G37*
D11*
X15596045Y38821500D02*
X15638379Y38779167D01*
X15638379Y38779167D02*
X15680712Y38652167D01*
X15680712Y38652167D02*
X15680712Y38567500D01*
X15680712Y38567500D02*
X15638379Y38440500D01*
X15638379Y38440500D02*
X15553712Y38355833D01*
X15553712Y38355833D02*
X15469045Y38313500D01*
X15469045Y38313500D02*
X15299712Y38271167D01*
X15299712Y38271167D02*
X15172712Y38271167D01*
X15172712Y38271167D02*
X15003379Y38313500D01*
X15003379Y38313500D02*
X14918712Y38355833D01*
X14918712Y38355833D02*
X14834045Y38440500D01*
X14834045Y38440500D02*
X14791712Y38567500D01*
X14791712Y38567500D02*
X14791712Y38652167D01*
X14791712Y38652167D02*
X14834045Y38779167D01*
X14834045Y38779167D02*
X14876379Y38821500D01*
X15680712Y39668167D02*
X15680712Y39160167D01*
X15680712Y39414167D02*
X14791712Y39414167D01*
X14791712Y39414167D02*
X14918712Y39329500D01*
X14918712Y39329500D02*
X15003379Y39244833D01*
X15003379Y39244833D02*
X15045712Y39160167D01*
X15680712Y40091500D02*
X15680712Y40260834D01*
X15680712Y40260834D02*
X15638379Y40345500D01*
X15638379Y40345500D02*
X15596045Y40387834D01*
X15596045Y40387834D02*
X15469045Y40472500D01*
X15469045Y40472500D02*
X15299712Y40514834D01*
X15299712Y40514834D02*
X14961045Y40514834D01*
X14961045Y40514834D02*
X14876379Y40472500D01*
X14876379Y40472500D02*
X14834045Y40430167D01*
X14834045Y40430167D02*
X14791712Y40345500D01*
X14791712Y40345500D02*
X14791712Y40176167D01*
X14791712Y40176167D02*
X14834045Y40091500D01*
X14834045Y40091500D02*
X14876379Y40049167D01*
X14876379Y40049167D02*
X14961045Y40006834D01*
X14961045Y40006834D02*
X15172712Y40006834D01*
X15172712Y40006834D02*
X15257379Y40049167D01*
X15257379Y40049167D02*
X15299712Y40091500D01*
X15299712Y40091500D02*
X15342045Y40176167D01*
X15342045Y40176167D02*
X15342045Y40345500D01*
X15342045Y40345500D02*
X15299712Y40430167D01*
X15299712Y40430167D02*
X15257379Y40472500D01*
X15257379Y40472500D02*
X15172712Y40514834D01*
X6115833Y25361955D02*
X6073500Y25319621D01*
X6073500Y25319621D02*
X5946500Y25277288D01*
X5946500Y25277288D02*
X5861833Y25277288D01*
X5861833Y25277288D02*
X5734833Y25319621D01*
X5734833Y25319621D02*
X5650167Y25404288D01*
X5650167Y25404288D02*
X5607833Y25488955D01*
X5607833Y25488955D02*
X5565500Y25658288D01*
X5565500Y25658288D02*
X5565500Y25785288D01*
X5565500Y25785288D02*
X5607833Y25954621D01*
X5607833Y25954621D02*
X5650167Y26039288D01*
X5650167Y26039288D02*
X5734833Y26123955D01*
X5734833Y26123955D02*
X5861833Y26166288D01*
X5861833Y26166288D02*
X5946500Y26166288D01*
X5946500Y26166288D02*
X6073500Y26123955D01*
X6073500Y26123955D02*
X6115833Y26081621D01*
X6877833Y26166288D02*
X6708500Y26166288D01*
X6708500Y26166288D02*
X6623833Y26123955D01*
X6623833Y26123955D02*
X6581500Y26081621D01*
X6581500Y26081621D02*
X6496833Y25954621D01*
X6496833Y25954621D02*
X6454500Y25785288D01*
X6454500Y25785288D02*
X6454500Y25446621D01*
X6454500Y25446621D02*
X6496833Y25361955D01*
X6496833Y25361955D02*
X6539167Y25319621D01*
X6539167Y25319621D02*
X6623833Y25277288D01*
X6623833Y25277288D02*
X6793167Y25277288D01*
X6793167Y25277288D02*
X6877833Y25319621D01*
X6877833Y25319621D02*
X6920167Y25361955D01*
X6920167Y25361955D02*
X6962500Y25446621D01*
X6962500Y25446621D02*
X6962500Y25658288D01*
X6962500Y25658288D02*
X6920167Y25742955D01*
X6920167Y25742955D02*
X6877833Y25785288D01*
X6877833Y25785288D02*
X6793167Y25827621D01*
X6793167Y25827621D02*
X6623833Y25827621D01*
X6623833Y25827621D02*
X6539167Y25785288D01*
X6539167Y25785288D02*
X6496833Y25742955D01*
X6496833Y25742955D02*
X6454500Y25658288D01*
D13*
X6128533Y28767160D02*
X6089829Y28728455D01*
X6089829Y28728455D02*
X5973714Y28689751D01*
X5973714Y28689751D02*
X5896305Y28689751D01*
X5896305Y28689751D02*
X5780191Y28728455D01*
X5780191Y28728455D02*
X5702781Y28805865D01*
X5702781Y28805865D02*
X5664076Y28883275D01*
X5664076Y28883275D02*
X5625372Y29038094D01*
X5625372Y29038094D02*
X5625372Y29154208D01*
X5625372Y29154208D02*
X5664076Y29309027D01*
X5664076Y29309027D02*
X5702781Y29386436D01*
X5702781Y29386436D02*
X5780191Y29463846D01*
X5780191Y29463846D02*
X5896305Y29502551D01*
X5896305Y29502551D02*
X5973714Y29502551D01*
X5973714Y29502551D02*
X6089829Y29463846D01*
X6089829Y29463846D02*
X6128533Y29425141D01*
X6863924Y29502551D02*
X6476876Y29502551D01*
X6476876Y29502551D02*
X6438172Y29115503D01*
X6438172Y29115503D02*
X6476876Y29154208D01*
X6476876Y29154208D02*
X6554286Y29192913D01*
X6554286Y29192913D02*
X6747810Y29192913D01*
X6747810Y29192913D02*
X6825219Y29154208D01*
X6825219Y29154208D02*
X6863924Y29115503D01*
X6863924Y29115503D02*
X6902629Y29038094D01*
X6902629Y29038094D02*
X6902629Y28844570D01*
X6902629Y28844570D02*
X6863924Y28767160D01*
X6863924Y28767160D02*
X6825219Y28728455D01*
X6825219Y28728455D02*
X6747810Y28689751D01*
X6747810Y28689751D02*
X6554286Y28689751D01*
X6554286Y28689751D02*
X6476876Y28728455D01*
X6476876Y28728455D02*
X6438172Y28767160D01*
D10*
%TO.C,LED1*%
X12444500Y47437900D02*
X11619000Y47437900D01*
X11479300Y47590300D02*
X11606300Y47450600D01*
X12571500Y47590300D02*
X12444500Y47437900D01*
D15*
X11415800Y47603000D02*
X11415800Y48619000D01*
D10*
X11517400Y47603000D02*
X12558800Y47603000D01*
D15*
X12635000Y48619000D02*
X12635000Y47603000D01*
D16*
X11754400Y48822200D02*
X11644400Y48952200D01*
D17*
X12110000Y48900000D02*
X11890000Y48900000D01*
D16*
X11645400Y48953800D02*
X11655400Y48873800D01*
X11645400Y48953800D02*
X11725400Y48953800D01*
X11775400Y49029200D02*
X11665400Y49159200D01*
D17*
X11890000Y49090000D02*
X11990000Y48990000D01*
X12110000Y49090000D02*
X12010000Y48980000D01*
X12110000Y49090000D02*
X11890000Y49090000D01*
D16*
X11645400Y49169200D02*
X11655400Y49089200D01*
X11645400Y49169200D02*
X11725400Y49169200D01*
D17*
X12000000Y49260000D02*
X12000000Y48740000D01*
D10*
%TO.C,D1*%
X15361000Y54292000D02*
X15361000Y59292000D01*
X12661000Y55662000D02*
X15361000Y55662000D01*
X12661000Y56102000D02*
X15361000Y56102000D01*
X12661000Y59292000D02*
X12661000Y54292000D01*
D18*
%TO.C,R18*%
X14836500Y4976000D02*
X14836500Y4468000D01*
X13947500Y4976000D02*
X13947500Y4468000D01*
%TO.C,R17*%
X13947500Y4976000D02*
X13947500Y4468000D01*
X13058500Y4976000D02*
X13058500Y4468000D01*
D10*
%TO.C,RST1*%
X6700000Y19100000D02*
X6600000Y19100000D01*
X6700000Y19100000D02*
X6700000Y14900000D01*
X4500000Y19100000D02*
X5500000Y19100000D01*
X3400000Y19100000D02*
X3300000Y19100000D01*
X3300000Y19100000D02*
X3300000Y14900000D01*
X6700000Y14900000D02*
X6600000Y14900000D01*
X4500000Y14900000D02*
X5500000Y14900000D01*
X3300000Y14900000D02*
X3400000Y14900000D01*
D18*
%TO.C,R5*%
X6391000Y59014500D02*
X6899000Y59014500D01*
X6391000Y58125500D02*
X6899000Y58125500D01*
%TO.C,R12*%
X11725000Y58125500D02*
X11217000Y58125500D01*
X11725000Y59014500D02*
X11217000Y59014500D01*
D10*
%TO.C,pUEXT1*%
X4451000Y12800000D02*
X13849000Y12800000D01*
X13849000Y10746000D02*
X4451000Y10746000D01*
X4451000Y12800000D01*
X13849000Y12800000D01*
X13849000Y10746000D01*
G36*
X13849000Y10746000D02*
G01*
X4451000Y10746000D01*
X4451000Y12800000D01*
X13849000Y12800000D01*
X13849000Y10746000D01*
G37*
%TO.C,BOOT1*%
X14700000Y19100000D02*
X14600000Y19100000D01*
X14700000Y19100000D02*
X14700000Y14900000D01*
X12500000Y19100000D02*
X13500000Y19100000D01*
X11400000Y19100000D02*
X11300000Y19100000D01*
X11300000Y19100000D02*
X11300000Y14900000D01*
X14700000Y14900000D02*
X14600000Y14900000D01*
X12500000Y14900000D02*
X13500000Y14900000D01*
X11300000Y14900000D02*
X11400000Y14900000D01*
D18*
%TO.C,R15*%
X11661500Y51204000D02*
X11661500Y51712000D01*
X12550500Y51204000D02*
X12550500Y51712000D01*
D10*
%TO.C,USB-C1*%
X4680000Y63950000D02*
X4680000Y65250000D01*
X13620000Y63950000D02*
X13620000Y65250000D01*
X13620000Y67950000D02*
X13620000Y69818000D01*
X4680000Y69818000D02*
X4680000Y67950000D01*
X13620000Y69818000D02*
X4680000Y69818000D01*
D18*
%TO.C,R13*%
X4994000Y56728500D02*
X4486000Y56728500D01*
X4994000Y57617500D02*
X4486000Y57617500D01*
%TO.C,C14*%
X13947500Y43711000D02*
X13947500Y43203000D01*
X13058500Y43711000D02*
X13058500Y43203000D01*
D10*
%TO.C,SWD1*%
X15535000Y28210000D02*
X12995000Y28210000D01*
X15535000Y28210000D02*
X15535000Y27956000D01*
X15281000Y28210000D02*
X15535000Y27956000D01*
X15535000Y27956000D02*
X15535000Y25924000D01*
X12995000Y27956000D02*
X13249000Y28210000D01*
X12995000Y27702000D02*
X12995000Y28210000D01*
X15535000Y25924000D02*
X15281000Y25670000D01*
X12995000Y25924000D02*
X12995000Y27702000D01*
X15281000Y25670000D02*
X15535000Y25416000D01*
X13249000Y25670000D02*
X12995000Y25924000D01*
X15535000Y25416000D02*
X15535000Y23384000D01*
X12995000Y25416000D02*
X13249000Y25670000D01*
X15535000Y23384000D02*
X15281000Y23130000D01*
X12995000Y23384000D02*
X12995000Y25416000D01*
X12995000Y23384000D02*
X13249000Y23130000D01*
X15281000Y23130000D02*
X15535000Y22876000D01*
X13249000Y23130000D02*
X12995000Y22876000D01*
X15535000Y22876000D02*
X15535000Y20844000D01*
X15535000Y20844000D02*
X15281000Y20590000D01*
X12995000Y20844000D02*
X12995000Y22876000D01*
X15281000Y20590000D02*
X13249000Y20590000D01*
X13249000Y20590000D02*
X12995000Y20844000D01*
%TO.C,L1*%
X12779000Y44015000D02*
X12779000Y43915000D01*
X11179000Y44015000D02*
X11179000Y43915000D01*
D18*
%TO.C,R2*%
X6645000Y20660500D02*
X6137000Y20660500D01*
X6645000Y21549500D02*
X6137000Y21549500D01*
D10*
%TO.C,Q1*%
X9108800Y24407000D02*
X9515200Y24407000D01*
X9108800Y26947000D02*
X9515200Y26947000D01*
D18*
%TO.C,C21*%
X8804000Y27518500D02*
X8296000Y27518500D01*
X8804000Y28407500D02*
X8296000Y28407500D01*
%TO.C,FB1*%
X15725500Y43711000D02*
X15725500Y43203000D01*
X14836500Y43203000D02*
X14836500Y43711000D01*
%TO.C,Logo_OLIMEX_80*%
D19*
X3718920Y4875670D02*
X3718920Y4757560D01*
X3305535Y4757538D01*
X2892150Y4757516D01*
X2876910Y4734201D01*
X2857252Y4711413D01*
X2828503Y4686732D01*
X2795688Y4664010D01*
X2763832Y4647096D01*
X2762538Y4646549D01*
X2721265Y4636092D01*
X2674099Y4634886D01*
X2627025Y4642640D01*
X2594196Y4654735D01*
X2546060Y4685619D01*
X2503107Y4727067D01*
X2470009Y4774441D01*
X2466191Y4781757D01*
X2449542Y4831277D01*
X2445987Y4877126D01*
X2614020Y4877126D01*
X2615795Y4851471D01*
X2620328Y4830642D01*
X2623749Y4823368D01*
X2641745Y4810147D01*
X2668291Y4803167D01*
X2698067Y4802437D01*
X2725750Y4807968D01*
X2746017Y4819768D01*
X2748903Y4823138D01*
X2756686Y4843243D01*
X2759236Y4870749D01*
X2756849Y4899520D01*
X2749826Y4923420D01*
X2743560Y4932820D01*
X2728876Y4942675D01*
X2707419Y4947275D01*
X2686410Y4948060D01*
X2652215Y4944993D01*
X2630158Y4934425D01*
X2618143Y4914302D01*
X2614075Y4882571D01*
X2614020Y4877126D01*
X2445987Y4877126D01*
X2445396Y4884753D01*
X2453755Y4937427D01*
X2466191Y4969583D01*
X2499113Y5021067D01*
X2540105Y5061907D01*
X2587148Y5091544D01*
X2638225Y5109419D01*
X2691316Y5114973D01*
X2744402Y5107647D01*
X2795466Y5086880D01*
X2823262Y5068533D01*
X2846196Y5048762D01*
X2867011Y5027316D01*
X2873695Y5019091D01*
X2892150Y4994200D01*
X3305535Y4993990D01*
X3718920Y4993780D01*
X3718920Y4948060D01*
X3718920Y4875670D01*
G36*
X3718920Y4875670D02*
G01*
X3718920Y4757560D01*
X3305535Y4757538D01*
X2892150Y4757516D01*
X2876910Y4734201D01*
X2857252Y4711413D01*
X2828503Y4686732D01*
X2795688Y4664010D01*
X2763832Y4647096D01*
X2762538Y4646549D01*
X2721265Y4636092D01*
X2674099Y4634886D01*
X2627025Y4642640D01*
X2594196Y4654735D01*
X2546060Y4685619D01*
X2503107Y4727067D01*
X2470009Y4774441D01*
X2466191Y4781757D01*
X2449542Y4831277D01*
X2445987Y4877126D01*
X2614020Y4877126D01*
X2615795Y4851471D01*
X2620328Y4830642D01*
X2623749Y4823368D01*
X2641745Y4810147D01*
X2668291Y4803167D01*
X2698067Y4802437D01*
X2725750Y4807968D01*
X2746017Y4819768D01*
X2748903Y4823138D01*
X2756686Y4843243D01*
X2759236Y4870749D01*
X2756849Y4899520D01*
X2749826Y4923420D01*
X2743560Y4932820D01*
X2728876Y4942675D01*
X2707419Y4947275D01*
X2686410Y4948060D01*
X2652215Y4944993D01*
X2630158Y4934425D01*
X2618143Y4914302D01*
X2614075Y4882571D01*
X2614020Y4877126D01*
X2445987Y4877126D01*
X2445396Y4884753D01*
X2453755Y4937427D01*
X2466191Y4969583D01*
X2499113Y5021067D01*
X2540105Y5061907D01*
X2587148Y5091544D01*
X2638225Y5109419D01*
X2691316Y5114973D01*
X2744402Y5107647D01*
X2795466Y5086880D01*
X2823262Y5068533D01*
X2846196Y5048762D01*
X2867011Y5027316D01*
X2873695Y5019091D01*
X2892150Y4994200D01*
X3305535Y4993990D01*
X3718920Y4993780D01*
X3718920Y4948060D01*
X3718920Y4875670D01*
G37*
X4281373Y4935446D02*
X4287759Y4892351D01*
X4288100Y4848433D01*
X4282037Y4809990D01*
X4279017Y4800730D01*
X4263413Y4769232D01*
X4241225Y4736103D01*
X4216387Y4706560D01*
X4192832Y4685817D01*
X4191859Y4685170D01*
X4168544Y4669930D01*
X4168522Y4507760D01*
X4168244Y4448492D01*
X4167356Y4402586D01*
X4165749Y4368176D01*
X4163314Y4343391D01*
X4159944Y4326363D01*
X4157576Y4319445D01*
X4147940Y4304116D01*
X4129371Y4280862D01*
X4104070Y4251949D01*
X4074240Y4219643D01*
X4042086Y4186208D01*
X4009809Y4153910D01*
X3979613Y4125015D01*
X3953700Y4101788D01*
X3934274Y4086495D01*
X3926810Y4082136D01*
X3920064Y4080273D01*
X3908595Y4078637D01*
X3891517Y4077213D01*
X3867943Y4075988D01*
X3836986Y4074951D01*
X3797758Y4074086D01*
X3749374Y4073381D01*
X3690946Y4072822D01*
X3621586Y4072397D01*
X3540409Y4072091D01*
X3446528Y4071892D01*
X3339054Y4071787D01*
X3235295Y4071760D01*
X2568300Y4071760D01*
X2568300Y4189870D01*
X2568300Y4307980D01*
X3199059Y4307980D01*
X3829819Y4307980D01*
X3881049Y4359606D01*
X3932280Y4411232D01*
X3932258Y4540581D01*
X3932236Y4669930D01*
X3908921Y4685170D01*
X3886418Y4704566D01*
X3861925Y4732957D01*
X3839342Y4765281D01*
X3822566Y4796477D01*
X3821745Y4798403D01*
X3811890Y4837253D01*
X3810346Y4877126D01*
X3978000Y4877126D01*
X3979775Y4851471D01*
X3984308Y4830642D01*
X3987729Y4823368D01*
X4005725Y4810147D01*
X4032271Y4803167D01*
X4062047Y4802437D01*
X4089730Y4807968D01*
X4109997Y4819768D01*
X4112883Y4823138D01*
X4120666Y4843243D01*
X4123216Y4870749D01*
X4120829Y4899520D01*
X4113806Y4923420D01*
X4107540Y4932820D01*
X4092856Y4942675D01*
X4071399Y4947275D01*
X4050390Y4948060D01*
X4016195Y4944993D01*
X3994138Y4934425D01*
X3982123Y4914302D01*
X3978055Y4882571D01*
X3978000Y4877126D01*
X3810346Y4877126D01*
X3810131Y4882671D01*
X3816166Y4928507D01*
X3829692Y4968611D01*
X3830171Y4969583D01*
X3858717Y5014011D01*
X3896543Y5054501D01*
X3938904Y5086246D01*
X3953083Y5093992D01*
X3993328Y5107280D01*
X4040494Y5112842D01*
X4088673Y5110654D01*
X4131958Y5100694D01*
X4146142Y5094745D01*
X4182781Y5071207D01*
X4219332Y5038461D01*
X4250750Y5001560D01*
X4269300Y4971422D01*
X4277140Y4948060D01*
X4281373Y4935446D01*
G36*
X4281373Y4935446D02*
G01*
X4287759Y4892351D01*
X4288100Y4848433D01*
X4282037Y4809990D01*
X4279017Y4800730D01*
X4263413Y4769232D01*
X4241225Y4736103D01*
X4216387Y4706560D01*
X4192832Y4685817D01*
X4191859Y4685170D01*
X4168544Y4669930D01*
X4168522Y4507760D01*
X4168244Y4448492D01*
X4167356Y4402586D01*
X4165749Y4368176D01*
X4163314Y4343391D01*
X4159944Y4326363D01*
X4157576Y4319445D01*
X4147940Y4304116D01*
X4129371Y4280862D01*
X4104070Y4251949D01*
X4074240Y4219643D01*
X4042086Y4186208D01*
X4009809Y4153910D01*
X3979613Y4125015D01*
X3953700Y4101788D01*
X3934274Y4086495D01*
X3926810Y4082136D01*
X3920064Y4080273D01*
X3908595Y4078637D01*
X3891517Y4077213D01*
X3867943Y4075988D01*
X3836986Y4074951D01*
X3797758Y4074086D01*
X3749374Y4073381D01*
X3690946Y4072822D01*
X3621586Y4072397D01*
X3540409Y4072091D01*
X3446528Y4071892D01*
X3339054Y4071787D01*
X3235295Y4071760D01*
X2568300Y4071760D01*
X2568300Y4189870D01*
X2568300Y4307980D01*
X3199059Y4307980D01*
X3829819Y4307980D01*
X3881049Y4359606D01*
X3932280Y4411232D01*
X3932258Y4540581D01*
X3932236Y4669930D01*
X3908921Y4685170D01*
X3886418Y4704566D01*
X3861925Y4732957D01*
X3839342Y4765281D01*
X3822566Y4796477D01*
X3821745Y4798403D01*
X3811890Y4837253D01*
X3810346Y4877126D01*
X3978000Y4877126D01*
X3979775Y4851471D01*
X3984308Y4830642D01*
X3987729Y4823368D01*
X4005725Y4810147D01*
X4032271Y4803167D01*
X4062047Y4802437D01*
X4089730Y4807968D01*
X4109997Y4819768D01*
X4112883Y4823138D01*
X4120666Y4843243D01*
X4123216Y4870749D01*
X4120829Y4899520D01*
X4113806Y4923420D01*
X4107540Y4932820D01*
X4092856Y4942675D01*
X4071399Y4947275D01*
X4050390Y4948060D01*
X4016195Y4944993D01*
X3994138Y4934425D01*
X3982123Y4914302D01*
X3978055Y4882571D01*
X3978000Y4877126D01*
X3810346Y4877126D01*
X3810131Y4882671D01*
X3816166Y4928507D01*
X3829692Y4968611D01*
X3830171Y4969583D01*
X3858717Y5014011D01*
X3896543Y5054501D01*
X3938904Y5086246D01*
X3953083Y5093992D01*
X3993328Y5107280D01*
X4040494Y5112842D01*
X4088673Y5110654D01*
X4131958Y5100694D01*
X4146142Y5094745D01*
X4182781Y5071207D01*
X4219332Y5038461D01*
X4250750Y5001560D01*
X4269300Y4971422D01*
X4277140Y4948060D01*
X4281373Y4935446D01*
G37*
X4160502Y3718839D02*
X4163166Y3703810D01*
X4165304Y3675967D01*
X4166931Y3637595D01*
X4168060Y3590978D01*
X4168704Y3538400D01*
X4168878Y3482144D01*
X4168595Y3424497D01*
X4167870Y3367740D01*
X4166714Y3314160D01*
X4165143Y3266039D01*
X4163170Y3225663D01*
X4160809Y3195314D01*
X4158072Y3177279D01*
X4157242Y3174748D01*
X4147561Y3159702D01*
X4128978Y3136750D01*
X4113521Y3119260D01*
X4103695Y3108142D01*
X4073909Y3076127D01*
X4041823Y3042953D01*
X4009634Y3010872D01*
X3979544Y2982131D01*
X3953752Y2958980D01*
X3934458Y2943669D01*
X3926810Y2939136D01*
X3916199Y2936109D01*
X3899233Y2933687D01*
X3874481Y2931815D01*
X3840513Y2930439D01*
X3795898Y2929505D01*
X3739206Y2928958D01*
X3669005Y2928746D01*
X3652490Y2928738D01*
X3402690Y2928716D01*
X3387450Y2905401D01*
X3367792Y2882613D01*
X3339043Y2857932D01*
X3306228Y2835210D01*
X3274372Y2818296D01*
X3273078Y2817749D01*
X3241173Y2809498D01*
X3201696Y2806355D01*
X3161435Y2808317D01*
X3127175Y2815386D01*
X3120822Y2817749D01*
X3089123Y2834320D01*
X3056245Y2856869D01*
X3027213Y2881544D01*
X3007052Y2904496D01*
X3006450Y2905401D01*
X2991210Y2928716D01*
X2917411Y2928738D01*
X2882819Y2929565D01*
X2851787Y2931761D01*
X2828989Y2934935D01*
X2822161Y2936756D01*
X2808825Y2945218D01*
X2787349Y2962811D01*
X2759873Y2987415D01*
X2728532Y3016908D01*
X2696330Y3048326D01*
X3124560Y3048326D01*
X3126335Y3022671D01*
X3130868Y3001842D01*
X3134289Y2994568D01*
X3152285Y2981347D01*
X3178831Y2974367D01*
X3208607Y2973637D01*
X3236290Y2979168D01*
X3256557Y2990968D01*
X3259443Y2994338D01*
X3267226Y3014443D01*
X3269776Y3041949D01*
X3267389Y3070720D01*
X3260366Y3094620D01*
X3254100Y3104020D01*
X3239416Y3113875D01*
X3217959Y3118475D01*
X3196950Y3119260D01*
X3162755Y3116193D01*
X3140698Y3105625D01*
X3128683Y3085502D01*
X3124615Y3053771D01*
X3124560Y3048326D01*
X2696330Y3048326D01*
X2695467Y3049168D01*
X2662814Y3082076D01*
X2632712Y3113508D01*
X2607299Y3141344D01*
X2588713Y3163462D01*
X2579092Y3177742D01*
X2578945Y3178070D01*
X2575717Y3193337D01*
X2573013Y3221520D01*
X2570834Y3260305D01*
X2570556Y3268232D01*
X2804520Y3268232D01*
X2855751Y3216606D01*
X2879758Y3192714D01*
X2896721Y3177636D01*
X2910306Y3169344D01*
X2924180Y3165812D01*
X2942009Y3165012D01*
X2949096Y3165002D01*
X2974093Y3165817D01*
X2989176Y3169666D01*
X2999643Y3178707D01*
X3006450Y3188339D01*
X3027843Y3213007D01*
X3058445Y3238443D01*
X3092961Y3260743D01*
X3124702Y3275520D01*
X3177492Y3286400D01*
X3231726Y3283596D01*
X3284552Y3268045D01*
X3333117Y3240684D01*
X3374566Y3202449D01*
X3384235Y3190291D01*
X3402690Y3165400D01*
X3615859Y3165190D01*
X3829027Y3164980D01*
X3880654Y3216211D01*
X3932280Y3267441D01*
X3932280Y3450321D01*
X3932280Y3633200D01*
X3884875Y3681030D01*
X3837470Y3728860D01*
X3372621Y3728860D01*
X2907772Y3728860D01*
X2856146Y3677629D01*
X2804520Y3626399D01*
X2804520Y3447316D01*
X2804520Y3268232D01*
X2570556Y3268232D01*
X2569182Y3307377D01*
X2568056Y3360421D01*
X2567459Y3417123D01*
X2567391Y3475167D01*
X2567854Y3532240D01*
X2568848Y3586026D01*
X2570376Y3634210D01*
X2572438Y3674479D01*
X2575035Y3704517D01*
X2578168Y3722009D01*
X2578676Y3723390D01*
X2588292Y3738011D01*
X2607163Y3760405D01*
X2633024Y3788368D01*
X2663611Y3819698D01*
X2696657Y3852192D01*
X2729898Y3883646D01*
X2761067Y3911858D01*
X2787899Y3934625D01*
X2808129Y3949743D01*
X2815985Y3954156D01*
X2829144Y3956462D01*
X2855983Y3958527D01*
X2894965Y3960350D01*
X2944556Y3961931D01*
X3003219Y3963271D01*
X3069419Y3964367D01*
X3141619Y3965221D01*
X3218285Y3965831D01*
X3297880Y3966197D01*
X3378869Y3966319D01*
X3459715Y3966196D01*
X3538884Y3965828D01*
X3614839Y3965215D01*
X3686045Y3964356D01*
X3750965Y3963251D01*
X3808065Y3961900D01*
X3855807Y3960301D01*
X3892658Y3958455D01*
X3917080Y3956361D01*
X3926810Y3954436D01*
X3940954Y3945077D01*
X3962933Y3926708D01*
X3990583Y3901511D01*
X4021735Y3871672D01*
X4054224Y3839374D01*
X4085884Y3806802D01*
X4114548Y3776138D01*
X4138050Y3749568D01*
X4154224Y3729274D01*
X4154473Y3728860D01*
X4160502Y3718839D01*
G36*
X4160502Y3718839D02*
G01*
X4163166Y3703810D01*
X4165304Y3675967D01*
X4166931Y3637595D01*
X4168060Y3590978D01*
X4168704Y3538400D01*
X4168878Y3482144D01*
X4168595Y3424497D01*
X4167870Y3367740D01*
X4166714Y3314160D01*
X4165143Y3266039D01*
X4163170Y3225663D01*
X4160809Y3195314D01*
X4158072Y3177279D01*
X4157242Y3174748D01*
X4147561Y3159702D01*
X4128978Y3136750D01*
X4113521Y3119260D01*
X4103695Y3108142D01*
X4073909Y3076127D01*
X4041823Y3042953D01*
X4009634Y3010872D01*
X3979544Y2982131D01*
X3953752Y2958980D01*
X3934458Y2943669D01*
X3926810Y2939136D01*
X3916199Y2936109D01*
X3899233Y2933687D01*
X3874481Y2931815D01*
X3840513Y2930439D01*
X3795898Y2929505D01*
X3739206Y2928958D01*
X3669005Y2928746D01*
X3652490Y2928738D01*
X3402690Y2928716D01*
X3387450Y2905401D01*
X3367792Y2882613D01*
X3339043Y2857932D01*
X3306228Y2835210D01*
X3274372Y2818296D01*
X3273078Y2817749D01*
X3241173Y2809498D01*
X3201696Y2806355D01*
X3161435Y2808317D01*
X3127175Y2815386D01*
X3120822Y2817749D01*
X3089123Y2834320D01*
X3056245Y2856869D01*
X3027213Y2881544D01*
X3007052Y2904496D01*
X3006450Y2905401D01*
X2991210Y2928716D01*
X2917411Y2928738D01*
X2882819Y2929565D01*
X2851787Y2931761D01*
X2828989Y2934935D01*
X2822161Y2936756D01*
X2808825Y2945218D01*
X2787349Y2962811D01*
X2759873Y2987415D01*
X2728532Y3016908D01*
X2696330Y3048326D01*
X3124560Y3048326D01*
X3126335Y3022671D01*
X3130868Y3001842D01*
X3134289Y2994568D01*
X3152285Y2981347D01*
X3178831Y2974367D01*
X3208607Y2973637D01*
X3236290Y2979168D01*
X3256557Y2990968D01*
X3259443Y2994338D01*
X3267226Y3014443D01*
X3269776Y3041949D01*
X3267389Y3070720D01*
X3260366Y3094620D01*
X3254100Y3104020D01*
X3239416Y3113875D01*
X3217959Y3118475D01*
X3196950Y3119260D01*
X3162755Y3116193D01*
X3140698Y3105625D01*
X3128683Y3085502D01*
X3124615Y3053771D01*
X3124560Y3048326D01*
X2696330Y3048326D01*
X2695467Y3049168D01*
X2662814Y3082076D01*
X2632712Y3113508D01*
X2607299Y3141344D01*
X2588713Y3163462D01*
X2579092Y3177742D01*
X2578945Y3178070D01*
X2575717Y3193337D01*
X2573013Y3221520D01*
X2570834Y3260305D01*
X2570556Y3268232D01*
X2804520Y3268232D01*
X2855751Y3216606D01*
X2879758Y3192714D01*
X2896721Y3177636D01*
X2910306Y3169344D01*
X2924180Y3165812D01*
X2942009Y3165012D01*
X2949096Y3165002D01*
X2974093Y3165817D01*
X2989176Y3169666D01*
X2999643Y3178707D01*
X3006450Y3188339D01*
X3027843Y3213007D01*
X3058445Y3238443D01*
X3092961Y3260743D01*
X3124702Y3275520D01*
X3177492Y3286400D01*
X3231726Y3283596D01*
X3284552Y3268045D01*
X3333117Y3240684D01*
X3374566Y3202449D01*
X3384235Y3190291D01*
X3402690Y3165400D01*
X3615859Y3165190D01*
X3829027Y3164980D01*
X3880654Y3216211D01*
X3932280Y3267441D01*
X3932280Y3450321D01*
X3932280Y3633200D01*
X3884875Y3681030D01*
X3837470Y3728860D01*
X3372621Y3728860D01*
X2907772Y3728860D01*
X2856146Y3677629D01*
X2804520Y3626399D01*
X2804520Y3447316D01*
X2804520Y3268232D01*
X2570556Y3268232D01*
X2569182Y3307377D01*
X2568056Y3360421D01*
X2567459Y3417123D01*
X2567391Y3475167D01*
X2567854Y3532240D01*
X2568848Y3586026D01*
X2570376Y3634210D01*
X2572438Y3674479D01*
X2575035Y3704517D01*
X2578168Y3722009D01*
X2578676Y3723390D01*
X2588292Y3738011D01*
X2607163Y3760405D01*
X2633024Y3788368D01*
X2663611Y3819698D01*
X2696657Y3852192D01*
X2729898Y3883646D01*
X2761067Y3911858D01*
X2787899Y3934625D01*
X2808129Y3949743D01*
X2815985Y3954156D01*
X2829144Y3956462D01*
X2855983Y3958527D01*
X2894965Y3960350D01*
X2944556Y3961931D01*
X3003219Y3963271D01*
X3069419Y3964367D01*
X3141619Y3965221D01*
X3218285Y3965831D01*
X3297880Y3966197D01*
X3378869Y3966319D01*
X3459715Y3966196D01*
X3538884Y3965828D01*
X3614839Y3965215D01*
X3686045Y3964356D01*
X3750965Y3963251D01*
X3808065Y3961900D01*
X3855807Y3960301D01*
X3892658Y3958455D01*
X3917080Y3956361D01*
X3926810Y3954436D01*
X3940954Y3945077D01*
X3962933Y3926708D01*
X3990583Y3901511D01*
X4021735Y3871672D01*
X4054224Y3839374D01*
X4085884Y3806802D01*
X4114548Y3776138D01*
X4138050Y3749568D01*
X4154224Y3729274D01*
X4154473Y3728860D01*
X4160502Y3718839D01*
G37*
X4282441Y6874719D02*
X4287635Y6827735D01*
X4285072Y6779475D01*
X4274773Y6735850D01*
X4268712Y6721463D01*
X4240647Y6678301D01*
X4202153Y6638304D01*
X4157970Y6606119D01*
X4142604Y6597835D01*
X4099765Y6583288D01*
X4052159Y6577474D01*
X4005772Y6580683D01*
X3974262Y6589649D01*
X3942563Y6606220D01*
X3909685Y6628769D01*
X3880653Y6653444D01*
X3860492Y6676396D01*
X3859890Y6677301D01*
X3844650Y6700616D01*
X3324585Y6700638D01*
X2804520Y6700660D01*
X2804520Y6668219D01*
X2804727Y6659486D01*
X2806044Y6651286D01*
X2809512Y6642402D01*
X2816175Y6631618D01*
X2827073Y6617714D01*
X2843250Y6599476D01*
X2865747Y6575683D01*
X2895608Y6545121D01*
X2933873Y6506571D01*
X2981586Y6458816D01*
X2996980Y6443429D01*
X3189440Y6251080D01*
X3261775Y6251102D01*
X3295399Y6251267D01*
X3317242Y6252354D01*
X3330761Y6255283D01*
X3339415Y6260977D01*
X3346663Y6270356D01*
X3349350Y6274439D01*
X3371462Y6299862D01*
X3402997Y6325698D01*
X3438731Y6348162D01*
X3471220Y6362732D01*
X3514881Y6371257D01*
X3563656Y6370654D01*
X3610806Y6361370D01*
X3635602Y6351776D01*
X3671987Y6328615D01*
X3708453Y6296112D01*
X3739972Y6259284D01*
X3758924Y6228722D01*
X3766541Y6205360D01*
X3771901Y6188919D01*
X3777095Y6141935D01*
X3774532Y6093675D01*
X3764233Y6050050D01*
X3758172Y6035664D01*
X3730107Y5992501D01*
X3691613Y5952504D01*
X3647430Y5920319D01*
X3632064Y5912035D01*
X3589225Y5897488D01*
X3541619Y5891674D01*
X3495232Y5894883D01*
X3463722Y5903849D01*
X3432023Y5920420D01*
X3399145Y5942969D01*
X3370113Y5967644D01*
X3349952Y5990596D01*
X3349350Y5991501D01*
X3341805Y6002306D01*
X3334000Y6009120D01*
X3322478Y6012864D01*
X3303779Y6014460D01*
X3274446Y6014828D01*
X3261775Y6014838D01*
X3189440Y6014860D01*
X2996980Y5822511D01*
X2946399Y5771924D01*
X2905560Y5730887D01*
X2873422Y5698183D01*
X2848943Y5672594D01*
X2831079Y5652904D01*
X2818790Y5637895D01*
X2811032Y5626350D01*
X2806764Y5617051D01*
X2804943Y5608781D01*
X2804527Y5600323D01*
X2804520Y5597721D01*
X2804520Y5565280D01*
X3324585Y5565302D01*
X3844650Y5565324D01*
X3859890Y5588639D01*
X3882002Y5614062D01*
X3913537Y5639898D01*
X3949271Y5662362D01*
X3981760Y5676932D01*
X4025421Y5685457D01*
X4074196Y5684854D01*
X4121346Y5675570D01*
X4146142Y5665976D01*
X4182613Y5642756D01*
X4219094Y5610205D01*
X4250536Y5573367D01*
X4269300Y5542922D01*
X4277151Y5519560D01*
X4281274Y5507292D01*
X4287690Y5464536D01*
X4288184Y5420917D01*
X4282393Y5382697D01*
X4279170Y5372674D01*
X4252726Y5322807D01*
X4214444Y5277449D01*
X4167688Y5240000D01*
X4125977Y5217823D01*
X4094538Y5209731D01*
X4055449Y5206648D01*
X4015451Y5208564D01*
X3981285Y5215468D01*
X3974262Y5218049D01*
X3942563Y5234620D01*
X3909685Y5257169D01*
X3880653Y5281844D01*
X3860492Y5304796D01*
X3859890Y5305701D01*
X3844650Y5329016D01*
X3206475Y5329038D01*
X2568300Y5329060D01*
X2568300Y5448626D01*
X3978000Y5448626D01*
X3979775Y5422971D01*
X3984308Y5402142D01*
X3987729Y5394868D01*
X4005725Y5381647D01*
X4032271Y5374667D01*
X4062047Y5373937D01*
X4089730Y5379468D01*
X4109997Y5391268D01*
X4112883Y5394638D01*
X4120666Y5414743D01*
X4123216Y5442249D01*
X4120829Y5471020D01*
X4113806Y5494920D01*
X4107540Y5504320D01*
X4092856Y5514175D01*
X4071399Y5518775D01*
X4050390Y5519560D01*
X4016195Y5516493D01*
X3994138Y5505925D01*
X3982123Y5485802D01*
X3978055Y5454071D01*
X3978000Y5448626D01*
X2568300Y5448626D01*
X2568300Y5511444D01*
X2568640Y5570251D01*
X2569614Y5621650D01*
X2571148Y5663798D01*
X2573171Y5694855D01*
X2575611Y5712979D01*
X2576280Y5715279D01*
X2583377Y5725473D01*
X2600054Y5745018D01*
X2625043Y5772561D01*
X2657074Y5806748D01*
X2694881Y5846224D01*
X2737195Y5889637D01*
X2782021Y5934904D01*
X2979783Y6133079D01*
X2978430Y6134426D01*
X3467460Y6134426D01*
X3469235Y6108771D01*
X3473768Y6087942D01*
X3477189Y6080668D01*
X3495185Y6067447D01*
X3521731Y6060467D01*
X3551507Y6059737D01*
X3579190Y6065268D01*
X3599457Y6077068D01*
X3602343Y6080438D01*
X3610126Y6100543D01*
X3612676Y6128049D01*
X3610289Y6156820D01*
X3603266Y6180720D01*
X3597000Y6190120D01*
X3582316Y6199975D01*
X3560859Y6204575D01*
X3539850Y6205360D01*
X3505655Y6202293D01*
X3483598Y6191725D01*
X3471583Y6171602D01*
X3467515Y6139871D01*
X3467460Y6134426D01*
X2978430Y6134426D01*
X2784704Y6327335D01*
X2739287Y6372938D01*
X2697025Y6416097D01*
X2659223Y6455422D01*
X2627191Y6489523D01*
X2602235Y6517009D01*
X2585664Y6536491D01*
X2578963Y6546110D01*
X2575340Y6558272D01*
X2572572Y6577130D01*
X2570572Y6604393D01*
X2569252Y6641768D01*
X2568523Y6690961D01*
X2568300Y6753679D01*
X2568300Y6753755D01*
X2568300Y6820226D01*
X3978000Y6820226D01*
X3979775Y6794571D01*
X3984308Y6773742D01*
X3987729Y6766468D01*
X4005725Y6753247D01*
X4032271Y6746267D01*
X4062047Y6745537D01*
X4089730Y6751068D01*
X4109997Y6762868D01*
X4112883Y6766238D01*
X4120666Y6786343D01*
X4123216Y6813849D01*
X4120829Y6842620D01*
X4113806Y6866520D01*
X4107540Y6875920D01*
X4092856Y6885775D01*
X4071399Y6890375D01*
X4050390Y6891160D01*
X4016195Y6888093D01*
X3994138Y6877525D01*
X3982123Y6857402D01*
X3978055Y6825671D01*
X3978000Y6820226D01*
X2568300Y6820226D01*
X2568300Y6936880D01*
X3206475Y6936902D01*
X3844650Y6936924D01*
X3859890Y6960239D01*
X3882002Y6985662D01*
X3913537Y7011498D01*
X3949271Y7033962D01*
X3981760Y7048532D01*
X4025421Y7057057D01*
X4074196Y7056454D01*
X4121346Y7047170D01*
X4146142Y7037576D01*
X4182527Y7014415D01*
X4218994Y6981912D01*
X4250512Y6945084D01*
X4269465Y6914522D01*
X4277081Y6891160D01*
X4282441Y6874719D01*
G36*
X4282441Y6874719D02*
G01*
X4287635Y6827735D01*
X4285072Y6779475D01*
X4274773Y6735850D01*
X4268712Y6721463D01*
X4240647Y6678301D01*
X4202153Y6638304D01*
X4157970Y6606119D01*
X4142604Y6597835D01*
X4099765Y6583288D01*
X4052159Y6577474D01*
X4005772Y6580683D01*
X3974262Y6589649D01*
X3942563Y6606220D01*
X3909685Y6628769D01*
X3880653Y6653444D01*
X3860492Y6676396D01*
X3859890Y6677301D01*
X3844650Y6700616D01*
X3324585Y6700638D01*
X2804520Y6700660D01*
X2804520Y6668219D01*
X2804727Y6659486D01*
X2806044Y6651286D01*
X2809512Y6642402D01*
X2816175Y6631618D01*
X2827073Y6617714D01*
X2843250Y6599476D01*
X2865747Y6575683D01*
X2895608Y6545121D01*
X2933873Y6506571D01*
X2981586Y6458816D01*
X2996980Y6443429D01*
X3189440Y6251080D01*
X3261775Y6251102D01*
X3295399Y6251267D01*
X3317242Y6252354D01*
X3330761Y6255283D01*
X3339415Y6260977D01*
X3346663Y6270356D01*
X3349350Y6274439D01*
X3371462Y6299862D01*
X3402997Y6325698D01*
X3438731Y6348162D01*
X3471220Y6362732D01*
X3514881Y6371257D01*
X3563656Y6370654D01*
X3610806Y6361370D01*
X3635602Y6351776D01*
X3671987Y6328615D01*
X3708453Y6296112D01*
X3739972Y6259284D01*
X3758924Y6228722D01*
X3766541Y6205360D01*
X3771901Y6188919D01*
X3777095Y6141935D01*
X3774532Y6093675D01*
X3764233Y6050050D01*
X3758172Y6035664D01*
X3730107Y5992501D01*
X3691613Y5952504D01*
X3647430Y5920319D01*
X3632064Y5912035D01*
X3589225Y5897488D01*
X3541619Y5891674D01*
X3495232Y5894883D01*
X3463722Y5903849D01*
X3432023Y5920420D01*
X3399145Y5942969D01*
X3370113Y5967644D01*
X3349952Y5990596D01*
X3349350Y5991501D01*
X3341805Y6002306D01*
X3334000Y6009120D01*
X3322478Y6012864D01*
X3303779Y6014460D01*
X3274446Y6014828D01*
X3261775Y6014838D01*
X3189440Y6014860D01*
X2996980Y5822511D01*
X2946399Y5771924D01*
X2905560Y5730887D01*
X2873422Y5698183D01*
X2848943Y5672594D01*
X2831079Y5652904D01*
X2818790Y5637895D01*
X2811032Y5626350D01*
X2806764Y5617051D01*
X2804943Y5608781D01*
X2804527Y5600323D01*
X2804520Y5597721D01*
X2804520Y5565280D01*
X3324585Y5565302D01*
X3844650Y5565324D01*
X3859890Y5588639D01*
X3882002Y5614062D01*
X3913537Y5639898D01*
X3949271Y5662362D01*
X3981760Y5676932D01*
X4025421Y5685457D01*
X4074196Y5684854D01*
X4121346Y5675570D01*
X4146142Y5665976D01*
X4182613Y5642756D01*
X4219094Y5610205D01*
X4250536Y5573367D01*
X4269300Y5542922D01*
X4277151Y5519560D01*
X4281274Y5507292D01*
X4287690Y5464536D01*
X4288184Y5420917D01*
X4282393Y5382697D01*
X4279170Y5372674D01*
X4252726Y5322807D01*
X4214444Y5277449D01*
X4167688Y5240000D01*
X4125977Y5217823D01*
X4094538Y5209731D01*
X4055449Y5206648D01*
X4015451Y5208564D01*
X3981285Y5215468D01*
X3974262Y5218049D01*
X3942563Y5234620D01*
X3909685Y5257169D01*
X3880653Y5281844D01*
X3860492Y5304796D01*
X3859890Y5305701D01*
X3844650Y5329016D01*
X3206475Y5329038D01*
X2568300Y5329060D01*
X2568300Y5448626D01*
X3978000Y5448626D01*
X3979775Y5422971D01*
X3984308Y5402142D01*
X3987729Y5394868D01*
X4005725Y5381647D01*
X4032271Y5374667D01*
X4062047Y5373937D01*
X4089730Y5379468D01*
X4109997Y5391268D01*
X4112883Y5394638D01*
X4120666Y5414743D01*
X4123216Y5442249D01*
X4120829Y5471020D01*
X4113806Y5494920D01*
X4107540Y5504320D01*
X4092856Y5514175D01*
X4071399Y5518775D01*
X4050390Y5519560D01*
X4016195Y5516493D01*
X3994138Y5505925D01*
X3982123Y5485802D01*
X3978055Y5454071D01*
X3978000Y5448626D01*
X2568300Y5448626D01*
X2568300Y5511444D01*
X2568640Y5570251D01*
X2569614Y5621650D01*
X2571148Y5663798D01*
X2573171Y5694855D01*
X2575611Y5712979D01*
X2576280Y5715279D01*
X2583377Y5725473D01*
X2600054Y5745018D01*
X2625043Y5772561D01*
X2657074Y5806748D01*
X2694881Y5846224D01*
X2737195Y5889637D01*
X2782021Y5934904D01*
X2979783Y6133079D01*
X2978430Y6134426D01*
X3467460Y6134426D01*
X3469235Y6108771D01*
X3473768Y6087942D01*
X3477189Y6080668D01*
X3495185Y6067447D01*
X3521731Y6060467D01*
X3551507Y6059737D01*
X3579190Y6065268D01*
X3599457Y6077068D01*
X3602343Y6080438D01*
X3610126Y6100543D01*
X3612676Y6128049D01*
X3610289Y6156820D01*
X3603266Y6180720D01*
X3597000Y6190120D01*
X3582316Y6199975D01*
X3560859Y6204575D01*
X3539850Y6205360D01*
X3505655Y6202293D01*
X3483598Y6191725D01*
X3471583Y6171602D01*
X3467515Y6139871D01*
X3467460Y6134426D01*
X2978430Y6134426D01*
X2784704Y6327335D01*
X2739287Y6372938D01*
X2697025Y6416097D01*
X2659223Y6455422D01*
X2627191Y6489523D01*
X2602235Y6517009D01*
X2585664Y6536491D01*
X2578963Y6546110D01*
X2575340Y6558272D01*
X2572572Y6577130D01*
X2570572Y6604393D01*
X2569252Y6641768D01*
X2568523Y6690961D01*
X2568300Y6753679D01*
X2568300Y6753755D01*
X2568300Y6820226D01*
X3978000Y6820226D01*
X3979775Y6794571D01*
X3984308Y6773742D01*
X3987729Y6766468D01*
X4005725Y6753247D01*
X4032271Y6746267D01*
X4062047Y6745537D01*
X4089730Y6751068D01*
X4109997Y6762868D01*
X4112883Y6766238D01*
X4120666Y6786343D01*
X4123216Y6813849D01*
X4120829Y6842620D01*
X4113806Y6866520D01*
X4107540Y6875920D01*
X4092856Y6885775D01*
X4071399Y6890375D01*
X4050390Y6891160D01*
X4016195Y6888093D01*
X3994138Y6877525D01*
X3982123Y6857402D01*
X3978055Y6825671D01*
X3978000Y6820226D01*
X2568300Y6820226D01*
X2568300Y6936880D01*
X3206475Y6936902D01*
X3844650Y6936924D01*
X3859890Y6960239D01*
X3882002Y6985662D01*
X3913537Y7011498D01*
X3949271Y7033962D01*
X3981760Y7048532D01*
X4025421Y7057057D01*
X4074196Y7056454D01*
X4121346Y7047170D01*
X4146142Y7037576D01*
X4182527Y7014415D01*
X4218994Y6981912D01*
X4250512Y6945084D01*
X4269465Y6914522D01*
X4277081Y6891160D01*
X4282441Y6874719D01*
G37*
X4281274Y8997252D02*
X4287690Y8954496D01*
X4288184Y8910877D01*
X4282393Y8872657D01*
X4279170Y8862634D01*
X4252726Y8812767D01*
X4214444Y8767409D01*
X4167688Y8729960D01*
X4125977Y8707783D01*
X4094203Y8699614D01*
X4054814Y8696589D01*
X4014531Y8698685D01*
X3980075Y8705879D01*
X3973533Y8708314D01*
X3944415Y8720480D01*
X3831667Y8607920D01*
X3718920Y8495361D01*
X3718920Y8453311D01*
X3718920Y8411261D01*
X3963523Y8167465D01*
X4014419Y8116437D01*
X4062188Y8067963D01*
X4105687Y8023248D01*
X4143769Y7983496D01*
X4175288Y7949911D01*
X4199101Y7923696D01*
X4214060Y7906057D01*
X4218793Y7899150D01*
X4222208Y7883417D01*
X4225028Y7854922D01*
X4227254Y7816134D01*
X4228884Y7769518D01*
X4229916Y7717543D01*
X4230348Y7662675D01*
X4230180Y7607381D01*
X4229409Y7554129D01*
X4228035Y7505386D01*
X4226055Y7463618D01*
X4223469Y7431294D01*
X4220274Y7410880D01*
X4219084Y7407170D01*
X4209468Y7392549D01*
X4190597Y7370155D01*
X4164736Y7342192D01*
X4134149Y7310862D01*
X4101103Y7278368D01*
X4067862Y7246914D01*
X4036693Y7218702D01*
X4009861Y7195935D01*
X3989631Y7180817D01*
X3981775Y7176404D01*
X3968653Y7174119D01*
X3941792Y7172070D01*
X3902692Y7170257D01*
X3852853Y7168681D01*
X3793774Y7167342D01*
X3726956Y7166239D01*
X3653897Y7165373D01*
X3576098Y7164744D01*
X3495058Y7164351D01*
X3412277Y7164194D01*
X3329254Y7164275D01*
X3247489Y7164591D01*
X3168482Y7165145D01*
X3093733Y7165935D01*
X3024740Y7166961D01*
X2963004Y7168224D01*
X2910025Y7169724D01*
X2867301Y7171460D01*
X2836333Y7173433D01*
X2818621Y7175642D01*
X2815985Y7176404D01*
X2800656Y7186040D01*
X2777402Y7204609D01*
X2748489Y7229910D01*
X2716183Y7259739D01*
X2682748Y7291894D01*
X2650450Y7324171D01*
X2621555Y7354367D01*
X2598328Y7380280D01*
X2583035Y7399706D01*
X2578676Y7407170D01*
X2575281Y7423101D01*
X2572493Y7451757D01*
X2570313Y7490674D01*
X2568739Y7537382D01*
X2567769Y7589415D01*
X2567401Y7644307D01*
X2567635Y7699589D01*
X2568468Y7752794D01*
X2569900Y7801456D01*
X2571929Y7843107D01*
X2574553Y7875281D01*
X2577772Y7895509D01*
X2578967Y7899150D01*
X2586479Y7909514D01*
X2603709Y7929362D01*
X2629512Y7957490D01*
X2662743Y7992695D01*
X2702255Y8033772D01*
X2746904Y8079517D01*
X2795544Y8128727D01*
X2834237Y8167465D01*
X3078840Y8411261D01*
X3078840Y8453311D01*
X3078840Y8495361D01*
X2966092Y8607920D01*
X2853345Y8720480D01*
X2824227Y8708314D01*
X2782061Y8697577D01*
X2734210Y8696378D01*
X2686644Y8704440D01*
X2655156Y8716195D01*
X2607020Y8747079D01*
X2564067Y8788527D01*
X2530969Y8835901D01*
X2527151Y8843217D01*
X2510502Y8892737D01*
X2506947Y8938586D01*
X2674980Y8938586D01*
X2676755Y8912931D01*
X2681288Y8892102D01*
X2684709Y8884828D01*
X2702705Y8871607D01*
X2729251Y8864627D01*
X2759027Y8863897D01*
X2786710Y8869428D01*
X2806977Y8881228D01*
X2809863Y8884597D01*
X2817646Y8904703D01*
X2820196Y8932209D01*
X2817809Y8960980D01*
X2810786Y8984880D01*
X2804520Y8994280D01*
X2789836Y9004135D01*
X2768379Y9008735D01*
X2747370Y9009520D01*
X2713175Y9006454D01*
X2691118Y8995885D01*
X2679103Y8975762D01*
X2675035Y8944031D01*
X2674980Y8938586D01*
X2506947Y8938586D01*
X2506356Y8946213D01*
X2514715Y8998887D01*
X2527151Y9031043D01*
X2555697Y9075471D01*
X2593523Y9115961D01*
X2635884Y9147706D01*
X2650063Y9155452D01*
X2674326Y9165498D01*
X2699659Y9171052D01*
X2731959Y9173201D01*
X2747370Y9173350D01*
X2797351Y9169866D01*
X2838844Y9158083D01*
X2876589Y9136006D01*
X2913606Y9103366D01*
X2952213Y9056104D01*
X2974434Y9009520D01*
X2976205Y9005808D01*
X2985746Y8956594D01*
X2988909Y8914270D01*
X3144000Y8758060D01*
X3184236Y8717079D01*
X3221149Y8678617D01*
X3253285Y8644256D01*
X3279193Y8615578D01*
X3297423Y8594163D01*
X3306521Y8581594D01*
X3307075Y8580399D01*
X3310970Y8561362D01*
X3313597Y8531132D01*
X3314994Y8493425D01*
X3315201Y8451957D01*
X3314255Y8410445D01*
X3312195Y8372604D01*
X3309059Y8342150D01*
X3304887Y8322800D01*
X3304393Y8321570D01*
X3296881Y8311206D01*
X3279651Y8291358D01*
X3253848Y8263230D01*
X3220617Y8228025D01*
X3181105Y8186948D01*
X3136456Y8141203D01*
X3087816Y8091993D01*
X3049123Y8053255D01*
X2804520Y7809459D01*
X2804520Y7656810D01*
X2804520Y7504161D01*
X2856146Y7452931D01*
X2907772Y7401700D01*
X3080936Y7401700D01*
X3254100Y7401700D01*
X3254078Y7552195D01*
X3254056Y7702690D01*
X3230741Y7717930D01*
X3208237Y7737326D01*
X3183745Y7765717D01*
X3161162Y7798041D01*
X3144386Y7829237D01*
X3143565Y7831163D01*
X3133710Y7870013D01*
X3132166Y7909886D01*
X3299820Y7909886D01*
X3301595Y7884231D01*
X3306128Y7863402D01*
X3309549Y7856128D01*
X3327545Y7842907D01*
X3354091Y7835927D01*
X3383867Y7835197D01*
X3411550Y7840728D01*
X3431817Y7852528D01*
X3434703Y7855897D01*
X3442486Y7876003D01*
X3445036Y7903509D01*
X3442649Y7932280D01*
X3435626Y7956180D01*
X3429360Y7965580D01*
X3414676Y7975435D01*
X3393219Y7980035D01*
X3372210Y7980820D01*
X3338015Y7977754D01*
X3315958Y7967185D01*
X3303943Y7947062D01*
X3299875Y7915331D01*
X3299820Y7909886D01*
X3132166Y7909886D01*
X3131951Y7915431D01*
X3137986Y7961267D01*
X3151512Y8001371D01*
X3151991Y8002343D01*
X3180537Y8046771D01*
X3218363Y8087261D01*
X3260724Y8119006D01*
X3274903Y8126752D01*
X3315148Y8140040D01*
X3362314Y8145602D01*
X3410493Y8143414D01*
X3453778Y8133454D01*
X3467962Y8127505D01*
X3504549Y8104011D01*
X3541019Y8071355D01*
X3572354Y8034561D01*
X3591016Y8004182D01*
X3598798Y7980820D01*
X3605312Y7961263D01*
X3611198Y7912660D01*
X3608226Y7865111D01*
X3601972Y7839800D01*
X3586062Y7804860D01*
X3563249Y7769246D01*
X3537321Y7738185D01*
X3513679Y7717930D01*
X3490364Y7702690D01*
X3490342Y7552195D01*
X3490320Y7401700D01*
X3690549Y7401700D01*
X3890779Y7401700D01*
X3942009Y7453326D01*
X3993240Y7504952D01*
X3993240Y7657206D01*
X3993240Y7809459D01*
X3748637Y8053255D01*
X3697741Y8104283D01*
X3649972Y8152757D01*
X3606473Y8197472D01*
X3568391Y8237224D01*
X3536871Y8270809D01*
X3513059Y8297024D01*
X3498100Y8314663D01*
X3493367Y8321570D01*
X3488476Y8341377D01*
X3484987Y8372554D01*
X3482900Y8411296D01*
X3482215Y8453795D01*
X3482932Y8496248D01*
X3485052Y8534849D01*
X3488574Y8565791D01*
X3493357Y8584950D01*
X3501443Y8596620D01*
X3518936Y8617292D01*
X3544326Y8645337D01*
X3576101Y8679123D01*
X3612752Y8717021D01*
X3652768Y8757398D01*
X3657187Y8761799D01*
X3810360Y8914127D01*
X3810360Y8938586D01*
X3978000Y8938586D01*
X3979775Y8912931D01*
X3984308Y8892102D01*
X3987729Y8884828D01*
X4005725Y8871607D01*
X4032271Y8864627D01*
X4062047Y8863897D01*
X4089730Y8869428D01*
X4109997Y8881228D01*
X4112883Y8884597D01*
X4120666Y8904703D01*
X4123216Y8932209D01*
X4120829Y8960980D01*
X4113806Y8984880D01*
X4107540Y8994280D01*
X4092856Y9004135D01*
X4071399Y9008735D01*
X4050390Y9009520D01*
X4016195Y9006454D01*
X3994138Y8995885D01*
X3982123Y8975762D01*
X3978055Y8944031D01*
X3978000Y8938586D01*
X3810360Y8938586D01*
X3810360Y8952707D01*
X3817329Y8997054D01*
X3836760Y9042370D01*
X3866442Y9085514D01*
X3904163Y9123342D01*
X3947709Y9152713D01*
X3953083Y9155452D01*
X3993328Y9168740D01*
X4040494Y9174302D01*
X4088673Y9172114D01*
X4131958Y9162154D01*
X4146142Y9156205D01*
X4182781Y9132667D01*
X4219332Y9099921D01*
X4250750Y9063020D01*
X4269300Y9032882D01*
X4277151Y9009520D01*
X4281274Y8997252D01*
G36*
X4281274Y8997252D02*
G01*
X4287690Y8954496D01*
X4288184Y8910877D01*
X4282393Y8872657D01*
X4279170Y8862634D01*
X4252726Y8812767D01*
X4214444Y8767409D01*
X4167688Y8729960D01*
X4125977Y8707783D01*
X4094203Y8699614D01*
X4054814Y8696589D01*
X4014531Y8698685D01*
X3980075Y8705879D01*
X3973533Y8708314D01*
X3944415Y8720480D01*
X3831667Y8607920D01*
X3718920Y8495361D01*
X3718920Y8453311D01*
X3718920Y8411261D01*
X3963523Y8167465D01*
X4014419Y8116437D01*
X4062188Y8067963D01*
X4105687Y8023248D01*
X4143769Y7983496D01*
X4175288Y7949911D01*
X4199101Y7923696D01*
X4214060Y7906057D01*
X4218793Y7899150D01*
X4222208Y7883417D01*
X4225028Y7854922D01*
X4227254Y7816134D01*
X4228884Y7769518D01*
X4229916Y7717543D01*
X4230348Y7662675D01*
X4230180Y7607381D01*
X4229409Y7554129D01*
X4228035Y7505386D01*
X4226055Y7463618D01*
X4223469Y7431294D01*
X4220274Y7410880D01*
X4219084Y7407170D01*
X4209468Y7392549D01*
X4190597Y7370155D01*
X4164736Y7342192D01*
X4134149Y7310862D01*
X4101103Y7278368D01*
X4067862Y7246914D01*
X4036693Y7218702D01*
X4009861Y7195935D01*
X3989631Y7180817D01*
X3981775Y7176404D01*
X3968653Y7174119D01*
X3941792Y7172070D01*
X3902692Y7170257D01*
X3852853Y7168681D01*
X3793774Y7167342D01*
X3726956Y7166239D01*
X3653897Y7165373D01*
X3576098Y7164744D01*
X3495058Y7164351D01*
X3412277Y7164194D01*
X3329254Y7164275D01*
X3247489Y7164591D01*
X3168482Y7165145D01*
X3093733Y7165935D01*
X3024740Y7166961D01*
X2963004Y7168224D01*
X2910025Y7169724D01*
X2867301Y7171460D01*
X2836333Y7173433D01*
X2818621Y7175642D01*
X2815985Y7176404D01*
X2800656Y7186040D01*
X2777402Y7204609D01*
X2748489Y7229910D01*
X2716183Y7259739D01*
X2682748Y7291894D01*
X2650450Y7324171D01*
X2621555Y7354367D01*
X2598328Y7380280D01*
X2583035Y7399706D01*
X2578676Y7407170D01*
X2575281Y7423101D01*
X2572493Y7451757D01*
X2570313Y7490674D01*
X2568739Y7537382D01*
X2567769Y7589415D01*
X2567401Y7644307D01*
X2567635Y7699589D01*
X2568468Y7752794D01*
X2569900Y7801456D01*
X2571929Y7843107D01*
X2574553Y7875281D01*
X2577772Y7895509D01*
X2578967Y7899150D01*
X2586479Y7909514D01*
X2603709Y7929362D01*
X2629512Y7957490D01*
X2662743Y7992695D01*
X2702255Y8033772D01*
X2746904Y8079517D01*
X2795544Y8128727D01*
X2834237Y8167465D01*
X3078840Y8411261D01*
X3078840Y8453311D01*
X3078840Y8495361D01*
X2966092Y8607920D01*
X2853345Y8720480D01*
X2824227Y8708314D01*
X2782061Y8697577D01*
X2734210Y8696378D01*
X2686644Y8704440D01*
X2655156Y8716195D01*
X2607020Y8747079D01*
X2564067Y8788527D01*
X2530969Y8835901D01*
X2527151Y8843217D01*
X2510502Y8892737D01*
X2506947Y8938586D01*
X2674980Y8938586D01*
X2676755Y8912931D01*
X2681288Y8892102D01*
X2684709Y8884828D01*
X2702705Y8871607D01*
X2729251Y8864627D01*
X2759027Y8863897D01*
X2786710Y8869428D01*
X2806977Y8881228D01*
X2809863Y8884597D01*
X2817646Y8904703D01*
X2820196Y8932209D01*
X2817809Y8960980D01*
X2810786Y8984880D01*
X2804520Y8994280D01*
X2789836Y9004135D01*
X2768379Y9008735D01*
X2747370Y9009520D01*
X2713175Y9006454D01*
X2691118Y8995885D01*
X2679103Y8975762D01*
X2675035Y8944031D01*
X2674980Y8938586D01*
X2506947Y8938586D01*
X2506356Y8946213D01*
X2514715Y8998887D01*
X2527151Y9031043D01*
X2555697Y9075471D01*
X2593523Y9115961D01*
X2635884Y9147706D01*
X2650063Y9155452D01*
X2674326Y9165498D01*
X2699659Y9171052D01*
X2731959Y9173201D01*
X2747370Y9173350D01*
X2797351Y9169866D01*
X2838844Y9158083D01*
X2876589Y9136006D01*
X2913606Y9103366D01*
X2952213Y9056104D01*
X2974434Y9009520D01*
X2976205Y9005808D01*
X2985746Y8956594D01*
X2988909Y8914270D01*
X3144000Y8758060D01*
X3184236Y8717079D01*
X3221149Y8678617D01*
X3253285Y8644256D01*
X3279193Y8615578D01*
X3297423Y8594163D01*
X3306521Y8581594D01*
X3307075Y8580399D01*
X3310970Y8561362D01*
X3313597Y8531132D01*
X3314994Y8493425D01*
X3315201Y8451957D01*
X3314255Y8410445D01*
X3312195Y8372604D01*
X3309059Y8342150D01*
X3304887Y8322800D01*
X3304393Y8321570D01*
X3296881Y8311206D01*
X3279651Y8291358D01*
X3253848Y8263230D01*
X3220617Y8228025D01*
X3181105Y8186948D01*
X3136456Y8141203D01*
X3087816Y8091993D01*
X3049123Y8053255D01*
X2804520Y7809459D01*
X2804520Y7656810D01*
X2804520Y7504161D01*
X2856146Y7452931D01*
X2907772Y7401700D01*
X3080936Y7401700D01*
X3254100Y7401700D01*
X3254078Y7552195D01*
X3254056Y7702690D01*
X3230741Y7717930D01*
X3208237Y7737326D01*
X3183745Y7765717D01*
X3161162Y7798041D01*
X3144386Y7829237D01*
X3143565Y7831163D01*
X3133710Y7870013D01*
X3132166Y7909886D01*
X3299820Y7909886D01*
X3301595Y7884231D01*
X3306128Y7863402D01*
X3309549Y7856128D01*
X3327545Y7842907D01*
X3354091Y7835927D01*
X3383867Y7835197D01*
X3411550Y7840728D01*
X3431817Y7852528D01*
X3434703Y7855897D01*
X3442486Y7876003D01*
X3445036Y7903509D01*
X3442649Y7932280D01*
X3435626Y7956180D01*
X3429360Y7965580D01*
X3414676Y7975435D01*
X3393219Y7980035D01*
X3372210Y7980820D01*
X3338015Y7977754D01*
X3315958Y7967185D01*
X3303943Y7947062D01*
X3299875Y7915331D01*
X3299820Y7909886D01*
X3132166Y7909886D01*
X3131951Y7915431D01*
X3137986Y7961267D01*
X3151512Y8001371D01*
X3151991Y8002343D01*
X3180537Y8046771D01*
X3218363Y8087261D01*
X3260724Y8119006D01*
X3274903Y8126752D01*
X3315148Y8140040D01*
X3362314Y8145602D01*
X3410493Y8143414D01*
X3453778Y8133454D01*
X3467962Y8127505D01*
X3504549Y8104011D01*
X3541019Y8071355D01*
X3572354Y8034561D01*
X3591016Y8004182D01*
X3598798Y7980820D01*
X3605312Y7961263D01*
X3611198Y7912660D01*
X3608226Y7865111D01*
X3601972Y7839800D01*
X3586062Y7804860D01*
X3563249Y7769246D01*
X3537321Y7738185D01*
X3513679Y7717930D01*
X3490364Y7702690D01*
X3490342Y7552195D01*
X3490320Y7401700D01*
X3690549Y7401700D01*
X3890779Y7401700D01*
X3942009Y7453326D01*
X3993240Y7504952D01*
X3993240Y7657206D01*
X3993240Y7809459D01*
X3748637Y8053255D01*
X3697741Y8104283D01*
X3649972Y8152757D01*
X3606473Y8197472D01*
X3568391Y8237224D01*
X3536871Y8270809D01*
X3513059Y8297024D01*
X3498100Y8314663D01*
X3493367Y8321570D01*
X3488476Y8341377D01*
X3484987Y8372554D01*
X3482900Y8411296D01*
X3482215Y8453795D01*
X3482932Y8496248D01*
X3485052Y8534849D01*
X3488574Y8565791D01*
X3493357Y8584950D01*
X3501443Y8596620D01*
X3518936Y8617292D01*
X3544326Y8645337D01*
X3576101Y8679123D01*
X3612752Y8717021D01*
X3652768Y8757398D01*
X3657187Y8761799D01*
X3810360Y8914127D01*
X3810360Y8938586D01*
X3978000Y8938586D01*
X3979775Y8912931D01*
X3984308Y8892102D01*
X3987729Y8884828D01*
X4005725Y8871607D01*
X4032271Y8864627D01*
X4062047Y8863897D01*
X4089730Y8869428D01*
X4109997Y8881228D01*
X4112883Y8884597D01*
X4120666Y8904703D01*
X4123216Y8932209D01*
X4120829Y8960980D01*
X4113806Y8984880D01*
X4107540Y8994280D01*
X4092856Y9004135D01*
X4071399Y9008735D01*
X4050390Y9009520D01*
X4016195Y9006454D01*
X3994138Y8995885D01*
X3982123Y8975762D01*
X3978055Y8944031D01*
X3978000Y8938586D01*
X3810360Y8938586D01*
X3810360Y8952707D01*
X3817329Y8997054D01*
X3836760Y9042370D01*
X3866442Y9085514D01*
X3904163Y9123342D01*
X3947709Y9152713D01*
X3953083Y9155452D01*
X3993328Y9168740D01*
X4040494Y9174302D01*
X4088673Y9172114D01*
X4131958Y9162154D01*
X4146142Y9156205D01*
X4182781Y9132667D01*
X4219332Y9099921D01*
X4250750Y9063020D01*
X4269300Y9032882D01*
X4277151Y9009520D01*
X4281274Y8997252D01*
G37*
D10*
%TO.C,C22*%
X10836000Y55903000D02*
X10836000Y56919000D01*
X12360000Y55903000D02*
X12360000Y56919000D01*
D18*
%TO.C,C2*%
X13503000Y29296500D02*
X14011000Y29296500D01*
X13503000Y28407500D02*
X14011000Y28407500D01*
D10*
%TO.C,U3*%
X4150000Y30000000D02*
X4150000Y30750000D01*
X4900000Y30000000D02*
X4150000Y30000000D01*
X14150000Y30000000D02*
X13400000Y30000000D01*
X14150000Y30750000D02*
X14150000Y30000000D01*
X3750000Y39250000D02*
X3750000Y40400000D01*
X4150000Y39250000D02*
X4150000Y40000000D01*
X4150000Y39250000D02*
X4900000Y40000000D01*
X4150000Y39500000D02*
X4650000Y40000000D01*
X4150000Y39700000D02*
X4450000Y40000000D01*
X4150000Y40000000D02*
X4900000Y40000000D01*
X13400000Y40000000D02*
X14150000Y40000000D01*
X14150000Y40000000D02*
X14150000Y39250000D01*
X3750000Y40400000D02*
X4900000Y40400000D01*
%TO.C,L2*%
X8627000Y54925000D02*
X8727000Y54925000D01*
X8627000Y53325000D02*
X8727000Y53325000D01*
%TO.C,U2*%
X10085001Y57442000D02*
X10085001Y56142000D01*
X8285000Y55892000D02*
X8284999Y57442000D01*
D18*
%TO.C,R3*%
X14836500Y43711000D02*
X14836500Y43203000D01*
X13947500Y43711000D02*
X13947500Y43203000D01*
%TO.C,C20*%
X12423500Y26566000D02*
X12423500Y26058000D01*
X11534500Y26566000D02*
X11534500Y26058000D01*
%TO.C,C18*%
X13884000Y41361500D02*
X13376000Y41361500D01*
X13884000Y42250500D02*
X13376000Y42250500D01*
D10*
%TO.C,C24*%
X5502000Y54506000D02*
X5502000Y55522000D01*
X7026000Y54506000D02*
X7026000Y55522000D01*
D18*
%TO.C,R11*%
X11344000Y21549500D02*
X11852000Y21549500D01*
X11344000Y20660500D02*
X11852000Y20660500D01*
%TO.C,R1*%
X4676500Y47775000D02*
X4676500Y47267000D01*
X3787500Y47775000D02*
X3787500Y47267000D01*
%TO.C,C1*%
X3787500Y50442000D02*
X3787500Y50950000D01*
X4676500Y50442000D02*
X4676500Y50950000D01*
D10*
%TO.C,U1*%
X4994000Y49680000D02*
X4994000Y46124000D01*
X4994000Y49680000D02*
X9820000Y49680000D01*
X5273400Y45870000D02*
X4994000Y46124000D01*
X9820000Y49680000D02*
X9820000Y45870000D01*
X9820000Y45870000D02*
X5273400Y45870000D01*
X5912981Y46505000D02*
G75*
G03*
X5912981Y46505000I-283981J0D01*
G01*
D18*
%TO.C,R9*%
X10836000Y27518500D02*
X10328000Y27518500D01*
X10836000Y28407500D02*
X10328000Y28407500D01*
D10*
%TO.C,C25*%
X3851000Y54506000D02*
X3851000Y55522000D01*
X5375000Y54506000D02*
X5375000Y55522000D01*
D18*
%TO.C,R14*%
X6391000Y57617500D02*
X6899000Y57617500D01*
X6391000Y56728500D02*
X6899000Y56728500D01*
D10*
%TO.C,QWST1*%
X7451000Y5800000D02*
X10801000Y5800000D01*
X10801000Y3746000D02*
X7451000Y3746000D01*
X7451000Y5800000D01*
X10801000Y5800000D01*
X10801000Y3746000D01*
G36*
X10801000Y3746000D02*
G01*
X7451000Y3746000D01*
X7451000Y5800000D01*
X10801000Y5800000D01*
X10801000Y3746000D01*
G37*
D18*
%TO.C,C19*%
X15725500Y41806000D02*
X15725500Y41298000D01*
X14836500Y41806000D02*
X14836500Y41298000D01*
%TO.C,C6*%
X6010000Y27518500D02*
X6518000Y27518500D01*
X6010000Y26629500D02*
X6518000Y26629500D01*
%TO.C,C5*%
X6010000Y28407500D02*
X6518000Y28407500D01*
X6010000Y27518500D02*
X6518000Y27518500D01*
%TD*%
M02*
