%TF.GenerationSoftware,KiCad,Pcbnew,7.0.9-7.0.9~ubuntu22.04.1*%
%TF.CreationDate,2025-04-08T09:34:51+03:00*%
%TF.ProjectId,PICO2-BB48_Rev_A,5049434f-322d-4424-9234-385f5265765f,A*%
%TF.SameCoordinates,PX8321560PY7f50c60*%
%TF.FileFunction,Soldermask,Top*%
%TF.FilePolarity,Negative*%
%FSLAX46Y46*%
G04 Gerber Fmt 4.6, Leading zero omitted, Abs format (unit mm)*
G04 Created by KiCad (PCBNEW 7.0.9-7.0.9~ubuntu22.04.1) date 2025-04-08 09:34:51*
%MOMM*%
%LPD*%
G01*
G04 APERTURE LIST*
G04 Aperture macros list*
%AMRoundRect*
0 Rectangle with rounded corners*
0 $1 Rounding radius*
0 $2 $3 $4 $5 $6 $7 $8 $9 X,Y pos of 4 corners*
0 Add a 4 corners polygon primitive as box body*
4,1,4,$2,$3,$4,$5,$6,$7,$8,$9,$2,$3,0*
0 Add four circle primitives for the rounded corners*
1,1,$1+$1,$2,$3*
1,1,$1+$1,$4,$5*
1,1,$1+$1,$6,$7*
1,1,$1+$1,$8,$9*
0 Add four rect primitives between the rounded corners*
20,1,$1+$1,$2,$3,$4,$5,0*
20,1,$1+$1,$4,$5,$6,$7,0*
20,1,$1+$1,$6,$7,$8,$9,0*
20,1,$1+$1,$8,$9,$2,$3,0*%
G04 Aperture macros list end*
%ADD10C,3.000000*%
%ADD11RoundRect,0.050800X-0.400000X0.400000X-0.400000X-0.400000X0.400000X-0.400000X0.400000X0.400000X0*%
%ADD12RoundRect,0.050800X0.850000X-1.000000X0.850000X1.000000X-0.850000X1.000000X-0.850000X-1.000000X0*%
%ADD13RoundRect,0.050800X0.275000X-0.250000X0.275000X0.250000X-0.275000X0.250000X-0.275000X-0.250000X0*%
%ADD14RoundRect,0.050800X-0.275000X0.250000X-0.275000X-0.250000X0.275000X-0.250000X0.275000X0.250000X0*%
%ADD15RoundRect,0.050800X-0.325000X0.525000X-0.325000X-0.525000X0.325000X-0.525000X0.325000X0.525000X0*%
%ADD16RoundRect,0.050800X0.250000X0.275000X-0.250000X0.275000X-0.250000X-0.275000X0.250000X-0.275000X0*%
%ADD17RoundRect,0.050800X-0.250000X-0.275000X0.250000X-0.275000X0.250000X0.275000X-0.250000X0.275000X0*%
%ADD18RoundRect,0.050800X-0.600000X-1.550000X0.600000X-1.550000X0.600000X1.550000X-0.600000X1.550000X0*%
%ADD19RoundRect,0.050800X-0.300000X-0.775000X0.300000X-0.775000X0.300000X0.775000X-0.300000X0.775000X0*%
%ADD20C,0.701600*%
%ADD21RoundRect,0.050800X0.550000X1.100000X-0.550000X1.100000X-0.550000X-1.100000X0.550000X-1.100000X0*%
%ADD22O,1.301600X2.301600*%
%ADD23RoundRect,0.050800X0.550000X1.000000X-0.550000X1.000000X-0.550000X-1.000000X0.550000X-1.000000X0*%
%ADD24O,1.401600X2.101600*%
%ADD25RoundRect,0.050800X0.150000X0.575000X-0.150000X0.575000X-0.150000X-0.575000X0.150000X-0.575000X0*%
%ADD26RoundRect,0.050800X0.125000X0.575000X-0.125000X0.575000X-0.125000X-0.575000X0.125000X-0.575000X0*%
%ADD27RoundRect,0.050800X-0.889000X0.889000X-0.889000X-0.889000X0.889000X-0.889000X0.889000X0.889000X0*%
%ADD28C,1.879600*%
%ADD29RoundRect,0.050800X-0.900000X0.450000X-0.900000X-0.450000X0.900000X-0.450000X0.900000X0.450000X0*%
%ADD30RoundRect,0.050800X0.700000X0.600000X-0.700000X0.600000X-0.700000X-0.600000X0.700000X-0.600000X0*%
%ADD31RoundRect,0.050800X0.508000X-0.508000X0.508000X0.508000X-0.508000X0.508000X-0.508000X-0.508000X0*%
%ADD32RoundRect,0.050800X-1.800000X-1.800000X1.800000X-1.800000X1.800000X1.800000X-1.800000X1.800000X0*%
%ADD33C,1.901600*%
%ADD34RoundRect,0.050800X-0.100000X-0.390000X0.100000X-0.390000X0.100000X0.390000X-0.100000X0.390000X0*%
%ADD35RoundRect,0.050800X0.100000X-0.390000X0.100000X0.390000X-0.100000X0.390000X-0.100000X-0.390000X0*%
%ADD36RoundRect,0.050800X-0.390000X0.100000X-0.390000X-0.100000X0.390000X-0.100000X0.390000X0.100000X0*%
%ADD37RoundRect,0.050800X-0.390000X-0.100000X0.390000X-0.100000X0.390000X0.100000X-0.390000X0.100000X0*%
%ADD38RoundRect,0.050800X-0.100000X0.390000X-0.100000X-0.390000X0.100000X-0.390000X0.100000X0.390000X0*%
%ADD39RoundRect,0.050800X-0.450000X-0.900000X0.450000X-0.900000X0.450000X0.900000X-0.450000X0.900000X0*%
%ADD40RoundRect,0.050800X0.125000X-0.350000X0.125000X0.350000X-0.125000X0.350000X-0.125000X-0.350000X0*%
%ADD41RoundRect,0.050800X-0.300000X-1.100000X0.300000X-1.100000X0.300000X1.100000X-0.300000X1.100000X0*%
G04 APERTURE END LIST*
D10*
%TO.C,FID1*%
X4105000Y1420000D03*
%TD*%
D11*
%TO.C,LED1*%
X12000000Y48238000D03*
X12000000Y49762000D03*
%TD*%
D10*
%TO.C,FID3*%
X4486000Y59586000D03*
%TD*%
%TO.C,FID2*%
X14265000Y1420000D03*
%TD*%
D12*
%TO.C,D1*%
X14011000Y54292000D03*
X14011000Y59292000D03*
%TD*%
D13*
%TO.C,R18*%
X14392000Y5230000D03*
D14*
X14392000Y4214000D03*
%TD*%
D13*
%TO.C,R17*%
X13503000Y5230000D03*
D14*
X13503000Y4214000D03*
%TD*%
D15*
%TO.C,RST1*%
X6075000Y19075000D03*
X6075000Y14925000D03*
X3925000Y19075000D03*
X3925000Y14925000D03*
%TD*%
D16*
%TO.C,R5*%
X6137000Y58570000D03*
D17*
X7153000Y58570000D03*
%TD*%
%TO.C,R12*%
X11979000Y58570000D03*
D16*
X10963000Y58570000D03*
%TD*%
D18*
%TO.C,pUEXT1*%
X3350000Y11350000D03*
X14950000Y11350000D03*
D19*
X4650000Y9575000D03*
X5650000Y9575000D03*
X6650000Y9575000D03*
X7650000Y9575000D03*
X8650000Y9575000D03*
X9650000Y9575000D03*
X10650000Y9575000D03*
X11650000Y9575000D03*
X12650000Y9575000D03*
X13650000Y9575000D03*
%TD*%
D15*
%TO.C,BOOT1*%
X14075000Y19075000D03*
X14075000Y14925000D03*
X11925000Y19075000D03*
X11925000Y14925000D03*
%TD*%
D14*
%TO.C,R15*%
X12106000Y50950000D03*
D13*
X12106000Y51966000D03*
%TD*%
D20*
%TO.C,USB-C1*%
X6260000Y62970000D03*
X12040000Y62970000D03*
D21*
X4222400Y62470000D03*
D22*
X4830000Y62470000D03*
X13470000Y62470000D03*
D21*
X14077600Y62470000D03*
D23*
X4222400Y66650000D03*
D24*
X4830000Y66650000D03*
X13470000Y66650000D03*
D23*
X14077600Y66650000D03*
D25*
X12475000Y61568000D03*
X11675000Y61568000D03*
D26*
X10400000Y61568000D03*
X9400000Y61568000D03*
X8900000Y61568000D03*
X7900000Y61568000D03*
D25*
X6625000Y61568000D03*
X5825000Y61568000D03*
X6075000Y61568000D03*
X6875000Y61568000D03*
D26*
X7400000Y61568000D03*
X8400000Y61568000D03*
X9900000Y61568000D03*
X10900000Y61568000D03*
D25*
X11425000Y61568000D03*
X12225000Y61568000D03*
%TD*%
D17*
%TO.C,R13*%
X5248000Y57173000D03*
D16*
X4232000Y57173000D03*
%TD*%
D13*
%TO.C,C14*%
X13503000Y43965000D03*
D14*
X13503000Y42949000D03*
%TD*%
D27*
%TO.C,SWD1*%
X14265000Y26940000D03*
D28*
X14265000Y24400000D03*
X14265000Y21860000D03*
%TD*%
D29*
%TO.C,L1*%
X11979000Y44665000D03*
X11979000Y43265000D03*
%TD*%
D17*
%TO.C,R2*%
X6899000Y21105000D03*
D16*
X5883000Y21105000D03*
%TD*%
D30*
%TO.C,Q1*%
X10412000Y26477000D03*
X8212000Y24877000D03*
X10412000Y24877000D03*
X8212000Y26477000D03*
%TD*%
D17*
%TO.C,C21*%
X9058000Y27963000D03*
D16*
X8042000Y27963000D03*
%TD*%
D13*
%TO.C,FB1*%
X15281000Y43965000D03*
D14*
X15281000Y42949000D03*
%TD*%
D31*
%TO.C,C22*%
X11598000Y55522000D03*
X11598000Y57300000D03*
%TD*%
D16*
%TO.C,C2*%
X13249000Y28852000D03*
D17*
X14265000Y28852000D03*
%TD*%
D32*
%TO.C,U3*%
X9150000Y35000000D03*
D33*
X9150000Y35000000D03*
D34*
X5350000Y39896500D03*
X5750000Y39896500D03*
X6150000Y39896500D03*
X6550000Y39896500D03*
X6950000Y39896500D03*
X7350000Y39896500D03*
X7750000Y39896500D03*
X8150000Y39896500D03*
X8550000Y39896500D03*
X8950000Y39896500D03*
X9350000Y39896500D03*
X9750000Y39896500D03*
X10150000Y39896500D03*
X10550000Y39896500D03*
X10950000Y39896500D03*
D35*
X11350000Y39896500D03*
X11750000Y39896500D03*
X12150000Y39896500D03*
X12550000Y39896500D03*
X12950000Y39896500D03*
D36*
X14046500Y38800000D03*
X14046500Y38400000D03*
X14046500Y38000000D03*
X14046500Y37600000D03*
X14046500Y37200000D03*
X14046500Y36800000D03*
X14046500Y36400000D03*
X14046500Y36000000D03*
X14046500Y35600000D03*
X14046500Y35200000D03*
X14046500Y34800000D03*
X14046500Y34400000D03*
X14046500Y34000000D03*
X14046500Y33600000D03*
X14046500Y33200000D03*
D37*
X14046500Y32800000D03*
X14046500Y32400000D03*
X14046500Y32000000D03*
X14046500Y31600000D03*
X14046500Y31200000D03*
D38*
X12950000Y30103500D03*
X12550000Y30103500D03*
X12150000Y30103500D03*
X11750000Y30103500D03*
X11350000Y30103500D03*
X10950000Y30103500D03*
X10550000Y30103500D03*
X10150000Y30103500D03*
X9750000Y30103500D03*
X9350000Y30103500D03*
D34*
X8950000Y30103500D03*
X8550000Y30103500D03*
X8150000Y30103500D03*
X7750000Y30103500D03*
X7350000Y30103500D03*
X6950000Y30103500D03*
X6550000Y30103500D03*
X6150000Y30103500D03*
X5750000Y30103500D03*
X5350000Y30103500D03*
D36*
X4253500Y31200000D03*
X4253500Y31600000D03*
X4253500Y32000000D03*
X4253500Y32400000D03*
X4253500Y32800000D03*
D37*
X4253500Y33200000D03*
X4253500Y33600000D03*
X4253500Y34000000D03*
X4253500Y34400000D03*
X4253500Y34800000D03*
X4253500Y35200000D03*
X4253500Y35600000D03*
X4253500Y36000000D03*
X4253500Y36400000D03*
X4253500Y36800000D03*
X4253500Y37200000D03*
X4253500Y37600000D03*
X4253500Y38000000D03*
X4253500Y38400000D03*
X4253500Y38800000D03*
%TD*%
D39*
%TO.C,L2*%
X7977000Y54125000D03*
X9377000Y54125000D03*
%TD*%
D40*
%TO.C,U2*%
X8685000Y56042000D03*
X9185000Y56042000D03*
X9685000Y56042000D03*
X9685000Y57542000D03*
X9185000Y57542000D03*
X8685000Y57542000D03*
%TD*%
D13*
%TO.C,R3*%
X14392000Y43965000D03*
D14*
X14392000Y42949000D03*
%TD*%
D13*
%TO.C,C20*%
X11979000Y26820000D03*
D14*
X11979000Y25804000D03*
%TD*%
D17*
%TO.C,C18*%
X14138000Y41806000D03*
D16*
X13122000Y41806000D03*
%TD*%
D31*
%TO.C,C24*%
X6264000Y54125000D03*
X6264000Y55903000D03*
%TD*%
D16*
%TO.C,R11*%
X11090000Y21105000D03*
D17*
X12106000Y21105000D03*
%TD*%
D13*
%TO.C,R1*%
X4232000Y48029000D03*
D14*
X4232000Y47013000D03*
%TD*%
%TO.C,C1*%
X4232000Y50188000D03*
D13*
X4232000Y51204000D03*
%TD*%
D41*
%TO.C,U1*%
X5502000Y44540000D03*
X6772000Y44540000D03*
X8042000Y44540000D03*
X9312000Y44540000D03*
X9312000Y51010000D03*
X8042000Y51010000D03*
X6772000Y51010000D03*
X5502000Y51010000D03*
%TD*%
D17*
%TO.C,R9*%
X11090000Y27963000D03*
D16*
X10074000Y27963000D03*
%TD*%
D31*
%TO.C,C25*%
X4613000Y54125000D03*
X4613000Y55903000D03*
%TD*%
D16*
%TO.C,R14*%
X6137000Y57173000D03*
D17*
X7153000Y57173000D03*
%TD*%
D18*
%TO.C,QWST1*%
X6350000Y4350000D03*
X11950000Y4350000D03*
D19*
X7650000Y2575000D03*
X8650000Y2575000D03*
X9650000Y2575000D03*
X10650000Y2575000D03*
%TD*%
D13*
%TO.C,C19*%
X15281000Y42060000D03*
D14*
X15281000Y41044000D03*
%TD*%
D16*
%TO.C,C6*%
X5756000Y27074000D03*
D17*
X6772000Y27074000D03*
%TD*%
D16*
%TO.C,C5*%
X5756000Y27963000D03*
D17*
X6772000Y27963000D03*
%TD*%
D27*
%TO.C,EXT2*%
X16805000Y67587000D03*
D28*
X16805000Y65047000D03*
X16805000Y62507000D03*
X16805000Y59967000D03*
X16805000Y57427000D03*
X16805000Y54887000D03*
X16805000Y52347000D03*
X16805000Y49807000D03*
X16805000Y47267000D03*
X16805000Y44727000D03*
X16805000Y42187000D03*
X16805000Y39647000D03*
X16805000Y37107000D03*
X16805000Y34567000D03*
X16805000Y32027000D03*
X16805000Y29487000D03*
X16805000Y26947000D03*
X16805000Y24407000D03*
X16805000Y21867000D03*
X16805000Y19327000D03*
X16805000Y16787000D03*
X16805000Y14247000D03*
X16805000Y11707000D03*
X16805000Y9167000D03*
X16805000Y6627000D03*
X16805000Y4087000D03*
X16805000Y1547000D03*
%TD*%
D27*
%TO.C,EXT1*%
X1565000Y67587000D03*
D28*
X1565000Y65047000D03*
X1565000Y62507000D03*
X1565000Y59967000D03*
X1565000Y57427000D03*
X1565000Y54887000D03*
X1565000Y52347000D03*
X1565000Y49807000D03*
X1565000Y47267000D03*
X1565000Y44727000D03*
X1565000Y42187000D03*
X1565000Y39647000D03*
X1565000Y37107000D03*
X1565000Y34567000D03*
X1565000Y32027000D03*
X1565000Y29487000D03*
X1565000Y26947000D03*
X1565000Y24407000D03*
X1565000Y21867000D03*
X1565000Y19327000D03*
X1565000Y16787000D03*
X1565000Y14247000D03*
X1565000Y11707000D03*
X1565000Y9167000D03*
X1565000Y6627000D03*
X1565000Y4087000D03*
X1565000Y1547000D03*
%TD*%
G36*
X11794121Y68709998D02*
G01*
X11840614Y68656342D01*
X11852000Y68604000D01*
X11852000Y67713000D01*
X11831998Y67644879D01*
X11778342Y67598386D01*
X11726000Y67587000D01*
X6390000Y67587000D01*
X6321879Y67607002D01*
X6275386Y67660658D01*
X6264000Y67713000D01*
X6264000Y68604000D01*
X6284002Y68672121D01*
X6337658Y68718614D01*
X6390000Y68730000D01*
X11726000Y68730000D01*
X11794121Y68709998D01*
G37*
M02*
