M48
; DRILL file {KiCad 7.0.9-7.0.9~ubuntu22.04.1} date  8.04.2025 (вт)  9:34:59
; FORMAT={-:-/ absolute / metric / decimal}
; #@! TF.CreationDate,2025-04-08T09:34:59+03:00
; #@! TF.GenerationSoftware,Kicad,Pcbnew,7.0.9-7.0.9~ubuntu22.04.1
; #@! TF.FileFunction,Plated,1,4,PTH
FMAT,2
METRIC
; #@! TA.AperFunction,Plated,PTH,ViaDrill
T1C0.300
; #@! TA.AperFunction,Plated,PTH,ViaDrill
T2C0.400
; #@! TA.AperFunction,Plated,PTH,ViaDrill
T3C0.600
; #@! TA.AperFunction,Plated,PTH,ComponentDrill
T4C0.600
; #@! TA.AperFunction,Plated,PTH,ComponentDrill
T5C0.800
; #@! TA.AperFunction,Plated,PTH,ComponentDrill
T6C1.000
; #@! TA.AperFunction,Plated,PTH,ComponentDrill
T7C1.200
%
G90
G05
T1
X2.657Y17.828
X3.902Y3.858
X4.13Y42.035
X4.137Y39.393
X4.613Y44.092
X4.772Y28.82
X4.791Y30.757
X4.791Y29.912
X5.121Y27.963
X5.121Y27.074
X5.121Y26.058
X5.121Y25.042
X5.121Y24.058
X5.121Y21.994
X5.146Y37.666
X5.172Y34.288
X5.248Y35.837
X5.248Y31.519
X5.375Y20.343
X5.477Y32.687
X5.502Y41.933
X5.502Y41.076
X5.604Y33.526
X5.629Y36.599
X5.629Y35.075
X5.985Y31.011
X6.112Y38.987
X6.137Y31.9
X6.137Y0.785
X6.391Y25.55
X6.391Y24.534
X6.772Y46.124
X6.772Y41.425
X6.867Y26.313
X6.924Y38.733
X7.407Y65.047
X7.407Y13.866
X7.788Y38.885
X7.788Y23.01
X7.915Y46.124
X8.55Y60.348
X8.677Y23.01
X8.804Y48.156
X9.058Y66.825
X9.058Y13.866
X9.185Y32.567
X9.439Y22.451
X9.439Y6.246
X9.447Y60.348
X9.566Y21.486
X9.693Y58.976
X9.693Y30.941
X9.82Y49.172
X9.82Y23.899
X9.922Y41.273
X9.947Y28.979
X10.074Y32.408
X10.099Y62.71
X10.531Y31.163
X10.582Y23.264
X10.709Y50.696
X10.836Y65.047
X10.836Y41.273
X10.963Y32.134
X11.09Y22.502
X11.217Y52.474
X11.344Y30.96
X11.598Y36.599
X11.598Y25.169
X12.074Y35.837
X12.074Y35.075
X12.106Y52.855
X12.36Y37.361
X12.36Y0.785
X12.462Y31.189
X12.468Y32.103
X13.249Y30.757
X13.249Y5.865
X13.63Y29.995
X14.519Y16.152
X14.773Y3.325
X14.849Y28.471
X14.875Y32.789
X15.137Y33.904
X15.157Y35.813
X15.173Y32.009
X15.433Y36.929
X15.433Y34.694
X15.535Y39.012
X15.611Y37.818
X15.637Y33.195
X15.916Y41.095
X15.965Y36.031
X17.345Y35.837
X17.44Y38.377
T2
X4.867Y49.299
X6.137Y46.886
X6.645Y52.855
X7.407Y56.03
X8.042Y56.792
X9.312Y46.124
X10.582Y57.681
X10.582Y56.665
X12.995Y57.046
X12.995Y56.03
X14.011Y47.013
T3
X4.359Y8.024
X4.613Y53.109
X4.613Y51.966
X5.248Y12.342
X5.375Y7.262
X7.153Y19.581
X7.534Y4.087
X8.931Y4.087
X10.836Y11.834
X11.09Y38.377
X11.344Y47.14
X11.344Y45.997
X11.979Y15.898
X12.233Y38.377
X13.37Y40.923
X13.503Y45.87
X13.503Y44.727
X14.265Y57.427
X14.265Y56.284
X14.646Y9.167
T4
X7.95Y36.2
X7.95Y33.73
X10.35Y36.2
X10.35Y33.8
T6
X1.565Y67.587
X1.565Y65.047
X1.565Y62.507
X1.565Y59.967
X1.565Y57.427
X1.565Y54.887
X1.565Y52.347
X1.565Y49.807
X1.565Y47.267
X1.565Y44.727
X1.565Y42.187
X1.565Y39.647
X1.565Y37.107
X1.565Y34.567
X1.565Y32.027
X1.565Y29.487
X1.565Y26.947
X1.565Y24.407
X1.565Y21.867
X1.565Y19.327
X1.565Y16.787
X1.565Y14.247
X1.565Y11.707
X1.565Y9.167
X1.565Y6.627
X1.565Y4.087
X1.565Y1.547
X14.265Y26.94
X14.265Y24.4
X14.265Y21.86
X16.805Y67.587
X16.805Y65.047
X16.805Y62.507
X16.805Y59.967
X16.805Y57.427
X16.805Y54.887
X16.805Y52.347
X16.805Y49.807
X16.805Y47.267
X16.805Y44.727
X16.805Y42.187
X16.805Y39.647
X16.805Y37.107
X16.805Y34.567
X16.805Y32.027
X16.805Y29.487
X16.805Y26.947
X16.805Y24.407
X16.805Y21.867
X16.805Y19.327
X16.805Y16.787
X16.805Y14.247
X16.805Y11.707
X16.805Y9.167
X16.805Y6.627
X16.805Y4.087
X16.805Y1.547
T7
X9.15Y35.0
T5
G00X4.83Y66.35
M15
G01X4.83Y66.95
M16
G05
G00X4.83Y62.02
M15
G01X4.83Y62.92
M16
G05
G00X13.47Y66.35
M15
G01X13.47Y66.95
M16
G05
G00X13.47Y62.02
M15
G01X13.47Y62.92
M16
G05
T0
M30
