%TF.GenerationSoftware,KiCad,Pcbnew,7.0.9-7.0.9~ubuntu22.04.1*%
%TF.CreationDate,2025-04-08T09:34:51+03:00*%
%TF.ProjectId,PICO2-BB48_Rev_A,5049434f-322d-4424-9234-385f5265765f,A*%
%TF.SameCoordinates,PX8321560PY7f50c60*%
%TF.FileFunction,Copper,L2,Inr*%
%TF.FilePolarity,Positive*%
%FSLAX46Y46*%
G04 Gerber Fmt 4.6, Leading zero omitted, Abs format (unit mm)*
G04 Created by KiCad (PCBNEW 7.0.9-7.0.9~ubuntu22.04.1) date 2025-04-08 09:34:51*
%MOMM*%
%LPD*%
G01*
G04 APERTURE LIST*
%ADD10C,0.222250*%
%TA.AperFunction,NonConductor*%
%ADD11C,0.222250*%
%TD*%
%TA.AperFunction,ComponentPad*%
%ADD12O,1.200000X2.200000*%
%TD*%
%TA.AperFunction,ComponentPad*%
%ADD13O,1.300000X2.000000*%
%TD*%
%TA.AperFunction,ComponentPad*%
%ADD14R,1.778000X1.778000*%
%TD*%
%TA.AperFunction,ComponentPad*%
%ADD15C,1.778000*%
%TD*%
%TA.AperFunction,HeatsinkPad*%
%ADD16C,1.000000*%
%TD*%
%TA.AperFunction,HeatsinkPad*%
%ADD17C,1.800000*%
%TD*%
%TA.AperFunction,ViaPad*%
%ADD18C,0.800000*%
%TD*%
%TA.AperFunction,ViaPad*%
%ADD19C,0.700000*%
%TD*%
%TA.AperFunction,ViaPad*%
%ADD20C,1.000000*%
%TD*%
%TA.AperFunction,Conductor*%
%ADD21C,1.524000*%
%TD*%
%TA.AperFunction,Conductor*%
%ADD22C,1.016000*%
%TD*%
%TA.AperFunction,Conductor*%
%ADD23C,0.762000*%
%TD*%
%TA.AperFunction,Conductor*%
%ADD24C,2.540000*%
%TD*%
%TA.AperFunction,Conductor*%
%ADD25C,0.127000*%
%TD*%
G04 APERTURE END LIST*
D10*
D11*
X8018379Y67841001D02*
X7976045Y67883334D01*
X7976045Y67883334D02*
X7933712Y67968001D01*
X7933712Y67968001D02*
X7933712Y68179667D01*
X7933712Y68179667D02*
X7976045Y68264334D01*
X7976045Y68264334D02*
X8018379Y68306667D01*
X8018379Y68306667D02*
X8103045Y68349001D01*
X8103045Y68349001D02*
X8187712Y68349001D01*
X8187712Y68349001D02*
X8314712Y68306667D01*
X8314712Y68306667D02*
X8822712Y67798667D01*
X8822712Y67798667D02*
X8822712Y68349001D01*
D12*
%TO.N,GND*%
%TO.C,USB-C1*%
X4830000Y62470000D03*
X13470000Y62470000D03*
D13*
X4830000Y66650000D03*
X13470000Y66650000D03*
%TD*%
D14*
%TO.N,/SWDIO*%
%TO.C,SWD1*%
X14265000Y26940000D03*
D15*
%TO.N,/SWCLK*%
X14265000Y24400000D03*
%TO.N,GND*%
X14265000Y21860000D03*
%TD*%
D16*
%TO.N,GND*%
%TO.C,U3*%
X7950000Y33730000D03*
X10350000Y33800000D03*
D17*
X9150000Y35000000D03*
D16*
X7950000Y36200000D03*
X10350000Y36200000D03*
%TD*%
D14*
%TO.N,VBUS*%
%TO.C,EXT2*%
X16805000Y67587000D03*
D15*
%TO.N,VSYS*%
X16805000Y65047000D03*
%TO.N,GND*%
X16805000Y62507000D03*
%TO.N,/GPIO24\u005CSPI1_RX\u005CSD_DAT0*%
X16805000Y59967000D03*
%TO.N,/GPIO25\u005CUser_Led*%
X16805000Y57427000D03*
%TO.N,/GPIO26*%
X16805000Y54887000D03*
%TO.N,/GPIO27*%
X16805000Y52347000D03*
%TO.N,/GPIO28*%
X16805000Y49807000D03*
%TO.N,/GPIO29*%
X16805000Y47267000D03*
%TO.N,/GPIO30*%
X16805000Y44727000D03*
%TO.N,/GPIO31*%
X16805000Y42187000D03*
%TO.N,/GPIO32*%
X16805000Y39647000D03*
%TO.N,/GPIO33*%
X16805000Y37107000D03*
%TO.N,/GPIO34*%
X16805000Y34567000D03*
%TO.N,/GPIO35*%
X16805000Y32027000D03*
%TO.N,/GPIO36*%
X16805000Y29487000D03*
%TO.N,/GPIO37*%
X16805000Y26947000D03*
%TO.N,/GPIO38*%
X16805000Y24407000D03*
%TO.N,/GPIO39*%
X16805000Y21867000D03*
%TO.N,/GPIO40*%
X16805000Y19327000D03*
%TO.N,/GPIO41*%
X16805000Y16787000D03*
%TO.N,/GPIO42*%
X16805000Y14247000D03*
%TO.N,/GPIO43*%
X16805000Y11707000D03*
%TO.N,/GPIO44*%
X16805000Y9167000D03*
%TO.N,/GPIO45*%
X16805000Y6627000D03*
%TO.N,/GPIO46*%
X16805000Y4087000D03*
%TO.N,/GPIO47*%
X16805000Y1547000D03*
%TD*%
D14*
%TO.N,+3.3V*%
%TO.C,EXT1*%
X1565000Y67587000D03*
D15*
%TO.N,GND*%
X1565000Y65047000D03*
%TO.N,/3V3_EN*%
X1565000Y62507000D03*
%TO.N,/GPIO0\u005CUART0_TX*%
X1565000Y59967000D03*
%TO.N,/GPIO1\u005CUART0_RX*%
X1565000Y57427000D03*
%TO.N,/GPIO2\u005CI2C1_SDA*%
X1565000Y54887000D03*
%TO.N,/GPIO3\u005CI2C1_SCL*%
X1565000Y52347000D03*
%TO.N,/GPIO4\u005CSPI0_RX(MISO)*%
X1565000Y49807000D03*
%TO.N,/GPIO5\u005CSPI0_CSn(CS#)*%
X1565000Y47267000D03*
%TO.N,/GPIO6\u005CSPI0_SCK(SCK)*%
X1565000Y44727000D03*
%TO.N,/GPIO7\u005CSPI0_TX(MOSI)*%
X1565000Y42187000D03*
%TO.N,/GPIO8\u005CQMI_CS1n*%
X1565000Y39647000D03*
%TO.N,/GPIO9\u005CSPI1_CSn*%
X1565000Y37107000D03*
%TO.N,/GPIO10\u005CSPI1_SCK\u005CSD_CLK*%
X1565000Y34567000D03*
%TO.N,/GPIO11\u005CSPI1_TX\u005CSD_CMD*%
X1565000Y32027000D03*
%TO.N,/GPIO12*%
X1565000Y29487000D03*
%TO.N,/GPIO13*%
X1565000Y26947000D03*
%TO.N,/GPIO14*%
X1565000Y24407000D03*
%TO.N,/GPIO15*%
X1565000Y21867000D03*
%TO.N,/GPIO16*%
X1565000Y19327000D03*
%TO.N,/GPIO17*%
X1565000Y16787000D03*
%TO.N,/GPIO18*%
X1565000Y14247000D03*
%TO.N,/GPIO19*%
X1565000Y11707000D03*
%TO.N,/GPIO20*%
X1565000Y9167000D03*
%TO.N,/GPIO21*%
X1565000Y6627000D03*
%TO.N,/GPIO22*%
X1565000Y4087000D03*
%TO.N,/GPIO23*%
X1565000Y1547000D03*
%TD*%
D18*
%TO.N,GND*%
X12995000Y57046000D03*
D19*
X9058000Y66825000D03*
X9058000Y13866000D03*
X9439000Y6246000D03*
D18*
X10582000Y57681000D03*
D19*
X9693000Y58976400D03*
D20*
X7534000Y4087000D03*
D19*
X6867000Y26312838D03*
D20*
X10836000Y11834000D03*
X14646000Y9167000D03*
D19*
X9947000Y28979000D03*
D20*
X11344000Y47140000D03*
D19*
X10836000Y65047000D03*
X5629000Y35075000D03*
X11598000Y25169000D03*
X12106000Y52855000D03*
D18*
X4867000Y49299000D03*
D19*
X5629000Y36599000D03*
D20*
X11979000Y15898000D03*
D18*
X12995000Y56030000D03*
D19*
X7407000Y13866000D03*
X12360000Y785000D03*
X14849200Y28471000D03*
X3901800Y3858400D03*
D18*
X7407000Y56030000D03*
D20*
X11344000Y45997000D03*
D19*
X6137000Y785000D03*
X14773000Y3325000D03*
D18*
X8042000Y56792000D03*
D20*
X5248000Y12342000D03*
D19*
X4613000Y44092000D03*
X7407000Y65047000D03*
D18*
X10582000Y56665000D03*
D19*
X15916000Y41094800D03*
D18*
X6137000Y46886000D03*
X9312000Y46124000D03*
D19*
X9820000Y23899000D03*
D20*
X13369793Y40923207D03*
X5375000Y7262000D03*
D18*
X6645000Y52855000D03*
D19*
%TO.N,/USB_D-*%
X8550000Y60348000D03*
%TO.N,/USB_D+*%
X9446930Y60347588D03*
D20*
%TO.N,+3.3V*%
X12233000Y38377000D03*
X11090000Y38377000D03*
D19*
X12074000Y35837000D03*
X5146400Y37665800D03*
X5121000Y27074000D03*
X14519000Y16152000D03*
X6772000Y41425000D03*
D20*
X7153000Y19581000D03*
X4359000Y8024000D03*
D19*
X5121000Y27963000D03*
D18*
X14011000Y47013000D03*
D19*
X5171800Y34287600D03*
X13249000Y5865000D03*
D20*
X4613000Y51966000D03*
X8931000Y4087000D03*
D19*
X12074000Y35075000D03*
X2657200Y17828400D03*
D20*
X4613000Y53109000D03*
D19*
%TO.N,/+1V1*%
X9693000Y30941000D03*
D20*
X13503000Y44727000D03*
D19*
X11598000Y36599000D03*
X5248000Y35837000D03*
D20*
X13503000Y45870000D03*
D19*
%TO.N,/RUN*%
X10582000Y23264000D03*
X5121000Y24058000D03*
%TO.N,/GPIO25\u005CUser_Led*%
X10074000Y32408000D03*
%TO.N,/GPIO29*%
X12468200Y32103200D03*
%TO.N,/GPIO7\u005CSPI0_TX(MOSI)*%
X9566000Y21486000D03*
%TO.N,/GPIO5\u005CSPI0_CSn(CS#)*%
X8677000Y23010000D03*
%TO.N,/GPIO4\u005CSPI0_RX(MISO)*%
X4137000Y39393000D03*
X7788000Y23010000D03*
%TO.N,/GPIO0\u005CUART0_TX*%
X5502000Y41933000D03*
X5121000Y26058000D03*
%TO.N,/GPIO1\u005CUART0_RX*%
X5502000Y41076000D03*
X5121000Y25042000D03*
%TO.N,/GPIO18*%
X6137000Y31900000D03*
%TO.N,/GPIO24\u005CSPI1_RX\u005CSD_DAT0*%
X9185000Y32567000D03*
%TO.N,/GPIO20*%
X4790800Y30757000D03*
%TO.N,/GPIO19*%
X5248000Y31519000D03*
%TO.N,/GPIO21*%
X4790800Y29911940D03*
%TO.N,/GPIO23*%
X4772000Y28820000D03*
%TO.N,/GPIO22*%
X5984600Y31011000D03*
%TO.N,/GPIO26*%
X10963000Y32133613D03*
%TO.N,/GPIO27*%
X10531200Y31163400D03*
%TO.N,/GPIO28*%
X11344000Y30960200D03*
%TO.N,/USB_CC1*%
X10099400Y62710200D03*
%TO.N,/D-*%
X10836000Y41272600D03*
%TO.N,/D+*%
X9921600Y41272600D03*
D20*
%TO.N,VSYS*%
X14265000Y57427000D03*
X14265000Y56284000D03*
D19*
%TO.N,/GPIO31*%
X13630000Y29995000D03*
%TO.N,/GPIO30*%
X12461600Y31188800D03*
%TO.N,/GPIO9\u005CSPI1_CSn*%
X5121000Y21994000D03*
X5375000Y20343000D03*
%TO.N,/GPIO8\u005CQMI_CS1n*%
X6924400Y38732600D03*
X11217000Y52474000D03*
%TO.N,/GPIO3\u005CI2C1_SCL*%
X4130400Y42034600D03*
X6391000Y25550000D03*
%TO.N,/GPIO2\u005CI2C1_SDA*%
X6111600Y38986600D03*
X6391000Y24534000D03*
%TO.N,/GPIO17*%
X5476600Y32687400D03*
%TO.N,/GPIO16*%
X5603600Y33525600D03*
%TO.N,/GPIO6\u005CSPI0_SCK(SCK)*%
X9439000Y22451200D03*
%TO.N,/GPIO47*%
X15535000Y39012000D03*
%TO.N,/GPIO46*%
X17440000Y38377000D03*
%TO.N,/GPIO45*%
X15611200Y37818200D03*
%TO.N,/QSPI_CSn*%
X7788000Y38885000D03*
X11090000Y22502000D03*
%TO.N,/GPIO44*%
X12360000Y37361000D03*
%TO.N,/QSPI_CLK*%
X9820000Y49172000D03*
%TO.N,/GPIO40*%
X17344500Y35837000D03*
%TO.N,/QSPI_SD0*%
X8804000Y48156000D03*
%TO.N,/QSPI_SD1*%
X6772000Y46124000D03*
%TO.N,/GPIO41*%
X15157227Y35813150D03*
%TO.N,/GPIO42*%
X15964846Y36030553D03*
%TO.N,/QSPI_SD2*%
X7915000Y46124000D03*
%TO.N,/QSPI_SD3*%
X10709000Y50696000D03*
%TO.N,/GPIO43*%
X15433400Y36929200D03*
%TO.N,/GPIO35*%
X15172800Y32009315D03*
%TO.N,/GPIO32*%
X13249000Y30757000D03*
%TO.N,/GPIO36*%
X14874600Y32789000D03*
%TO.N,/GPIO37*%
X15636600Y33195400D03*
%TO.N,/GPIO38*%
X15137434Y33904076D03*
%TO.N,/GPIO39*%
X15433400Y34694000D03*
%TD*%
D21*
%TO.N,GND*%
X9150000Y35000000D02*
X9150000Y39809000D01*
D22*
X7950000Y33730000D02*
X7950000Y28979000D01*
D23*
X11979000Y24788000D02*
X11979000Y21232000D01*
D22*
X7950000Y25169000D02*
X11598000Y25169000D01*
D23*
X11979000Y21232000D02*
X11725000Y20978000D01*
D24*
X5121000Y44219000D02*
X4867000Y44473000D01*
D22*
X7950000Y25169000D02*
X7950000Y24645200D01*
D24*
X8296000Y42949000D02*
X7026000Y44219000D01*
X4867000Y44473000D02*
X4867000Y49045000D01*
D23*
X11598000Y25169000D02*
X11979000Y24788000D01*
D24*
X4867000Y49045000D02*
X7407000Y51585000D01*
D21*
X9150000Y39809000D02*
X8296000Y40663000D01*
D22*
X7950000Y24645200D02*
X6543400Y23238600D01*
X7950000Y28979000D02*
X7950000Y25169000D01*
D24*
X7026000Y44219000D02*
X5121000Y44219000D01*
X7407000Y51585000D02*
X7407000Y56030000D01*
D21*
X8296000Y42949000D02*
X8296000Y40663000D01*
D25*
%TO.N,/GPIO18*%
X4706662Y32120662D02*
X3216000Y30630000D01*
X6137000Y31900000D02*
X5916338Y32120662D01*
X3216000Y30630000D02*
X3216000Y15898000D01*
X3216000Y15898000D02*
X1565000Y14247000D01*
X5916338Y32120662D02*
X4706662Y32120662D01*
%TO.N,/GPIO20*%
X2835000Y10818000D02*
X1565000Y9548000D01*
X1565000Y9548000D02*
X1565000Y9167000D01*
X4771682Y30738442D02*
X4594442Y30738442D01*
X3216000Y14755000D02*
X3216000Y13358000D01*
X3724000Y29868000D02*
X3724000Y15263000D01*
X4594442Y30738442D02*
X3724000Y29868000D01*
X2835000Y12977000D02*
X2835000Y10818000D01*
X3724000Y15263000D02*
X3216000Y14755000D01*
X3216000Y13358000D02*
X2835000Y12977000D01*
%TO.N,/GPIO19*%
X2835000Y14882000D02*
X2835000Y13485000D01*
X2835000Y13485000D02*
X1565000Y12215000D01*
X3470000Y30376000D02*
X3470000Y15517000D01*
X4613000Y31519000D02*
X3470000Y30376000D01*
X5248000Y31519000D02*
X4613000Y31519000D01*
X1565000Y12215000D02*
X1565000Y11707000D01*
X3470000Y15517000D02*
X2835000Y14882000D01*
%TO.N,/GPIO21*%
X3216000Y10627500D02*
X2835000Y10246500D01*
X3597000Y13231000D02*
X3216000Y12850000D01*
X3216000Y12850000D02*
X3216000Y10627500D01*
X2835000Y7897000D02*
X1565000Y6627000D01*
X4790800Y29911940D02*
X4275940Y29911940D01*
X2835000Y10246500D02*
X2835000Y7897000D01*
X3978000Y29614000D02*
X3978000Y15009000D01*
X4275940Y29911940D02*
X3978000Y29614000D01*
X3597000Y14628000D02*
X3597000Y13231000D01*
X3978000Y15009000D02*
X3597000Y14628000D01*
%TO.N,/GPIO23*%
X3978000Y10183000D02*
X3597000Y9802000D01*
X4486000Y12977000D02*
X3978000Y12469000D01*
X4772000Y28820000D02*
X4486000Y28534000D01*
X3597000Y9802000D02*
X3597000Y6119000D01*
X2835000Y5357000D02*
X2835000Y2817000D01*
X4486000Y28534000D02*
X4486000Y12977000D01*
X2835000Y2817000D02*
X1565000Y1547000D01*
X3978000Y12469000D02*
X3978000Y10183000D01*
X3597000Y6119000D02*
X2835000Y5357000D01*
%TO.N,/GPIO22*%
X4486000Y29360000D02*
X4232000Y29106000D01*
X5201691Y29360000D02*
X4486000Y29360000D01*
X3216000Y6309500D02*
X1565000Y4658500D01*
X5502000Y30528400D02*
X5502000Y29660309D01*
X4232000Y29106000D02*
X4232000Y14755000D01*
X4232000Y14755000D02*
X3978000Y14501000D01*
X3978000Y13040500D02*
X3597000Y12659500D01*
X3597000Y10437000D02*
X3216000Y10056000D01*
X5984600Y31011000D02*
X5502000Y30528400D01*
X3978000Y14501000D02*
X3978000Y13040500D01*
X3216000Y10056000D02*
X3216000Y6309500D01*
X5502000Y29660309D02*
X5201691Y29360000D01*
X1565000Y4658500D02*
X1565000Y4087000D01*
X3597000Y12659500D02*
X3597000Y10437000D01*
%TO.N,/GPIO17*%
X1565000Y17549000D02*
X1565000Y16787000D01*
X2962000Y30884000D02*
X2962000Y18946000D01*
X2962000Y18946000D02*
X1565000Y17549000D01*
X5476600Y32687400D02*
X4765400Y32687400D01*
X4765400Y32687400D02*
X2962000Y30884000D01*
%TO.N,/GPIO16*%
X5603600Y33525600D02*
X5095600Y33525600D01*
X2708000Y31138000D02*
X2708000Y20470000D01*
X2708000Y20470000D02*
X1565000Y19327000D01*
X5095600Y33525600D02*
X2708000Y31138000D01*
%TO.N,/GPIO44*%
X12614000Y20597000D02*
X15154000Y18057000D01*
X15662000Y12977000D02*
X15662000Y10310000D01*
X15662000Y10310000D02*
X16805000Y9167000D01*
X12360000Y37361000D02*
X13249000Y36472000D01*
X13249000Y31569800D02*
X14265000Y30553800D01*
X14265000Y29791800D02*
X12614000Y28140800D01*
X14265000Y30553800D02*
X14265000Y29791800D01*
X15154000Y18057000D02*
X15154000Y13485000D01*
X12614000Y28140800D02*
X12614000Y20597000D01*
X15154000Y13485000D02*
X15662000Y12977000D01*
X13249000Y36472000D02*
X13249000Y31569800D01*
%TO.N,/GPIO40*%
X16548356Y35837000D02*
X15964156Y35252800D01*
X15662000Y20470000D02*
X16805000Y19327000D01*
X17344500Y35837000D02*
X16548356Y35837000D01*
X14265000Y34440000D02*
X14265000Y31990640D01*
X14265000Y31990640D02*
X15662000Y30593640D01*
X15964156Y35252800D02*
X15077800Y35252800D01*
X15077800Y35252800D02*
X14265000Y34440000D01*
X15662000Y30593640D02*
X15662000Y20470000D01*
%TO.N,/GPIO41*%
X14011000Y31885430D02*
X14011000Y34807461D01*
X15408000Y30488430D02*
X14011000Y31885430D01*
X16805000Y16787000D02*
X16805000Y17549000D01*
X15016689Y35813150D02*
X15157227Y35813150D01*
X14011000Y34807461D02*
X15016689Y35813150D01*
X15408000Y18946000D02*
X15408000Y30488430D01*
X16805000Y17549000D02*
X15408000Y18946000D01*
%TO.N,/GPIO42*%
X13122000Y20829210D02*
X15662000Y18289210D01*
X15662000Y15390000D02*
X16805000Y14247000D01*
X15027000Y30510220D02*
X15027000Y29800890D01*
X13757000Y31780220D02*
X15027000Y30510220D01*
X13757000Y35265500D02*
X13757000Y31780220D01*
X15624999Y36370400D02*
X14861900Y36370400D01*
X15027000Y29800890D02*
X13122000Y27895890D01*
X13122000Y27895890D02*
X13122000Y20829210D01*
X15662000Y18289210D02*
X15662000Y15390000D01*
X15964846Y36030553D02*
X15624999Y36370400D01*
X14861900Y36370400D02*
X13757000Y35265500D01*
%TO.N,/GPIO43*%
X12868000Y28013800D02*
X12868000Y20724000D01*
X16805000Y12405500D02*
X16805000Y11707000D01*
X13503000Y31675010D02*
X14646000Y30532010D01*
X14849200Y36929200D02*
X13503000Y35583000D01*
X15408000Y18184000D02*
X15408000Y13802500D01*
X12868000Y20724000D02*
X15408000Y18184000D01*
X15408000Y13802500D02*
X16805000Y12405500D01*
X13503000Y35583000D02*
X13503000Y31675010D01*
X14646000Y30532010D02*
X14646000Y29791800D01*
X15433400Y36929200D02*
X14849200Y36929200D01*
X14646000Y29791800D02*
X12868000Y28013800D01*
%TD*%
%TA.AperFunction,Conductor*%
%TO.N,GND*%
G36*
X499743Y68674135D02*
G01*
X529807Y68622064D01*
X519366Y68562850D01*
X516328Y68557965D01*
X508045Y68545569D01*
X497700Y68493560D01*
X497700Y66680437D01*
X497701Y66680435D01*
X508043Y66628435D01*
X508043Y66628434D01*
X508044Y66628432D01*
X508045Y66628431D01*
X547453Y66569453D01*
X606431Y66530045D01*
X658439Y66519700D01*
X1056644Y66519701D01*
X1113143Y66499136D01*
X1143207Y66447065D01*
X1142280Y66411989D01*
X1133967Y66376059D01*
X1564999Y65945027D01*
X1634972Y66015000D01*
X3707130Y66015000D01*
X3745572Y65879889D01*
X3841233Y65687777D01*
X3970560Y65516520D01*
X4129157Y65371939D01*
X4195000Y65331172D01*
X5465000Y65331172D01*
X5530841Y65371939D01*
X5530842Y65371939D01*
X5689439Y65516520D01*
X5818766Y65687777D01*
X5914427Y65879889D01*
X5952870Y66015000D01*
X12347130Y66015000D01*
X12385572Y65879889D01*
X12481233Y65687777D01*
X12610560Y65516520D01*
X12769157Y65371939D01*
X12835000Y65331172D01*
X14105000Y65331172D01*
X14170841Y65371939D01*
X14170842Y65371939D01*
X14329439Y65516520D01*
X14458766Y65687777D01*
X14554427Y65879889D01*
X14592870Y66015000D01*
X14105001Y66015000D01*
X14105000Y66014999D01*
X14105000Y65331172D01*
X12835000Y65331172D01*
X12835000Y66014999D01*
X12834999Y66015000D01*
X12347130Y66015000D01*
X5952870Y66015000D01*
X5465001Y66015000D01*
X5465000Y66014999D01*
X5465000Y65331172D01*
X4195000Y65331172D01*
X4195000Y66014999D01*
X4194999Y66015000D01*
X3707130Y66015000D01*
X1634972Y66015000D01*
X1938491Y66318519D01*
X4430000Y66318519D01*
X4444835Y66224852D01*
X4502359Y66111955D01*
X4591955Y66022359D01*
X4704852Y65964835D01*
X4830000Y65945014D01*
X4955148Y65964835D01*
X5068045Y66022359D01*
X5157641Y66111955D01*
X5215165Y66224852D01*
X5230000Y66318519D01*
X13070000Y66318519D01*
X13084835Y66224852D01*
X13142359Y66111955D01*
X13231955Y66022359D01*
X13344852Y65964835D01*
X13470000Y65945014D01*
X13595148Y65964835D01*
X13708045Y66022359D01*
X13797641Y66111955D01*
X13855165Y66224852D01*
X13870000Y66318519D01*
X13870000Y66981481D01*
X13855165Y67075148D01*
X13797641Y67188045D01*
X13708045Y67277641D01*
X13595148Y67335165D01*
X13470000Y67354986D01*
X13344852Y67335165D01*
X13231955Y67277641D01*
X13142359Y67188045D01*
X13084835Y67075148D01*
X13070000Y66981481D01*
X13070000Y66318519D01*
X5230000Y66318519D01*
X5230000Y66981481D01*
X5215165Y67075148D01*
X5157641Y67188045D01*
X5068045Y67277641D01*
X4955148Y67335165D01*
X4830000Y67354986D01*
X4704852Y67335165D01*
X4591955Y67277641D01*
X4502359Y67188045D01*
X4444835Y67075148D01*
X4430000Y66981481D01*
X4430000Y66318519D01*
X1938491Y66318519D01*
X1996030Y66376058D01*
X1987718Y66411988D01*
X1995018Y66471671D01*
X2038974Y66512698D01*
X2073354Y66519701D01*
X2471560Y66519701D01*
X2471564Y66519701D01*
X2471565Y66519702D01*
X2523565Y66530044D01*
X2523566Y66530044D01*
X2523566Y66530045D01*
X2523569Y66530045D01*
X2582547Y66569453D01*
X2621955Y66628431D01*
X2632300Y66680439D01*
X2632300Y67285000D01*
X3707130Y67285000D01*
X4194999Y67285000D01*
X4195000Y67285001D01*
X4195000Y67968830D01*
X4194999Y67968831D01*
X5465000Y67968831D01*
X5465000Y67285001D01*
X5465001Y67285000D01*
X5952870Y67285000D01*
X12347130Y67285000D01*
X12834999Y67285000D01*
X12835000Y67285001D01*
X12835000Y67968830D01*
X12834999Y67968831D01*
X14105000Y67968831D01*
X14105000Y67285001D01*
X14105001Y67285000D01*
X14592870Y67285000D01*
X14554427Y67420112D01*
X14458766Y67612224D01*
X14329439Y67783481D01*
X14170843Y67928062D01*
X14170834Y67928068D01*
X14105000Y67968831D01*
X12834999Y67968831D01*
X12769165Y67928068D01*
X12769156Y67928062D01*
X12610560Y67783481D01*
X12481233Y67612224D01*
X12385572Y67420112D01*
X12347130Y67285000D01*
X5952870Y67285000D01*
X5914427Y67420112D01*
X5818766Y67612224D01*
X5689439Y67783481D01*
X5530843Y67928062D01*
X5530834Y67928068D01*
X5465000Y67968831D01*
X4194999Y67968831D01*
X4129165Y67928068D01*
X4129156Y67928062D01*
X3970560Y67783481D01*
X3841233Y67612224D01*
X3745572Y67420112D01*
X3707130Y67285000D01*
X2632300Y67285000D01*
X2632299Y68493560D01*
X2632299Y68493561D01*
X2632299Y68493564D01*
X2632298Y68493566D01*
X2621956Y68545566D01*
X2621956Y68545568D01*
X2613672Y68557965D01*
X2599380Y68616369D01*
X2625974Y68670296D01*
X2681009Y68694512D01*
X2686758Y68694700D01*
X6049100Y68694700D01*
X6105601Y68674135D01*
X6135665Y68622064D01*
X6137000Y68606800D01*
X6137000Y67460000D01*
X6137001Y67460000D01*
X11978999Y67460000D01*
X11979000Y67460000D01*
X11979000Y68606800D01*
X11999565Y68663301D01*
X12051636Y68693365D01*
X12066900Y68694700D01*
X15683242Y68694700D01*
X15739743Y68674135D01*
X15769807Y68622064D01*
X15759366Y68562850D01*
X15756328Y68557965D01*
X15748045Y68545569D01*
X15737700Y68493560D01*
X15737700Y66680437D01*
X15737701Y66680435D01*
X15748043Y66628435D01*
X15748043Y66628434D01*
X15748044Y66628432D01*
X15748045Y66628431D01*
X15787453Y66569453D01*
X15846431Y66530045D01*
X15898439Y66519700D01*
X17711560Y66519701D01*
X17711563Y66519701D01*
X17711565Y66519702D01*
X17763565Y66530044D01*
X17763566Y66530044D01*
X17763566Y66530045D01*
X17763569Y66530045D01*
X17822547Y66569453D01*
X17833715Y66586168D01*
X17882202Y66621720D01*
X17942200Y66617788D01*
X17985635Y66576210D01*
X17994700Y66537332D01*
X17994700Y65394396D01*
X17974135Y65337895D01*
X17922064Y65307831D01*
X17862850Y65318272D01*
X17824201Y65364332D01*
X17822685Y65368880D01*
X17795829Y65457410D01*
X17795829Y65457411D01*
X17795828Y65457412D01*
X17795828Y65457414D01*
X17696721Y65642829D01*
X17563347Y65805347D01*
X17400829Y65938721D01*
X17215414Y66037828D01*
X17215413Y66037829D01*
X17215410Y66037830D01*
X17014233Y66098856D01*
X17014228Y66098857D01*
X17014227Y66098857D01*
X16805000Y66119464D01*
X16595773Y66098857D01*
X16595771Y66098857D01*
X16595766Y66098856D01*
X16394590Y66037830D01*
X16394589Y66037830D01*
X16209170Y65938721D01*
X16046655Y65805349D01*
X16046651Y65805345D01*
X15913279Y65642830D01*
X15814170Y65457411D01*
X15814170Y65457410D01*
X15753144Y65256234D01*
X15753143Y65256229D01*
X15753143Y65256227D01*
X15732536Y65047000D01*
X15739616Y64975111D01*
X15753144Y64837767D01*
X15814170Y64636591D01*
X15814170Y64636590D01*
X15814171Y64636587D01*
X15814172Y64636586D01*
X15913279Y64451171D01*
X16046653Y64288653D01*
X16209171Y64155279D01*
X16394586Y64056172D01*
X16394588Y64056172D01*
X16394589Y64056171D01*
X16464185Y64035059D01*
X16512283Y63998979D01*
X16525937Y63940422D01*
X16498757Y63886789D01*
X16464064Y63867820D01*
X16464320Y63867075D01*
X16373968Y63836058D01*
X16804999Y63405027D01*
X17236030Y63836058D01*
X17236031Y63836058D01*
X17145680Y63867075D01*
X17146077Y63868234D01*
X17100030Y63899537D01*
X17083667Y63957395D01*
X17108323Y64012234D01*
X17145814Y64035059D01*
X17166087Y64041209D01*
X17215414Y64056172D01*
X17400829Y64155279D01*
X17563347Y64288653D01*
X17696721Y64451171D01*
X17795828Y64636586D01*
X17811279Y64687523D01*
X17822685Y64725121D01*
X17858765Y64773219D01*
X17917322Y64786873D01*
X17970955Y64759693D01*
X17994569Y64704397D01*
X17994700Y64699605D01*
X17994700Y62835085D01*
X17974135Y62778584D01*
X17968955Y62772930D01*
X17728770Y62532745D01*
X17710078Y62524029D01*
X17709716Y62523154D01*
X17700565Y62509461D01*
X17968955Y62241071D01*
X17994366Y62186577D01*
X17994700Y62178916D01*
X17994700Y60314396D01*
X17974135Y60257895D01*
X17922064Y60227831D01*
X17862850Y60238272D01*
X17824201Y60284332D01*
X17822685Y60288880D01*
X17795829Y60377410D01*
X17795829Y60377411D01*
X17795828Y60377412D01*
X17795828Y60377414D01*
X17696721Y60562829D01*
X17563347Y60725347D01*
X17400829Y60858721D01*
X17215414Y60957828D01*
X17215413Y60957829D01*
X17215410Y60957830D01*
X17145815Y60978941D01*
X17097717Y61015021D01*
X17084063Y61073578D01*
X17111243Y61127211D01*
X17145936Y61146179D01*
X17145680Y61146925D01*
X17236030Y61177944D01*
X16802539Y61611435D01*
X16789462Y61602696D01*
X16784435Y61588884D01*
X16779255Y61583230D01*
X16373968Y61177944D01*
X16373967Y61177944D01*
X16464320Y61146925D01*
X16463922Y61145768D01*
X16509973Y61114457D01*
X16526330Y61056598D01*
X16501670Y61001760D01*
X16464184Y60978941D01*
X16394590Y60957830D01*
X16394589Y60957830D01*
X16209170Y60858721D01*
X16046655Y60725349D01*
X16046651Y60725345D01*
X15913279Y60562830D01*
X15814170Y60377411D01*
X15814170Y60377410D01*
X15753144Y60176234D01*
X15753143Y60176229D01*
X15753143Y60176227D01*
X15732536Y59967000D01*
X15747533Y59814729D01*
X15753144Y59757767D01*
X15814170Y59556591D01*
X15814170Y59556590D01*
X15814171Y59556587D01*
X15814172Y59556586D01*
X15913279Y59371171D01*
X16046653Y59208653D01*
X16209171Y59075279D01*
X16394586Y58976172D01*
X16595773Y58915143D01*
X16805000Y58894536D01*
X17014227Y58915143D01*
X17215414Y58976172D01*
X17400829Y59075279D01*
X17563347Y59208653D01*
X17696721Y59371171D01*
X17795828Y59556586D01*
X17811279Y59607523D01*
X17822685Y59645121D01*
X17858765Y59693219D01*
X17917322Y59706873D01*
X17970955Y59679693D01*
X17994569Y59624397D01*
X17994700Y59619605D01*
X17994700Y57774396D01*
X17974135Y57717895D01*
X17922064Y57687831D01*
X17862850Y57698272D01*
X17824201Y57744332D01*
X17822685Y57748880D01*
X17795829Y57837410D01*
X17795829Y57837411D01*
X17795828Y57837412D01*
X17795828Y57837414D01*
X17696721Y58022829D01*
X17563347Y58185347D01*
X17400829Y58318721D01*
X17215414Y58417828D01*
X17215413Y58417829D01*
X17215410Y58417830D01*
X17014233Y58478856D01*
X17014228Y58478857D01*
X17014227Y58478857D01*
X16805000Y58499464D01*
X16595773Y58478857D01*
X16595771Y58478857D01*
X16595766Y58478856D01*
X16394590Y58417830D01*
X16394589Y58417830D01*
X16209170Y58318721D01*
X16046655Y58185349D01*
X16046651Y58185345D01*
X15913279Y58022830D01*
X15814170Y57837411D01*
X15814170Y57837410D01*
X15753144Y57636234D01*
X15753143Y57636229D01*
X15753143Y57636227D01*
X15732536Y57427000D01*
X15748641Y57263480D01*
X15753144Y57217767D01*
X15814170Y57016591D01*
X15814170Y57016590D01*
X15814171Y57016587D01*
X15814172Y57016586D01*
X15913279Y56831171D01*
X16046653Y56668653D01*
X16209171Y56535279D01*
X16394586Y56436172D01*
X16595773Y56375143D01*
X16805000Y56354536D01*
X17014227Y56375143D01*
X17215414Y56436172D01*
X17400829Y56535279D01*
X17563347Y56668653D01*
X17696721Y56831171D01*
X17795828Y57016586D01*
X17811279Y57067523D01*
X17822685Y57105121D01*
X17858765Y57153219D01*
X17917322Y57166873D01*
X17970955Y57139693D01*
X17994569Y57084397D01*
X17994700Y57079605D01*
X17994700Y55234396D01*
X17974135Y55177895D01*
X17922064Y55147831D01*
X17862850Y55158272D01*
X17824201Y55204332D01*
X17822685Y55208880D01*
X17795829Y55297410D01*
X17795829Y55297411D01*
X17795828Y55297412D01*
X17795828Y55297414D01*
X17696721Y55482829D01*
X17563347Y55645347D01*
X17400829Y55778721D01*
X17215414Y55877828D01*
X17215413Y55877829D01*
X17215410Y55877830D01*
X17014233Y55938856D01*
X17014228Y55938857D01*
X17014227Y55938857D01*
X16805000Y55959464D01*
X16595773Y55938857D01*
X16595771Y55938857D01*
X16595766Y55938856D01*
X16394590Y55877830D01*
X16394589Y55877830D01*
X16209170Y55778721D01*
X16046655Y55645349D01*
X16046651Y55645345D01*
X15913279Y55482830D01*
X15814170Y55297411D01*
X15814170Y55297410D01*
X15753144Y55096234D01*
X15732536Y54887000D01*
X15753144Y54677767D01*
X15814170Y54476591D01*
X15814170Y54476590D01*
X15814171Y54476587D01*
X15814172Y54476586D01*
X15913279Y54291171D01*
X16046653Y54128653D01*
X16209171Y53995279D01*
X16394586Y53896172D01*
X16595773Y53835143D01*
X16805000Y53814536D01*
X17014227Y53835143D01*
X17215414Y53896172D01*
X17400829Y53995279D01*
X17563347Y54128653D01*
X17696721Y54291171D01*
X17795828Y54476586D01*
X17811279Y54527523D01*
X17822685Y54565121D01*
X17858765Y54613219D01*
X17917322Y54626873D01*
X17970955Y54599693D01*
X17994569Y54544397D01*
X17994700Y54539605D01*
X17994700Y52694396D01*
X17974135Y52637895D01*
X17922064Y52607831D01*
X17862850Y52618272D01*
X17824201Y52664332D01*
X17822685Y52668880D01*
X17795829Y52757410D01*
X17795829Y52757411D01*
X17795828Y52757412D01*
X17795828Y52757414D01*
X17696721Y52942829D01*
X17563347Y53105347D01*
X17400829Y53238721D01*
X17215414Y53337828D01*
X17215413Y53337829D01*
X17215410Y53337830D01*
X17014233Y53398856D01*
X17014228Y53398857D01*
X17014227Y53398857D01*
X16805000Y53419464D01*
X16595773Y53398857D01*
X16595771Y53398857D01*
X16595766Y53398856D01*
X16394590Y53337830D01*
X16394589Y53337830D01*
X16209170Y53238721D01*
X16046655Y53105349D01*
X16046651Y53105345D01*
X15913279Y52942830D01*
X15814170Y52757411D01*
X15814170Y52757410D01*
X15753144Y52556234D01*
X15753143Y52556229D01*
X15753143Y52556227D01*
X15732536Y52347000D01*
X15738786Y52283538D01*
X15753144Y52137767D01*
X15814170Y51936591D01*
X15814170Y51936590D01*
X15814171Y51936587D01*
X15814172Y51936586D01*
X15913279Y51751171D01*
X16046653Y51588653D01*
X16209171Y51455279D01*
X16394586Y51356172D01*
X16394588Y51356172D01*
X16394589Y51356171D01*
X16490351Y51327122D01*
X16595773Y51295143D01*
X16805000Y51274536D01*
X17014227Y51295143D01*
X17215414Y51356172D01*
X17400829Y51455279D01*
X17563347Y51588653D01*
X17696721Y51751171D01*
X17795828Y51936586D01*
X17811279Y51987523D01*
X17822685Y52025121D01*
X17858765Y52073219D01*
X17917322Y52086873D01*
X17970955Y52059693D01*
X17994569Y52004397D01*
X17994700Y51999605D01*
X17994700Y50154396D01*
X17974135Y50097895D01*
X17922064Y50067831D01*
X17862850Y50078272D01*
X17824201Y50124332D01*
X17822685Y50128880D01*
X17795829Y50217410D01*
X17795829Y50217411D01*
X17795828Y50217412D01*
X17795828Y50217414D01*
X17696721Y50402829D01*
X17563347Y50565347D01*
X17400829Y50698721D01*
X17215414Y50797828D01*
X17215413Y50797829D01*
X17215410Y50797830D01*
X17014233Y50858856D01*
X17014228Y50858857D01*
X17014227Y50858857D01*
X16805000Y50879464D01*
X16595773Y50858857D01*
X16595771Y50858857D01*
X16595766Y50858856D01*
X16394590Y50797830D01*
X16394589Y50797830D01*
X16209170Y50698721D01*
X16046655Y50565349D01*
X16046651Y50565345D01*
X15913279Y50402830D01*
X15814170Y50217411D01*
X15814170Y50217410D01*
X15753144Y50016234D01*
X15753143Y50016229D01*
X15753143Y50016227D01*
X15732536Y49807000D01*
X15749627Y49633468D01*
X15753144Y49597767D01*
X15814170Y49396591D01*
X15814170Y49396590D01*
X15814171Y49396587D01*
X15814172Y49396586D01*
X15913279Y49211171D01*
X16046653Y49048653D01*
X16209171Y48915279D01*
X16394586Y48816172D01*
X16595773Y48755143D01*
X16805000Y48734536D01*
X17014227Y48755143D01*
X17215414Y48816172D01*
X17400829Y48915279D01*
X17563347Y49048653D01*
X17696721Y49211171D01*
X17795828Y49396586D01*
X17811279Y49447523D01*
X17822685Y49485121D01*
X17858765Y49533219D01*
X17917322Y49546873D01*
X17970955Y49519693D01*
X17994569Y49464397D01*
X17994700Y49459605D01*
X17994700Y47614396D01*
X17974135Y47557895D01*
X17922064Y47527831D01*
X17862850Y47538272D01*
X17824201Y47584332D01*
X17822685Y47588880D01*
X17795829Y47677410D01*
X17795829Y47677411D01*
X17795828Y47677412D01*
X17795828Y47677414D01*
X17696721Y47862829D01*
X17563347Y48025347D01*
X17400829Y48158721D01*
X17215414Y48257828D01*
X17215413Y48257829D01*
X17215410Y48257830D01*
X17014233Y48318856D01*
X17014228Y48318857D01*
X17014227Y48318857D01*
X16805000Y48339464D01*
X16595773Y48318857D01*
X16595771Y48318857D01*
X16595766Y48318856D01*
X16394590Y48257830D01*
X16394589Y48257830D01*
X16209170Y48158721D01*
X16046655Y48025349D01*
X16046651Y48025345D01*
X15913279Y47862830D01*
X15814170Y47677411D01*
X15814170Y47677410D01*
X15753144Y47476234D01*
X15753143Y47476229D01*
X15753143Y47476227D01*
X15736244Y47304648D01*
X15732536Y47267000D01*
X15753144Y47057767D01*
X15814170Y46856591D01*
X15814170Y46856590D01*
X15814171Y46856587D01*
X15814172Y46856586D01*
X15913279Y46671171D01*
X16046653Y46508653D01*
X16209171Y46375279D01*
X16394586Y46276172D01*
X16394588Y46276172D01*
X16394589Y46276171D01*
X16441588Y46261914D01*
X16595773Y46215143D01*
X16805000Y46194536D01*
X17014227Y46215143D01*
X17215414Y46276172D01*
X17400829Y46375279D01*
X17563347Y46508653D01*
X17696721Y46671171D01*
X17795828Y46856586D01*
X17811279Y46907523D01*
X17822685Y46945121D01*
X17858765Y46993219D01*
X17917322Y47006873D01*
X17970955Y46979693D01*
X17994569Y46924397D01*
X17994700Y46919605D01*
X17994700Y45074396D01*
X17974135Y45017895D01*
X17922064Y44987831D01*
X17862850Y44998272D01*
X17824201Y45044332D01*
X17822685Y45048880D01*
X17795829Y45137410D01*
X17795829Y45137411D01*
X17795828Y45137412D01*
X17795828Y45137414D01*
X17696721Y45322829D01*
X17563347Y45485347D01*
X17400829Y45618721D01*
X17215414Y45717828D01*
X17215413Y45717829D01*
X17215410Y45717830D01*
X17014233Y45778856D01*
X17014228Y45778857D01*
X17014227Y45778857D01*
X16805000Y45799464D01*
X16595773Y45778857D01*
X16595771Y45778857D01*
X16595766Y45778856D01*
X16394590Y45717830D01*
X16394589Y45717830D01*
X16209170Y45618721D01*
X16046655Y45485349D01*
X16046651Y45485345D01*
X15913279Y45322830D01*
X15814170Y45137411D01*
X15814170Y45137410D01*
X15753144Y44936234D01*
X15753143Y44936229D01*
X15753143Y44936227D01*
X15732536Y44727000D01*
X15748641Y44563480D01*
X15753144Y44517767D01*
X15814170Y44316591D01*
X15814170Y44316590D01*
X15814171Y44316587D01*
X15814172Y44316586D01*
X15913279Y44131171D01*
X16046653Y43968653D01*
X16209171Y43835279D01*
X16394586Y43736172D01*
X16595773Y43675143D01*
X16805000Y43654536D01*
X17014227Y43675143D01*
X17215414Y43736172D01*
X17400829Y43835279D01*
X17563347Y43968653D01*
X17696721Y44131171D01*
X17795828Y44316586D01*
X17811279Y44367523D01*
X17822685Y44405121D01*
X17858765Y44453219D01*
X17917322Y44466873D01*
X17970955Y44439693D01*
X17994569Y44384397D01*
X17994700Y44379605D01*
X17994700Y42534396D01*
X17974135Y42477895D01*
X17922064Y42447831D01*
X17862850Y42458272D01*
X17824201Y42504332D01*
X17822685Y42508880D01*
X17795829Y42597410D01*
X17795829Y42597411D01*
X17795828Y42597412D01*
X17795828Y42597414D01*
X17696721Y42782829D01*
X17563347Y42945347D01*
X17400829Y43078721D01*
X17215414Y43177828D01*
X17215413Y43177829D01*
X17215410Y43177830D01*
X17014233Y43238856D01*
X17014228Y43238857D01*
X17014227Y43238857D01*
X16805000Y43259464D01*
X16595773Y43238857D01*
X16595771Y43238857D01*
X16595766Y43238856D01*
X16394590Y43177830D01*
X16394589Y43177830D01*
X16209170Y43078721D01*
X16046655Y42945349D01*
X16046651Y42945345D01*
X15913279Y42782830D01*
X15814170Y42597411D01*
X15814170Y42597410D01*
X15753144Y42396234D01*
X15753143Y42396229D01*
X15753143Y42396227D01*
X15732536Y42187000D01*
X15743969Y42070914D01*
X15753144Y41977767D01*
X15814170Y41776591D01*
X15814170Y41776590D01*
X15814171Y41776587D01*
X15814172Y41776586D01*
X15913279Y41591171D01*
X16046653Y41428653D01*
X16209171Y41295279D01*
X16394586Y41196172D01*
X16394588Y41196172D01*
X16394589Y41196171D01*
X16518550Y41158568D01*
X16595773Y41135143D01*
X16805000Y41114536D01*
X17014227Y41135143D01*
X17215414Y41196172D01*
X17400829Y41295279D01*
X17563347Y41428653D01*
X17696721Y41591171D01*
X17795828Y41776586D01*
X17811279Y41827523D01*
X17822685Y41865121D01*
X17858765Y41913219D01*
X17917322Y41926873D01*
X17970955Y41899693D01*
X17994569Y41844397D01*
X17994700Y41839605D01*
X17994700Y39994396D01*
X17974135Y39937895D01*
X17922064Y39907831D01*
X17862850Y39918272D01*
X17824201Y39964332D01*
X17822685Y39968880D01*
X17795829Y40057410D01*
X17795829Y40057411D01*
X17795828Y40057412D01*
X17795828Y40057414D01*
X17696721Y40242829D01*
X17563347Y40405347D01*
X17400829Y40538721D01*
X17215414Y40637828D01*
X17215413Y40637829D01*
X17215410Y40637830D01*
X17014233Y40698856D01*
X17014228Y40698857D01*
X17014227Y40698857D01*
X16805000Y40719464D01*
X16595773Y40698857D01*
X16595771Y40698857D01*
X16595766Y40698856D01*
X16394590Y40637830D01*
X16394589Y40637830D01*
X16209170Y40538721D01*
X16046655Y40405349D01*
X16046651Y40405345D01*
X15913279Y40242830D01*
X15814170Y40057411D01*
X15814170Y40057410D01*
X15753144Y39856234D01*
X15753143Y39856229D01*
X15753143Y39856227D01*
X15744629Y39769785D01*
X15732536Y39646998D01*
X15734467Y39627387D01*
X15719538Y39569143D01*
X15670662Y39534122D01*
X15635517Y39531626D01*
X15535000Y39544859D01*
X15397085Y39526702D01*
X15268571Y39473470D01*
X15158213Y39388790D01*
X15158210Y39388787D01*
X15073530Y39278429D01*
X15020298Y39149915D01*
X15002141Y39012000D01*
X15020298Y38874086D01*
X15073531Y38745570D01*
X15073532Y38745568D01*
X15148490Y38647882D01*
X15158212Y38635212D01*
X15210428Y38595145D01*
X15254221Y38561541D01*
X15268570Y38550531D01*
X15397086Y38497298D01*
X15430832Y38492856D01*
X15484165Y38465094D01*
X15507175Y38409544D01*
X15489096Y38352199D01*
X15452998Y38324499D01*
X15344770Y38279669D01*
X15234413Y38194990D01*
X15234410Y38194987D01*
X15149730Y38084629D01*
X15096498Y37956115D01*
X15078341Y37818200D01*
X15096498Y37680286D01*
X15149731Y37551770D01*
X15149732Y37551768D01*
X15180415Y37511781D01*
X15198495Y37454436D01*
X15175485Y37398886D01*
X15164187Y37388534D01*
X15135463Y37366495D01*
X15131986Y37364083D01*
X14847168Y37186227D01*
X14814360Y37173966D01*
X14810526Y37173359D01*
X14786765Y37164238D01*
X14773543Y37160321D01*
X14748654Y37155030D01*
X14742182Y37150329D01*
X14722031Y37139388D01*
X14714565Y37136522D01*
X14714561Y37136520D01*
X14696565Y37118524D01*
X14686082Y37109570D01*
X14665493Y37094611D01*
X14661498Y37087691D01*
X14647532Y37069491D01*
X14626083Y37048042D01*
X14622385Y37044740D01*
X14618686Y37041793D01*
X14615472Y37039176D01*
X14615464Y37039169D01*
X14614541Y37037913D01*
X14605905Y37027864D01*
X13640855Y36062813D01*
X13586361Y36037402D01*
X13528283Y36052965D01*
X13493795Y36102218D01*
X13490800Y36124968D01*
X13490800Y36464502D01*
X13490860Y36466802D01*
X13491242Y36474100D01*
X13493159Y36510671D01*
X13484036Y36534435D01*
X13480120Y36547656D01*
X13474830Y36572546D01*
X13470132Y36579012D01*
X13459185Y36599175D01*
X13456321Y36606636D01*
X13448289Y36614668D01*
X13438322Y36624636D01*
X13429366Y36635122D01*
X13421873Y36645435D01*
X13414410Y36655707D01*
X13408674Y36659019D01*
X13407493Y36659701D01*
X13389288Y36673669D01*
X13075565Y36987392D01*
X13055302Y37018991D01*
X13052012Y37027864D01*
X13018401Y37118524D01*
X12858902Y37548745D01*
X12858192Y37550564D01*
X12858191Y37550565D01*
X12858190Y37550569D01*
X12849207Y37564361D01*
X12841662Y37578679D01*
X12821469Y37627429D01*
X12780911Y37680286D01*
X12736791Y37737785D01*
X12736788Y37737788D01*
X12733487Y37740321D01*
X12712854Y37756154D01*
X12680549Y37806863D01*
X12688397Y37866476D01*
X12708078Y37891683D01*
X12744441Y37923897D01*
X12744442Y37923899D01*
X12744444Y37923900D01*
X12838016Y38059463D01*
X12896427Y38213480D01*
X12916282Y38377000D01*
X12912330Y38409544D01*
X12904018Y38478003D01*
X12896427Y38540520D01*
X12838016Y38694537D01*
X12838016Y38694538D01*
X12744446Y38830097D01*
X12744444Y38830100D01*
X12621148Y38939330D01*
X12621146Y38939331D01*
X12621145Y38939332D01*
X12577612Y38962180D01*
X12475295Y39015880D01*
X12475292Y39015881D01*
X12419986Y39029513D01*
X12315361Y39055300D01*
X12150639Y39055300D01*
X12071801Y39035869D01*
X11990707Y39015881D01*
X11990705Y39015881D01*
X11990705Y39015880D01*
X11942087Y38990364D01*
X11844854Y38939332D01*
X11844844Y38939325D01*
X11719788Y38828534D01*
X11663860Y38806460D01*
X11606827Y38825500D01*
X11603212Y38828534D01*
X11478155Y38939325D01*
X11478145Y38939332D01*
X11434612Y38962180D01*
X11332295Y39015880D01*
X11332292Y39015881D01*
X11276986Y39029513D01*
X11172361Y39055300D01*
X11007639Y39055300D01*
X10928801Y39035869D01*
X10847707Y39015881D01*
X10847705Y39015881D01*
X10847705Y39015880D01*
X10799087Y38990364D01*
X10701854Y38939332D01*
X10701849Y38939328D01*
X10644652Y38888656D01*
X10599536Y38848686D01*
X10578553Y38830097D01*
X10484983Y38694538D01*
X10484983Y38694537D01*
X10434545Y38561541D01*
X10426573Y38540520D01*
X10426572Y38540518D01*
X10426572Y38540515D01*
X10406718Y38377002D01*
X10406718Y38376999D01*
X10426050Y38217781D01*
X10426573Y38213480D01*
X10438824Y38181178D01*
X10484983Y38059464D01*
X10484983Y38059463D01*
X10572348Y37932894D01*
X10578556Y37923900D01*
X10701852Y37814670D01*
X10847705Y37738120D01*
X11007639Y37698700D01*
X11007641Y37698700D01*
X11172358Y37698700D01*
X11172361Y37698700D01*
X11332295Y37738120D01*
X11478148Y37814670D01*
X11601444Y37923900D01*
X11601446Y37923905D01*
X11603211Y37925467D01*
X11659140Y37947541D01*
X11716173Y37928501D01*
X11719789Y37925467D01*
X11721553Y37923905D01*
X11721556Y37923900D01*
X11844852Y37814670D01*
X11893105Y37789345D01*
X11933576Y37744880D01*
X11935998Y37684801D01*
X11921992Y37658006D01*
X11898532Y37627431D01*
X11898531Y37627430D01*
X11845298Y37498915D01*
X11827141Y37361000D01*
X11845298Y37223085D01*
X11845932Y37220718D01*
X11845803Y37219249D01*
X11846050Y37217374D01*
X11845634Y37217320D01*
X11840686Y37160820D01*
X11798166Y37118307D01*
X11741680Y37113366D01*
X11741626Y37112950D01*
X11739752Y37113197D01*
X11738282Y37113068D01*
X11735915Y37113702D01*
X11598000Y37131859D01*
X11460085Y37113702D01*
X11331571Y37060470D01*
X11221213Y36975790D01*
X11221210Y36975787D01*
X11136530Y36865429D01*
X11083298Y36736915D01*
X11065141Y36599000D01*
X11083298Y36461086D01*
X11136531Y36332570D01*
X11136532Y36332568D01*
X11162698Y36298468D01*
X11221212Y36222212D01*
X11331570Y36137531D01*
X11383138Y36116171D01*
X11460085Y36084298D01*
X11465944Y36083527D01*
X11484853Y36081038D01*
X11538186Y36053276D01*
X11561197Y35997726D01*
X11559339Y35980720D01*
X11560050Y35980626D01*
X11541141Y35837000D01*
X11559298Y35699086D01*
X11612531Y35570570D01*
X11612532Y35570569D01*
X11659384Y35509510D01*
X11677464Y35452166D01*
X11659384Y35402491D01*
X11612532Y35341432D01*
X11612531Y35341430D01*
X11559298Y35212915D01*
X11541141Y35075000D01*
X11559298Y34937086D01*
X11612531Y34808570D01*
X11612532Y34808568D01*
X11665464Y34739586D01*
X11697212Y34698212D01*
X11741296Y34664385D01*
X11788253Y34628353D01*
X11807570Y34613531D01*
X11936086Y34560298D01*
X12074000Y34542141D01*
X12211914Y34560298D01*
X12340430Y34613531D01*
X12450788Y34698212D01*
X12535469Y34808570D01*
X12588702Y34937086D01*
X12606859Y35075000D01*
X12588702Y35212914D01*
X12535469Y35341429D01*
X12488614Y35402492D01*
X12470535Y35459834D01*
X12488615Y35509510D01*
X12535469Y35570570D01*
X12588702Y35699086D01*
X12606859Y35837000D01*
X12588702Y35974914D01*
X12535469Y36103429D01*
X12509300Y36137533D01*
X12450791Y36213785D01*
X12450787Y36213789D01*
X12340432Y36298468D01*
X12340430Y36298469D01*
X12211914Y36351702D01*
X12187143Y36354964D01*
X12133811Y36382727D01*
X12110802Y36438277D01*
X12112665Y36455280D01*
X12111950Y36455374D01*
X12113304Y36465661D01*
X12130859Y36599000D01*
X12112702Y36736914D01*
X12112701Y36736915D01*
X12111950Y36742626D01*
X12113500Y36742831D01*
X12118152Y36796019D01*
X12160666Y36838537D01*
X12220564Y36843781D01*
X12228368Y36841295D01*
X12702009Y36665698D01*
X12733608Y36645435D01*
X12981455Y36397588D01*
X13006866Y36343094D01*
X13007200Y36335433D01*
X13007200Y32527535D01*
X12986635Y32471034D01*
X12934564Y32440970D01*
X12875350Y32451411D01*
X12849564Y32474025D01*
X12844991Y32479984D01*
X12844987Y32479989D01*
X12734632Y32564668D01*
X12734630Y32564669D01*
X12606114Y32617902D01*
X12468200Y32636059D01*
X12330285Y32617902D01*
X12201771Y32564670D01*
X12091413Y32479990D01*
X12091410Y32479987D01*
X12006730Y32369629D01*
X11953498Y32241115D01*
X11935341Y32103200D01*
X11953498Y31965286D01*
X12006731Y31836770D01*
X12006732Y31836768D01*
X12091411Y31726413D01*
X12091418Y31726406D01*
X12102023Y31718269D01*
X12134330Y31667559D01*
X12126483Y31607946D01*
X12102027Y31578799D01*
X12084813Y31565590D01*
X12084810Y31565587D01*
X12000130Y31455229D01*
X11946898Y31326715D01*
X11942638Y31294358D01*
X11914874Y31241025D01*
X11859323Y31218016D01*
X11801979Y31236097D01*
X11785754Y31252322D01*
X11720791Y31336985D01*
X11720787Y31336989D01*
X11610432Y31421668D01*
X11610430Y31421669D01*
X11481914Y31474902D01*
X11344000Y31493059D01*
X11204210Y31474656D01*
X11145508Y31487670D01*
X11108905Y31535372D01*
X11111528Y31595442D01*
X11152150Y31639772D01*
X11159088Y31643008D01*
X11229430Y31672144D01*
X11339788Y31756825D01*
X11424469Y31867183D01*
X11477702Y31995699D01*
X11495859Y32133613D01*
X11477702Y32271527D01*
X11424469Y32400042D01*
X11413220Y32414702D01*
X11339791Y32510398D01*
X11339787Y32510402D01*
X11229432Y32595081D01*
X11229430Y32595082D01*
X11100914Y32648315D01*
X10963000Y32666472D01*
X10825085Y32648315D01*
X10696570Y32595082D01*
X10690140Y32590148D01*
X10632795Y32572071D01*
X10577246Y32595084D01*
X10555426Y32626249D01*
X10535469Y32674429D01*
X10470657Y32758894D01*
X10450791Y32784785D01*
X10450787Y32784789D01*
X10340432Y32869468D01*
X10340430Y32869469D01*
X10211914Y32922702D01*
X10074000Y32940859D01*
X9936085Y32922702D01*
X9807572Y32869470D01*
X9758500Y32831816D01*
X9701156Y32813737D01*
X9645606Y32836747D01*
X9635255Y32848043D01*
X9561791Y32943785D01*
X9561787Y32943789D01*
X9451432Y33028468D01*
X9451430Y33028469D01*
X9322914Y33081702D01*
X9185000Y33099859D01*
X9047085Y33081702D01*
X8918571Y33028470D01*
X8808213Y32943790D01*
X8808210Y32943787D01*
X8723530Y32833429D01*
X8670298Y32704915D01*
X8652141Y32567000D01*
X8670298Y32429086D01*
X8723531Y32300570D01*
X8723532Y32300568D01*
X8769153Y32241114D01*
X8808212Y32190212D01*
X8918570Y32105531D01*
X9047086Y32052298D01*
X9185000Y32034141D01*
X9322914Y32052298D01*
X9451430Y32105531D01*
X9500497Y32143183D01*
X9557841Y32161263D01*
X9613392Y32138254D01*
X9623743Y32126957D01*
X9697206Y32031219D01*
X9697208Y32031217D01*
X9697212Y32031212D01*
X9807570Y31946531D01*
X9936086Y31893298D01*
X10074000Y31875141D01*
X10211914Y31893298D01*
X10340430Y31946531D01*
X10346851Y31951459D01*
X10404193Y31969543D01*
X10459745Y31946537D01*
X10481573Y31915365D01*
X10490714Y31893298D01*
X10501531Y31867183D01*
X10501532Y31867181D01*
X10530691Y31829181D01*
X10548772Y31771837D01*
X10525763Y31716286D01*
X10472430Y31688522D01*
X10393285Y31678102D01*
X10264771Y31624870D01*
X10154413Y31540190D01*
X10154410Y31540187D01*
X10068246Y31427894D01*
X10017535Y31395588D01*
X9965645Y31402420D01*
X9964753Y31400264D01*
X9959427Y31402470D01*
X9830914Y31455702D01*
X9693000Y31473859D01*
X9555085Y31455702D01*
X9426571Y31402470D01*
X9316213Y31317790D01*
X9316210Y31317787D01*
X9231530Y31207429D01*
X9178298Y31078915D01*
X9160141Y30941000D01*
X9178298Y30803086D01*
X9231531Y30674570D01*
X9231532Y30674568D01*
X9301476Y30583416D01*
X9316212Y30564212D01*
X9365049Y30526738D01*
X9412183Y30490570D01*
X9426570Y30479531D01*
X9555086Y30426298D01*
X9693000Y30408141D01*
X9830914Y30426298D01*
X9959430Y30479531D01*
X10069788Y30564212D01*
X10154469Y30674570D01*
X10154470Y30674575D01*
X10155953Y30676506D01*
X10206664Y30708812D01*
X10258554Y30701981D01*
X10259447Y30704136D01*
X10264769Y30701932D01*
X10264770Y30701931D01*
X10393286Y30648698D01*
X10531200Y30630541D01*
X10669114Y30648698D01*
X10794988Y30700838D01*
X10855058Y30703460D01*
X10898361Y30673139D01*
X10939838Y30619086D01*
X10967212Y30583412D01*
X10998422Y30559464D01*
X11060991Y30511452D01*
X11077570Y30498731D01*
X11206086Y30445498D01*
X11344000Y30427341D01*
X11481914Y30445498D01*
X11610430Y30498731D01*
X11720788Y30583412D01*
X11805469Y30693770D01*
X11858702Y30822286D01*
X11862961Y30854642D01*
X11890724Y30907974D01*
X11946273Y30930984D01*
X12003618Y30912905D01*
X12019844Y30896679D01*
X12037948Y30873086D01*
X12084812Y30812012D01*
X12195170Y30727331D01*
X12323686Y30674098D01*
X12461600Y30655941D01*
X12599514Y30674098D01*
X12614959Y30680497D01*
X12675028Y30683122D01*
X12722732Y30646522D01*
X12733504Y30622045D01*
X12734295Y30619092D01*
X12787531Y30490570D01*
X12787532Y30490568D01*
X12836848Y30426299D01*
X12872212Y30380212D01*
X12982570Y30295531D01*
X13072145Y30258428D01*
X13116475Y30217807D01*
X13124323Y30158194D01*
X13119717Y30143582D01*
X13115297Y30132913D01*
X13097141Y29995000D01*
X13115298Y29857086D01*
X13168531Y29728570D01*
X13168532Y29728568D01*
X13230269Y29648112D01*
X13253212Y29618212D01*
X13363570Y29533531D01*
X13455014Y29495654D01*
X13499344Y29455033D01*
X13507192Y29395420D01*
X13483531Y29352290D01*
X12448307Y28317066D01*
X12446638Y28315483D01*
X12414008Y28286101D01*
X12414007Y28286101D01*
X12403655Y28262849D01*
X12397077Y28250732D01*
X12383216Y28229387D01*
X12381966Y28221495D01*
X12375453Y28199504D01*
X12372200Y28192196D01*
X12372200Y28166749D01*
X12371118Y28153000D01*
X12367137Y28127865D01*
X12367137Y28127860D01*
X12369205Y28120144D01*
X12372200Y28097394D01*
X12372200Y20604499D01*
X12372140Y20602199D01*
X12369841Y20558329D01*
X12378963Y20534566D01*
X12382878Y20521347D01*
X12385272Y20510086D01*
X12388170Y20496452D01*
X12392868Y20489986D01*
X12403811Y20469831D01*
X12406677Y20462366D01*
X12424676Y20444367D01*
X12433633Y20433879D01*
X12448589Y20413294D01*
X12448590Y20413293D01*
X12455503Y20409302D01*
X12473711Y20395332D01*
X14886455Y17982588D01*
X14911866Y17928094D01*
X14912200Y17920433D01*
X14912200Y16692511D01*
X14891635Y16636010D01*
X14839564Y16605946D01*
X14790662Y16611302D01*
X14656914Y16666702D01*
X14519000Y16684859D01*
X14381085Y16666702D01*
X14252571Y16613470D01*
X14142213Y16528790D01*
X14142210Y16528787D01*
X14057530Y16418429D01*
X14004298Y16289915D01*
X13986141Y16152000D01*
X14004298Y16014086D01*
X14057531Y15885570D01*
X14057532Y15885568D01*
X14132490Y15787882D01*
X14142212Y15775212D01*
X14142215Y15775210D01*
X14249744Y15692699D01*
X14252570Y15690531D01*
X14381086Y15637298D01*
X14519000Y15619141D01*
X14656914Y15637298D01*
X14785430Y15690531D01*
X14785432Y15690533D01*
X14790662Y15692699D01*
X14850732Y15695322D01*
X14898434Y15658719D01*
X14912200Y15611490D01*
X14912200Y13492499D01*
X14912140Y13490199D01*
X14909841Y13446329D01*
X14918963Y13422566D01*
X14922880Y13409342D01*
X14928170Y13384452D01*
X14932868Y13377986D01*
X14943811Y13357831D01*
X14946677Y13350366D01*
X14964676Y13332367D01*
X14973633Y13321879D01*
X14988590Y13301293D01*
X14995507Y13297300D01*
X15013711Y13283332D01*
X15394455Y12902589D01*
X15419866Y12848095D01*
X15420200Y12840434D01*
X15420200Y10317499D01*
X15420140Y10315199D01*
X15417841Y10271329D01*
X15426963Y10247566D01*
X15430880Y10234342D01*
X15436170Y10209452D01*
X15440868Y10202986D01*
X15451811Y10182831D01*
X15454677Y10175366D01*
X15469507Y10160536D01*
X15492937Y10118423D01*
X15744062Y9046063D01*
X15745009Y9040344D01*
X15753143Y8957771D01*
X15753145Y8957764D01*
X15814170Y8756591D01*
X15814170Y8756590D01*
X15814171Y8756587D01*
X15814172Y8756586D01*
X15913279Y8571171D01*
X16046653Y8408653D01*
X16209171Y8275279D01*
X16394586Y8176172D01*
X16394588Y8176172D01*
X16394589Y8176171D01*
X16550751Y8128800D01*
X16595773Y8115143D01*
X16805000Y8094536D01*
X17014227Y8115143D01*
X17215414Y8176172D01*
X17400829Y8275279D01*
X17563347Y8408653D01*
X17696721Y8571171D01*
X17795828Y8756586D01*
X17811279Y8807523D01*
X17822685Y8845121D01*
X17858765Y8893219D01*
X17917322Y8906873D01*
X17970955Y8879693D01*
X17994569Y8824397D01*
X17994700Y8819605D01*
X17994700Y6974396D01*
X17974135Y6917895D01*
X17922064Y6887831D01*
X17862850Y6898272D01*
X17824201Y6944332D01*
X17822685Y6948880D01*
X17795829Y7037410D01*
X17795829Y7037411D01*
X17795828Y7037412D01*
X17795828Y7037414D01*
X17696721Y7222829D01*
X17563347Y7385347D01*
X17400829Y7518721D01*
X17215414Y7617828D01*
X17215413Y7617829D01*
X17215410Y7617830D01*
X17014233Y7678856D01*
X17014228Y7678857D01*
X17014227Y7678857D01*
X16805000Y7699464D01*
X16595773Y7678857D01*
X16595771Y7678857D01*
X16595766Y7678856D01*
X16394590Y7617830D01*
X16394589Y7617830D01*
X16209170Y7518721D01*
X16046655Y7385349D01*
X16046651Y7385345D01*
X15913279Y7222830D01*
X15814170Y7037411D01*
X15814170Y7037410D01*
X15753144Y6836234D01*
X15753143Y6836229D01*
X15753143Y6836227D01*
X15732536Y6627000D01*
X15750356Y6446068D01*
X15753144Y6417767D01*
X15814170Y6216591D01*
X15814170Y6216590D01*
X15814171Y6216587D01*
X15814172Y6216586D01*
X15913279Y6031171D01*
X16046653Y5868653D01*
X16209171Y5735279D01*
X16394586Y5636172D01*
X16394588Y5636172D01*
X16394589Y5636171D01*
X16518550Y5598568D01*
X16595773Y5575143D01*
X16805000Y5554536D01*
X17014227Y5575143D01*
X17215414Y5636172D01*
X17400829Y5735279D01*
X17563347Y5868653D01*
X17696721Y6031171D01*
X17795828Y6216586D01*
X17811279Y6267523D01*
X17822685Y6305121D01*
X17858765Y6353219D01*
X17917322Y6366873D01*
X17970955Y6339693D01*
X17994569Y6284397D01*
X17994700Y6279605D01*
X17994700Y4434396D01*
X17974135Y4377895D01*
X17922064Y4347831D01*
X17862850Y4358272D01*
X17824201Y4404332D01*
X17822685Y4408880D01*
X17795829Y4497410D01*
X17795829Y4497411D01*
X17795828Y4497412D01*
X17795828Y4497414D01*
X17696721Y4682829D01*
X17563347Y4845347D01*
X17400829Y4978721D01*
X17215414Y5077828D01*
X17215413Y5077829D01*
X17215410Y5077830D01*
X17014233Y5138856D01*
X17014228Y5138857D01*
X17014227Y5138857D01*
X16805000Y5159464D01*
X16595773Y5138857D01*
X16595771Y5138857D01*
X16595766Y5138856D01*
X16394590Y5077830D01*
X16394589Y5077830D01*
X16209170Y4978721D01*
X16046655Y4845349D01*
X16046651Y4845345D01*
X15913279Y4682830D01*
X15814170Y4497411D01*
X15814170Y4497410D01*
X15753144Y4296234D01*
X15753143Y4296229D01*
X15753143Y4296227D01*
X15732536Y4087000D01*
X15748641Y3923480D01*
X15753144Y3877767D01*
X15814170Y3676591D01*
X15814170Y3676590D01*
X15814171Y3676587D01*
X15814172Y3676586D01*
X15913279Y3491171D01*
X16046653Y3328653D01*
X16209171Y3195279D01*
X16394586Y3096172D01*
X16394588Y3096172D01*
X16394589Y3096171D01*
X16550751Y3048800D01*
X16595773Y3035143D01*
X16805000Y3014536D01*
X17014227Y3035143D01*
X17215414Y3096172D01*
X17400829Y3195279D01*
X17563347Y3328653D01*
X17696721Y3491171D01*
X17795828Y3676586D01*
X17811279Y3727523D01*
X17822685Y3765121D01*
X17858765Y3813219D01*
X17917322Y3826873D01*
X17970955Y3799693D01*
X17994569Y3744397D01*
X17994700Y3739605D01*
X17994700Y1894396D01*
X17974135Y1837895D01*
X17922064Y1807831D01*
X17862850Y1818272D01*
X17824201Y1864332D01*
X17822685Y1868880D01*
X17795829Y1957410D01*
X17795829Y1957411D01*
X17795828Y1957412D01*
X17795828Y1957414D01*
X17696721Y2142829D01*
X17563347Y2305347D01*
X17400829Y2438721D01*
X17215414Y2537828D01*
X17215413Y2537829D01*
X17215410Y2537830D01*
X17014233Y2598856D01*
X17014228Y2598857D01*
X17014227Y2598857D01*
X16805000Y2619464D01*
X16595773Y2598857D01*
X16595771Y2598857D01*
X16595766Y2598856D01*
X16394590Y2537830D01*
X16394589Y2537830D01*
X16209170Y2438721D01*
X16046655Y2305349D01*
X16046651Y2305345D01*
X15913279Y2142830D01*
X15814170Y1957411D01*
X15814170Y1957410D01*
X15753144Y1756234D01*
X15732536Y1547000D01*
X15753144Y1337767D01*
X15814170Y1136591D01*
X15814170Y1136590D01*
X15814171Y1136589D01*
X15814172Y1136586D01*
X15913279Y951171D01*
X16046653Y788653D01*
X16209171Y655279D01*
X16394586Y556172D01*
X16595773Y495143D01*
X16742655Y480677D01*
X16796867Y454673D01*
X16803437Y440171D01*
X16845898Y475799D01*
X16867342Y480677D01*
X17014227Y495143D01*
X17215414Y556172D01*
X17400829Y655279D01*
X17563347Y788653D01*
X17696721Y951171D01*
X17795828Y1136586D01*
X17811279Y1187523D01*
X17822685Y1225121D01*
X17858765Y1273219D01*
X17917322Y1286873D01*
X17970955Y1259693D01*
X17994569Y1204397D01*
X17994700Y1199605D01*
X17994700Y393200D01*
X17974135Y336699D01*
X17922064Y306635D01*
X17906800Y305300D01*
X16875962Y305300D01*
X16819461Y325865D01*
X16807007Y347436D01*
X16805487Y342000D01*
X16755861Y308052D01*
X16734038Y305300D01*
X1635962Y305300D01*
X1579461Y325865D01*
X1567007Y347436D01*
X1565487Y342000D01*
X1515861Y308052D01*
X1494038Y305300D01*
X393200Y305300D01*
X336699Y325865D01*
X306635Y377936D01*
X305300Y393200D01*
X305300Y1547000D01*
X492536Y1547000D01*
X513144Y1337767D01*
X574170Y1136591D01*
X574170Y1136590D01*
X574171Y1136589D01*
X574172Y1136586D01*
X673279Y951171D01*
X806653Y788653D01*
X969171Y655279D01*
X1154586Y556172D01*
X1355773Y495143D01*
X1502655Y480677D01*
X1556867Y454673D01*
X1563437Y440171D01*
X1605898Y475799D01*
X1627342Y480677D01*
X1774227Y495143D01*
X1975414Y556172D01*
X2160829Y655279D01*
X2323347Y788653D01*
X2456721Y951171D01*
X2555828Y1136586D01*
X2561601Y1155621D01*
X2563151Y1159911D01*
X2565210Y1164804D01*
X2565217Y1164815D01*
X3025274Y2650355D01*
X3031644Y2663070D01*
X3031232Y2663253D01*
X3045342Y2694949D01*
X3051915Y2707059D01*
X3065783Y2728411D01*
X3067033Y2736306D01*
X3073549Y2758304D01*
X3076800Y2765604D01*
X3076800Y2791053D01*
X3077882Y2804803D01*
X3081863Y2829938D01*
X3079795Y2837657D01*
X3076800Y2860406D01*
X3076800Y4087000D01*
X8247718Y4087000D01*
X8267573Y3923480D01*
X8284910Y3877767D01*
X8325983Y3769464D01*
X8325983Y3769463D01*
X8390089Y3676590D01*
X8419556Y3633900D01*
X8542852Y3524670D01*
X8688705Y3448120D01*
X8848639Y3408700D01*
X8848641Y3408700D01*
X9013358Y3408700D01*
X9013361Y3408700D01*
X9173295Y3448120D01*
X9319148Y3524670D01*
X9442444Y3633900D01*
X9536016Y3769463D01*
X9594427Y3923480D01*
X9614282Y4087000D01*
X9594427Y4250520D01*
X9536016Y4404537D01*
X9536016Y4404538D01*
X9442446Y4540097D01*
X9442444Y4540100D01*
X9319148Y4649330D01*
X9319146Y4649331D01*
X9319145Y4649332D01*
X9255319Y4682830D01*
X9173295Y4725880D01*
X9173292Y4725881D01*
X9117986Y4739513D01*
X9013361Y4765300D01*
X8848639Y4765300D01*
X8769801Y4745869D01*
X8688707Y4725881D01*
X8688705Y4725881D01*
X8688705Y4725880D01*
X8640087Y4700364D01*
X8542854Y4649332D01*
X8542849Y4649328D01*
X8419553Y4540097D01*
X8325983Y4404538D01*
X8325983Y4404537D01*
X8304478Y4347831D01*
X8267573Y4250520D01*
X8247718Y4087000D01*
X3076800Y4087000D01*
X3076800Y5220434D01*
X3097365Y5276935D01*
X3102534Y5282578D01*
X3684955Y5865000D01*
X12716141Y5865000D01*
X12734298Y5727086D01*
X12787531Y5598570D01*
X12787532Y5598568D01*
X12825968Y5548478D01*
X12872212Y5488212D01*
X12982570Y5403531D01*
X13111086Y5350298D01*
X13249000Y5332141D01*
X13386914Y5350298D01*
X13515430Y5403531D01*
X13625788Y5488212D01*
X13710469Y5598570D01*
X13763702Y5727086D01*
X13781859Y5865000D01*
X13763702Y6002914D01*
X13710469Y6131429D01*
X13710075Y6131942D01*
X13625791Y6241785D01*
X13625787Y6241789D01*
X13515432Y6326468D01*
X13515430Y6326469D01*
X13386914Y6379702D01*
X13249000Y6397859D01*
X13111085Y6379702D01*
X12982571Y6326470D01*
X12872213Y6241790D01*
X12872210Y6241787D01*
X12787530Y6131429D01*
X12734298Y6002915D01*
X12716141Y5865000D01*
X3684955Y5865000D01*
X3762708Y5942753D01*
X3764343Y5944304D01*
X3796991Y5973698D01*
X3807344Y5996954D01*
X3813922Y6009069D01*
X3827783Y6030411D01*
X3829033Y6038306D01*
X3835549Y6060304D01*
X3838800Y6067604D01*
X3838800Y6093053D01*
X3839882Y6106803D01*
X3843782Y6131429D01*
X3843863Y6131938D01*
X3841795Y6139657D01*
X3838800Y6162406D01*
X3838800Y7385572D01*
X3859365Y7442073D01*
X3911436Y7472137D01*
X3967549Y7463404D01*
X3970850Y7461672D01*
X3970852Y7461670D01*
X4116705Y7385120D01*
X4276639Y7345700D01*
X4276641Y7345700D01*
X4441358Y7345700D01*
X4441361Y7345700D01*
X4601295Y7385120D01*
X4747148Y7461670D01*
X4870444Y7570900D01*
X4964016Y7706463D01*
X5022427Y7860480D01*
X5042282Y8024000D01*
X5022427Y8187520D01*
X4964016Y8341537D01*
X4964016Y8341538D01*
X4870446Y8477097D01*
X4870444Y8477100D01*
X4747148Y8586330D01*
X4747146Y8586331D01*
X4747145Y8586332D01*
X4703612Y8609180D01*
X4601295Y8662880D01*
X4601292Y8662881D01*
X4545986Y8676513D01*
X4441361Y8702300D01*
X4276639Y8702300D01*
X4197801Y8682869D01*
X4116707Y8662881D01*
X4116703Y8662879D01*
X3967549Y8584597D01*
X3907963Y8576549D01*
X3857144Y8608685D01*
X3838800Y8662429D01*
X3838800Y9665434D01*
X3859365Y9721935D01*
X3864534Y9727579D01*
X4143708Y10006753D01*
X4145343Y10008304D01*
X4177991Y10037698D01*
X4188346Y10060958D01*
X4194920Y10073066D01*
X4208782Y10094411D01*
X4210031Y10102301D01*
X4216548Y10124302D01*
X4219800Y10131604D01*
X4219800Y10157054D01*
X4220882Y10170805D01*
X4221604Y10175364D01*
X4224863Y10195938D01*
X4222795Y10203657D01*
X4219800Y10226406D01*
X4219800Y12332435D01*
X4240365Y12388936D01*
X4245534Y12394579D01*
X4651698Y12800744D01*
X4653333Y12802295D01*
X4685991Y12831698D01*
X4696343Y12854951D01*
X4702922Y12867070D01*
X4716782Y12888410D01*
X4718032Y12896305D01*
X4724549Y12918303D01*
X4727800Y12925604D01*
X4727800Y12951054D01*
X4728882Y12964805D01*
X4732863Y12989938D01*
X4730795Y12997657D01*
X4727800Y13020406D01*
X4727800Y19580999D01*
X6469718Y19580999D01*
X6475153Y19536234D01*
X6489573Y19417480D01*
X6489575Y19417476D01*
X6547983Y19263464D01*
X6547983Y19263463D01*
X6589556Y19203235D01*
X6641556Y19127900D01*
X6764852Y19018670D01*
X6910705Y18942120D01*
X7070639Y18902700D01*
X7070641Y18902700D01*
X7235358Y18902700D01*
X7235361Y18902700D01*
X7395295Y18942120D01*
X7541148Y19018670D01*
X7664444Y19127900D01*
X7758016Y19263463D01*
X7816427Y19417480D01*
X7836282Y19581000D01*
X7816427Y19744520D01*
X7758016Y19898537D01*
X7758016Y19898538D01*
X7664446Y20034097D01*
X7664444Y20034100D01*
X7541148Y20143330D01*
X7541146Y20143331D01*
X7541145Y20143332D01*
X7497612Y20166180D01*
X7395295Y20219880D01*
X7395292Y20219881D01*
X7339986Y20233513D01*
X7235361Y20259300D01*
X7070639Y20259300D01*
X6991801Y20239869D01*
X6910707Y20219881D01*
X6910705Y20219881D01*
X6910705Y20219880D01*
X6882518Y20205086D01*
X6764854Y20143332D01*
X6764849Y20143328D01*
X6641553Y20034097D01*
X6547983Y19898538D01*
X6547983Y19898537D01*
X6495065Y19759002D01*
X6489573Y19744520D01*
X6489572Y19744518D01*
X6489572Y19744515D01*
X6469718Y19581002D01*
X6469718Y19580999D01*
X4727800Y19580999D01*
X4727800Y20083062D01*
X4748365Y20139563D01*
X4800436Y20169627D01*
X4859650Y20159186D01*
X4896909Y20116699D01*
X4913529Y20076572D01*
X4913532Y20076568D01*
X4946122Y20034097D01*
X4998212Y19966212D01*
X5108570Y19881531D01*
X5237086Y19828298D01*
X5375000Y19810141D01*
X5512914Y19828298D01*
X5641430Y19881531D01*
X5751788Y19966212D01*
X5836469Y20076570D01*
X5889702Y20205086D01*
X5907859Y20343000D01*
X5889702Y20480914D01*
X5836469Y20609429D01*
X5777122Y20686772D01*
X5751791Y20719785D01*
X5751787Y20719789D01*
X5641432Y20804468D01*
X5641430Y20804469D01*
X5512914Y20857702D01*
X5375000Y20875859D01*
X5237085Y20857702D01*
X5108571Y20804470D01*
X4998213Y20719790D01*
X4998210Y20719787D01*
X4913531Y20609430D01*
X4896909Y20569300D01*
X4856287Y20524970D01*
X4796674Y20517123D01*
X4745964Y20549430D01*
X4727800Y20602939D01*
X4727800Y21453490D01*
X4748365Y21509991D01*
X4800436Y21540055D01*
X4849338Y21534699D01*
X4854567Y21532533D01*
X4854570Y21532531D01*
X4983086Y21479298D01*
X5121000Y21461141D01*
X5258914Y21479298D01*
X5387430Y21532531D01*
X5497788Y21617212D01*
X5582469Y21727570D01*
X5635702Y21856086D01*
X5653859Y21994000D01*
X5635702Y22131914D01*
X5582469Y22260429D01*
X5541911Y22313286D01*
X5497791Y22370785D01*
X5497787Y22370789D01*
X5387432Y22455468D01*
X5387430Y22455469D01*
X5258914Y22508702D01*
X5121000Y22526859D01*
X4983085Y22508702D01*
X4849338Y22453302D01*
X4789268Y22450679D01*
X4741566Y22487282D01*
X4727800Y22534511D01*
X4727800Y23010000D01*
X7255141Y23010000D01*
X7273298Y22872086D01*
X7326531Y22743570D01*
X7326532Y22743568D01*
X7394467Y22655035D01*
X7411212Y22633212D01*
X7521570Y22548531D01*
X7650086Y22495298D01*
X7788000Y22477141D01*
X7925914Y22495298D01*
X8054430Y22548531D01*
X8164788Y22633212D01*
X8164791Y22633217D01*
X8168866Y22637290D01*
X8170594Y22635562D01*
X8213468Y22662879D01*
X8273082Y22655035D01*
X8295265Y22636422D01*
X8296134Y22637290D01*
X8300212Y22633212D01*
X8335590Y22606065D01*
X8410570Y22548531D01*
X8539086Y22495298D01*
X8677000Y22477141D01*
X8811733Y22494880D01*
X8870433Y22481867D01*
X8907036Y22434165D01*
X8910353Y22419206D01*
X8924298Y22313286D01*
X8977531Y22184770D01*
X8977532Y22184768D01*
X9023233Y22125210D01*
X9062212Y22074412D01*
X9172570Y21989731D01*
X9172572Y21989731D01*
X9174617Y21988161D01*
X9206923Y21937450D01*
X9199075Y21877837D01*
X9190843Y21864916D01*
X9104532Y21752432D01*
X9104531Y21752430D01*
X9051298Y21623915D01*
X9033141Y21486000D01*
X9051298Y21348086D01*
X9104531Y21219570D01*
X9104532Y21219568D01*
X9175865Y21126606D01*
X9189212Y21109212D01*
X9189215Y21109210D01*
X9260697Y21054359D01*
X9299570Y21024531D01*
X9428086Y20971298D01*
X9566000Y20953141D01*
X9703914Y20971298D01*
X9832430Y21024531D01*
X9942788Y21109212D01*
X10027469Y21219570D01*
X10080702Y21348086D01*
X10098859Y21486000D01*
X10080702Y21623914D01*
X10027469Y21752429D01*
X10027467Y21752432D01*
X9942791Y21862785D01*
X9942789Y21862787D01*
X9942788Y21862788D01*
X9895670Y21898943D01*
X9830381Y21949042D01*
X9798075Y21999753D01*
X9805924Y22059365D01*
X9814157Y22072288D01*
X9815785Y22074410D01*
X9815788Y22074412D01*
X9900469Y22184770D01*
X9953702Y22313286D01*
X9971859Y22451200D01*
X9953702Y22589114D01*
X9900469Y22717629D01*
X9881824Y22741928D01*
X9815791Y22827985D01*
X9815787Y22827989D01*
X9705432Y22912668D01*
X9705430Y22912669D01*
X9576914Y22965902D01*
X9439000Y22984059D01*
X9304267Y22966321D01*
X9245565Y22979335D01*
X9208962Y23027037D01*
X9205647Y23041990D01*
X9191702Y23147914D01*
X9143617Y23264000D01*
X10049141Y23264000D01*
X10067298Y23126086D01*
X10120531Y22997570D01*
X10120532Y22997568D01*
X10146698Y22963468D01*
X10205212Y22887212D01*
X10224925Y22872086D01*
X10282392Y22827989D01*
X10315570Y22802531D01*
X10444086Y22749298D01*
X10500070Y22741928D01*
X10553402Y22714165D01*
X10576412Y22658615D01*
X10575744Y22643307D01*
X10563267Y22548533D01*
X10557141Y22502000D01*
X10559079Y22487282D01*
X10575298Y22364086D01*
X10628531Y22235570D01*
X10628532Y22235568D01*
X10667511Y22184770D01*
X10713212Y22125212D01*
X10823570Y22040531D01*
X10952086Y21987298D01*
X11090000Y21969141D01*
X11227914Y21987298D01*
X11356430Y22040531D01*
X11466788Y22125212D01*
X11551469Y22235570D01*
X11604702Y22364086D01*
X11622859Y22502000D01*
X11604702Y22639914D01*
X11551469Y22768429D01*
X11525300Y22802533D01*
X11466791Y22878785D01*
X11466787Y22878789D01*
X11356432Y22963468D01*
X11356430Y22963469D01*
X11227914Y23016702D01*
X11171929Y23024073D01*
X11118596Y23051837D01*
X11095587Y23107388D01*
X11096255Y23122695D01*
X11096701Y23126084D01*
X11096702Y23126086D01*
X11114859Y23264000D01*
X11096702Y23401914D01*
X11043469Y23530429D01*
X11005401Y23580041D01*
X10958791Y23640785D01*
X10958787Y23640789D01*
X10848432Y23725468D01*
X10848430Y23725469D01*
X10719914Y23778702D01*
X10582000Y23796859D01*
X10444085Y23778702D01*
X10315571Y23725470D01*
X10205213Y23640790D01*
X10205210Y23640787D01*
X10120530Y23530429D01*
X10067298Y23401915D01*
X10049141Y23264000D01*
X9143617Y23264000D01*
X9138469Y23276429D01*
X9112384Y23310424D01*
X9053791Y23386785D01*
X9053787Y23386789D01*
X8943432Y23471468D01*
X8943430Y23471469D01*
X8814914Y23524702D01*
X8677000Y23542859D01*
X8539085Y23524702D01*
X8410571Y23471470D01*
X8300215Y23386792D01*
X8296143Y23382718D01*
X8294420Y23384441D01*
X8251504Y23357115D01*
X8191893Y23364978D01*
X8169733Y23383578D01*
X8168866Y23382710D01*
X8164787Y23386789D01*
X8054432Y23471468D01*
X8054430Y23471469D01*
X7925914Y23524702D01*
X7788000Y23542859D01*
X7650085Y23524702D01*
X7521571Y23471470D01*
X7411213Y23386790D01*
X7411210Y23386787D01*
X7326530Y23276429D01*
X7273298Y23147915D01*
X7255141Y23010000D01*
X4727800Y23010000D01*
X4727800Y23517490D01*
X4748365Y23573991D01*
X4800436Y23604055D01*
X4849338Y23598699D01*
X4854567Y23596533D01*
X4854570Y23596531D01*
X4983086Y23543298D01*
X5121000Y23525141D01*
X5258914Y23543298D01*
X5387430Y23596531D01*
X5497788Y23681212D01*
X5582469Y23791570D01*
X5635702Y23920086D01*
X5653859Y24058000D01*
X5635702Y24195914D01*
X5582469Y24324429D01*
X5527485Y24396086D01*
X5497791Y24434785D01*
X5497788Y24434788D01*
X5438521Y24480266D01*
X5406216Y24530975D01*
X5406614Y24534000D01*
X5858141Y24534000D01*
X5876298Y24396086D01*
X5929531Y24267570D01*
X5929532Y24267568D01*
X5983088Y24197773D01*
X6014212Y24157212D01*
X6124570Y24072531D01*
X6253086Y24019298D01*
X6391000Y24001141D01*
X6528914Y24019298D01*
X6657430Y24072531D01*
X6767788Y24157212D01*
X6852469Y24267570D01*
X6905702Y24396086D01*
X6923859Y24534000D01*
X6905702Y24671914D01*
X6852469Y24800429D01*
X6772931Y24904086D01*
X6767791Y24910785D01*
X6767788Y24910788D01*
X6767785Y24910790D01*
X6687668Y24972266D01*
X6655364Y25022975D01*
X6663212Y25082588D01*
X6687667Y25111734D01*
X6767788Y25173212D01*
X6852469Y25283570D01*
X6905702Y25412086D01*
X6923859Y25550000D01*
X6905702Y25687914D01*
X6852469Y25816429D01*
X6767791Y25926785D01*
X6767787Y25926789D01*
X6657432Y26011468D01*
X6657430Y26011469D01*
X6528914Y26064702D01*
X6391000Y26082859D01*
X6253085Y26064702D01*
X6124571Y26011470D01*
X6014213Y25926790D01*
X6014210Y25926787D01*
X5929530Y25816429D01*
X5876298Y25687915D01*
X5858141Y25550000D01*
X5876298Y25412086D01*
X5929531Y25283570D01*
X5929532Y25283568D01*
X5978585Y25219642D01*
X6014212Y25173212D01*
X6094329Y25111736D01*
X6126636Y25061025D01*
X6118787Y25001412D01*
X6094329Y24972264D01*
X6014213Y24910790D01*
X6014210Y24910787D01*
X5929530Y24800429D01*
X5876298Y24671915D01*
X5858141Y24534000D01*
X5406614Y24534000D01*
X5414064Y24590588D01*
X5438520Y24619735D01*
X5497788Y24665212D01*
X5582469Y24775570D01*
X5635702Y24904086D01*
X5653859Y25042000D01*
X5635702Y25179914D01*
X5582469Y25308429D01*
X5497791Y25418785D01*
X5497788Y25418788D01*
X5417668Y25480266D01*
X5385364Y25530975D01*
X5393212Y25590588D01*
X5417667Y25619734D01*
X5497788Y25681212D01*
X5582469Y25791570D01*
X5635702Y25920086D01*
X5653859Y26058000D01*
X5635702Y26195914D01*
X5582469Y26324429D01*
X5514200Y26413400D01*
X5497791Y26434785D01*
X5497788Y26434788D01*
X5417668Y26496266D01*
X5385364Y26546975D01*
X5393212Y26606588D01*
X5417667Y26635734D01*
X5497788Y26697212D01*
X5582469Y26807570D01*
X5635702Y26936086D01*
X5653859Y27074000D01*
X5635702Y27211914D01*
X5582469Y27340429D01*
X5514200Y27429400D01*
X5497791Y27450785D01*
X5493718Y27454857D01*
X5495443Y27456584D01*
X5468119Y27499475D01*
X5475967Y27559087D01*
X5494580Y27581264D01*
X5493710Y27582134D01*
X5497783Y27586209D01*
X5497788Y27586212D01*
X5582469Y27696570D01*
X5635702Y27825086D01*
X5653859Y27963000D01*
X5635702Y28100914D01*
X5582469Y28229429D01*
X5556825Y28262849D01*
X5497791Y28339785D01*
X5497787Y28339789D01*
X5387432Y28424468D01*
X5387430Y28424469D01*
X5291580Y28464172D01*
X5247249Y28504794D01*
X5239402Y28564407D01*
X5244003Y28579003D01*
X5286702Y28682086D01*
X5304859Y28820000D01*
X5286702Y28957914D01*
X5260248Y29021777D01*
X5257626Y29081845D01*
X5294229Y29129548D01*
X5300550Y29132945D01*
X5302235Y29134170D01*
X5302237Y29134170D01*
X5308698Y29138866D01*
X5328861Y29149814D01*
X5336327Y29152679D01*
X5354324Y29170678D01*
X5364798Y29179625D01*
X5385398Y29194590D01*
X5389392Y29201509D01*
X5403356Y29219710D01*
X5667708Y29484062D01*
X5669343Y29485613D01*
X5701991Y29515007D01*
X5712344Y29538263D01*
X5718922Y29550378D01*
X5732783Y29571720D01*
X5734033Y29579615D01*
X5740549Y29601613D01*
X5743800Y29608913D01*
X5743800Y29634362D01*
X5744882Y29648112D01*
X5748863Y29673247D01*
X5746795Y29680966D01*
X5743800Y29703715D01*
X5743800Y30311261D01*
X5764365Y30367762D01*
X5804942Y30394989D01*
X6118024Y30495046D01*
X6119999Y30495625D01*
X6122507Y30496298D01*
X6122514Y30496298D01*
X6122724Y30496386D01*
X6126172Y30497650D01*
X6165875Y30510337D01*
X6170365Y30511981D01*
X6182380Y30519644D01*
X6195995Y30526736D01*
X6251030Y30549531D01*
X6361388Y30634212D01*
X6446069Y30744570D01*
X6499302Y30873086D01*
X6517459Y31011000D01*
X6499302Y31148914D01*
X6446069Y31277429D01*
X6405970Y31329687D01*
X6387891Y31387031D01*
X6410901Y31442581D01*
X6422193Y31452929D01*
X6513788Y31523212D01*
X6598469Y31633570D01*
X6651702Y31762086D01*
X6669859Y31900000D01*
X6651702Y32037914D01*
X6598469Y32166429D01*
X6560351Y32216106D01*
X6513791Y32276785D01*
X6513787Y32276789D01*
X6403432Y32361468D01*
X6403430Y32361469D01*
X6274914Y32414702D01*
X6137001Y32432859D01*
X6137000Y32432859D01*
X6132681Y32432291D01*
X6124563Y32431222D01*
X6105223Y32430824D01*
X6104599Y32430881D01*
X6104586Y32430880D01*
X6081859Y32428449D01*
X6023492Y32442888D01*
X5988061Y32491467D01*
X5990977Y32543607D01*
X5989811Y32543919D01*
X5991301Y32549483D01*
X5991301Y32549484D01*
X5991302Y32549486D01*
X6009459Y32687400D01*
X5991302Y32825314D01*
X5938069Y32953829D01*
X5924607Y32971372D01*
X5913092Y32986380D01*
X5895012Y33043724D01*
X5918021Y33099274D01*
X5929313Y33109622D01*
X5980388Y33148812D01*
X6065069Y33259170D01*
X6118302Y33387686D01*
X6136459Y33525600D01*
X6118302Y33663514D01*
X6065069Y33792029D01*
X6038902Y33826131D01*
X5980391Y33902385D01*
X5980387Y33902389D01*
X5870032Y33987068D01*
X5870030Y33987069D01*
X5736835Y34042241D01*
X5692505Y34082863D01*
X5684657Y34142476D01*
X5685568Y34146198D01*
X5686501Y34149683D01*
X5686501Y34149684D01*
X5686502Y34149686D01*
X5704659Y34287600D01*
X5686502Y34425514D01*
X5633269Y34554029D01*
X5631688Y34556089D01*
X5548591Y34664385D01*
X5548587Y34664389D01*
X5438232Y34749068D01*
X5438230Y34749069D01*
X5309714Y34802302D01*
X5171800Y34820459D01*
X5033885Y34802302D01*
X4905371Y34749070D01*
X4795013Y34664390D01*
X4795010Y34664387D01*
X4710330Y34554029D01*
X4657098Y34425515D01*
X4638941Y34287600D01*
X4657098Y34149686D01*
X4710331Y34021170D01*
X4710332Y34021168D01*
X4785290Y33923482D01*
X4795012Y33910812D01*
X4905370Y33826131D01*
X4905739Y33825848D01*
X4938045Y33775137D01*
X4930197Y33715524D01*
X4917555Y33697299D01*
X4911893Y33691011D01*
X4907898Y33684091D01*
X4893932Y33665891D01*
X4826210Y33598170D01*
X4821877Y33594371D01*
X4811590Y33586480D01*
X4806939Y33582663D01*
X4803524Y33579670D01*
X4797127Y33570744D01*
X4787839Y33559798D01*
X2643217Y31415176D01*
X2588723Y31389765D01*
X2530645Y31405328D01*
X2496157Y31454581D01*
X2501398Y31514479D01*
X2503529Y31518744D01*
X2555828Y31616586D01*
X2616857Y31817773D01*
X2637464Y32027000D01*
X2616857Y32236227D01*
X2555828Y32437414D01*
X2456721Y32622829D01*
X2323347Y32785347D01*
X2160829Y32918721D01*
X1975414Y33017828D01*
X1975413Y33017829D01*
X1975410Y33017830D01*
X1774233Y33078856D01*
X1774228Y33078857D01*
X1774227Y33078857D01*
X1565000Y33099464D01*
X1355773Y33078857D01*
X1355771Y33078857D01*
X1355766Y33078856D01*
X1154590Y33017830D01*
X1154589Y33017830D01*
X969170Y32918721D01*
X806655Y32785349D01*
X806651Y32785345D01*
X673279Y32622830D01*
X574170Y32437411D01*
X574170Y32437410D01*
X513144Y32236234D01*
X513143Y32236229D01*
X513143Y32236227D01*
X492536Y32027000D01*
X512019Y31829181D01*
X513144Y31817767D01*
X574170Y31616591D01*
X574170Y31616590D01*
X574171Y31616587D01*
X574172Y31616586D01*
X673279Y31431171D01*
X806653Y31268653D01*
X969171Y31135279D01*
X1154586Y31036172D01*
X1154588Y31036172D01*
X1154589Y31036171D01*
X1237567Y31011000D01*
X1355773Y30975143D01*
X1565000Y30954536D01*
X1774227Y30975143D01*
X1975414Y31036172D01*
X2160829Y31135279D01*
X2322902Y31268289D01*
X2379621Y31288234D01*
X2435894Y31267054D01*
X2465388Y31214658D01*
X2465024Y31198633D01*
X2466200Y31198633D01*
X2466200Y31163949D01*
X2465118Y31150200D01*
X2461137Y31125065D01*
X2461137Y31125060D01*
X2463205Y31117344D01*
X2466200Y31094594D01*
X2466200Y30313960D01*
X2445635Y30257459D01*
X2393564Y30227395D01*
X2334350Y30237836D01*
X2322537Y30246012D01*
X2160829Y30378721D01*
X2105788Y30408141D01*
X1975414Y30477828D01*
X1975413Y30477829D01*
X1975410Y30477830D01*
X1774233Y30538856D01*
X1774228Y30538857D01*
X1774227Y30538857D01*
X1565000Y30559464D01*
X1355773Y30538857D01*
X1355771Y30538857D01*
X1355766Y30538856D01*
X1154590Y30477830D01*
X1154589Y30477830D01*
X969170Y30378721D01*
X806655Y30245349D01*
X806651Y30245345D01*
X673279Y30082830D01*
X574170Y29897411D01*
X574170Y29897410D01*
X513144Y29696234D01*
X513143Y29696229D01*
X513143Y29696227D01*
X492536Y29487000D01*
X500250Y29408674D01*
X513144Y29277767D01*
X574170Y29076591D01*
X574170Y29076590D01*
X574171Y29076587D01*
X574172Y29076586D01*
X673279Y28891171D01*
X806653Y28728653D01*
X969171Y28595279D01*
X1154586Y28496172D01*
X1154588Y28496172D01*
X1154589Y28496171D01*
X1260076Y28464172D01*
X1355773Y28435143D01*
X1565000Y28414536D01*
X1774227Y28435143D01*
X1975414Y28496172D01*
X2160829Y28595279D01*
X2322538Y28727990D01*
X2379259Y28747936D01*
X2435532Y28726756D01*
X2465026Y28674359D01*
X2466200Y28660041D01*
X2466200Y27773960D01*
X2445635Y27717459D01*
X2393564Y27687395D01*
X2334350Y27697836D01*
X2322537Y27706012D01*
X2160829Y27838721D01*
X1975410Y27937830D01*
X1774233Y27998856D01*
X1774228Y27998857D01*
X1774227Y27998857D01*
X1565000Y28019464D01*
X1355773Y27998857D01*
X1355771Y27998857D01*
X1355766Y27998856D01*
X1154590Y27937830D01*
X1154589Y27937830D01*
X969170Y27838721D01*
X806655Y27705349D01*
X806651Y27705345D01*
X673279Y27542830D01*
X574170Y27357411D01*
X574170Y27357410D01*
X513144Y27156234D01*
X513143Y27156229D01*
X513143Y27156227D01*
X492536Y26947000D01*
X513144Y26737767D01*
X574170Y26536591D01*
X574170Y26536590D01*
X574171Y26536587D01*
X574172Y26536586D01*
X673279Y26351171D01*
X806653Y26188653D01*
X969171Y26055279D01*
X1154586Y25956172D01*
X1154588Y25956172D01*
X1154589Y25956171D01*
X1251462Y25926785D01*
X1355773Y25895143D01*
X1565000Y25874536D01*
X1774227Y25895143D01*
X1975414Y25956172D01*
X2160829Y26055279D01*
X2322538Y26187990D01*
X2379259Y26207936D01*
X2435532Y26186756D01*
X2465026Y26134359D01*
X2466200Y26120041D01*
X2466200Y25233960D01*
X2445635Y25177459D01*
X2393564Y25147395D01*
X2334350Y25157836D01*
X2322537Y25166012D01*
X2160829Y25298721D01*
X1988506Y25390830D01*
X1975414Y25397828D01*
X1975413Y25397829D01*
X1975410Y25397830D01*
X1774233Y25458856D01*
X1774228Y25458857D01*
X1774227Y25458857D01*
X1565000Y25479464D01*
X1355773Y25458857D01*
X1355771Y25458857D01*
X1355766Y25458856D01*
X1154590Y25397830D01*
X1154589Y25397830D01*
X969170Y25298721D01*
X806655Y25165349D01*
X806651Y25165345D01*
X673279Y25002830D01*
X574170Y24817411D01*
X574170Y24817410D01*
X513144Y24616234D01*
X513143Y24616229D01*
X513143Y24616227D01*
X503613Y24519469D01*
X492536Y24407000D01*
X513144Y24197767D01*
X574170Y23996591D01*
X574170Y23996590D01*
X574171Y23996587D01*
X574172Y23996586D01*
X673279Y23811171D01*
X806653Y23648653D01*
X969171Y23515279D01*
X1154586Y23416172D01*
X1154588Y23416172D01*
X1154589Y23416171D01*
X1322434Y23365256D01*
X1355773Y23355143D01*
X1565000Y23334536D01*
X1774227Y23355143D01*
X1975414Y23416172D01*
X2160829Y23515279D01*
X2322538Y23647990D01*
X2379259Y23667936D01*
X2435532Y23646756D01*
X2465026Y23594359D01*
X2466200Y23580041D01*
X2466200Y22693960D01*
X2445635Y22637459D01*
X2393564Y22607395D01*
X2334350Y22617836D01*
X2322537Y22626012D01*
X2160829Y22758721D01*
X1975410Y22857830D01*
X1774233Y22918856D01*
X1774228Y22918857D01*
X1774227Y22918857D01*
X1565000Y22939464D01*
X1355773Y22918857D01*
X1355771Y22918857D01*
X1355766Y22918856D01*
X1154590Y22857830D01*
X1154589Y22857830D01*
X969170Y22758721D01*
X806655Y22625349D01*
X806651Y22625345D01*
X673279Y22462830D01*
X574170Y22277411D01*
X574170Y22277410D01*
X513144Y22076234D01*
X513143Y22076229D01*
X513143Y22076227D01*
X499800Y21940752D01*
X492536Y21867000D01*
X513144Y21657767D01*
X574170Y21456591D01*
X574170Y21456590D01*
X574171Y21456587D01*
X574172Y21456586D01*
X673279Y21271171D01*
X806653Y21108653D01*
X969171Y20975279D01*
X1154586Y20876172D01*
X1154588Y20876172D01*
X1154589Y20876171D01*
X1315277Y20827427D01*
X1355773Y20815143D01*
X1565000Y20794536D01*
X1774227Y20815143D01*
X1975414Y20876172D01*
X2160829Y20975279D01*
X2322538Y21107990D01*
X2379259Y21127936D01*
X2435532Y21106756D01*
X2465026Y21054359D01*
X2466200Y21040041D01*
X2466200Y20827427D01*
X2445635Y20770926D01*
X2406622Y20744215D01*
X1174652Y20324890D01*
X1171108Y20323551D01*
X1171106Y20323551D01*
X1166751Y20321905D01*
X1166672Y20322112D01*
X1160303Y20319563D01*
X1154587Y20317829D01*
X1154584Y20317828D01*
X969170Y20218721D01*
X806655Y20085349D01*
X806651Y20085345D01*
X673279Y19922830D01*
X574170Y19737411D01*
X574170Y19737410D01*
X513144Y19536234D01*
X513143Y19536229D01*
X513143Y19536227D01*
X492536Y19327000D01*
X512237Y19126967D01*
X513144Y19117767D01*
X574170Y18916591D01*
X574170Y18916590D01*
X574171Y18916587D01*
X574172Y18916586D01*
X673279Y18731171D01*
X806653Y18568653D01*
X969171Y18435279D01*
X1154586Y18336172D01*
X1154588Y18336172D01*
X1154589Y18336171D01*
X1307227Y18289869D01*
X1355773Y18275143D01*
X1555199Y18255502D01*
X1609411Y18229498D01*
X1634226Y18174730D01*
X1618031Y18116825D01*
X1596622Y18095759D01*
X1081684Y17739191D01*
X1077379Y17736562D01*
X969174Y17678724D01*
X969173Y17678723D01*
X806655Y17545349D01*
X806651Y17545345D01*
X673279Y17382830D01*
X574170Y17197411D01*
X574170Y17197410D01*
X513144Y16996234D01*
X513143Y16996229D01*
X513143Y16996227D01*
X492536Y16787000D01*
X510368Y16605946D01*
X513144Y16577767D01*
X574170Y16376591D01*
X574170Y16376590D01*
X574171Y16376587D01*
X574172Y16376586D01*
X673279Y16191171D01*
X806653Y16028653D01*
X969171Y15895279D01*
X1154586Y15796172D01*
X1154588Y15796172D01*
X1154589Y15796171D01*
X1315277Y15747427D01*
X1355773Y15735143D01*
X1565000Y15714536D01*
X1774227Y15735143D01*
X1975414Y15796172D01*
X2160829Y15895279D01*
X2323347Y16028653D01*
X2456721Y16191171D01*
X2555828Y16376586D01*
X2616857Y16577773D01*
X2637464Y16787000D01*
X2635909Y16802776D01*
X2635710Y16808094D01*
X2635829Y16813354D01*
X2635831Y16813364D01*
X2606266Y17205103D01*
X2622521Y17262990D01*
X2672182Y17296887D01*
X2682435Y17298864D01*
X2795114Y17313698D01*
X2852664Y17337537D01*
X2912731Y17340159D01*
X2960433Y17303557D01*
X2974200Y17256327D01*
X2974200Y16034568D01*
X2953635Y15978067D01*
X2948455Y15972413D01*
X2705410Y15729369D01*
X2669259Y15707558D01*
X1180782Y15246589D01*
X1178647Y15245873D01*
X1176758Y15245240D01*
X1173770Y15244160D01*
X1173768Y15244160D01*
X1169250Y15242526D01*
X1169185Y15242704D01*
X1164233Y15240756D01*
X1154593Y15237831D01*
X1154587Y15237829D01*
X969170Y15138721D01*
X806655Y15005349D01*
X806651Y15005345D01*
X673279Y14842830D01*
X574170Y14657411D01*
X574170Y14657410D01*
X513144Y14456234D01*
X513143Y14456229D01*
X513143Y14456227D01*
X507688Y14400843D01*
X492536Y14247000D01*
X513144Y14037767D01*
X574170Y13836591D01*
X574170Y13836590D01*
X574171Y13836587D01*
X574172Y13836586D01*
X673279Y13651171D01*
X806653Y13488653D01*
X969171Y13355279D01*
X1154586Y13256172D01*
X1355773Y13195143D01*
X1565000Y13174536D01*
X1697468Y13187584D01*
X1755709Y13172657D01*
X1790732Y13123783D01*
X1786146Y13063831D01*
X1748205Y13022958D01*
X1146168Y12694243D01*
X1143062Y12692188D01*
X1142894Y12692441D01*
X1135679Y12687724D01*
X969172Y12598722D01*
X806655Y12465349D01*
X806651Y12465345D01*
X673279Y12302830D01*
X574170Y12117411D01*
X574170Y12117410D01*
X513144Y11916234D01*
X492536Y11707000D01*
X513144Y11497767D01*
X574170Y11296591D01*
X574170Y11296590D01*
X574171Y11296587D01*
X574172Y11296586D01*
X673279Y11111171D01*
X806653Y10948653D01*
X969171Y10815279D01*
X1154586Y10716172D01*
X1154588Y10716172D01*
X1154589Y10716171D01*
X1315277Y10667427D01*
X1355773Y10655143D01*
X1565000Y10634536D01*
X1774227Y10655143D01*
X1814418Y10667335D01*
X1874454Y10664058D01*
X1918340Y10622956D01*
X1925538Y10563261D01*
X1892681Y10512906D01*
X1877865Y10503925D01*
X1156394Y10158804D01*
X1156395Y10158804D01*
X1155648Y10158447D01*
X1153991Y10157510D01*
X969170Y10058721D01*
X806655Y9925349D01*
X806651Y9925345D01*
X673279Y9762830D01*
X574170Y9577411D01*
X574170Y9577410D01*
X513144Y9376234D01*
X513143Y9376229D01*
X513143Y9376227D01*
X492536Y9167000D01*
X505010Y9040344D01*
X513144Y8957767D01*
X574170Y8756591D01*
X574170Y8756590D01*
X574171Y8756587D01*
X574172Y8756586D01*
X673279Y8571171D01*
X806653Y8408653D01*
X969171Y8275279D01*
X1154586Y8176172D01*
X1154588Y8176172D01*
X1154589Y8176171D01*
X1310751Y8128800D01*
X1355773Y8115143D01*
X1565000Y8094536D01*
X1774227Y8115143D01*
X1975414Y8176172D01*
X2160829Y8275279D01*
X2323347Y8408653D01*
X2437354Y8547573D01*
X2489092Y8578201D01*
X2548417Y8568407D01*
X2587566Y8522771D01*
X2593200Y8491808D01*
X2593200Y8128800D01*
X2572635Y8072299D01*
X2531303Y8044834D01*
X1180782Y7626589D01*
X1178130Y7625700D01*
X1176758Y7625240D01*
X1173770Y7624160D01*
X1173768Y7624160D01*
X1169250Y7622526D01*
X1169185Y7622704D01*
X1164233Y7620756D01*
X1154593Y7617831D01*
X1154587Y7617829D01*
X969170Y7518721D01*
X806655Y7385349D01*
X806651Y7385345D01*
X673279Y7222830D01*
X574170Y7037411D01*
X574170Y7037410D01*
X513144Y6836234D01*
X513143Y6836229D01*
X513143Y6836227D01*
X492536Y6627000D01*
X510356Y6446068D01*
X513144Y6417767D01*
X574170Y6216591D01*
X574170Y6216590D01*
X574171Y6216587D01*
X574172Y6216586D01*
X673279Y6031171D01*
X806653Y5868653D01*
X969171Y5735279D01*
X1154586Y5636172D01*
X1154588Y5636172D01*
X1154589Y5636171D01*
X1278550Y5598568D01*
X1355773Y5575143D01*
X1565000Y5554536D01*
X1655054Y5563406D01*
X1713298Y5548478D01*
X1748321Y5499604D01*
X1743734Y5439652D01*
X1707724Y5399866D01*
X1141774Y5072072D01*
X1137008Y5068766D01*
X1132679Y5066121D01*
X969172Y4978722D01*
X806655Y4845349D01*
X806651Y4845345D01*
X673279Y4682830D01*
X574170Y4497411D01*
X574170Y4497410D01*
X513144Y4296234D01*
X513143Y4296229D01*
X513143Y4296227D01*
X492536Y4087000D01*
X508641Y3923480D01*
X513144Y3877767D01*
X574170Y3676591D01*
X574170Y3676590D01*
X574171Y3676587D01*
X574172Y3676586D01*
X673279Y3491171D01*
X806653Y3328653D01*
X969171Y3195279D01*
X1154586Y3096172D01*
X1154588Y3096172D01*
X1154589Y3096171D01*
X1310751Y3048800D01*
X1355773Y3035143D01*
X1565000Y3014536D01*
X1774227Y3035143D01*
X1975414Y3096172D01*
X2160829Y3195279D01*
X2323347Y3328653D01*
X2437354Y3467573D01*
X2489092Y3498201D01*
X2548417Y3488407D01*
X2587566Y3442771D01*
X2593200Y3411808D01*
X2593200Y3048800D01*
X2572635Y2992299D01*
X2531303Y2964834D01*
X1180782Y2546589D01*
X1178130Y2545700D01*
X1176758Y2545240D01*
X1173770Y2544160D01*
X1173768Y2544160D01*
X1169250Y2542526D01*
X1169185Y2542704D01*
X1164233Y2540756D01*
X1154593Y2537831D01*
X1154587Y2537829D01*
X969170Y2438721D01*
X806655Y2305349D01*
X806651Y2305345D01*
X673279Y2142830D01*
X574170Y1957411D01*
X574170Y1957410D01*
X513144Y1756234D01*
X492536Y1547000D01*
X305300Y1547000D01*
X305300Y34567000D01*
X492536Y34567000D01*
X512377Y34365546D01*
X513144Y34357767D01*
X574170Y34156591D01*
X574170Y34156590D01*
X574171Y34156587D01*
X574172Y34156586D01*
X673279Y33971171D01*
X806653Y33808653D01*
X969171Y33675279D01*
X1154586Y33576172D01*
X1154588Y33576172D01*
X1154589Y33576171D01*
X1321300Y33525600D01*
X1355773Y33515143D01*
X1565000Y33494536D01*
X1774227Y33515143D01*
X1975414Y33576172D01*
X2160829Y33675279D01*
X2323347Y33808653D01*
X2456721Y33971171D01*
X2555828Y34156586D01*
X2616857Y34357773D01*
X2637464Y34567000D01*
X2616857Y34776227D01*
X2603439Y34820459D01*
X2555829Y34977410D01*
X2555829Y34977411D01*
X2555828Y34977412D01*
X2555828Y34977414D01*
X2456721Y35162829D01*
X2323347Y35325347D01*
X2160829Y35458721D01*
X1975414Y35557828D01*
X1975413Y35557829D01*
X1975410Y35557830D01*
X1774233Y35618856D01*
X1774228Y35618857D01*
X1774227Y35618857D01*
X1565000Y35639464D01*
X1355773Y35618857D01*
X1355771Y35618857D01*
X1355766Y35618856D01*
X1154590Y35557830D01*
X1154589Y35557830D01*
X969170Y35458721D01*
X806655Y35325349D01*
X806651Y35325345D01*
X673279Y35162830D01*
X574170Y34977411D01*
X574170Y34977410D01*
X513144Y34776234D01*
X513143Y34776229D01*
X513143Y34776227D01*
X492536Y34567000D01*
X305300Y34567000D01*
X305300Y35837000D01*
X4715141Y35837000D01*
X4733298Y35699086D01*
X4786531Y35570570D01*
X4786532Y35570568D01*
X4833383Y35509511D01*
X4871212Y35460212D01*
X4926391Y35417872D01*
X4963981Y35389027D01*
X4981570Y35375531D01*
X5110086Y35322298D01*
X5248000Y35304141D01*
X5385914Y35322298D01*
X5514430Y35375531D01*
X5624788Y35460212D01*
X5709469Y35570570D01*
X5762702Y35699086D01*
X5780859Y35837000D01*
X5762702Y35974914D01*
X5709469Y36103429D01*
X5683300Y36137533D01*
X5624791Y36213785D01*
X5624787Y36213789D01*
X5514432Y36298468D01*
X5514430Y36298469D01*
X5385914Y36351702D01*
X5248000Y36369859D01*
X5110085Y36351702D01*
X4981571Y36298470D01*
X4871213Y36213790D01*
X4871210Y36213787D01*
X4786530Y36103429D01*
X4733298Y35974915D01*
X4715141Y35837000D01*
X305300Y35837000D01*
X305300Y37107000D01*
X492536Y37107000D01*
X505459Y36975787D01*
X513144Y36897767D01*
X574170Y36696591D01*
X574170Y36696590D01*
X574171Y36696587D01*
X574172Y36696586D01*
X673279Y36511171D01*
X806653Y36348653D01*
X969171Y36215279D01*
X1154586Y36116172D01*
X1154588Y36116172D01*
X1154589Y36116171D01*
X1352756Y36056058D01*
X1355773Y36055143D01*
X1565000Y36034536D01*
X1774227Y36055143D01*
X1975414Y36116172D01*
X2160829Y36215279D01*
X2323347Y36348653D01*
X2456721Y36511171D01*
X2555828Y36696586D01*
X2616857Y36897773D01*
X2637464Y37107000D01*
X2616857Y37316227D01*
X2601608Y37366495D01*
X2561440Y37498914D01*
X2555828Y37517414D01*
X2476514Y37665800D01*
X4613541Y37665800D01*
X4631698Y37527886D01*
X4684931Y37399370D01*
X4684932Y37399368D01*
X4714373Y37361000D01*
X4769612Y37289012D01*
X4769615Y37289010D01*
X4860528Y37219249D01*
X4879970Y37204331D01*
X5008486Y37151098D01*
X5146400Y37132941D01*
X5284314Y37151098D01*
X5412830Y37204331D01*
X5523188Y37289012D01*
X5607869Y37399370D01*
X5661102Y37527886D01*
X5679259Y37665800D01*
X5661102Y37803714D01*
X5607869Y37932229D01*
X5596120Y37947541D01*
X5523191Y38042585D01*
X5523187Y38042589D01*
X5412832Y38127268D01*
X5412830Y38127269D01*
X5284314Y38180502D01*
X5146400Y38198659D01*
X5008485Y38180502D01*
X4879971Y38127270D01*
X4769613Y38042590D01*
X4769610Y38042587D01*
X4684930Y37932229D01*
X4631698Y37803715D01*
X4613541Y37665800D01*
X2476514Y37665800D01*
X2456721Y37702829D01*
X2323347Y37865347D01*
X2160829Y37998721D01*
X1975414Y38097828D01*
X1975413Y38097829D01*
X1975410Y38097830D01*
X1774233Y38158856D01*
X1774228Y38158857D01*
X1774227Y38158857D01*
X1565000Y38179464D01*
X1355773Y38158857D01*
X1355771Y38158857D01*
X1355766Y38158856D01*
X1154590Y38097830D01*
X1154589Y38097830D01*
X969170Y37998721D01*
X806655Y37865349D01*
X806651Y37865345D01*
X673279Y37702830D01*
X574170Y37517411D01*
X574170Y37517410D01*
X513144Y37316234D01*
X513143Y37316229D01*
X513143Y37316227D01*
X492536Y37107000D01*
X305300Y37107000D01*
X305300Y39647000D01*
X492536Y39647000D01*
X509627Y39473469D01*
X513144Y39437767D01*
X574170Y39236591D01*
X574170Y39236590D01*
X574171Y39236587D01*
X574172Y39236586D01*
X673279Y39051171D01*
X806653Y38888653D01*
X969171Y38755279D01*
X1154586Y38656172D01*
X1154588Y38656172D01*
X1154589Y38656171D01*
X1278550Y38618568D01*
X1355773Y38595143D01*
X1565000Y38574536D01*
X1774227Y38595143D01*
X1975414Y38656172D01*
X2160829Y38755279D01*
X2323347Y38888653D01*
X2456721Y39051171D01*
X2555828Y39236586D01*
X2603275Y39393000D01*
X3604141Y39393000D01*
X3622298Y39255086D01*
X3675531Y39126570D01*
X3675532Y39126568D01*
X3733387Y39051171D01*
X3760212Y39016212D01*
X3798217Y38987050D01*
X3860412Y38939325D01*
X3870570Y38931531D01*
X3999086Y38878298D01*
X4137000Y38860141D01*
X4274914Y38878298D01*
X4403430Y38931531D01*
X4475197Y38986600D01*
X5578741Y38986600D01*
X5596898Y38848686D01*
X5650131Y38720170D01*
X5650132Y38720168D01*
X5699239Y38656171D01*
X5734812Y38609812D01*
X5753929Y38595143D01*
X5825114Y38540520D01*
X5845170Y38525131D01*
X5973686Y38471898D01*
X6111600Y38453741D01*
X6249514Y38471898D01*
X6348443Y38512877D01*
X6408511Y38515499D01*
X6456214Y38478896D01*
X6461996Y38467789D01*
X6462932Y38466168D01*
X6495648Y38423532D01*
X6547612Y38355812D01*
X6657970Y38271131D01*
X6786486Y38217898D01*
X6924400Y38199741D01*
X7062314Y38217898D01*
X7190830Y38271131D01*
X7301188Y38355812D01*
X7362057Y38435139D01*
X7412764Y38467442D01*
X7472377Y38459595D01*
X7485301Y38451361D01*
X7521570Y38423531D01*
X7650086Y38370298D01*
X7788000Y38352141D01*
X7925914Y38370298D01*
X8054430Y38423531D01*
X8164788Y38508212D01*
X8249469Y38618570D01*
X8302702Y38747086D01*
X8320859Y38885000D01*
X8302702Y39022914D01*
X8249469Y39151429D01*
X8238105Y39166239D01*
X8164791Y39261785D01*
X8164787Y39261789D01*
X8054432Y39346468D01*
X8054430Y39346469D01*
X7925914Y39399702D01*
X7788000Y39417859D01*
X7650085Y39399702D01*
X7521571Y39346470D01*
X7411213Y39261790D01*
X7411210Y39261787D01*
X7350345Y39182465D01*
X7299634Y39150159D01*
X7240021Y39158007D01*
X7227099Y39166239D01*
X7190831Y39194068D01*
X7190830Y39194069D01*
X7062314Y39247302D01*
X6924400Y39265459D01*
X6786485Y39247302D01*
X6687556Y39206324D01*
X6627486Y39203701D01*
X6579784Y39240304D01*
X6574009Y39251400D01*
X6573071Y39253024D01*
X6573069Y39253029D01*
X6517751Y39325121D01*
X6488391Y39363385D01*
X6488387Y39363389D01*
X6378032Y39448068D01*
X6378030Y39448069D01*
X6249514Y39501302D01*
X6111600Y39519459D01*
X5973685Y39501302D01*
X5845171Y39448070D01*
X5734813Y39363390D01*
X5734810Y39363387D01*
X5650130Y39253029D01*
X5596898Y39124515D01*
X5578741Y38986600D01*
X4475197Y38986600D01*
X4513788Y39016212D01*
X4598469Y39126570D01*
X4651702Y39255086D01*
X4669859Y39393000D01*
X4651702Y39530914D01*
X4598469Y39659429D01*
X4513791Y39769785D01*
X4513787Y39769789D01*
X4403432Y39854468D01*
X4403430Y39854469D01*
X4274914Y39907702D01*
X4137000Y39925859D01*
X3999085Y39907702D01*
X3870571Y39854470D01*
X3760213Y39769790D01*
X3760210Y39769787D01*
X3675530Y39659429D01*
X3622298Y39530915D01*
X3604141Y39393000D01*
X2603275Y39393000D01*
X2616857Y39437773D01*
X2637464Y39647000D01*
X2616857Y39856227D01*
X2555828Y40057414D01*
X2456721Y40242829D01*
X2323347Y40405347D01*
X2160829Y40538721D01*
X1975414Y40637828D01*
X1975413Y40637829D01*
X1975410Y40637830D01*
X1774233Y40698856D01*
X1774228Y40698857D01*
X1774227Y40698857D01*
X1565000Y40719464D01*
X1355773Y40698857D01*
X1355771Y40698857D01*
X1355766Y40698856D01*
X1154590Y40637830D01*
X1154589Y40637830D01*
X969170Y40538721D01*
X806655Y40405349D01*
X806651Y40405345D01*
X673279Y40242830D01*
X574170Y40057411D01*
X574170Y40057410D01*
X513144Y39856234D01*
X513143Y39856229D01*
X513143Y39856227D01*
X492536Y39647000D01*
X305300Y39647000D01*
X305300Y41076000D01*
X4969141Y41076000D01*
X4987298Y40938086D01*
X5040531Y40809570D01*
X5040532Y40809568D01*
X5080180Y40757898D01*
X5125212Y40699212D01*
X5235570Y40614531D01*
X5364086Y40561298D01*
X5502000Y40543141D01*
X5639914Y40561298D01*
X5768430Y40614531D01*
X5878788Y40699212D01*
X5963469Y40809570D01*
X6016702Y40938086D01*
X6034859Y41076000D01*
X6016702Y41213914D01*
X5963469Y41342429D01*
X5900110Y41425000D01*
X6239141Y41425000D01*
X6257298Y41287086D01*
X6310531Y41158570D01*
X6310532Y41158568D01*
X6373889Y41076000D01*
X6395212Y41048212D01*
X6505570Y40963531D01*
X6634086Y40910298D01*
X6772000Y40892141D01*
X6909914Y40910298D01*
X7038430Y40963531D01*
X7148788Y41048212D01*
X7233469Y41158570D01*
X7280702Y41272600D01*
X9388741Y41272600D01*
X9406898Y41134686D01*
X9460131Y41006170D01*
X9460132Y41006168D01*
X9492848Y40963532D01*
X9544812Y40895812D01*
X9655170Y40811131D01*
X9783686Y40757898D01*
X9921600Y40739741D01*
X10059514Y40757898D01*
X10188030Y40811131D01*
X10298388Y40895812D01*
X10299751Y40897589D01*
X10309064Y40909724D01*
X10359774Y40942031D01*
X10419387Y40934184D01*
X10448536Y40909724D01*
X10459205Y40895820D01*
X10459212Y40895812D01*
X10569570Y40811131D01*
X10698086Y40757898D01*
X10836000Y40739741D01*
X10973914Y40757898D01*
X11102430Y40811131D01*
X11212788Y40895812D01*
X11297469Y41006170D01*
X11350702Y41134686D01*
X11368859Y41272600D01*
X11350702Y41410514D01*
X11297469Y41539029D01*
X11282903Y41558012D01*
X11212791Y41649385D01*
X11212787Y41649389D01*
X11102432Y41734068D01*
X11102430Y41734069D01*
X10973914Y41787302D01*
X10836000Y41805459D01*
X10698085Y41787302D01*
X10569571Y41734070D01*
X10459215Y41649392D01*
X10459209Y41649386D01*
X10448534Y41635473D01*
X10397823Y41603168D01*
X10338210Y41611018D01*
X10309064Y41635476D01*
X10298394Y41649381D01*
X10298387Y41649389D01*
X10188032Y41734068D01*
X10188030Y41734069D01*
X10059514Y41787302D01*
X9921600Y41805459D01*
X9783685Y41787302D01*
X9655171Y41734070D01*
X9544813Y41649390D01*
X9544810Y41649387D01*
X9460130Y41539029D01*
X9406898Y41410515D01*
X9388741Y41272600D01*
X7280702Y41272600D01*
X7286702Y41287086D01*
X7304859Y41425000D01*
X7286702Y41562914D01*
X7233469Y41691429D01*
X7200751Y41734068D01*
X7148791Y41801785D01*
X7148787Y41801789D01*
X7038432Y41886468D01*
X7038430Y41886469D01*
X6909914Y41939702D01*
X6772000Y41957859D01*
X6634085Y41939702D01*
X6505571Y41886470D01*
X6395213Y41801790D01*
X6395210Y41801787D01*
X6310530Y41691429D01*
X6257298Y41562915D01*
X6239141Y41425000D01*
X5900110Y41425000D01*
X5880167Y41450991D01*
X5862087Y41508336D01*
X5880166Y41558010D01*
X5963469Y41666570D01*
X6016702Y41795086D01*
X6034859Y41933000D01*
X6016702Y42070914D01*
X5963469Y42199429D01*
X5878791Y42309785D01*
X5878787Y42309789D01*
X5768432Y42394468D01*
X5768430Y42394469D01*
X5639914Y42447702D01*
X5502000Y42465859D01*
X5364085Y42447702D01*
X5235571Y42394470D01*
X5125213Y42309790D01*
X5125210Y42309787D01*
X5040530Y42199429D01*
X4987298Y42070915D01*
X4969141Y41933000D01*
X4987298Y41795086D01*
X5040531Y41666570D01*
X5040532Y41666568D01*
X5083158Y41611018D01*
X5120069Y41562914D01*
X5123831Y41558012D01*
X5141912Y41500667D01*
X5123832Y41450992D01*
X5040532Y41342432D01*
X5040531Y41342430D01*
X4987298Y41213915D01*
X4969141Y41076000D01*
X305300Y41076000D01*
X305300Y42187000D01*
X492536Y42187000D01*
X503969Y42070914D01*
X513144Y41977767D01*
X574170Y41776591D01*
X574170Y41776590D01*
X574171Y41776587D01*
X574172Y41776586D01*
X673279Y41591171D01*
X806653Y41428653D01*
X969171Y41295279D01*
X1154586Y41196172D01*
X1154588Y41196172D01*
X1154589Y41196171D01*
X1278550Y41158568D01*
X1355773Y41135143D01*
X1565000Y41114536D01*
X1774227Y41135143D01*
X1975414Y41196172D01*
X2160829Y41295279D01*
X2323347Y41428653D01*
X2456721Y41591171D01*
X2555828Y41776586D01*
X2616857Y41977773D01*
X2622454Y42034600D01*
X3597541Y42034600D01*
X3615698Y41896686D01*
X3668931Y41768170D01*
X3668932Y41768168D01*
X3695098Y41734068D01*
X3753612Y41657812D01*
X3863970Y41573131D01*
X3992486Y41519898D01*
X4130400Y41501741D01*
X4268314Y41519898D01*
X4396830Y41573131D01*
X4507188Y41657812D01*
X4591869Y41768170D01*
X4645102Y41896686D01*
X4663259Y42034600D01*
X4645102Y42172514D01*
X4591869Y42301029D01*
X4585147Y42309789D01*
X4507191Y42411385D01*
X4507187Y42411389D01*
X4396832Y42496068D01*
X4396830Y42496069D01*
X4268314Y42549302D01*
X4130400Y42567459D01*
X3992485Y42549302D01*
X3863971Y42496070D01*
X3753613Y42411390D01*
X3753610Y42411387D01*
X3668930Y42301029D01*
X3615698Y42172515D01*
X3597541Y42034600D01*
X2622454Y42034600D01*
X2637464Y42187000D01*
X2616857Y42396227D01*
X2555828Y42597414D01*
X2456721Y42782829D01*
X2323347Y42945347D01*
X2160829Y43078721D01*
X1975414Y43177828D01*
X1975413Y43177829D01*
X1975410Y43177830D01*
X1774233Y43238856D01*
X1774228Y43238857D01*
X1774227Y43238857D01*
X1565000Y43259464D01*
X1355773Y43238857D01*
X1355771Y43238857D01*
X1355766Y43238856D01*
X1154590Y43177830D01*
X1154589Y43177830D01*
X969170Y43078721D01*
X806655Y42945349D01*
X806651Y42945345D01*
X673279Y42782830D01*
X574170Y42597411D01*
X574170Y42597410D01*
X513144Y42396234D01*
X513143Y42396229D01*
X513143Y42396227D01*
X492536Y42187000D01*
X305300Y42187000D01*
X305300Y44727000D01*
X492536Y44727000D01*
X508641Y44563480D01*
X513144Y44517767D01*
X574170Y44316591D01*
X574170Y44316590D01*
X574171Y44316587D01*
X574172Y44316586D01*
X673279Y44131171D01*
X806653Y43968653D01*
X969171Y43835279D01*
X1154586Y43736172D01*
X1355773Y43675143D01*
X1565000Y43654536D01*
X1774227Y43675143D01*
X1975414Y43736172D01*
X2160829Y43835279D01*
X2323347Y43968653D01*
X2456721Y44131171D01*
X2555828Y44316586D01*
X2616857Y44517773D01*
X2637464Y44727000D01*
X12819718Y44727000D01*
X12839573Y44563480D01*
X12856910Y44517767D01*
X12897983Y44409464D01*
X12897983Y44409463D01*
X12962089Y44316590D01*
X12991556Y44273900D01*
X13114852Y44164670D01*
X13260705Y44088120D01*
X13420639Y44048700D01*
X13420641Y44048700D01*
X13585358Y44048700D01*
X13585361Y44048700D01*
X13745295Y44088120D01*
X13891148Y44164670D01*
X14014444Y44273900D01*
X14108016Y44409463D01*
X14166427Y44563480D01*
X14186282Y44727000D01*
X14166427Y44890520D01*
X14108016Y45044537D01*
X14108016Y45044538D01*
X14014447Y45180097D01*
X14014444Y45180100D01*
X13955061Y45232709D01*
X13926408Y45285565D01*
X13938434Y45344477D01*
X13955057Y45364289D01*
X14014444Y45416900D01*
X14108016Y45552463D01*
X14166427Y45706480D01*
X14183445Y45846640D01*
X14186282Y45869999D01*
X14186282Y45870002D01*
X14176929Y45947025D01*
X14166427Y46033520D01*
X14108016Y46187537D01*
X14028367Y46302929D01*
X14013195Y46361111D01*
X14038971Y46415432D01*
X14089232Y46440010D01*
X14161967Y46449585D01*
X14302645Y46507856D01*
X14423448Y46600552D01*
X14516144Y46721355D01*
X14574415Y46862033D01*
X14594290Y47013000D01*
X14574415Y47163967D01*
X14516144Y47304645D01*
X14423448Y47425448D01*
X14357263Y47476234D01*
X14302647Y47518143D01*
X14302645Y47518144D01*
X14161967Y47576415D01*
X14011000Y47596290D01*
X13860032Y47576415D01*
X13719354Y47518144D01*
X13719352Y47518143D01*
X13598555Y47425451D01*
X13598549Y47425445D01*
X13505857Y47304648D01*
X13505856Y47304646D01*
X13447585Y47163968D01*
X13427710Y47013001D01*
X13427710Y47013000D01*
X13447585Y46862033D01*
X13505856Y46721355D01*
X13505857Y46721354D01*
X13530138Y46689710D01*
X13548218Y46632366D01*
X13525209Y46576816D01*
X13471876Y46549052D01*
X13460402Y46548300D01*
X13420639Y46548300D01*
X13341801Y46528869D01*
X13260707Y46508881D01*
X13260705Y46508881D01*
X13260705Y46508880D01*
X13212087Y46483364D01*
X13114854Y46432332D01*
X13114849Y46432328D01*
X12991553Y46323097D01*
X12897983Y46187538D01*
X12897983Y46187537D01*
X12845065Y46048002D01*
X12839573Y46033520D01*
X12839572Y46033518D01*
X12839572Y46033515D01*
X12819718Y45870002D01*
X12819718Y45869999D01*
X12828282Y45799464D01*
X12839573Y45706480D01*
X12839575Y45706476D01*
X12897983Y45552464D01*
X12897983Y45552463D01*
X12991553Y45416904D01*
X12991556Y45416900D01*
X13041320Y45372814D01*
X13050936Y45364294D01*
X13079590Y45311433D01*
X13067563Y45252522D01*
X13050936Y45232706D01*
X12991553Y45180097D01*
X12897983Y45044538D01*
X12897983Y45044537D01*
X12876478Y44987831D01*
X12839573Y44890520D01*
X12819718Y44727000D01*
X2637464Y44727000D01*
X2616857Y44936227D01*
X2555828Y45137414D01*
X2456721Y45322829D01*
X2323347Y45485347D01*
X2160829Y45618721D01*
X1975414Y45717828D01*
X1975413Y45717829D01*
X1975410Y45717830D01*
X1774233Y45778856D01*
X1774228Y45778857D01*
X1774227Y45778857D01*
X1565000Y45799464D01*
X1355773Y45778857D01*
X1355771Y45778857D01*
X1355766Y45778856D01*
X1154590Y45717830D01*
X1154589Y45717830D01*
X969170Y45618721D01*
X806655Y45485349D01*
X806651Y45485345D01*
X673279Y45322830D01*
X574170Y45137411D01*
X574170Y45137410D01*
X513144Y44936234D01*
X513143Y44936229D01*
X513143Y44936227D01*
X492536Y44727000D01*
X305300Y44727000D01*
X305300Y46124000D01*
X6239141Y46124000D01*
X6257298Y45986086D01*
X6310531Y45857570D01*
X6310532Y45857568D01*
X6355117Y45799464D01*
X6395212Y45747212D01*
X6505570Y45662531D01*
X6634086Y45609298D01*
X6772000Y45591141D01*
X6909914Y45609298D01*
X7038430Y45662531D01*
X7148788Y45747212D01*
X7233469Y45857570D01*
X7262291Y45927154D01*
X7302912Y45971483D01*
X7362525Y45979331D01*
X7413236Y45947025D01*
X7424709Y45927153D01*
X7453531Y45857570D01*
X7453532Y45857568D01*
X7498117Y45799464D01*
X7538212Y45747212D01*
X7648570Y45662531D01*
X7777086Y45609298D01*
X7915000Y45591141D01*
X8052914Y45609298D01*
X8181430Y45662531D01*
X8291788Y45747212D01*
X8376469Y45857570D01*
X8429702Y45986086D01*
X8447859Y46124000D01*
X8429702Y46261914D01*
X8376469Y46390429D01*
X8344319Y46432328D01*
X8291791Y46500785D01*
X8291787Y46500789D01*
X8181432Y46585468D01*
X8181430Y46585469D01*
X8052914Y46638702D01*
X7915000Y46656859D01*
X7777085Y46638702D01*
X7648571Y46585470D01*
X7538213Y46500790D01*
X7538210Y46500787D01*
X7453531Y46390430D01*
X7424709Y46320847D01*
X7384087Y46276517D01*
X7324474Y46268670D01*
X7273764Y46300976D01*
X7262291Y46320847D01*
X7239744Y46375280D01*
X7233469Y46390429D01*
X7201319Y46432328D01*
X7148791Y46500785D01*
X7148787Y46500789D01*
X7038432Y46585468D01*
X7038430Y46585469D01*
X6909914Y46638702D01*
X6772000Y46656859D01*
X6634085Y46638702D01*
X6505571Y46585470D01*
X6395213Y46500790D01*
X6395210Y46500787D01*
X6310530Y46390429D01*
X6257298Y46261915D01*
X6239141Y46124000D01*
X305300Y46124000D01*
X305300Y47267000D01*
X492536Y47267000D01*
X513144Y47057767D01*
X574170Y46856591D01*
X574170Y46856590D01*
X574171Y46856587D01*
X574172Y46856586D01*
X673279Y46671171D01*
X806653Y46508653D01*
X969171Y46375279D01*
X1154586Y46276172D01*
X1154588Y46276172D01*
X1154589Y46276171D01*
X1201588Y46261914D01*
X1355773Y46215143D01*
X1565000Y46194536D01*
X1774227Y46215143D01*
X1975414Y46276172D01*
X2160829Y46375279D01*
X2323347Y46508653D01*
X2456721Y46671171D01*
X2555828Y46856586D01*
X2616857Y47057773D01*
X2637464Y47267000D01*
X2616857Y47476227D01*
X2555828Y47677414D01*
X2456721Y47862829D01*
X2323347Y48025347D01*
X2164145Y48156000D01*
X8271141Y48156000D01*
X8289298Y48018086D01*
X8342531Y47889570D01*
X8342532Y47889568D01*
X8363049Y47862830D01*
X8427212Y47779212D01*
X8537570Y47694531D01*
X8666086Y47641298D01*
X8804000Y47623141D01*
X8941914Y47641298D01*
X9070430Y47694531D01*
X9180788Y47779212D01*
X9265469Y47889570D01*
X9318702Y48018086D01*
X9336859Y48156000D01*
X9318702Y48293914D01*
X9265469Y48422429D01*
X9180791Y48532785D01*
X9180787Y48532789D01*
X9070432Y48617468D01*
X9070430Y48617469D01*
X8941914Y48670702D01*
X8804000Y48688859D01*
X8666085Y48670702D01*
X8537571Y48617470D01*
X8427213Y48532790D01*
X8427210Y48532787D01*
X8342530Y48422429D01*
X8289298Y48293915D01*
X8271141Y48156000D01*
X2164145Y48156000D01*
X2160829Y48158721D01*
X1975414Y48257828D01*
X1975413Y48257829D01*
X1975410Y48257830D01*
X1774233Y48318856D01*
X1774228Y48318857D01*
X1774227Y48318857D01*
X1565000Y48339464D01*
X1355773Y48318857D01*
X1355771Y48318857D01*
X1355766Y48318856D01*
X1154590Y48257830D01*
X1154589Y48257830D01*
X969170Y48158721D01*
X806655Y48025349D01*
X806651Y48025345D01*
X673279Y47862830D01*
X574170Y47677411D01*
X574170Y47677410D01*
X513144Y47476234D01*
X513143Y47476229D01*
X513143Y47476227D01*
X496244Y47304648D01*
X492536Y47267000D01*
X305300Y47267000D01*
X305300Y49807000D01*
X492536Y49807000D01*
X509627Y49633468D01*
X513144Y49597767D01*
X574170Y49396591D01*
X574170Y49396590D01*
X574171Y49396587D01*
X574172Y49396586D01*
X673279Y49211171D01*
X806653Y49048653D01*
X969171Y48915279D01*
X1154586Y48816172D01*
X1355773Y48755143D01*
X1565000Y48734536D01*
X1774227Y48755143D01*
X1975414Y48816172D01*
X2160829Y48915279D01*
X2323347Y49048653D01*
X2424574Y49172000D01*
X9287141Y49172000D01*
X9305298Y49034086D01*
X9358531Y48905570D01*
X9358532Y48905568D01*
X9433490Y48807882D01*
X9443212Y48795212D01*
X9553570Y48710531D01*
X9682086Y48657298D01*
X9820000Y48639141D01*
X9957914Y48657298D01*
X10086430Y48710531D01*
X10196788Y48795212D01*
X10281469Y48905570D01*
X10334702Y49034086D01*
X10352859Y49172000D01*
X10334702Y49309914D01*
X10281469Y49438429D01*
X10245641Y49485121D01*
X10196791Y49548785D01*
X10196787Y49548789D01*
X10086432Y49633468D01*
X10086430Y49633469D01*
X9957914Y49686702D01*
X9820000Y49704859D01*
X9682085Y49686702D01*
X9553571Y49633470D01*
X9443213Y49548790D01*
X9443210Y49548787D01*
X9358530Y49438429D01*
X9305298Y49309915D01*
X9287141Y49172000D01*
X2424574Y49172000D01*
X2456721Y49211171D01*
X2555828Y49396586D01*
X2616857Y49597773D01*
X2637464Y49807000D01*
X2616857Y50016227D01*
X2555828Y50217414D01*
X2456721Y50402829D01*
X2323347Y50565347D01*
X2164145Y50696000D01*
X10176141Y50696000D01*
X10194298Y50558086D01*
X10247531Y50429570D01*
X10247532Y50429568D01*
X10268049Y50402830D01*
X10332212Y50319212D01*
X10442570Y50234531D01*
X10571086Y50181298D01*
X10709000Y50163141D01*
X10846914Y50181298D01*
X10975430Y50234531D01*
X11085788Y50319212D01*
X11170469Y50429570D01*
X11223702Y50558086D01*
X11241859Y50696000D01*
X11223702Y50833914D01*
X11170469Y50962429D01*
X11085791Y51072785D01*
X11085787Y51072789D01*
X10975432Y51157468D01*
X10975430Y51157469D01*
X10846914Y51210702D01*
X10709000Y51228859D01*
X10571085Y51210702D01*
X10442571Y51157470D01*
X10332213Y51072790D01*
X10332210Y51072787D01*
X10247530Y50962429D01*
X10194298Y50833915D01*
X10176141Y50696000D01*
X2164145Y50696000D01*
X2160829Y50698721D01*
X1975414Y50797828D01*
X1975413Y50797829D01*
X1975410Y50797830D01*
X1774233Y50858856D01*
X1774228Y50858857D01*
X1774227Y50858857D01*
X1565000Y50879464D01*
X1355773Y50858857D01*
X1355771Y50858857D01*
X1355766Y50858856D01*
X1154590Y50797830D01*
X1154589Y50797830D01*
X969170Y50698721D01*
X806655Y50565349D01*
X806651Y50565345D01*
X673279Y50402830D01*
X574170Y50217411D01*
X574170Y50217410D01*
X513144Y50016234D01*
X513143Y50016229D01*
X513143Y50016227D01*
X492536Y49807000D01*
X305300Y49807000D01*
X305300Y52347000D01*
X492536Y52347000D01*
X498786Y52283538D01*
X513144Y52137767D01*
X574170Y51936591D01*
X574170Y51936590D01*
X574171Y51936587D01*
X574172Y51936586D01*
X673279Y51751171D01*
X806653Y51588653D01*
X969171Y51455279D01*
X1154586Y51356172D01*
X1154588Y51356172D01*
X1154589Y51356171D01*
X1250351Y51327122D01*
X1355773Y51295143D01*
X1565000Y51274536D01*
X1774227Y51295143D01*
X1975414Y51356172D01*
X2160829Y51455279D01*
X2323347Y51588653D01*
X2456721Y51751171D01*
X2555828Y51936586D01*
X2564750Y51965999D01*
X3929718Y51965999D01*
X3933289Y51936586D01*
X3949573Y51802480D01*
X3949575Y51802476D01*
X4007983Y51648464D01*
X4007983Y51648463D01*
X4049268Y51588652D01*
X4101556Y51512900D01*
X4224852Y51403670D01*
X4370705Y51327120D01*
X4530639Y51287700D01*
X4530641Y51287700D01*
X4695358Y51287700D01*
X4695361Y51287700D01*
X4855295Y51327120D01*
X5001148Y51403670D01*
X5124444Y51512900D01*
X5218016Y51648463D01*
X5276427Y51802480D01*
X5296282Y51966000D01*
X5276427Y52129520D01*
X5218016Y52283537D01*
X5218016Y52283538D01*
X5124447Y52419097D01*
X5124444Y52419100D01*
X5065061Y52471709D01*
X5063819Y52474000D01*
X10684141Y52474000D01*
X10702298Y52336086D01*
X10755531Y52207570D01*
X10755532Y52207568D01*
X10809088Y52137773D01*
X10840212Y52097212D01*
X10950570Y52012531D01*
X11079086Y51959298D01*
X11217000Y51941141D01*
X11354914Y51959298D01*
X11483430Y52012531D01*
X11593788Y52097212D01*
X11678469Y52207570D01*
X11731702Y52336086D01*
X11749859Y52474000D01*
X11731702Y52611914D01*
X11678469Y52740429D01*
X11665436Y52757414D01*
X11593791Y52850785D01*
X11593787Y52850789D01*
X11483432Y52935468D01*
X11483430Y52935469D01*
X11354914Y52988702D01*
X11217000Y53006859D01*
X11079085Y52988702D01*
X10950571Y52935470D01*
X10840213Y52850790D01*
X10840210Y52850787D01*
X10755530Y52740429D01*
X10702298Y52611915D01*
X10684141Y52474000D01*
X5063819Y52474000D01*
X5036408Y52524565D01*
X5048434Y52583477D01*
X5065057Y52603289D01*
X5124444Y52655900D01*
X5133404Y52668880D01*
X5218016Y52791463D01*
X5218016Y52791464D01*
X5276427Y52945480D01*
X5295838Y53105345D01*
X5296282Y53108999D01*
X5296282Y53109002D01*
X5280531Y53238721D01*
X5276427Y53272520D01*
X5218016Y53426537D01*
X5218016Y53426538D01*
X5124446Y53562097D01*
X5124444Y53562100D01*
X5001148Y53671330D01*
X5001146Y53671331D01*
X5001145Y53671332D01*
X4957612Y53694180D01*
X4855295Y53747880D01*
X4855292Y53747881D01*
X4799986Y53761513D01*
X4695361Y53787300D01*
X4530639Y53787300D01*
X4451801Y53767869D01*
X4370707Y53747881D01*
X4370705Y53747881D01*
X4370705Y53747880D01*
X4322087Y53722364D01*
X4224854Y53671332D01*
X4224849Y53671328D01*
X4101553Y53562097D01*
X4007983Y53426538D01*
X4007983Y53426537D01*
X3974341Y53337828D01*
X3949573Y53272520D01*
X3949572Y53272518D01*
X3949572Y53272515D01*
X3929718Y53109002D01*
X3929718Y53108999D01*
X3930161Y53105347D01*
X3949573Y52945480D01*
X3953370Y52935469D01*
X4007983Y52791464D01*
X4007983Y52791463D01*
X4095736Y52664332D01*
X4101556Y52655900D01*
X4121880Y52637895D01*
X4160936Y52603294D01*
X4189590Y52550433D01*
X4177563Y52491522D01*
X4160936Y52471706D01*
X4101553Y52419097D01*
X4007983Y52283538D01*
X4007983Y52283537D01*
X3955065Y52144002D01*
X3949573Y52129520D01*
X3949572Y52129518D01*
X3949572Y52129515D01*
X3929718Y51966002D01*
X3929718Y51965999D01*
X2564750Y51965999D01*
X2616857Y52137773D01*
X2637464Y52347000D01*
X2616857Y52556227D01*
X2602579Y52603294D01*
X2586622Y52655900D01*
X2555828Y52757414D01*
X2456721Y52942829D01*
X2323347Y53105347D01*
X2160829Y53238721D01*
X1975414Y53337828D01*
X1975413Y53337829D01*
X1975410Y53337830D01*
X1774233Y53398856D01*
X1774228Y53398857D01*
X1774227Y53398857D01*
X1565000Y53419464D01*
X1355773Y53398857D01*
X1355771Y53398857D01*
X1355766Y53398856D01*
X1154590Y53337830D01*
X1154589Y53337830D01*
X969170Y53238721D01*
X806655Y53105349D01*
X806651Y53105345D01*
X673279Y52942830D01*
X574170Y52757411D01*
X574170Y52757410D01*
X513144Y52556234D01*
X513143Y52556229D01*
X513143Y52556227D01*
X492536Y52347000D01*
X305300Y52347000D01*
X305300Y54887000D01*
X492536Y54887000D01*
X513144Y54677767D01*
X574170Y54476591D01*
X574170Y54476590D01*
X574171Y54476587D01*
X574172Y54476586D01*
X673279Y54291171D01*
X806653Y54128653D01*
X969171Y53995279D01*
X1154586Y53896172D01*
X1355773Y53835143D01*
X1565000Y53814536D01*
X1774227Y53835143D01*
X1975414Y53896172D01*
X2160829Y53995279D01*
X2323347Y54128653D01*
X2456721Y54291171D01*
X2555828Y54476586D01*
X2616857Y54677773D01*
X2637464Y54887000D01*
X2616857Y55096227D01*
X2555828Y55297414D01*
X2456721Y55482829D01*
X2323347Y55645347D01*
X2160829Y55778721D01*
X1975414Y55877828D01*
X1975413Y55877829D01*
X1975410Y55877830D01*
X1774233Y55938856D01*
X1774228Y55938857D01*
X1774227Y55938857D01*
X1565000Y55959464D01*
X1355773Y55938857D01*
X1355771Y55938857D01*
X1355766Y55938856D01*
X1154590Y55877830D01*
X1154589Y55877830D01*
X969170Y55778721D01*
X806655Y55645349D01*
X806651Y55645345D01*
X673279Y55482830D01*
X574170Y55297411D01*
X574170Y55297410D01*
X513144Y55096234D01*
X492536Y54887000D01*
X305300Y54887000D01*
X305300Y56284000D01*
X13581718Y56284000D01*
X13601573Y56120480D01*
X13601575Y56120476D01*
X13659983Y55966464D01*
X13659983Y55966463D01*
X13721164Y55877828D01*
X13753556Y55830900D01*
X13876852Y55721670D01*
X14022705Y55645120D01*
X14182639Y55605700D01*
X14182641Y55605700D01*
X14347358Y55605700D01*
X14347361Y55605700D01*
X14507295Y55645120D01*
X14653148Y55721670D01*
X14776444Y55830900D01*
X14870016Y55966463D01*
X14928427Y56120480D01*
X14948282Y56284000D01*
X14928427Y56447520D01*
X14870016Y56601537D01*
X14870016Y56601538D01*
X14776447Y56737097D01*
X14776444Y56737100D01*
X14717061Y56789709D01*
X14688408Y56842565D01*
X14700434Y56901477D01*
X14717057Y56921289D01*
X14776444Y56973900D01*
X14805912Y57016591D01*
X14870016Y57109463D01*
X14870016Y57109464D01*
X14928427Y57263480D01*
X14948282Y57427000D01*
X14928427Y57590520D01*
X14870016Y57744537D01*
X14870016Y57744538D01*
X14776446Y57880097D01*
X14776444Y57880100D01*
X14653148Y57989330D01*
X14653146Y57989331D01*
X14653145Y57989332D01*
X14589319Y58022830D01*
X14507295Y58065880D01*
X14507292Y58065881D01*
X14451986Y58079513D01*
X14347361Y58105300D01*
X14182639Y58105300D01*
X14103801Y58085869D01*
X14022707Y58065881D01*
X14022705Y58065881D01*
X14022705Y58065880D01*
X13974087Y58040364D01*
X13876854Y57989332D01*
X13876849Y57989328D01*
X13753553Y57880097D01*
X13659983Y57744538D01*
X13659983Y57744537D01*
X13638478Y57687831D01*
X13601573Y57590520D01*
X13581718Y57427000D01*
X13601573Y57263480D01*
X13618910Y57217767D01*
X13659983Y57109464D01*
X13659983Y57109463D01*
X13724089Y57016590D01*
X13753556Y56973900D01*
X13803320Y56929814D01*
X13812936Y56921294D01*
X13841590Y56868433D01*
X13829563Y56809522D01*
X13812936Y56789706D01*
X13753553Y56737097D01*
X13659983Y56601538D01*
X13659983Y56601537D01*
X13607065Y56462002D01*
X13601573Y56447520D01*
X13601572Y56447518D01*
X13601572Y56447515D01*
X13581718Y56284002D01*
X13581718Y56284000D01*
X305300Y56284000D01*
X305300Y57427000D01*
X492536Y57427000D01*
X508641Y57263480D01*
X513144Y57217767D01*
X574170Y57016591D01*
X574170Y57016590D01*
X574171Y57016587D01*
X574172Y57016586D01*
X673279Y56831171D01*
X806653Y56668653D01*
X969171Y56535279D01*
X1154586Y56436172D01*
X1355773Y56375143D01*
X1565000Y56354536D01*
X1774227Y56375143D01*
X1975414Y56436172D01*
X2160829Y56535279D01*
X2323347Y56668653D01*
X2456721Y56831171D01*
X2555828Y57016586D01*
X2616857Y57217773D01*
X2637464Y57427000D01*
X2616857Y57636227D01*
X2555828Y57837414D01*
X2456721Y58022829D01*
X2323347Y58185347D01*
X2160829Y58318721D01*
X1975414Y58417828D01*
X1975413Y58417829D01*
X1975410Y58417830D01*
X1774233Y58478856D01*
X1774228Y58478857D01*
X1774227Y58478857D01*
X1565000Y58499464D01*
X1355773Y58478857D01*
X1355771Y58478857D01*
X1355766Y58478856D01*
X1154590Y58417830D01*
X1154589Y58417830D01*
X969170Y58318721D01*
X806655Y58185349D01*
X806651Y58185345D01*
X673279Y58022830D01*
X574170Y57837411D01*
X574170Y57837410D01*
X513144Y57636234D01*
X513143Y57636229D01*
X513143Y57636227D01*
X492536Y57427000D01*
X305300Y57427000D01*
X305300Y59967000D01*
X492536Y59967000D01*
X507533Y59814729D01*
X513144Y59757767D01*
X574170Y59556591D01*
X574170Y59556590D01*
X574171Y59556587D01*
X574172Y59556586D01*
X673279Y59371171D01*
X806653Y59208653D01*
X969171Y59075279D01*
X1154586Y58976172D01*
X1355773Y58915143D01*
X1565000Y58894536D01*
X1774227Y58915143D01*
X1975414Y58976172D01*
X2160829Y59075279D01*
X2323347Y59208653D01*
X2456721Y59371171D01*
X2555828Y59556586D01*
X2616857Y59757773D01*
X2637464Y59967000D01*
X2616857Y60176227D01*
X2564751Y60348000D01*
X8017141Y60348000D01*
X8035298Y60210086D01*
X8088531Y60081570D01*
X8088532Y60081568D01*
X8101693Y60064417D01*
X8173212Y59971212D01*
X8283570Y59886531D01*
X8412086Y59833298D01*
X8550000Y59815141D01*
X8687914Y59833298D01*
X8816430Y59886531D01*
X8926788Y59971212D01*
X8928568Y59973533D01*
X8930055Y59974481D01*
X8930866Y59975290D01*
X8931045Y59975111D01*
X8979276Y60005841D01*
X9038890Y59997997D01*
X9068041Y59973538D01*
X9070142Y59970800D01*
X9180500Y59886119D01*
X9309016Y59832886D01*
X9446930Y59814729D01*
X9584844Y59832886D01*
X9713360Y59886119D01*
X9823718Y59970800D01*
X9908399Y60081158D01*
X9961632Y60209674D01*
X9979789Y60347588D01*
X9961632Y60485502D01*
X9908399Y60614017D01*
X9895236Y60631171D01*
X9823721Y60724373D01*
X9823717Y60724377D01*
X9713362Y60809056D01*
X9713360Y60809057D01*
X9584844Y60862290D01*
X9446930Y60880447D01*
X9309015Y60862290D01*
X9180501Y60809058D01*
X9070145Y60724380D01*
X9070139Y60724374D01*
X9068357Y60722050D01*
X9066868Y60721103D01*
X9066073Y60720306D01*
X9065896Y60720483D01*
X9017646Y60689745D01*
X8958033Y60697595D01*
X8928888Y60722051D01*
X8927106Y60724373D01*
X8926788Y60724788D01*
X8914118Y60734510D01*
X8816432Y60809468D01*
X8816430Y60809469D01*
X8687914Y60862702D01*
X8550000Y60880859D01*
X8412085Y60862702D01*
X8283571Y60809470D01*
X8173213Y60724790D01*
X8173210Y60724787D01*
X8088530Y60614429D01*
X8035298Y60485915D01*
X8017141Y60348000D01*
X2564751Y60348000D01*
X2555828Y60377414D01*
X2456721Y60562829D01*
X2323347Y60725347D01*
X2160829Y60858721D01*
X1975414Y60957828D01*
X1975413Y60957829D01*
X1975410Y60957830D01*
X1774233Y61018856D01*
X1774228Y61018857D01*
X1774227Y61018857D01*
X1565000Y61039464D01*
X1355773Y61018857D01*
X1355771Y61018857D01*
X1355766Y61018856D01*
X1154590Y60957830D01*
X1154589Y60957830D01*
X969170Y60858721D01*
X806655Y60725349D01*
X806651Y60725345D01*
X673279Y60562830D01*
X574170Y60377411D01*
X574170Y60377410D01*
X513144Y60176234D01*
X513143Y60176229D01*
X513143Y60176227D01*
X492536Y59967000D01*
X305300Y59967000D01*
X305300Y62507000D01*
X492536Y62507000D01*
X511283Y62316654D01*
X513144Y62297767D01*
X574170Y62096591D01*
X574170Y62096590D01*
X574171Y62096587D01*
X574172Y62096586D01*
X673279Y61911171D01*
X806653Y61748653D01*
X969171Y61615279D01*
X1154586Y61516172D01*
X1355773Y61455143D01*
X1565000Y61434536D01*
X1774227Y61455143D01*
X1975414Y61516172D01*
X2160829Y61615279D01*
X2323347Y61748653D01*
X2422933Y61870000D01*
X3726509Y61870000D01*
X3737074Y61759355D01*
X3737074Y61759354D01*
X3796685Y61556336D01*
X3796687Y61556330D01*
X3893650Y61368246D01*
X3893652Y61368244D01*
X4024453Y61201916D01*
X4184368Y61063348D01*
X4184374Y61063344D01*
X4230000Y61037002D01*
X4230000Y61869999D01*
X4229999Y61870000D01*
X3726509Y61870000D01*
X2422933Y61870000D01*
X2456721Y61911171D01*
X2498065Y61988519D01*
X4430000Y61988519D01*
X4444835Y61894852D01*
X4502359Y61781955D01*
X4591955Y61692359D01*
X4704852Y61634835D01*
X4830000Y61615014D01*
X4955148Y61634835D01*
X5068045Y61692359D01*
X5157641Y61781955D01*
X5215165Y61894852D01*
X5230000Y61988519D01*
X5230000Y62951481D01*
X5215165Y63045148D01*
X5157641Y63158045D01*
X5068045Y63247641D01*
X4955148Y63305165D01*
X4830000Y63324986D01*
X4704852Y63305165D01*
X4591955Y63247641D01*
X4502359Y63158045D01*
X4444835Y63045148D01*
X4430000Y62951481D01*
X4430000Y61988519D01*
X2498065Y61988519D01*
X2555828Y62096586D01*
X2616857Y62297773D01*
X2637464Y62507000D01*
X2616857Y62716227D01*
X2555828Y62917414D01*
X2474268Y63070001D01*
X3722000Y63070001D01*
X3722001Y63070000D01*
X4229999Y63070000D01*
X4230000Y63070001D01*
X4230000Y63902960D01*
X4229999Y63902960D01*
X4101117Y63811183D01*
X4101110Y63811177D01*
X3955094Y63658041D01*
X3955091Y63658037D01*
X3840690Y63480024D01*
X3762047Y63283585D01*
X3722000Y63075800D01*
X3722000Y63070001D01*
X2474268Y63070001D01*
X2456721Y63102829D01*
X2323347Y63265347D01*
X2160829Y63398721D01*
X1975414Y63497828D01*
X1975413Y63497829D01*
X1975410Y63497830D01*
X1905815Y63518941D01*
X1857717Y63555021D01*
X1844063Y63613578D01*
X1871243Y63667211D01*
X1905936Y63686179D01*
X1905680Y63686925D01*
X1996030Y63717944D01*
X1810975Y63902999D01*
X5430000Y63902999D01*
X5430000Y61037042D01*
X5558878Y61128814D01*
X5558888Y61128823D01*
X5704905Y61281960D01*
X5704908Y61281964D01*
X5819309Y61459977D01*
X5897952Y61656416D01*
X5938000Y61864201D01*
X5938000Y62316654D01*
X5958565Y62373155D01*
X6010636Y62403219D01*
X6059539Y62397862D01*
X6101982Y62380281D01*
X6101985Y62380280D01*
X6184440Y62369425D01*
X6220325Y62364700D01*
X6220327Y62364700D01*
X6299675Y62364700D01*
X6324340Y62367948D01*
X6418015Y62380280D01*
X6565261Y62441272D01*
X6691705Y62538295D01*
X6788728Y62664738D01*
X6807559Y62710200D01*
X9566541Y62710200D01*
X9584698Y62572286D01*
X9637931Y62443770D01*
X9637932Y62443768D01*
X9686648Y62380281D01*
X9722612Y62333412D01*
X9832970Y62248731D01*
X9961486Y62195498D01*
X10099400Y62177341D01*
X10237314Y62195498D01*
X10365830Y62248731D01*
X10476188Y62333412D01*
X10560869Y62443770D01*
X10614102Y62572286D01*
X10632259Y62710200D01*
X10614102Y62848114D01*
X10563615Y62970000D01*
X11429477Y62970000D01*
X11450280Y62811985D01*
X11511271Y62664740D01*
X11608293Y62538297D01*
X11608296Y62538294D01*
X11649080Y62507000D01*
X11734739Y62441272D01*
X11881985Y62380280D01*
X11972790Y62368326D01*
X12000325Y62364700D01*
X12000327Y62364700D01*
X12079675Y62364700D01*
X12110835Y62368803D01*
X12198015Y62380280D01*
X12240461Y62397863D01*
X12300531Y62400486D01*
X12348233Y62363884D01*
X12362000Y62316654D01*
X12362000Y61917209D01*
X12377074Y61759355D01*
X12377074Y61759354D01*
X12436685Y61556336D01*
X12436687Y61556330D01*
X12533650Y61368246D01*
X12533652Y61368244D01*
X12664453Y61201916D01*
X12824368Y61063348D01*
X12824374Y61063344D01*
X12870000Y61037002D01*
X12870000Y61037042D01*
X14070000Y61037042D01*
X14198878Y61128814D01*
X14198888Y61128823D01*
X14344905Y61281960D01*
X14344908Y61281964D01*
X14459309Y61459977D01*
X14537952Y61656416D01*
X14578000Y61864201D01*
X14578000Y61869999D01*
X14577999Y61870000D01*
X14070001Y61870000D01*
X14070000Y61869999D01*
X14070000Y61037042D01*
X12870000Y61037042D01*
X12870000Y61988519D01*
X13070000Y61988519D01*
X13084835Y61894852D01*
X13142359Y61781955D01*
X13231955Y61692359D01*
X13344852Y61634835D01*
X13470000Y61615014D01*
X13595148Y61634835D01*
X13708045Y61692359D01*
X13797641Y61781955D01*
X13855165Y61894852D01*
X13870000Y61988519D01*
X13870000Y62507000D01*
X15403212Y62507000D01*
X15422330Y62276274D01*
X15422331Y62276268D01*
X15473637Y62073665D01*
X15473638Y62073665D01*
X15835084Y62435111D01*
X16305000Y62435111D01*
X16345507Y62297156D01*
X16423239Y62176202D01*
X16531900Y62082048D01*
X16662685Y62022320D01*
X16769237Y62007000D01*
X16840763Y62007000D01*
X16947315Y62022320D01*
X17078100Y62082048D01*
X17186761Y62176202D01*
X17264493Y62297156D01*
X17305000Y62435111D01*
X17305000Y62578889D01*
X17264493Y62716844D01*
X17186761Y62837798D01*
X17078100Y62931952D01*
X16947315Y62991680D01*
X16840763Y63007000D01*
X16769237Y63007000D01*
X16662685Y62991680D01*
X16531900Y62931952D01*
X16423239Y62837798D01*
X16345507Y62716844D01*
X16305000Y62578889D01*
X16305000Y62435111D01*
X15835084Y62435111D01*
X15906974Y62507001D01*
X15473638Y62940337D01*
X15473637Y62940337D01*
X15422331Y62737733D01*
X15422330Y62737727D01*
X15403212Y62507000D01*
X13870000Y62507000D01*
X13870000Y62951481D01*
X13855165Y63045148D01*
X13797641Y63158045D01*
X13708045Y63247641D01*
X13595148Y63305165D01*
X13470000Y63324986D01*
X13344852Y63305165D01*
X13231955Y63247641D01*
X13142359Y63158045D01*
X13084835Y63045148D01*
X13070000Y62951481D01*
X13070000Y61988519D01*
X12870000Y61988519D01*
X12870000Y63902960D01*
X12869999Y63902960D01*
X12741117Y63811183D01*
X12741110Y63811177D01*
X12595094Y63658041D01*
X12595085Y63658030D01*
X12495668Y63503331D01*
X12447822Y63466917D01*
X12387763Y63469778D01*
X12368212Y63481117D01*
X12363404Y63484806D01*
X12346434Y63497828D01*
X12345260Y63498729D01*
X12198015Y63559720D01*
X12079675Y63575300D01*
X12079673Y63575300D01*
X12000327Y63575300D01*
X12000325Y63575300D01*
X11881984Y63559720D01*
X11734739Y63498729D01*
X11608298Y63401709D01*
X11608295Y63401706D01*
X11511271Y63275262D01*
X11450280Y63128016D01*
X11429477Y62970001D01*
X11429477Y62970000D01*
X10563615Y62970000D01*
X10560869Y62976629D01*
X10508293Y63045148D01*
X10476191Y63086985D01*
X10476187Y63086989D01*
X10365832Y63171668D01*
X10365830Y63171669D01*
X10237314Y63224902D01*
X10099400Y63243059D01*
X9961485Y63224902D01*
X9832971Y63171670D01*
X9722613Y63086990D01*
X9722610Y63086987D01*
X9637930Y62976629D01*
X9584698Y62848115D01*
X9566541Y62710200D01*
X6807559Y62710200D01*
X6849720Y62811985D01*
X6870523Y62970000D01*
X6849720Y63128015D01*
X6788728Y63275261D01*
X6750573Y63324986D01*
X6691706Y63401704D01*
X6691703Y63401707D01*
X6565260Y63498729D01*
X6418015Y63559720D01*
X6299675Y63575300D01*
X6299673Y63575300D01*
X6220327Y63575300D01*
X6220325Y63575300D01*
X6101984Y63559720D01*
X5954738Y63498728D01*
X5954736Y63498727D01*
X5930166Y63479874D01*
X5872821Y63461795D01*
X5817272Y63484806D01*
X5798529Y63509333D01*
X5766348Y63571755D01*
X5766347Y63571757D01*
X5635545Y63738086D01*
X5635542Y63738089D01*
X5475634Y63876651D01*
X5475625Y63876657D01*
X5430000Y63902999D01*
X14070000Y63902999D01*
X14070000Y63070001D01*
X14070001Y63070000D01*
X14573490Y63070000D01*
X14573490Y63070001D01*
X14562925Y63180646D01*
X14562925Y63180647D01*
X14503314Y63383665D01*
X14503312Y63383671D01*
X14406349Y63571755D01*
X14406347Y63571757D01*
X14275545Y63738086D01*
X14275542Y63738089D01*
X14115634Y63876651D01*
X14115625Y63876657D01*
X14070000Y63902999D01*
X5430000Y63902999D01*
X1810975Y63902999D01*
X1562539Y64151435D01*
X1549462Y64142696D01*
X1544435Y64128884D01*
X1539255Y64123230D01*
X1133968Y63717944D01*
X1133967Y63717944D01*
X1224320Y63686925D01*
X1223922Y63685768D01*
X1269973Y63654457D01*
X1286330Y63596598D01*
X1261670Y63541760D01*
X1224184Y63518941D01*
X1154590Y63497830D01*
X1154589Y63497830D01*
X969170Y63398721D01*
X806655Y63265349D01*
X806651Y63265345D01*
X673279Y63102830D01*
X574170Y62917411D01*
X574170Y62917410D01*
X513144Y62716234D01*
X513143Y62716229D01*
X513143Y62716227D01*
X492536Y62507000D01*
X305300Y62507000D01*
X305300Y64648917D01*
X325865Y64705418D01*
X331045Y64711072D01*
X595084Y64975111D01*
X1065000Y64975111D01*
X1105507Y64837156D01*
X1183239Y64716202D01*
X1291900Y64622048D01*
X1422685Y64562320D01*
X1529237Y64547000D01*
X1600763Y64547000D01*
X1707315Y64562320D01*
X1838100Y64622048D01*
X1946761Y64716202D01*
X2024493Y64837156D01*
X2065000Y64975111D01*
X2065000Y65049461D01*
X2460565Y65049461D01*
X2896361Y64613664D01*
X2947668Y64816269D01*
X2947669Y64816274D01*
X2966787Y65047000D01*
X2947669Y65277727D01*
X2947668Y65277733D01*
X2896361Y65480338D01*
X2488770Y65072745D01*
X2470078Y65064029D01*
X2469716Y65063154D01*
X2460565Y65049461D01*
X2065000Y65049461D01*
X2065000Y65118889D01*
X2024493Y65256844D01*
X1946761Y65377798D01*
X1838100Y65471952D01*
X1707315Y65531680D01*
X1600763Y65547000D01*
X1529237Y65547000D01*
X1422685Y65531680D01*
X1291900Y65471952D01*
X1183239Y65377798D01*
X1105507Y65256844D01*
X1065000Y65118889D01*
X1065000Y64975111D01*
X595084Y64975111D01*
X666974Y65047001D01*
X331045Y65382930D01*
X305634Y65437424D01*
X305300Y65445085D01*
X305300Y68606800D01*
X325865Y68663301D01*
X377936Y68693365D01*
X393200Y68694700D01*
X443242Y68694700D01*
X499743Y68674135D01*
G37*
%TD.AperFunction*%
%TA.AperFunction,Conductor*%
G36*
X15128717Y29457927D02*
G01*
X15163205Y29408674D01*
X15166200Y29385924D01*
X15166200Y28095200D01*
X15145635Y28038699D01*
X15093564Y28008635D01*
X15078300Y28007300D01*
X13787576Y28007300D01*
X13731075Y28027865D01*
X13701011Y28079936D01*
X13711452Y28139150D01*
X13725421Y28157355D01*
X14316002Y28747936D01*
X15016146Y29448080D01*
X15070639Y29473490D01*
X15128717Y29457927D01*
G37*
%TD.AperFunction*%
%TD*%
%TA.AperFunction,Conductor*%
%TO.N,/GPIO44*%
G36*
X15727333Y10470930D02*
G01*
X17133395Y9992349D01*
X17140123Y9986439D01*
X17140701Y9977503D01*
X17140436Y9976800D01*
X16806856Y9170488D01*
X16800527Y9164154D01*
X16800511Y9164147D01*
X15996391Y8832048D01*
X15987436Y8832057D01*
X15981111Y8838396D01*
X15980533Y8840194D01*
X15601865Y10457186D01*
X15603315Y10466023D01*
X15610589Y10471246D01*
X15613257Y10471554D01*
X15723563Y10471554D01*
X15727333Y10470930D01*
G37*
%TD.AperFunction*%
%TD*%
%TA.AperFunction,Conductor*%
%TO.N,/GPIO22*%
G36*
X5672623Y31140260D02*
G01*
X5980094Y31013853D01*
X5986443Y31007538D01*
X5986459Y31007498D01*
X6113689Y30699386D01*
X6113679Y30690431D01*
X6107341Y30684106D01*
X6106437Y30683775D01*
X5654406Y30539313D01*
X5576224Y30514326D01*
X5567237Y30511454D01*
X5563675Y30510899D01*
X5455012Y30510899D01*
X5446739Y30514326D01*
X5443312Y30522599D01*
X5443973Y30526477D01*
X5657156Y31133309D01*
X5663132Y31139979D01*
X5672073Y31140470D01*
X5672623Y31140260D01*
G37*
%TD.AperFunction*%
%TD*%
%TA.AperFunction,Conductor*%
%TO.N,/GPIO43*%
G36*
X15303893Y37241533D02*
G01*
X15304767Y37239842D01*
X15432230Y36934404D01*
X15432253Y36925449D01*
X15432237Y36925409D01*
X15303904Y36616536D01*
X15297565Y36610211D01*
X15288722Y36610175D01*
X14814430Y36801524D01*
X14810534Y36804101D01*
X14732819Y36881816D01*
X14729392Y36890089D01*
X14732819Y36898362D01*
X14734886Y36900007D01*
X15287774Y37245261D01*
X15296604Y37246735D01*
X15303893Y37241533D01*
G37*
%TD.AperFunction*%
%TD*%
%TA.AperFunction,Conductor*%
%TO.N,/GPIO20*%
G36*
X4476728Y30887121D02*
G01*
X4613744Y30830791D01*
X4784240Y30760695D01*
X4790589Y30754380D01*
X4791491Y30749850D01*
X4790820Y30416958D01*
X4787376Y30408692D01*
X4780966Y30405429D01*
X4275406Y30324651D01*
X4266696Y30326729D01*
X4265287Y30327931D01*
X4186180Y30407038D01*
X4182753Y30415311D01*
X4184431Y30421348D01*
X4462259Y30882341D01*
X4469464Y30887656D01*
X4476728Y30887121D01*
G37*
%TD.AperFunction*%
%TD*%
%TA.AperFunction,Conductor*%
%TO.N,/GPIO18*%
G36*
X6132683Y32246092D02*
G01*
X6136971Y32238231D01*
X6137037Y32237019D01*
X6137986Y31904879D01*
X6134583Y31896597D01*
X6134542Y31896556D01*
X5898188Y31661154D01*
X5889908Y31657744D01*
X5881642Y31661188D01*
X5881275Y31661573D01*
X5524632Y32053816D01*
X5521589Y32061687D01*
X5521589Y32173647D01*
X5525016Y32181920D01*
X5532042Y32185281D01*
X6124094Y32248620D01*
X6132683Y32246092D01*
G37*
%TD.AperFunction*%
%TD*%
%TA.AperFunction,Conductor*%
%TO.N,/GPIO19*%
G36*
X2472697Y13200114D02*
G01*
X2552523Y13120288D01*
X2555950Y13112015D01*
X2555919Y13111168D01*
X2454787Y11717845D01*
X2450771Y11709842D01*
X2443127Y11706992D01*
X1572125Y11706300D01*
X1563849Y11709720D01*
X1561302Y11713534D01*
X1228801Y12518626D01*
X1228810Y12527581D01*
X1234006Y12533359D01*
X2458817Y13202111D01*
X2467721Y13203067D01*
X2472697Y13200114D01*
G37*
%TD.AperFunction*%
%TD*%
%TA.AperFunction,Conductor*%
%TO.N,/GPIO41*%
G36*
X16123383Y18322889D02*
G01*
X17422107Y17423589D01*
X17426957Y17416062D01*
X17425065Y17407309D01*
X17423728Y17405706D01*
X16809139Y16789733D01*
X16800870Y16786297D01*
X16800848Y16786297D01*
X15928606Y16786990D01*
X15920335Y16790423D01*
X15916915Y16798699D01*
X15916947Y16799554D01*
X16025225Y18234322D01*
X16028618Y18241712D01*
X16108450Y18321544D01*
X16116722Y18324970D01*
X16123383Y18322889D01*
G37*
%TD.AperFunction*%
%TD*%
%TA.AperFunction,Conductor*%
%TO.N,/GPIO16*%
G36*
X5363365Y33765876D02*
G01*
X5598738Y33531844D01*
X5602189Y33523580D01*
X5601294Y33519058D01*
X5473738Y33212057D01*
X5467399Y33205732D01*
X5459500Y33205361D01*
X5007518Y33344082D01*
X5002678Y33346994D01*
X4924371Y33425301D01*
X4920944Y33433574D01*
X4924371Y33441847D01*
X4925524Y33442858D01*
X5034334Y33526307D01*
X5347998Y33766864D01*
X5356646Y33769179D01*
X5363365Y33765876D01*
G37*
%TD.AperFunction*%
%TD*%
%TA.AperFunction,Conductor*%
%TO.N,/GPIO44*%
G36*
X12681106Y37490309D02*
G01*
X12687421Y37483960D01*
X12687570Y37483578D01*
X12897266Y36917962D01*
X12896929Y36909014D01*
X12894569Y36905622D01*
X12815378Y36826431D01*
X12807105Y36823004D01*
X12803038Y36823734D01*
X12237422Y37033430D01*
X12230856Y37039519D01*
X12230519Y37048467D01*
X12230658Y37048826D01*
X12357437Y37357194D01*
X12363748Y37363539D01*
X12672152Y37490332D01*
X12681106Y37490309D01*
G37*
%TD.AperFunction*%
%TD*%
%TA.AperFunction,Conductor*%
%TO.N,/GPIO42*%
G36*
X15727333Y15550930D02*
G01*
X17133395Y15072349D01*
X17140123Y15066439D01*
X17140701Y15057503D01*
X17140436Y15056800D01*
X16806856Y14250488D01*
X16800527Y14244154D01*
X16800511Y14244147D01*
X15996391Y13912048D01*
X15987436Y13912057D01*
X15981111Y13918396D01*
X15980533Y13920194D01*
X15601865Y15537186D01*
X15603315Y15546023D01*
X15610589Y15551246D01*
X15613257Y15551554D01*
X15723563Y15551554D01*
X15727333Y15550930D01*
G37*
%TD.AperFunction*%
%TD*%
%TA.AperFunction,Conductor*%
%TO.N,/GPIO20*%
G36*
X2554795Y10615890D02*
G01*
X2634645Y10536040D01*
X2638072Y10527767D01*
X2637966Y10526198D01*
X2455370Y9177123D01*
X2450865Y9169384D01*
X2443785Y9166992D01*
X1572125Y9166300D01*
X1563849Y9169720D01*
X1561302Y9173534D01*
X1229023Y9978089D01*
X1229032Y9987044D01*
X1234787Y9993110D01*
X2541473Y10618173D01*
X2550415Y10618650D01*
X2554795Y10615890D01*
G37*
%TD.AperFunction*%
%TD*%
%TA.AperFunction,Conductor*%
%TO.N,/GPIO23*%
G36*
X4775401Y28817585D02*
G01*
X4939013Y28653313D01*
X5009737Y28582302D01*
X5013147Y28574022D01*
X5009703Y28565756D01*
X5008225Y28564509D01*
X4552543Y28240628D01*
X4545765Y28238465D01*
X4434700Y28238465D01*
X4426427Y28241892D01*
X4423000Y28250165D01*
X4423000Y28808337D01*
X4426427Y28816610D01*
X4434665Y28820037D01*
X4767123Y28820987D01*
X4775401Y28817585D01*
G37*
%TD.AperFunction*%
%TD*%
%TA.AperFunction,Conductor*%
%TO.N,/GPIO41*%
G36*
X14843564Y35943104D02*
G01*
X15153418Y35815714D01*
X15159767Y35809399D01*
X15159790Y35809342D01*
X15285799Y35502845D01*
X15285776Y35493890D01*
X15279427Y35487575D01*
X15277345Y35486938D01*
X15070526Y35444214D01*
X15069999Y35444130D01*
X15068455Y35443956D01*
X15067399Y35443837D01*
X15066748Y35443800D01*
X15056275Y35443800D01*
X15046068Y35441470D01*
X15045429Y35441362D01*
X15031852Y35439832D01*
X15013097Y35437719D01*
X15013093Y35437718D01*
X15005343Y35432849D01*
X15001724Y35431350D01*
X14992799Y35429312D01*
X14991607Y35428738D01*
X14991571Y35428812D01*
X14988102Y35427188D01*
X14657040Y35358798D01*
X14648245Y35360480D01*
X14646400Y35361983D01*
X14567252Y35441131D01*
X14563825Y35449404D01*
X14565254Y35455007D01*
X14828846Y35937889D01*
X14835818Y35943508D01*
X14843564Y35943104D01*
G37*
%TD.AperFunction*%
%TD*%
%TA.AperFunction,Conductor*%
%TO.N,/GPIO40*%
G36*
X17215062Y36149551D02*
G01*
X17215227Y36149176D01*
X17343619Y35841506D01*
X17343642Y35832551D01*
X17343619Y35832494D01*
X17215227Y35524825D01*
X17208878Y35518510D01*
X17199923Y35518533D01*
X17199548Y35518698D01*
X16651319Y35770370D01*
X16645230Y35776936D01*
X16644500Y35781003D01*
X16644500Y35892998D01*
X16647927Y35901271D01*
X16651316Y35903630D01*
X17199549Y36155304D01*
X17208496Y36155640D01*
X17215062Y36149551D01*
G37*
%TD.AperFunction*%
%TD*%
%TA.AperFunction,Conductor*%
%TO.N,/GPIO40*%
G36*
X15727333Y20630930D02*
G01*
X17133395Y20152349D01*
X17140123Y20146439D01*
X17140701Y20137503D01*
X17140436Y20136800D01*
X16806856Y19330488D01*
X16800527Y19324154D01*
X16800511Y19324147D01*
X15996391Y18992048D01*
X15987436Y18992057D01*
X15981111Y18998396D01*
X15980533Y19000194D01*
X15601865Y20617186D01*
X15603315Y20626023D01*
X15610589Y20631246D01*
X15613257Y20631554D01*
X15723563Y20631554D01*
X15727333Y20630930D01*
G37*
%TD.AperFunction*%
%TD*%
%TA.AperFunction,Conductor*%
%TO.N,/GPIO19*%
G36*
X5118533Y31831468D02*
G01*
X5119071Y31830351D01*
X5246830Y31524204D01*
X5246853Y31515249D01*
X5246837Y31515209D01*
X5118732Y31206887D01*
X5112393Y31200562D01*
X5103438Y31200571D01*
X5103011Y31200759D01*
X4613826Y31427264D01*
X4610469Y31429608D01*
X4533170Y31506907D01*
X4529743Y31515180D01*
X4533170Y31523453D01*
X4535816Y31525438D01*
X5102652Y31836106D01*
X5111552Y31837076D01*
X5118533Y31831468D01*
G37*
%TD.AperFunction*%
%TD*%
%TA.AperFunction,Conductor*%
%TO.N,/GPIO43*%
G36*
X16070345Y13232700D02*
G01*
X17137110Y12533634D01*
X17142151Y12526234D01*
X17141511Y12519383D01*
X16808697Y11713534D01*
X16802372Y11707195D01*
X16797874Y11706300D01*
X15928159Y11706991D01*
X15919888Y11710424D01*
X15916468Y11718700D01*
X15916477Y11719150D01*
X15948168Y12526234D01*
X15972407Y13143536D01*
X15975824Y13151348D01*
X16055663Y13231187D01*
X16063935Y13234613D01*
X16070345Y13232700D01*
G37*
%TD.AperFunction*%
%TD*%
%TA.AperFunction,Conductor*%
%TO.N,/GPIO17*%
G36*
X5347162Y32999951D02*
G01*
X5347327Y32999576D01*
X5475719Y32691906D01*
X5475742Y32682951D01*
X5475719Y32682894D01*
X5347327Y32375225D01*
X5340978Y32368910D01*
X5332023Y32368933D01*
X5331648Y32369098D01*
X4783419Y32620770D01*
X4777330Y32627336D01*
X4776600Y32631403D01*
X4776600Y32743398D01*
X4780027Y32751671D01*
X4783416Y32754030D01*
X5331649Y33005704D01*
X5340596Y33006040D01*
X5347162Y32999951D01*
G37*
%TD.AperFunction*%
%TD*%
%TA.AperFunction,Conductor*%
%TO.N,/GPIO21*%
G36*
X4550499Y30152282D02*
G01*
X4785938Y29918184D01*
X4789389Y29909920D01*
X4788494Y29905398D01*
X4660972Y29598478D01*
X4654633Y29592153D01*
X4646642Y29591811D01*
X4192654Y29735264D01*
X4187906Y29738147D01*
X4109648Y29816405D01*
X4106221Y29824678D01*
X4109648Y29832951D01*
X4110874Y29834017D01*
X4535216Y30153335D01*
X4543886Y30155570D01*
X4550499Y30152282D01*
G37*
%TD.AperFunction*%
%TD*%
%TA.AperFunction,Conductor*%
%TO.N,/GPIO16*%
G36*
X2765016Y20628127D02*
G01*
X2768443Y20619854D01*
X2768135Y20617186D01*
X2389466Y19000194D01*
X2384243Y18992920D01*
X2375406Y18991470D01*
X2373608Y18992048D01*
X1569488Y19324147D01*
X1563150Y19330471D01*
X1229563Y20136802D01*
X1229567Y20145755D01*
X1235901Y20152084D01*
X1236597Y20152347D01*
X2642667Y20630930D01*
X2646437Y20631554D01*
X2756743Y20631554D01*
X2765016Y20628127D01*
G37*
%TD.AperFunction*%
%TD*%
%TA.AperFunction,Conductor*%
%TO.N,/GPIO18*%
G36*
X2779507Y15546223D02*
G01*
X2782325Y15544146D01*
X2862145Y15464326D01*
X2865572Y15456053D01*
X2865048Y15452592D01*
X2744584Y15063611D01*
X2741681Y15058799D01*
X2724294Y15041411D01*
X2721099Y15039143D01*
X2712851Y15035171D01*
X2692567Y15009737D01*
X2692130Y15009248D01*
X2684724Y15001839D01*
X2679161Y14992987D01*
X2678781Y14992452D01*
X2658489Y14967003D01*
X2658488Y14967002D01*
X2656450Y14958076D01*
X2654951Y14954457D01*
X2650082Y14946707D01*
X2650081Y14946703D01*
X2646440Y14914379D01*
X2646330Y14913732D01*
X2644000Y14903525D01*
X2644000Y14893053D01*
X2643963Y14892397D01*
X2640320Y14860069D01*
X2640320Y14860065D01*
X2643343Y14851427D01*
X2644000Y14847562D01*
X2644000Y14740589D01*
X2643476Y14737128D01*
X2390121Y13919041D01*
X2384400Y13912152D01*
X2375484Y13911326D01*
X2374479Y13911688D01*
X1568785Y14244438D01*
X1562447Y14250762D01*
X1229687Y15056482D01*
X1229696Y15065435D01*
X1236035Y15071760D01*
X1237029Y15072119D01*
X2770591Y15547049D01*
X2779507Y15546223D01*
G37*
%TD.AperFunction*%
%TD*%
%TA.AperFunction,Conductor*%
%TO.N,/GPIO22*%
G36*
X2419896Y5590485D02*
G01*
X2499745Y5510636D01*
X2503172Y5502363D01*
X2503165Y5501957D01*
X2454392Y4098286D01*
X2450680Y4090137D01*
X2442708Y4086992D01*
X1572125Y4086300D01*
X1563849Y4089720D01*
X1561302Y4093534D01*
X1228700Y4898872D01*
X1228709Y4907824D01*
X1233648Y4913458D01*
X2405759Y5592337D01*
X2414636Y5593518D01*
X2419896Y5590485D01*
G37*
%TD.AperFunction*%
%TD*%
%TA.AperFunction,Conductor*%
%TO.N,/GPIO17*%
G36*
X2261550Y18321543D02*
G01*
X2341380Y18241713D01*
X2344774Y18234320D01*
X2347063Y18203983D01*
X2344268Y18195476D01*
X2341729Y18193265D01*
X2341294Y18192986D01*
X2341288Y18192980D01*
X2251370Y18089210D01*
X2194330Y17964310D01*
X2174790Y17828400D01*
X2194330Y17692491D01*
X2194331Y17692489D01*
X2251371Y17567589D01*
X2341289Y17463819D01*
X2401160Y17425342D01*
X2406267Y17417986D01*
X2406501Y17416379D01*
X2453051Y16799570D01*
X2450256Y16791063D01*
X2442264Y16787023D01*
X2441393Y16786990D01*
X1569151Y16786297D01*
X1560877Y16789716D01*
X946270Y17405708D01*
X942853Y17413983D01*
X946289Y17422252D01*
X947885Y17423584D01*
X2246617Y18322890D01*
X2255369Y18324781D01*
X2261550Y18321543D01*
G37*
%TD.AperFunction*%
%TD*%
%TA.AperFunction,Conductor*%
%TO.N,/GPIO42*%
G36*
X15418424Y36432679D02*
G01*
X15954288Y36381561D01*
X15962197Y36377364D01*
X15964876Y36369947D01*
X15965823Y36038404D01*
X15962420Y36030122D01*
X15958589Y36027557D01*
X15650979Y35900534D01*
X15642024Y35900544D01*
X15636370Y35905516D01*
X15624132Y35926803D01*
X15622698Y35930960D01*
X15620096Y35949061D01*
X15563056Y36073961D01*
X15531390Y36110505D01*
X15493892Y36153781D01*
X15492591Y36155612D01*
X15407172Y36304192D01*
X15405615Y36310023D01*
X15405615Y36421031D01*
X15409042Y36429304D01*
X15417315Y36432731D01*
X15418424Y36432679D01*
G37*
%TD.AperFunction*%
%TD*%
%TA.AperFunction,Conductor*%
%TO.N,/GPIO23*%
G36*
X2779507Y2846223D02*
G01*
X2782325Y2844146D01*
X2862145Y2764326D01*
X2865572Y2756053D01*
X2865048Y2752592D01*
X2390121Y1219041D01*
X2384400Y1212152D01*
X2375484Y1211326D01*
X2374479Y1211688D01*
X1568785Y1544438D01*
X1562447Y1550762D01*
X1229687Y2356482D01*
X1229696Y2365435D01*
X1236035Y2371760D01*
X1237029Y2372119D01*
X2770591Y2847049D01*
X2779507Y2846223D01*
G37*
%TD.AperFunction*%
%TD*%
%TA.AperFunction,Conductor*%
%TO.N,/GPIO21*%
G36*
X2779507Y7926223D02*
G01*
X2782325Y7924146D01*
X2862145Y7844326D01*
X2865572Y7836053D01*
X2865048Y7832592D01*
X2390121Y6299041D01*
X2384400Y6292152D01*
X2375484Y6291326D01*
X2374479Y6291688D01*
X1568785Y6624438D01*
X1562447Y6630762D01*
X1229687Y7436482D01*
X1229696Y7445435D01*
X1236035Y7451760D01*
X1237029Y7452119D01*
X2770591Y7927049D01*
X2779507Y7926223D01*
G37*
%TD.AperFunction*%
%TD*%
M02*
